<?xml version="1.0" standalone="no"?>
<!DOCTYPE svg PUBLIC "-//W3C//DTD SVG 1.1//EN" "http://www.w3.org/Graphics/SVG/1.1/DTD/svg11.dtd" >
<svg xmlns="http://www.w3.org/2000/svg" xmlns:xlink="http://www.w3.org/1999/xlink" version="1.1">
<metadata>
Created by FontForge 20201107 at Fri Nov 18 10:06:55 2022
 By 
Copyright (c) 2022 by beetype. All rights reserved.
</metadata>
<defs>
<font id="NeueLeiden-Regular" horiz-adv-x="0" >
  <font-face 
    font-family="Neue Leiden"
    font-weight="400"
    font-stretch="normal"
    units-per-em="1000"
    panose-1="0 0 0 0 0 0 0 0 0 0"
    ascent="800"
    descent="-200"
    x-height="507"
    cap-height="660"
    bbox="18 -274 1617 952"
    underline-thickness="50"
    underline-position="-125"
    unicode-range="U+0020-FB02"
  />
<missing-glyph horiz-adv-x="663" 
d="M105 115.5q-32 12.5 -54 36t-22 54.5q0 40 34 78t94.5 65t134.5 35l9 1q-7 8 -13 22t-6 24q0 24 18 42q5 5 5 7q0 4 -4 8q-4 5 -38 45q-2 2 -2 7t3.5 8.5t7.5 3.5q7 0 11 -7l30 -49q4 -7 6 -8t9 0q5 2 14 2q8 0 13 -2l5 -1q2 0 4 3t4 5l32 51q5 5 9 5q6 0 8.5 -6
t-1.5 -12l-17 -22l-19 -26q-3 -4 3 -10q20 -23 20 -45q0 -19 -18 -47q65 -10 122.5 -36.5t92 -62.5t34.5 -74q0 -28 -22 -50.5t-54.5 -35.5t-59.5 -13q-42 0 -82 28t-64 73l-16 29l-18 -32q-24 -43 -64 -74.5t-88 -31.5q-29 0 -61 12.5zM72.5 167q17.5 -18 43.5 -28t50 -10
q74 0 130 95q3 5 11 19t15.5 23t13.5 9q7 0 14 -9t14 -21.5t11 -19.5q28 -44 58 -65.5t65 -21.5q21 0 47.5 10t44.5 27t17 36q-2 43 -50.5 77t-112.5 53t-108 19q-57 0 -123.5 -20t-112 -55t-45.5 -78q0 -22 17.5 -40z" />
    <glyph glyph-name="fi" unicode="fi" horiz-adv-x="517" 
d="M86 354h-57v68h57v171q0 27 3 40.5t15 20t37 6.5h305v-68h-287v-170h231q22 0 31.5 -6.5t11.5 -19t2 -41.5v-287h53v-68h-66q-30 0 -42.5 6.5t-15 19.5t-2.5 42v286h-203v-354h-74z" />
    <glyph glyph-name="fl" unicode="fl" horiz-adv-x="522" 
d="M86 354h-57v68h57v171q0 27 3 40.5t15 20t37 6.5h299v-592h53v-68h-71q-25 0 -37 7t-15 20.5t-3 40.5v524h-208v-170h115v-68h-115v-354h-74z" />
    <glyph glyph-name="TT" unicode="TT" horiz-adv-x="718" 
d="M225 592h-196v68h660v-68h-196v-592h-72v592h-124v-592h-72v592z" />
    <glyph glyph-name="ff" unicode="ff" horiz-adv-x="628" 
d="M86 354h-57v68h57v171q0 27 3 40.5t15 20t37 6.5h167v-68h-149v-170h193v171q0 27 3 40.5t15 20t37 6.5h192v-68h-174v-170h127v-68h-127v-354h-74l1 354h-193v-354h-74z" />
    <glyph glyph-name="ffj" unicode="ffj" horiz-adv-x="653" 
d="M86 354h-57v68h57v171q0 27 3 40.5t15 20t37 6.5h167v-68h-149v-170h178v171q0 27 3 40.5t15 20t37 6.5h192v-68h-174v-170h214v-576q0 -29 -2.5 -42t-15 -19.5t-42.5 -6.5h-191v68h178v508h-141v-354h-74l1 354h-178v-354h-74z" />
    <glyph glyph-name="ffl" unicode="ffl" horiz-adv-x="711" 
d="M86 354h-57v68h57v171q0 27 3 40.5t15 20t37 6.5h167v-68h-149v-170h178v171q0 27 3 40.5t15 20t37 6.5h237v-592h53v-68h-71q-25 0 -37 7t-15 20.5t-3 40.5v524h-146v-170h107v-68h-107v-354h-74l1 354h-178v-354h-74z" />
    <glyph glyph-name="fj" unicode="fj" horiz-adv-x="376" 
d="M33 633.5q3 13.5 15 20t37 6.5h262v-68h-244v-170h244v-576q0 -29 -2.5 -42t-15 -19.5t-42.5 -6.5h-191v68h178v508h-171v-354h-74l1 593q0 27 3 40.5z" />
    <glyph glyph-name="ft" unicode="ft" horiz-adv-x="623" 
d="M86 354h-57v68h57v171q0 27 3 40.5t15 20t37 6.5h269v-238h122v-68h-122v-286h184v-68h-202q-25 0 -36.5 7t-15 20.5t-3.5 40.5v286h-178v-354h-74zM337 422v170h-178v-170h178z" />
    <glyph glyph-name="ti" unicode="ti" horiz-adv-x="535" 
d="M119.5 7q-11.5 7 -15 20.5t-3.5 40.5v371h-72v68h72v153h73v-153h233q22 0 31.5 -6.5t12 -19.5t2.5 -41v-372h53v-68h-66q-30 0 -42.5 6.5t-15 19t-2.5 42.5v371h-206v-371h129v-68h-147q-25 0 -36.5 7z" />
    <glyph glyph-name="tj" unicode="tj" horiz-adv-x="452" 
d="M119.5 7q-11.5 7 -15 20.5t-3.5 40.5v371h-72v68h72v153h73v-153h249v-576q0 -30 -2.5 -42.5t-15 -19t-42.5 -6.5h-191v68h178v508h-176v-371h129v-68h-147q-25 0 -36.5 7z" />
    <glyph glyph-name="tt" unicode="tt" horiz-adv-x="567" 
d="M119.5 7q-11.5 7 -15 20.5t-3.5 40.5v371h-72v68h72v153h73v-153h147v153h73v-153h122v-68h-122v-371h144v-68h-162q-25 0 -36.5 7t-15 20.5t-3.5 40.5v371h-147v-371h119v-68h-137q-25 0 -36.5 7z" />
    <glyph glyph-name=".notdef" horiz-adv-x="663" 
d="M105 115.5q-32 12.5 -54 36t-22 54.5q0 40 34 78t94.5 65t134.5 35l9 1q-7 8 -13 22t-6 24q0 24 18 42q5 5 5 7q0 4 -4 8q-4 5 -38 45q-2 2 -2 7t3.5 8.5t7.5 3.5q7 0 11 -7l30 -49q4 -7 6 -8t9 0q5 2 14 2q8 0 13 -2l5 -1q2 0 4 3t4 5l32 51q5 5 9 5q6 0 8.5 -6
t-1.5 -12l-17 -22l-19 -26q-3 -4 3 -10q20 -23 20 -45q0 -19 -18 -47q65 -10 122.5 -36.5t92 -62.5t34.5 -74q0 -28 -22 -50.5t-54.5 -35.5t-59.5 -13q-42 0 -82 28t-64 73l-16 29l-18 -32q-24 -43 -64 -74.5t-88 -31.5q-29 0 -61 12.5zM72.5 167q17.5 -18 43.5 -28t50 -10
q74 0 130 95q3 5 11 19t15.5 23t13.5 9q7 0 14 -9t14 -21.5t11 -19.5q28 -44 58 -65.5t65 -21.5q21 0 47.5 10t44.5 27t17 36q-2 43 -50.5 77t-112.5 53t-108 19q-57 0 -123.5 -20t-112 -55t-45.5 -78q0 -22 17.5 -40z" />
    <glyph glyph-name=".null" 
 />
    <glyph glyph-name="nonmarkingreturn" horiz-adv-x="333" 
 />
    <glyph glyph-name="space" unicode=" " horiz-adv-x="427" 
 />
    <glyph glyph-name="space" unicode="&#xa0;" horiz-adv-x="427" 
 />
    <glyph glyph-name="exclam" unicode="!" horiz-adv-x="176" 
d="M50 660h73v-501h-73v501zM45 91q16 15 42 15q28 0 44 -15t16 -38q0 -22 -17 -37.5t-43 -15.5t-42 15.5t-16 37.5q0 23 16 38z" />
    <glyph glyph-name="quotedbl" unicode="&#x22;" horiz-adv-x="266" 
d="M26 660h69l55 -245h-68zM113 660h69l55 -245h-68z" />
    <glyph glyph-name="numbersign" unicode="#" horiz-adv-x="691" 
d="M173 241h-144l26 68h146l28 68h-144l25 65h147l92 218h73l-93 -218h68l92 218h73l-93 -218h193l-26 -65h-194l-28 -68h194l-28 -68h-194l-102 -241h-73l102 241h-67l-102 -241h-73zM341 309l28 68h-67l-28 -68h67z" />
    <glyph glyph-name="dollar" unicode="$" horiz-adv-x="532" 
d="M363 569.5q-40 32.5 -120 32.5q-69 0 -105 -25.5t-36 -83.5q0 -34 17.5 -55.5t43.5 -33t70 -25.5l35 -12q7 -2 17 -5.5t24 -7.5q60 -19 99 -37t67 -54t28 -94t-29 -98t-75.5 -60t-99.5 -21v-57h-58v65q-70 12 -119.5 59t-70.5 136h73q18 -73 60.5 -104t116.5 -31
q55 0 91.5 27.5t36.5 83.5q0 33 -19 54.5t-46.5 33.5t-72.5 26q-24 7 -40 13l-34 11q-58 18 -96 36.5t-65 55t-27 94.5q0 83 51 126.5t136 49.5v57h58v-57q88 -7 144 -57t76 -145h-74q-17 70 -57 102.5z" />
    <glyph glyph-name="percent" unicode="%" horiz-adv-x="1169" 
d="M146.5 139.5q-52.5 32.5 -85 96.5t-32.5 153t32.5 152.5t85 95.5t112.5 32q63 0 116.5 -32t85.5 -95.5t32 -152.5q0 -90 -32 -153.5t-85 -96t-117 -32.5q-60 0 -112.5 32.5zM112 263q23 -51 62 -75.5t85 -24.5q77 0 125.5 57t48.5 169t-48.5 168t-125.5 56
q-46 0 -85 -24.5t-62 -74.5t-23 -125t23 -126zM686 659h73l-278 -660h-73zM707.5 429.5q32.5 63.5 85 95.5t112.5 32q63 0 116.5 -32t85.5 -95.5t32 -152.5q0 -90 -32 -153.5t-85 -96t-117 -32.5q-60 0 -112.5 32.5t-85 96.5t-32.5 153t32.5 152.5zM758 151q23 -51 62 -75.5
t85 -24.5q77 0 125.5 57t48.5 169t-48.5 168t-125.5 56q-46 0 -85 -24.5t-62 -74.5t-23 -125t23 -126z" />
    <glyph glyph-name="ampersand" unicode="&#x26;" horiz-adv-x="677" 
d="M137.5 15q-48.5 25 -75.5 69t-27 98q0 74 48.5 123.5t119.5 58.5l-24 22q-63 65 -63 128q0 46 25 81.5t68.5 55t98.5 19.5q104 0 163.5 -62.5t57.5 -169.5h-75q-2 81 -39.5 127t-104.5 46q-50 0 -84 -29.5t-34 -73.5q0 -33 18 -61.5t61 -70.5l387 -376h-91l-144 135
q-9 -66 -58.5 -105.5t-117.5 -39.5q-61 0 -109.5 25zM126.5 119q19.5 -31 52.5 -49.5t72 -18.5q34 0 64 17t48 48t17 70l-135 132q-58 -2 -98 -39t-40 -94q0 -35 19.5 -66z" />
    <glyph glyph-name="quotesingle" unicode="'" horiz-adv-x="182" 
d="M29 660h69l55 -245h-68z" />
    <glyph glyph-name="parenleft" unicode="(" horiz-adv-x="377" 
d="M188 -2q-72 38 -115.5 121t-43.5 210t43.5 209t115.5 120t160 39v-72q-118 -2 -184.5 -73.5t-66.5 -222.5q0 -152 66.5 -224t184.5 -74v-72q-88 1 -160 39z" />
    <glyph glyph-name="parenright" unicode=")" horiz-adv-x="377" 
d="M213.5 105q66.5 72 66.5 224q0 151 -66.5 222.5t-184.5 73.5v72q88 -1 160 -39t115.5 -120t43.5 -209t-43.5 -210t-115.5 -121t-160 -39v72q118 2 184.5 74z" />
    <glyph glyph-name="asterisk" unicode="*" horiz-adv-x="456" 
d="M199 390l-92 -93l-42 42l97 97h-133v59h131l-89 89l41 41l86 -85v120h59v-128l91 91l42 -42l-87 -86h124v-59h-126l93 -93l-41 -41l-96 96v-139h-58v131z" />
    <glyph glyph-name="plus" unicode="+" horiz-adv-x="436" 
d="M184 273h-155v68h154v161h68v-161h156v-68h-156v-172h-67v172z" />
    <glyph glyph-name="comma" unicode="," horiz-adv-x="168" 
d="M71 75h68l-41 -181h-69z" />
    <glyph glyph-name="hyphen" unicode="-" horiz-adv-x="427" 
d="M29 283h369v-68h-369v68z" />
    <glyph glyph-name="period" unicode="." horiz-adv-x="176" 
d="M45.5 16q-16.5 16 -16.5 39t16.5 38.5t42.5 15.5t42.5 -15.5t16.5 -38.5t-16.5 -39t-42.5 -16t-42.5 16z" />
    <glyph glyph-name="slash" unicode="/" horiz-adv-x="409" 
d="M307 660h73l-278 -660h-73z" />
    <glyph glyph-name="zero" unicode="0" horiz-adv-x="620" 
d="M171.5 29.5q-63.5 39.5 -103 116.5t-39.5 185t39.5 185t103 115.5t135.5 38.5q77 0 141.5 -38.5t103.5 -115t39 -185.5t-39 -186t-103.5 -116t-141.5 -39q-72 0 -135.5 39.5zM130 178.5q28 -61.5 74.5 -91t102.5 -29.5q93 0 152 68.5t59 204.5t-58.5 203.5t-152.5 67.5
q-56 0 -102.5 -29.5t-74.5 -90.5t-28 -151q0 -91 28 -152.5z" />
    <glyph glyph-name="one" unicode="1" horiz-adv-x="309" 
d="M29 68h91v524h-76v68h149v-592h87v-68h-251v68z" />
    <glyph glyph-name="two" unicode="2" horiz-adv-x="530" 
d="M108 216.5q25 37.5 67.5 59t111.5 37.5t105 47.5t36 85.5q0 77 -46 116.5t-128 39.5q-71 0 -111.5 -44.5t-40.5 -122.5h-73q-1 71 28 124.5t81 82t116 28.5q109 0 178 -56.5t69 -167.5q0 -86 -57 -133.5t-150 -69.5q-49 -11 -77 -24t-44.5 -36.5t-22.5 -64.5l-7 -50h340
v-68h-420l13 118q7 61 32 98.5z" />
    <glyph glyph-name="three" unicode="3" horiz-adv-x="542" 
d="M456.5 361.5q56.5 -51.5 56.5 -147.5q0 -66 -29 -117t-83.5 -79t-127.5 -28q-68 0 -123 33t-87 89t-34 123h73q10 -87 54.5 -132t116.5 -45q167 0 167 156q0 88 -61.5 118.5t-161.5 30.5v58l157 173h-322v68l428 -2v-55l-163 -178q83 -14 139.5 -65.5z" />
    <glyph glyph-name="four" unicode="4" horiz-adv-x="559" 
d="M316 660h65v-419h149v-73h-149v-168h-73v168l-279 1v54zM308 241v276l-180 -276h180z" />
    <glyph glyph-name="five" unicode="5" horiz-adv-x="546" 
d="M86 660h368v-68h-306l-28 -166q49 88 167 88q70 0 122 -31.5t80 -89.5t28 -134q0 -74 -30.5 -135.5t-86 -97.5t-127.5 -36q-61 0 -110 27t-81 73t-42 103h77q16 -62 56.5 -96t99.5 -34q78 0 124.5 54t46.5 142q0 90 -44 138.5t-128 48.5q-69 0 -108.5 -32.5t-49.5 -94.5
h-85z" />
    <glyph glyph-name="six" unicode="6" horiz-adv-x="542" 
d="M364.5 576q-41.5 26 -94.5 26q-167 0 -167 -197v-43q22 55 65.5 85.5t115.5 30.5q68 0 120 -28.5t80.5 -81t28.5 -123.5q0 -74 -30 -132t-85.5 -90.5t-128.5 -32.5q-72 0 -126.5 32.5t-84 90.5t-29.5 132v156q0 132 61.5 200.5t181.5 68.5q94 0 152 -46t79 -123l-83 1
q-14 48 -55.5 74zM146.5 110.5q43.5 -47.5 122.5 -47.5t125 49t46 130q0 82 -43.5 126.5t-127.5 44.5q-81 0 -123.5 -48t-42.5 -123q0 -84 43.5 -131.5z" />
    <glyph glyph-name="seven" unicode="7" horiz-adv-x="453" 
d="M225 0h-74l199 592h-321v68h395v-58z" />
    <glyph glyph-name="eight" unicode="8" horiz-adv-x="505" 
d="M86 42q-56 52 -57 139q0 60 28.5 101t74.5 60q-103 37 -103 146q0 85 58 133.5t162 48.5q103 0 165 -48.5t62 -133.5q0 -55 -28 -92.5t-79 -53.5q52 -20 79.5 -58.5t27.5 -102.5q0 -86 -59.5 -138.5t-167.5 -52.5q-107 0 -163 52zM249 58q77 0 115 32.5t38 90.5
q0 65 -37 98t-116 33q-147 0 -147 -131q0 -123 147 -123zM249 376q78 0 115.5 29t37.5 81q0 54 -37 85t-116 31q-75 0 -111 -30.5t-36 -83.5q0 -112 147 -112z" />
    <glyph glyph-name="nine" unicode="9" horiz-adv-x="542" 
d="M177.5 83q41.5 -26 94.5 -26q167 0 167 197v43q-22 -55 -65.5 -85.5t-115.5 -30.5q-68 0 -120 28.5t-80.5 81t-28.5 123.5q0 74 30 132t85.5 90.5t128.5 32.5q72 0 126.5 -32.5t84 -90.5t29.5 -132v-156q0 -132 -61.5 -200.5t-181.5 -68.5q-94 0 -152 46t-79 123l83 -1
q14 -48 55.5 -74zM145.5 290.5q43.5 -44.5 127.5 -44.5q81 0 123.5 48t42.5 123q0 84 -43.5 131.5t-122.5 47.5t-125 -49t-46 -130q0 -82 43.5 -126.5z" />
    <glyph glyph-name="colon" unicode=":" horiz-adv-x="177" 
d="M46.5 88q-16.5 16 -16.5 39t16.5 38.5t42.5 15.5t42.5 -15.5t16.5 -38.5t-16.5 -39t-42.5 -16t-42.5 16zM45.5 439q-16.5 16 -16.5 39t16.5 38.5t42.5 15.5t42.5 -15.5t16.5 -38.5t-16.5 -39t-42.5 -16t-42.5 16z" />
    <glyph glyph-name="semicolon" unicode=";" horiz-adv-x="199" 
d="M68.5 439q-16.5 16 -16.5 39t16.5 38.5t42.5 15.5t42.5 -15.5t16.5 -38.5t-16.5 -39t-42.5 -16t-42.5 16zM71 108h68l-41 -181h-69z" />
    <glyph glyph-name="less" unicode="&#x3c;" horiz-adv-x="384" 
d="M29 279l244 210h82l-243 -211l231 -213h-81z" />
    <glyph glyph-name="equal" unicode="=" horiz-adv-x="410" 
d="M29 393h352v-68h-352v68zM29 274h352v-68h-352v68z" />
    <glyph glyph-name="greater" unicode="&#x3e;" horiz-adv-x="385" 
d="M273 278l-244 211h83l244 -210l-233 -214h-81z" />
    <glyph glyph-name="question" unicode="?" horiz-adv-x="528" 
d="M71 264.5q26 36.5 61.5 54.5t94.5 37l33 11l35 12q44 14 70 25.5t43.5 33t17.5 55.5q0 58 -36 83.5t-105 25.5q-85 0 -126.5 -33t-50.5 -102h-74q26 203 247 203q98 0 158 -43t60 -134q0 -58 -27 -94.5t-65 -55t-96 -36.5l-34 -11l-29 -10q-44 -14 -70 -26t-42.5 -34
t-16.5 -57v-42h-74v42q0 59 26 95.5zM46.5 76q14.5 14 38.5 14t38.5 -14t14.5 -33t-14.5 -33.5t-38.5 -14.5t-38.5 14.5t-14.5 33.5t14.5 33z" />
    <glyph glyph-name="at" unicode="@" horiz-adv-x="634" 
d="M173 93q-66 39 -105 111t-39 169q0 96 38 163t103.5 100.5t146.5 33.5t146.5 -33t103.5 -99.5t38 -162.5q-2 -197 -117 -197q-35 0 -56 24t-23 57q-36 -71 -120 -71q-64 0 -102 46t-38 122t39 122.5t104 46.5q39 0 70 -19t47 -53v66h48v-223q0 -23 7.5 -41t27.5 -18
q26 0 38 34t11 104q-1 116 -61.5 173.5t-162.5 57.5q-98 0 -159 -58.5t-61 -174.5q0 -85 31 -141t81 -82t109 -26v-70q-79 0 -145 39zM226 268.5q28 -30.5 74 -30.5q43 0 72.5 31t29.5 87q0 54 -28 86.5t-74 32.5t-74 -31t-28 -88t28 -87.5z" />
    <glyph glyph-name="A" unicode="A" horiz-adv-x="686" 
d="M320 660h57l280 -660h-77l-87 200h-296l-90 -200h-78zM462 271l-113 276l-121 -276h234z" />
    <glyph glyph-name="B" unicode="B" horiz-adv-x="526" 
d="M40 11q-11 11 -11 39v560q0 29 11 39.5t38 10.5h179q119 0 178 -47t59 -133q0 -53 -30 -95t-77 -56q53 -19 81.5 -58t28.5 -91q0 -86 -59.5 -133t-180.5 -47h-179q-27 0 -38 11zM257 68q93 0 130 30t37 85q0 54 -39 83t-128 29h-155v-227h155zM257 364q91 0 127.5 30.5
t36.5 87.5q0 56 -36 83t-128 27h-155v-228h155z" />
    <glyph glyph-name="C" unicode="C" horiz-adv-x="700" 
d="M607 109q-46 -56 -111 -87.5t-139 -31.5q-90 0 -165 43.5t-119 119.5t-44 168q0 95 42.5 174t118 124.5t168.5 45.5q77 0 141 -31t108 -86t62 -127h-74q-26 83 -90.5 130t-146.5 47q-71 0 -130 -35t-93 -97.5t-34 -141.5q0 -76 33.5 -137t92 -95.5t130.5 -34.5
q87 0 151.5 49t88.5 132h74q-18 -73 -64 -129z" />
    <glyph glyph-name="D" unicode="D" horiz-adv-x="606" 
d="M46.5 4.5q-10.5 4.5 -14 15.5t-3.5 34v553q0 33 9 43t42 10h186q89 0 159 -34.5t111 -107.5t41 -182q0 -110 -41 -185.5t-111 -113t-159 -37.5h-186q-23 0 -33.5 4.5zM266 68q67 0 121 30.5t85 90.5t31 147q0 135 -64.5 195.5t-172.5 60.5h-164v-524h164z" />
    <glyph glyph-name="E" unicode="E" horiz-adv-x="514" 
d="M38 10.5q-9 10.5 -9 44.5v552q0 33 9 43t42 10h405v-68h-383v-233h327v-68h-327v-223h382v-68h-404q-33 0 -42 10.5z" />
    <glyph glyph-name="F" unicode="F" horiz-adv-x="504" 
d="M38 650q9 10 42 10h395v-68h-373v-233h302v-68h-302v-291h-73v607q0 33 9 43z" />
    <glyph glyph-name="G" unicode="G" horiz-adv-x="720" 
d="M691 68h-46v220q0 28 -5 41t-18 18t-40 5h-227v-68h222q0 -115 -68.5 -170.5t-169.5 -55.5q-67 0 -121 31t-85 92.5t-31 149.5t31 149t85 91.5t121 30.5q86 0 141 -40t74 -118h74q-30 121 -111 173.5t-178 52.5q-83 0 -153.5 -37t-113.5 -113t-43 -188q0 -107 42 -184.5
t111 -117.5t150 -40q86 0 148 37t97 107v-81q0 -33 9 -43t43 -10h62v68z" />
    <glyph glyph-name="H" unicode="H" horiz-adv-x="538" 
d="M29 660h74v-299h333v299h73v-660h-73v293h-334v-293h-73v660z" />
    <glyph glyph-name="I" unicode="I" horiz-adv-x="237" 
d="M29 68h53v524h-53v68h179v-68h-53v-524h53v-68h-179v68z" />
    <glyph glyph-name="J" unicode="J" horiz-adv-x="388" 
d="M341.5 655.5q10.5 -4.5 14 -15t3.5 -33.5v-387q0 -84 -26.5 -132t-79.5 -68t-137 -20h-87v68h87q63 0 99.5 14.5t53.5 51t17 101.5v357h-108v68h130q23 0 33.5 -4.5z" />
    <glyph glyph-name="K" unicode="K" horiz-adv-x="498" 
d="M103 660v-264l268 264h97l-321 -317h259q27 0 40 -5t18 -18t5 -40v-280h-73v275h-293l-1 -275h-73v660h74z" />
    <glyph glyph-name="L" unicode="L" horiz-adv-x="440" 
d="M29 660h73v-592h309v-68h-308q-37 0 -51.5 5.5t-18 19t-3.5 49.5z" />
    <glyph glyph-name="M" unicode="M" horiz-adv-x="659" 
d="M29 660h74l226 -299l234 299h67v-660h-73l1 554l-203 -265h-52l-200 260v-549h-74v660z" />
    <glyph glyph-name="N" unicode="N" horiz-adv-x="569" 
d="M29 660h61l377 -524v524h73l-2 -660h-60l-376 521v-521h-73v660z" />
    <glyph glyph-name="O" unicode="O" horiz-adv-x="710" 
d="M192 33.5q-75 43.5 -119 119.5t-44 168q0 95 42.5 174t118 124.5t168.5 45.5t166.5 -45t115 -123t41.5 -173q0 -93 -43.5 -169.5t-117.5 -120.5t-163 -44q-90 0 -165 43.5zM135 187q33 -61 91 -95t130 -34q70 0 127.5 33.5t91 94t33.5 137.5q0 79 -33 141.5t-90 97.5
t-127 35q-71 0 -129.5 -35.5t-92.5 -97.5t-34 -140q0 -76 33 -137z" />
    <glyph glyph-name="P" unicode="P" horiz-adv-x="500" 
d="M39.5 649.5q10.5 10.5 37.5 10.5h152q130 0 186 -62t56 -155t-56 -155.5t-186 -62.5h-127v-225h-73v610q0 29 10.5 39.5zM229 293q97 0 133 40.5t36 109.5q0 45 -12.5 77t-49.5 52t-107 20h-127v-299h127z" />
    <glyph glyph-name="Q" unicode="Q" horiz-adv-x="710" 
d="M71.5 495q42.5 79 118 124.5t168.5 45.5t166.5 -45t115 -123t41.5 -173q0 -85 -37 -157t-101 -117.5t-144 -55.5l-16 -70h84v-66h-115q-45 0 -45 40q0 13 2 20l15 74q-82 7 -149.5 52.5t-106.5 118t-39 158.5q0 95 42.5 174zM135 187q33 -61 91 -95t130 -34
q70 0 127.5 33.5t91 94t33.5 137.5q0 79 -33 141.5t-90 97.5t-127 35q-71 0 -129.5 -35.5t-92.5 -97.5t-34 -140q0 -76 33 -137z" />
    <glyph glyph-name="R" unicode="R" horiz-adv-x="500" 
d="M39.5 649.5q10.5 10.5 37.5 10.5h162q232 0 232 -206q0 -66 -30 -111.5t-89 -60.5q65 -21 92 -67t27 -114v-101h-73v101q0 45 -12.5 77t-49.5 52t-107 20h-127v-250h-73v610q0 29 10.5 39.5zM229 318q94 0 131.5 35t37.5 101t-35 102t-129 36h-132v-274h127z" />
    <glyph glyph-name="S" unicode="S" horiz-adv-x="538" 
d="M368.5 573.5q-44.5 28.5 -125.5 28.5q-71 0 -108.5 -27t-37.5 -82q0 -36 19 -58t47 -33.5t78 -26.5l27 -8l37 -11q64 -19 104.5 -37t69.5 -54.5t29 -95.5q0 -60 -30 -100.5t-78.5 -59.5t-104.5 -19q-100 0 -166 42.5t-94 141.5h74q20 -61 67 -88.5t123 -27.5q59 0 97 27
t38 84q0 34 -20 56t-49.5 34t-77.5 26l-36 11l-30 9q-62 19 -101 37t-67.5 54.5t-28.5 96.5q0 90 60 133.5t159 43.5q105 0 173 -45t94 -137h-76q-21 57 -65.5 85.5z" />
    <glyph glyph-name="T" unicode="T" horiz-adv-x="523" 
d="M225 592h-196v68h465v-68h-197v-592h-72v592z" />
    <glyph glyph-name="U" unicode="U" horiz-adv-x="637" 
d="M110 69.5q-81 79.5 -81 251.5v339h73v-339q0 -137 60.5 -200t157.5 -63q100 0 157.5 64t57.5 199v339h73v-339q0 -173 -77 -252t-211 -79q-129 0 -210 79.5z" />
    <glyph glyph-name="V" unicode="V" horiz-adv-x="694" 
d="M29 660h78l237 -560l243 560h78l-289 -660h-69z" />
    <glyph glyph-name="W" unicode="W" horiz-adv-x="897" 
d="M107 660l188 -522l126 522h55l125 -522l189 522h78l-242 -660h-65l-112 467l-113 -467h-65l-242 660h78z" />
    <glyph glyph-name="X" unicode="X" horiz-adv-x="633" 
d="M270 329l-240 331h81l198 -272l212 272h81l-254 -331l256 -329h-81l-214 273l-199 -273h-81z" />
    <glyph glyph-name="Y" unicode="Y" horiz-adv-x="605" 
d="M108 660l185 -331l204 331h79l-248 -402v-258h-73v258l-226 402h79z" />
    <glyph glyph-name="Z" unicode="Z" horiz-adv-x="528" 
d="M29 660h470v-55l-369 -532h369v-73h-470v56l371 531h-371v73z" />
    <glyph glyph-name="bracketleft" unicode="[" horiz-adv-x="377" 
d="M29 764h319v-68h-251v-732h251v-68h-319v868z" />
    <glyph glyph-name="backslash" unicode="\" horiz-adv-x="409" 
d="M307 0l-278 660h73l278 -660h-73z" />
    <glyph glyph-name="bracketright" unicode="]" horiz-adv-x="377" 
d="M29 -104v68h251v732h-251v68h319v-868h-319z" />
    <glyph glyph-name="asciicircum" unicode="^" horiz-adv-x="515" 
d="M259 670l227 -384h-64l-162 275l-167 -276h-64z" />
    <glyph glyph-name="underscore" unicode="_" horiz-adv-x="436" 
d="M29 68h378v-68h-378v68z" />
    <glyph glyph-name="a" unicode="a" horiz-adv-x="593" 
d="M140 22.5q-53 32.5 -82 92t-29 137.5q0 79 28.5 139t81 93t122.5 33q67 0 115 -29t74 -83v102h73v-439h41v-68h-62q-33 0 -42.5 9.5t-9.5 39.5v56q-57 -115 -186 -115q-71 0 -124 32.5zM148.5 110.5q46.5 -52.5 127.5 -52.5q79 0 126.5 53t47.5 141q0 60 -22.5 104.5
t-62.5 68.5t-91 24q-78 0 -125 -53.5t-47 -143.5q0 -89 46.5 -141.5z" />
    <glyph glyph-name="b" unicode="b" horiz-adv-x="552" 
d="M103 103v-103h-73l-1 660h73v-255q28 55 75 83.5t111 28.5q71 0 124 -32.5t82 -92.5t29 -140q0 -78 -29 -137.5t-82 -92t-124 -32.5q-128 0 -185 113zM125.5 151.5q22.5 -44.5 62 -69t89.5 -24.5q78 0 125.5 52.5t47.5 141.5q0 91 -45.5 144t-125.5 53t-128 -53t-48 -142
q0 -58 22.5 -102.5z" />
    <glyph glyph-name="c" unicode="c" horiz-adv-x="547" 
d="M474 88.5q-33 -47.5 -82.5 -74.5t-109.5 -27q-77 0 -134.5 34.5t-88 95t-30.5 135.5q0 78 30 138t87 93.5t134 33.5q90 0 155.5 -55.5t82.5 -145.5h-73q-13 61 -57 97t-109 36q-86 0 -131.5 -53.5t-45.5 -143.5q0 -56 21.5 -101t62 -70.5t93.5 -25.5q66 0 108.5 38
t56.5 102h73q-10 -59 -43 -106.5z" />
    <glyph glyph-name="d" unicode="d" horiz-adv-x="552" 
d="M140 22.5q-53 32.5 -82 92t-29 137.5q0 79 28.5 139t81 93t122.5 33q65 0 114 -29t75 -82v254h73v-660h-73v103q-56 -113 -186 -113q-71 0 -124 32.5zM150 110.5q48 -52.5 126 -52.5q50 0 89.5 24t62 68t22.5 102q0 91 -48 144t-128 53q-81 0 -126.5 -53t-45.5 -144
q0 -89 48 -141.5z" />
    <glyph glyph-name="e" unicode="e" horiz-adv-x="551" 
d="M429.5 40q-62.5 -50 -152.5 -50q-73 0 -129.5 33t-87.5 92.5t-31 135.5q0 82 30.5 142t85.5 92t128 32q68 0 125 -32.5t90.5 -93t33.5 -139.5l-420 -1q0 -58 23 -102t63 -67.5t89 -23.5q63 0 104 31t58 86h73q-20 -85 -82.5 -135zM444 305q-11 67 -56.5 105.5
t-114.5 38.5q-66 0 -110 -39t-55 -105h336z" />
    <glyph glyph-name="f" unicode="f" horiz-adv-x="377" 
d="M86 354h-57v68h57v171q0 27 3 40.5t15 20t37 6.5h207v-68h-189v-170h107v-68h-107v-354h-74z" />
    <glyph glyph-name="g" unicode="g" horiz-adv-x="556" 
d="M75.5 -208.5q-46.5 34.5 -46.5 99.5q0 57 47.5 93.5t127.5 36.5h154q36 0 59 11.5t20 35.5q-1 11 -11.5 19.5t-23.5 10.5q-58 -44 -136 -44q-68 0 -122 29.5t-84.5 82t-30.5 118.5q0 68 30.5 121t85 82.5t124.5 29.5q55 0 86 -10h152v-53h-69q34 -32 53.5 -78t19.5 -92
q0 -86 -50 -148q19 -10 34 -30t15 -46q0 -51 -42 -79t-116 -28h-148q-48 0 -75 -18.5t-27 -50.5q0 -64 102 -64h131q89 0 89 81h69q0 -70 -40 -107t-118 -37h-131q-82 0 -128.5 34.5zM123.5 201q21.5 -37 59 -58t83.5 -21q78 0 125 43.5t47 118.5t-44.5 120t-126.5 45
q-75 0 -120 -46t-45 -119q0 -46 21.5 -83z" />
    <glyph glyph-name="h" unicode="h" horiz-adv-x="502" 
d="M29 660h73v-251q23 50 67.5 79t105.5 29q95 0 146.5 -70.5t51.5 -192.5v-254h-73v254q0 97 -36 146t-106 49t-113 -51t-43 -144l1 -254h-73z" />
    <glyph glyph-name="i" unicode="i" horiz-adv-x="237" 
d="M140 501q10 -6 12.5 -18.5t2.5 -42.5v-372h53v-68h-66q-30 0 -42.5 6.5t-15 19.5t-2.5 42v371h-53v68h76q25 0 35 -6zM56.5 657q14.5 14 38.5 14q23 0 37.5 -14t14.5 -35t-14.5 -35t-37.5 -14q-24 0 -38.5 14t-14.5 35t14.5 35z" />
    <glyph glyph-name="j" unicode="j" horiz-adv-x="328" 
d="M29 -154h178v661h73v-661q0 -30 -2.5 -42.5t-15 -19t-42.5 -6.5h-191v68zM208 657q15 14 38 14t38 -14t15 -35t-15 -35t-38 -14t-38 14t-15 35t15 35z" />
    <glyph glyph-name="k" unicode="k" horiz-adv-x="460" 
d="M333 233h-231v-233h-73v660h73v-323l234 170h95l-278 -206h199q26 0 37.5 -6.5t14 -19.5t2.5 -42v-233h-73v233z" />
    <glyph glyph-name="l" unicode="l" horiz-adv-x="184" 
d="M47.5 7q-11.5 7 -15 20.5t-3.5 40.5v592h73v-592h53v-68h-71q-25 0 -36.5 7z" />
    <glyph glyph-name="m" unicode="m" horiz-adv-x="886" 
d="M29 507h73v-96q27 49 69.5 77.5t98.5 28.5q66 0 114 -38t65 -98q21 62 73.5 99t116.5 37t113 -28.5t77 -85.5t28 -138v-265h-73v260q0 97 -35.5 143t-109.5 46q-73 0 -114.5 -49t-41.5 -140l1 -260h-73v260q0 95 -35.5 142t-110.5 47q-72 0 -117 -50t-45 -135v-264h-73z
" />
    <glyph glyph-name="n" unicode="n" horiz-adv-x="506" 
d="M29 507h73v-98q22 50 66.5 79t107.5 29q95 0 148 -63.5t53 -179.5v-274h-73v274q0 91 -37.5 133t-109.5 42q-69 0 -112.5 -51t-43.5 -139l1 -259h-73v507z" />
    <glyph glyph-name="o" unicode="o" horiz-adv-x="561" 
d="M151.5 21.5q-57.5 34.5 -90 94.5t-32.5 135q0 77 31.5 137.5t88.5 94.5t131 34q76 0 133 -34t88 -94.5t31 -137.5q0 -74 -31.5 -134.5t-88.5 -95t-130 -34.5t-130.5 34.5zM124.5 151q22.5 -45 62 -70.5t90.5 -25.5q53 0 94.5 25.5t64.5 70t23 100.5q0 59 -23 104
t-64 69.5t-94 24.5q-51 0 -91 -24t-62.5 -69t-22.5 -105q0 -55 22.5 -100z" />
    <glyph glyph-name="p" unicode="p" horiz-adv-x="552" 
d="M30 507h73l-1 -102q27 53 75 82.5t113 29.5q70 0 123 -32.5t81.5 -92t28.5 -137.5q0 -79 -28.5 -139t-81 -93t-122.5 -33q-66 0 -114.5 29t-74.5 83v-255h-73zM150.5 112q47.5 -53 126.5 -54q81 0 127 53t46 144q0 89 -47.5 141.5t-125.5 52.5q-50 0 -89.5 -24t-62 -68
t-22.5 -102q0 -90 47.5 -143z" />
    <glyph glyph-name="q" unicode="q" horiz-adv-x="552" 
d="M450 -153v255q-26 -54 -74.5 -83t-114.5 -29q-70 0 -122.5 33t-81 93t-28.5 139q0 78 29 137.5t82 92t124 32.5q130 0 186 -112v102h73v-660h-73zM148.5 111q46.5 -53 127.5 -53q79 1 126.5 54t47.5 143q0 58 -22.5 102t-62 68t-89.5 24q-78 0 -126 -52.5t-48 -141.5
q0 -91 46.5 -144z" />
    <glyph glyph-name="r" unicode="r" horiz-adv-x="295" 
d="M32.5 480.5q3.5 13.5 15 20t36.5 6.5h182v-68h-164v-439h-73v440q0 27 3.5 40.5z" />
    <glyph glyph-name="s" unicode="s" horiz-adv-x="443" 
d="M156.5 73.5q33.5 -16.5 88.5 -16.5q47 0 73 16.5t26 56.5q0 35 -28.5 54t-91.5 35q-86 21 -139.5 56.5t-53.5 101.5q0 73 51 106t124 34q66 0 123.5 -36t78.5 -120h-73q-12 44 -44.5 66t-82.5 22q-48 0 -77.5 -17t-29.5 -55q1 -64 140 -96q82 -20 127.5 -53t45.5 -98
q0 -70 -47.5 -105t-116.5 -35q-184 0 -211 143h74q10 -43 43.5 -59.5z" />
    <glyph glyph-name="t" unicode="t" horiz-adv-x="387" 
d="M119.5 7q-11.5 7 -15 20.5t-3.5 40.5v371h-72v68h72v153h73v-153h122v-68h-122v-371h184v-68h-202q-25 0 -36.5 7z" />
    <glyph glyph-name="u" unicode="u" horiz-adv-x="542" 
d="M409.5 9.5q-9.5 9.5 -9.5 39.5v49q-23 -50 -67 -79t-105 -29q-96 0 -147.5 67t-51.5 191v259h73v-259q0 -99 35.5 -144.5t106.5 -45.5q70 0 113 51t43 139v259h73v-439h40v-68h-61q-33 0 -42.5 9.5z" />
    <glyph glyph-name="v" unicode="v" horiz-adv-x="547" 
d="M518 507l-221 -507h-58l-210 507h79l161 -410l170 410h79z" />
    <glyph glyph-name="w" unicode="w" horiz-adv-x="694" 
d="M102 507l96 -409l118 409h63l125 -409l88 409h73l-115 -507h-76l-125 400l-124 -400h-76l-120 507h73z" />
    <glyph glyph-name="x" unicode="x" horiz-adv-x="519" 
d="M216 255l-184 252h81l145 -208l152 208h80l-193 -252l190 -255h-80l-149 213l-148 -213h-81z" />
    <glyph glyph-name="y" unicode="y" horiz-adv-x="545" 
d="M103 507l146 -385l193 385h74l-309 -613q-8 -17 -14.5 -23.5t-14 -7.5t-29.5 -1h-81v68h79l61 123l-179 454h74z" />
    <glyph glyph-name="z" unicode="z" horiz-adv-x="472" 
d="M29 507h406v-71l-300 -363h305v-73h-401v73l306 361h-316v73z" />
    <glyph glyph-name="braceleft" unicode="{" horiz-adv-x="354" 
d="M170 48.5q-52 52.5 -52 145.5q0 50 -9.5 74.5t-27.5 31.5t-52 7v57q32 2 50.5 12t28.5 34.5t10 69.5q2 95 54.5 146t152.5 57v-60q-72 -7 -105.5 -40t-33.5 -103q0 -55 -13.5 -90t-45.5 -53q32 -17 45.5 -52.5t13.5 -90.5q0 -68 37 -103t102 -41v-59q-103 5 -155 57.5z
" />
    <glyph glyph-name="bar" unicode="|" horiz-adv-x="126" 
d="M29 678h68v-699h-68v699z" />
    <glyph glyph-name="braceright" unicode="}" horiz-adv-x="354" 
d="M131 91q37 35 37 103q0 55 13.5 90.5t45.5 52.5q-32 18 -45.5 53t-13.5 90q0 70 -33.5 103t-105.5 40v60q100 -6 152.5 -57t54.5 -146q0 -45 10 -69.5t28.5 -34.5t50.5 -12v-57q-34 0 -52 -7t-27.5 -31.5t-9.5 -74.5q0 -93 -52 -145.5t-155 -57.5v59q65 6 102 41z" />
    <glyph glyph-name="exclamdown" unicode="&#xa1;" horiz-adv-x="187" 
d="M123 501v-501h-73v501h73zM45 644.5q16 15.5 42 15.5t43 -15.5t17 -37.5q0 -23 -16 -38t-44 -15q-26 0 -42 15t-16 38q0 22 16 37.5z" />
    <glyph glyph-name="cent" unicode="&#xa2;" horiz-adv-x="673" 
d="M546 66.5q-76 -67.5 -181 -75.5v-103h-59l1 104q-78 8 -141 50.5t-100 115.5t-37 169q0 98 36.5 172t99.5 117.5t142 51.5v101h59l-1 -100q106 -8 180 -72.5t97 -174.5h-75q-22 87 -82.5 133.5t-144.5 46.5q-67 0 -121 -32t-85.5 -94t-31.5 -147q0 -83 31 -144.5t85 -94
t122 -32.5q87 0 148.5 49t81.5 140h74q-22 -113 -98 -180.5z" />
    <glyph glyph-name="sterling" unicode="&#xa3;" horiz-adv-x="586" 
d="M158 214h-129v59l117 -1q-60 88 -60 179q0 102 54 160.5t165 58.5q109 -1 174.5 -54t75.5 -183h-71q-4 91 -48 129.5t-131 39.5q-82 0 -117.5 -37t-35.5 -116q0 -44 16 -86t47 -91h207v-58h-195q0 -35 -24 -73.5t-64 -72.5h412v-68h-510v68q114 74 117 146z" />
    <glyph glyph-name="yen" unicode="&#xa5;" horiz-adv-x="605" 
d="M108 660l185 -331l204 331h79l-248 -402v-33h175v-68h-175v-51h175v-68h-175v-38h-73v38h-171v68h171v51h-171v68h171v33l-226 402h79z" />
    <glyph glyph-name="section" unicode="&#xa7;" horiz-adv-x="507" 
d="M176.5 -18q38.5 -17 94.5 -17q60 0 97.5 19t37.5 62q0 37 -41 60t-115 35q-93 17 -156.5 56.5t-64.5 106.5q0 47 23 76.5t63 44.5q-71 43 -71 110q0 74 54 104t137 31q165 0 210 -138h-60q-29 79 -148 79q-66 0 -100.5 -15.5t-34.5 -60.5q0 -39 45 -66t124 -41
q87 -15 147 -51.5t60 -102.5q0 -45 -25.5 -74.5t-66.5 -44.5q78 -40 78 -109q0 -73 -57.5 -106t-133.5 -33q-70 0 -126.5 27t-89.5 111h62q19 -46 57.5 -63zM133 240q45 -27 123 -41q32 -4 46 -4q52 0 85 20.5t33 59.5q0 37 -41 60t-115 35l-22 6q-29 7 -37 8q-7 1 -21 1
q-43 0 -69.5 -20t-26.5 -59t45 -66z" />
    <glyph glyph-name="copyright" unicode="&#xa9;" horiz-adv-x="557" 
d="M152.5 133.5q-56.5 32.5 -90 97t-33.5 156.5q0 91 33.5 155t90 96t124.5 32q72 0 128.5 -32t89.5 -95.5t33 -155.5t-33 -156.5t-90 -97t-128 -32.5q-68 0 -124.5 32.5zM129.5 204.5q56.5 -61.5 147.5 -61.5q95 0 151.5 61t56.5 182q0 120 -56.5 181t-151.5 61
q-90 0 -147 -61.5t-57 -180.5q0 -120 56.5 -181.5zM159 511.5q44 48.5 119 48.5q60 0 103 -36.5t54 -96.5h-43q-8 44 -39.5 68.5t-77.5 24.5q-56 -1 -86.5 -37.5t-30.5 -97.5q0 -59 32.5 -97t87.5 -38q45 0 74.5 26.5t39.5 70.5h42q-11 -60 -53.5 -98.5t-102.5 -38.5
q-75 1 -119 50.5t-44 124.5q0 78 44 126.5z" />
    <glyph glyph-name="ordfeminine" unicode="&#xaa;" horiz-adv-x="440" 
d="M75 344.5q-46 51.5 -46 135.5q0 86 45 137.5t120 51.5q48 0 82.5 -20.5t52.5 -59.5v73h53v-313h29v-49h-44q-24 0 -31 6.5t-7 28.5v40q-40 -82 -132 -82q-76 0 -122 51.5zM114 378.5q33 -37.5 91 -37.5q56 0 90 38t34 101q0 64 -34.5 102.5t-89.5 38.5q-56 0 -90 -38
t-34 -103q0 -64 33 -101.5z" />
    <glyph glyph-name="guillemotleft" unicode="&#xab;" horiz-adv-x="508" 
d="M26 279l244 210h76l-242 -213l231 -209h-76zM159 278l244 210h76l-242 -213l231 -209h-76z" />
    <glyph glyph-name="registered" unicode="&#xae;" horiz-adv-x="497" 
d="M137.5 198.5q-49.5 28.5 -79 85.5t-29.5 137t29.5 136.5t79 84.5t109.5 28q63 0 113 -28t79 -84t29 -137t-29 -137.5t-79 -85t-113 -28.5q-60 0 -109.5 28.5zM114 256.5q51 -55.5 133 -55.5q86 0 136.5 55t50.5 165q0 109 -50.5 163.5t-136.5 54.5q-82 0 -133 -55
t-51 -163q0 -109 51 -164.5zM156 573h90q58 0 83 -27.5t25 -68.5q0 -29 -13.5 -53.5t-41.5 -32.5q50 -16 50 -81v-33h-29v33q0 32 -16 51t-63 19h-57v-103h-28v296zM246 406q79 0 79 71q0 32 -16.5 50.5t-62.5 18.5h-62v-140h62z" />
    <glyph glyph-name="degree" unicode="&#xb0;" horiz-adv-x="265" 
d="M57 500q-28 30 -28 71t28.5 70.5t76.5 29.5q47 0 74.5 -29.5t27.5 -70.5t-27.5 -71t-75.5 -30t-76 30zM75.5 517.5q20.5 -21.5 57.5 -21.5q38 0 57.5 21t19.5 53t-20.5 53.5t-55.5 21.5t-57 -21.5t-22 -53.5q0 -31 20.5 -52.5z" />
    <glyph glyph-name="plusminus" unicode="&#xb1;" horiz-adv-x="440" 
d="M184 386h-155v68h154v161h68v-161h156v-68h-156v-172h-67v172zM36 156h369v-68h-369v68z" />
    <glyph glyph-name="uni00B2" unicode="&#xb2;" horiz-adv-x="372" 
d="M99.5 389.5q32.5 27.5 101.5 43.5q46 10 70 31t24 57q0 51 -30.5 77.5t-85.5 26.5q-47 0 -74 -29.5t-27 -81.5h-49q-1 72 41.5 114.5t108.5 42.5q73 0 119 -38t46 -112q0 -57 -38 -88.5t-100 -46.5q-49 -11 -69.5 -27.5t-26.5 -55.5l-5 -34h227v-45h-280l8 79
q7 59 39.5 86.5z" />
    <glyph glyph-name="uni00B3" unicode="&#xb3;" horiz-adv-x="380" 
d="M314 471q38 -34 38 -99q0 -67 -43.5 -108t-116.5 -41q-46 0 -82.5 22t-58 59.5t-22.5 81.5h49q7 -58 36.5 -88t77.5 -30q111 0 111 104q0 59 -41 79.5t-108 20.5v38l105 116h-215v45l286 -1v-37l-109 -119q55 -9 93 -43z" />
    <glyph glyph-name="periodcentered" unicode="&#xb7;" horiz-adv-x="176" 
d="M45.5 254q-16.5 16 -16.5 39t16.5 38.5t42.5 15.5t42.5 -15.5t16.5 -38.5t-16.5 -39t-42.5 -16t-42.5 16z" />
    <glyph glyph-name="uni00B9" unicode="&#xb9;" horiz-adv-x="215" 
d="M29 302h57v327h-47v43h93v-370h54v-43h-157v43z" />
    <glyph glyph-name="ordmasculine" unicode="&#xba;" horiz-adv-x="336" 
d="M68.5 420.5q-39.5 41.5 -39.5 104.5q0 65 38.5 106t100.5 41q63 0 101.5 -41t38.5 -106q0 -63 -38.5 -104.5t-99.5 -41.5q-62 0 -101.5 41.5zM96.5 447q27.5 -31 70.5 -31q44 0 72 31t28 78q0 49 -27.5 79.5t-71.5 30.5t-71.5 -30t-27.5 -80q0 -47 27.5 -78z" />
    <glyph glyph-name="guillemotright" unicode="&#xbb;" horiz-adv-x="513" 
d="M175 58l231 209l-242 213h76l244 -210l-233 -212h-76zM108 480l244 -210l-233 -212h-76l231 209l-242 213h76z" />
    <glyph glyph-name="questiondown" unicode="&#xbf;" horiz-adv-x="528" 
d="M457 395.5q-26 -36.5 -61.5 -54.5t-94.5 -37l-33 -11l-35 -12q-44 -14 -70 -25.5t-43.5 -33t-17.5 -55.5q0 -58 36 -83.5t105 -25.5q85 0 126.5 33t50.5 102h74q-26 -203 -247 -203q-98 0 -158 43t-60 134q0 58 27 94.5t65 55t96 36.5l34 11l29 10q44 14 70 26t42.5 34
t16.5 57v42h74v-42q0 -59 -26 -95.5zM404.5 650.5q14.5 14.5 38.5 14.5t38.5 -14.5t14.5 -33.5t-14.5 -33t-38.5 -14t-38.5 14t-14.5 33t14.5 33.5z" />
    <glyph glyph-name="Agrave" unicode="&#xc0;" horiz-adv-x="686" 
d="M320 660h57l280 -660h-77l-87 200h-296l-90 -200h-78zM462 271l-113 276l-121 -276h234zM224 915h66l87 -215h-67z" />
    <glyph glyph-name="Aacute" unicode="&#xc1;" horiz-adv-x="686" 
d="M320 660h57l280 -660h-77l-87 200h-296l-90 -200h-78zM462 271l-113 276l-121 -276h234zM320 697l87 215h66l-86 -215h-67z" />
    <glyph glyph-name="Acircumflex" unicode="&#xc2;" horiz-adv-x="686" 
d="M320 660h57l280 -660h-77l-87 200h-296l-90 -200h-78zM462 271l-113 276l-121 -276h234zM337 932l158 -232h-71l-86 129l-86 -130h-71z" />
    <glyph glyph-name="Atilde" unicode="&#xc3;" horiz-adv-x="686" 
d="M320 660h57l280 -660h-77l-87 200h-296l-90 -200h-78zM462 271l-113 276l-121 -276h234zM203 777.5q23 32.5 62 32.5q6 0 18 -2q21 -4 54 -31q9 -7 18.5 -13.5t16.5 -8.5q12 -2 15 -2q21 0 33.5 16t16.5 39h60q-6 -44 -35.5 -80t-71.5 -36q-15 0 -27 4t-24 12.5t-22 17.5
q-16 13 -26 19t-21 6q-29 0 -29 -59h-58q-3 53 20 85.5z" />
    <glyph glyph-name="Adieresis" unicode="&#xc4;" horiz-adv-x="686" 
d="M320 660h57l280 -660h-77l-87 200h-296l-90 -200h-78zM462 271l-113 276l-121 -276h234zM227.5 712q-16.5 15 -16.5 36q0 22 16.5 37.5t44.5 15.5t43.5 -15t15.5 -38q0 -21 -16.5 -36t-42.5 -15q-28 0 -44.5 15zM361 785.5q16 15.5 43 15.5q28 0 44.5 -15.5t16.5 -37.5
q0 -21 -17.5 -36t-43.5 -15q-27 0 -43 15t-16 36q0 22 16 37.5z" />
    <glyph glyph-name="Aring" unicode="&#xc5;" horiz-adv-x="686" 
d="M320 660h57l280 -660h-77l-87 200h-296l-90 -200h-78zM462 271l-113 276l-121 -276h234zM263 732.5q-33 30.5 -33 71.5q0 45 32 75t80 30q50 0 82 -29.5t32 -75.5q0 -41 -32 -71.5t-82 -30.5q-46 0 -79 30.5zM291.5 761q18.5 -18 50.5 -18t51.5 18t19.5 44
q0 28 -18.5 45.5t-52.5 17.5q-32 0 -50.5 -18t-18.5 -45q0 -26 18.5 -44z" />
    <glyph glyph-name="AE" unicode="&#xc6;" horiz-adv-x="1036" 
d="M309 660h54l188 -461v408q0 33 9 43t42 10h405v-68h-383v-233h327v-68h-327v-223h382v-68h-448l-83 200h-284l-87 -200h-75zM445 271l-109 276l-116 -276h225z" />
    <glyph glyph-name="Ccedilla" unicode="&#xc7;" horiz-adv-x="700" 
d="M301 -217q68 0 94 12.5t26 42.5q0 29 -31.5 39.5t-106.5 10.5l-43 -1l-4 39l49 72q-73 16 -131.5 62t-91.5 114t-33 147q0 95 42.5 174t118 124.5t168.5 45.5q77 0 141 -31t108 -86t62 -127h-74q-26 83 -90.5 130t-146.5 47q-71 0 -130 -35t-93 -97.5t-34 -141.5
q0 -76 33.5 -137t92 -95.5t130.5 -34.5q87 0 151.5 49t88.5 132h74q-18 -73 -64 -129t-111 -87.5t-139 -31.5h-12l-34 -47q170 -5 170 -105q0 -68 -45.5 -90t-132.5 -22l-61 1v58q44 -2 59 -2z" />
    <glyph glyph-name="Egrave" unicode="&#xc8;" horiz-adv-x="514" 
d="M38 10.5q-9 10.5 -9 44.5v552q0 33 9 43t42 10h405v-68h-383v-233h327v-68h-327v-223h382v-68h-404q-33 0 -42 10.5zM139 914h66l87 -215h-67z" />
    <glyph glyph-name="Eacute" unicode="&#xc9;" horiz-adv-x="514" 
d="M38 10.5q-9 10.5 -9 44.5v552q0 33 9 43t42 10h405v-68h-383v-233h327v-68h-327v-223h382v-68h-404q-33 0 -42 10.5zM235 696l87 215h66l-86 -215h-67z" />
    <glyph glyph-name="Ecircumflex" unicode="&#xca;" horiz-adv-x="514" 
d="M38 10.5q-9 10.5 -9 44.5v552q0 33 9 43t42 10h405v-68h-383v-233h327v-68h-327v-223h382v-68h-404q-33 0 -42 10.5zM252 931l158 -232h-71l-86 129l-86 -130h-71z" />
    <glyph glyph-name="Edieresis" unicode="&#xcb;" horiz-adv-x="514" 
d="M38 10.5q-9 10.5 -9 44.5v552q0 33 9 43t42 10h405v-68h-383v-233h327v-68h-327v-223h382v-68h-404q-33 0 -42 10.5zM142.5 711q-16.5 15 -16.5 36q0 22 16.5 37.5t44.5 15.5t43.5 -15t15.5 -38q0 -21 -16.5 -36t-42.5 -15q-28 0 -44.5 15zM276 784.5q16 15.5 43 15.5
q28 0 44.5 -15.5t16.5 -37.5q0 -21 -17.5 -36t-43.5 -15q-27 0 -43 15t-16 36q0 22 16 37.5z" />
    <glyph glyph-name="Igrave" unicode="&#xcc;" horiz-adv-x="255" 
d="M48 68h53v524h-53v68h179v-68h-53v-524h53v-68h-179v68zM29 909h66l87 -215h-67z" />
    <glyph glyph-name="Iacute" unicode="&#xcd;" horiz-adv-x="278" 
d="M29 68h53v524h-53v68h179v-68h-53v-524h53v-68h-179v68zM107 691l87 215h66l-86 -215h-67z" />
    <glyph glyph-name="Icircumflex" unicode="&#xce;" horiz-adv-x="367" 
d="M90 68h53v524h-53v68h179v-68h-53v-524h53v-68h-179v68zM185 926l158 -232h-71l-86 129l-86 -130h-71z" />
    <glyph glyph-name="Idieresis" unicode="&#xcf;" horiz-adv-x="309" 
d="M60 68h53v524h-53v68h179v-68h-53v-524h53v-68h-179v68zM45.5 706q-16.5 15 -16.5 36q0 22 16.5 37.5t44.5 15.5t43.5 -15t15.5 -38q0 -21 -16.5 -36t-42.5 -15q-28 0 -44.5 15zM179 779.5q16 15.5 43 15.5q28 0 44.5 -15.5t16.5 -37.5q0 -21 -17.5 -36t-43.5 -15
q-27 0 -43 15t-16 36q0 22 16 37.5z" />
    <glyph glyph-name="Ntilde" unicode="&#xd1;" horiz-adv-x="569" 
d="M29 660h61l377 -524v524h73l-2 -660h-60l-376 521v-521h-73v660zM121 775.5q23 32.5 62 32.5q6 0 18 -2q21 -4 54 -31q9 -7 18.5 -13.5t16.5 -8.5q12 -2 15 -2q21 0 33.5 16t16.5 39h60q-6 -44 -35.5 -80t-71.5 -36q-15 0 -27 4t-24 12.5t-22 17.5q-16 13 -26 19t-21 6
q-29 0 -29 -59h-58q-3 53 20 85.5z" />
    <glyph glyph-name="Ograve" unicode="&#xd2;" horiz-adv-x="710" 
d="M192 33.5q-75 43.5 -119 119.5t-44 168q0 95 42.5 174t118 124.5t168.5 45.5t166.5 -45t115 -123t41.5 -173q0 -93 -43.5 -169.5t-117.5 -120.5t-163 -44q-90 0 -165 43.5zM135 187q33 -61 91 -95t130 -34q70 0 127.5 33.5t91 94t33.5 137.5q0 79 -33 141.5t-90 97.5
t-127 35q-71 0 -129.5 -35.5t-92.5 -97.5t-34 -140q0 -76 33 -137zM220 934h66l87 -215h-67z" />
    <glyph glyph-name="Oacute" unicode="&#xd3;" horiz-adv-x="710" 
d="M192 33.5q-75 43.5 -119 119.5t-44 168q0 95 42.5 174t118 124.5t168.5 45.5t166.5 -45t115 -123t41.5 -173q0 -93 -43.5 -169.5t-117.5 -120.5t-163 -44q-90 0 -165 43.5zM135 187q33 -61 91 -95t130 -34q70 0 127.5 33.5t91 94t33.5 137.5q0 79 -33 141.5t-90 97.5
t-127 35q-71 0 -129.5 -35.5t-92.5 -97.5t-34 -140q0 -76 33 -137zM316 716l87 215h66l-86 -215h-67z" />
    <glyph glyph-name="Ocircumflex" unicode="&#xd4;" horiz-adv-x="710" 
d="M192 33.5q-75 43.5 -119 119.5t-44 168q0 95 42.5 174t118 124.5t168.5 45.5t166.5 -45t115 -123t41.5 -173q0 -93 -43.5 -169.5t-117.5 -120.5t-163 -44q-90 0 -165 43.5zM135 187q33 -61 91 -95t130 -34q70 0 127.5 33.5t91 94t33.5 137.5q0 79 -33 141.5t-90 97.5
t-127 35q-71 0 -129.5 -35.5t-92.5 -97.5t-34 -140q0 -76 33 -137zM334 951l158 -232h-71l-86 129l-86 -130h-71z" />
    <glyph glyph-name="Otilde" unicode="&#xd5;" horiz-adv-x="710" 
d="M192 33.5q-75 43.5 -119 119.5t-44 168q0 95 42.5 174t118 124.5t168.5 45.5t166.5 -45t115 -123t41.5 -173q0 -93 -43.5 -169.5t-117.5 -120.5t-163 -44q-90 0 -165 43.5zM135 187q33 -61 91 -95t130 -34q70 0 127.5 33.5t91 94t33.5 137.5q0 79 -33 141.5t-90 97.5
t-127 35q-71 0 -129.5 -35.5t-92.5 -97.5t-34 -140q0 -76 33 -137zM200 795.5q23 32.5 62 32.5q6 0 18 -2q21 -4 54 -31q9 -7 18.5 -13.5t16.5 -8.5q12 -2 15 -2q21 0 33.5 16t16.5 39h60q-6 -44 -35.5 -80t-71.5 -36q-15 0 -27 4t-24 12.5t-22 17.5q-16 13 -26 19t-21 6
q-29 0 -29 -59h-58q-3 53 20 85.5z" />
    <glyph glyph-name="Odieresis" unicode="&#xd6;" horiz-adv-x="710" 
d="M192 33.5q-75 43.5 -119 119.5t-44 168q0 95 42.5 174t118 124.5t168.5 45.5t166.5 -45t115 -123t41.5 -173q0 -93 -43.5 -169.5t-117.5 -120.5t-163 -44q-90 0 -165 43.5zM135 187q33 -61 91 -95t130 -34q70 0 127.5 33.5t91 94t33.5 137.5q0 79 -33 141.5t-90 97.5
t-127 35q-71 0 -129.5 -35.5t-92.5 -97.5t-34 -140q0 -76 33 -137zM224.5 731q-16.5 15 -16.5 36q0 22 16.5 37.5t44.5 15.5t43.5 -15t15.5 -38q0 -21 -16.5 -36t-42.5 -15q-28 0 -44.5 15zM358 804.5q16 15.5 43 15.5q28 0 44.5 -15.5t16.5 -37.5q0 -21 -17.5 -36
t-43.5 -15q-27 0 -43 15t-16 36q0 22 16 37.5z" />
    <glyph glyph-name="multiply" unicode="&#xd7;" horiz-adv-x="391" 
d="M151 315l-109 110l48 48l109 -109l113 114l48 -49l-113 -113l110 -111l-48 -48l-110 111l-122 -122l-47 47z" />
    <glyph glyph-name="Oslash" unicode="&#xd8;" horiz-adv-x="710" 
d="M267 2l-28 -81h-73l37 106q-79 42 -126.5 120t-47.5 174q0 95 42.5 174t118 124.5t168.5 45.5q34 0 65 -6l21 61h73l-28 -81q88 -39 140 -123.5t52 -191.5q0 -93 -43.5 -169.5t-117.5 -120.5t-163 -44q-46 0 -90 12zM135 187q33 -61 91 -94l174 501q-21 3 -42 3
q-71 0 -129.5 -35.5t-92.5 -97.5t-34 -140q0 -76 33 -137zM356 58q70 0 127.5 33.5t91 94t33.5 137.5q0 86 -38.5 152t-103.5 98l-176 -507q34 -8 66 -8z" />
    <glyph glyph-name="Ugrave" unicode="&#xd9;" horiz-adv-x="637" 
d="M110 69.5q-81 79.5 -81 251.5v339h73v-339q0 -137 60.5 -200t157.5 -63q100 0 157.5 64t57.5 199v339h73v-339q0 -173 -77 -252t-211 -79q-129 0 -210 79.5zM201 897h66l87 -215h-67z" />
    <glyph glyph-name="Uacute" unicode="&#xda;" horiz-adv-x="637" 
d="M110 69.5q-81 79.5 -81 251.5v339h73v-339q0 -137 60.5 -200t157.5 -63q100 0 157.5 64t57.5 199v339h73v-339q0 -173 -77 -252t-211 -79q-129 0 -210 79.5zM297 679l87 215h66l-86 -215h-67z" />
    <glyph glyph-name="Ucircumflex" unicode="&#xdb;" horiz-adv-x="637" 
d="M110 69.5q-81 79.5 -81 251.5v339h73v-339q0 -137 60.5 -200t157.5 -63q100 0 157.5 64t57.5 199v339h73v-339q0 -173 -77 -252t-211 -79q-129 0 -210 79.5zM315 914l158 -232h-71l-86 129l-86 -130h-71z" />
    <glyph glyph-name="Udieresis" unicode="&#xdc;" horiz-adv-x="637" 
d="M110 69.5q-81 79.5 -81 251.5v339h73v-339q0 -137 60.5 -200t157.5 -63q100 0 157.5 64t57.5 199v339h73v-339q0 -173 -77 -252t-211 -79q-129 0 -210 79.5zM205.5 694q-16.5 15 -16.5 36q0 22 16.5 37.5t44.5 15.5t43.5 -15t15.5 -38q0 -21 -16.5 -36t-42.5 -15
q-28 0 -44.5 15zM339 767.5q16 15.5 43 15.5q28 0 44.5 -15.5t16.5 -37.5q0 -21 -17.5 -36t-43.5 -15q-27 0 -43 15t-16 36q0 22 16 37.5z" />
    <glyph glyph-name="Yacute" unicode="&#xdd;" horiz-adv-x="605" 
d="M108 660l185 -331l204 331h79l-248 -402v-258h-73v258l-226 402h79zM276 699l87 215h66l-86 -215h-67z" />
    <glyph glyph-name="germandbls" unicode="&#xdf;" horiz-adv-x="564" 
d="M87.5 611q58.5 54 195.5 54q122 0 185.5 -46.5t63.5 -130.5q0 -52 -27 -96t-72 -63q46 -20 74 -59.5t28 -90.5q0 -87 -60.5 -133t-182.5 -46h-73v69h73q97 0 136 27t39 83q0 57 -42 88.5t-133 31.5h-73v60h73q94 0 133 34t39 95q0 54 -42.5 84t-138.5 30
q-79 0 -120 -17.5t-53.5 -46t-12.5 -70.5v-468h-68v468q0 89 58.5 143z" />
    <glyph glyph-name="agrave" unicode="&#xe0;" horiz-adv-x="593" 
d="M140 22.5q-53 32.5 -82 92t-29 137.5q0 79 28.5 139t81 93t122.5 33q67 0 115 -29t74 -83v102h73v-439h41v-68h-62q-33 0 -42.5 9.5t-9.5 39.5v56q-57 -115 -186 -115q-71 0 -124 32.5zM148.5 110.5q46.5 -52.5 127.5 -52.5q79 0 126.5 53t47.5 141q0 60 -22.5 104.5
t-62.5 68.5t-91 24q-78 0 -125 -53.5t-47 -143.5q0 -89 46.5 -141.5zM176 786h66l87 -215h-67z" />
    <glyph glyph-name="aacute" unicode="&#xe1;" horiz-adv-x="593" 
d="M140 22.5q-53 32.5 -82 92t-29 137.5q0 79 28.5 139t81 93t122.5 33q67 0 115 -29t74 -83v102h73v-439h41v-68h-62q-33 0 -42.5 9.5t-9.5 39.5v56q-57 -115 -186 -115q-71 0 -124 32.5zM148.5 110.5q46.5 -52.5 127.5 -52.5q79 0 126.5 53t47.5 141q0 60 -22.5 104.5
t-62.5 68.5t-91 24q-78 0 -125 -53.5t-47 -143.5q0 -89 46.5 -141.5zM272 568l87 215h66l-86 -215h-67z" />
    <glyph glyph-name="acircumflex" unicode="&#xe2;" horiz-adv-x="593" 
d="M140 22.5q-53 32.5 -82 92t-29 137.5q0 79 28.5 139t81 93t122.5 33q67 0 115 -29t74 -83v102h73v-439h41v-68h-62q-33 0 -42.5 9.5t-9.5 39.5v56q-57 -115 -186 -115q-71 0 -124 32.5zM148.5 110.5q46.5 -52.5 127.5 -52.5q79 0 126.5 53t47.5 141q0 60 -22.5 104.5
t-62.5 68.5t-91 24q-78 0 -125 -53.5t-47 -143.5q0 -89 46.5 -141.5zM289 803l158 -232h-71l-86 129l-86 -130h-71z" />
    <glyph glyph-name="atilde" unicode="&#xe3;" horiz-adv-x="593" 
d="M140 22.5q-53 32.5 -82 92t-29 137.5q0 79 28.5 139t81 93t122.5 33q67 0 115 -29t74 -83v102h73v-439h41v-68h-62q-33 0 -42.5 9.5t-9.5 39.5v56q-57 -115 -186 -115q-71 0 -124 32.5zM148.5 110.5q46.5 -52.5 127.5 -52.5q79 0 126.5 53t47.5 141q0 60 -22.5 104.5
t-62.5 68.5t-91 24q-78 0 -125 -53.5t-47 -143.5q0 -89 46.5 -141.5zM179.5 631q19.5 27 50.5 27q5 0 15 -2q11 -2 21 -8.5t25 -17.5q19 -15 27 -17q10 -2 13 -2q33 0 41 45h49q-5 -37 -29.5 -66t-58.5 -29q-10 0 -22 3q-15 5 -39 25q-11 10 -19.5 15.5t-17.5 5.5
q-24 0 -24 -49h-48q-3 43 16.5 70z" />
    <glyph glyph-name="adieresis" unicode="&#xe4;" horiz-adv-x="593" 
d="M140 22.5q-53 32.5 -82 92t-29 137.5q0 79 28.5 139t81 93t122.5 33q67 0 115 -29t74 -83v102h73v-439h41v-68h-62q-33 0 -42.5 9.5t-9.5 39.5v56q-57 -115 -186 -115q-71 0 -124 32.5zM148.5 110.5q46.5 -52.5 127.5 -52.5q79 0 126.5 53t47.5 141q0 60 -22.5 104.5
t-62.5 68.5t-91 24q-78 0 -125 -53.5t-47 -143.5q0 -89 46.5 -141.5zM179.5 583q-16.5 15 -16.5 36q0 22 16.5 37.5t44.5 15.5t43.5 -15t15.5 -38q0 -21 -16.5 -36t-42.5 -15q-28 0 -44.5 15zM313 656.5q16 15.5 43 15.5q28 0 44.5 -15.5t16.5 -37.5q0 -21 -17.5 -36
t-43.5 -15q-27 0 -43 15t-16 36q0 22 16 37.5z" />
    <glyph glyph-name="aring" unicode="&#xe5;" horiz-adv-x="593" 
d="M140 22.5q-53 32.5 -82 92t-29 137.5q0 79 28.5 139t81 93t122.5 33q67 0 115 -29t74 -83v102h73v-439h41v-68h-62q-33 0 -42.5 9.5t-9.5 39.5v56q-57 -115 -186 -115q-71 0 -124 32.5zM148.5 110.5q46.5 -52.5 127.5 -52.5q79 0 126.5 53t47.5 141q0 60 -22.5 104.5
t-62.5 68.5t-91 24q-78 0 -125 -53.5t-47 -143.5q0 -89 46.5 -141.5zM215 603.5q-33 30.5 -33 71.5q0 45 32 75t80 30q50 0 82 -29.5t32 -75.5q0 -41 -32 -71.5t-82 -30.5q-46 0 -79 30.5zM243.5 632q18.5 -18 50.5 -18t51.5 18t19.5 44q0 28 -18.5 45.5t-52.5 17.5
q-32 0 -50.5 -18t-18.5 -45q0 -26 18.5 -44z" />
    <glyph glyph-name="ae" unicode="&#xe6;" horiz-adv-x="980" 
d="M139 21.5q-53 31.5 -81.5 89t-28.5 133.5t28.5 134.5t80.5 90.5t122 32q66 0 114 -28.5t74 -80.5v99h72v-64q32 43 81 66t111 23q68 0 125 -32.5t90.5 -93t33.5 -139.5l-420 -1q0 -58 23 -102t63 -67.5t89 -23.5q63 0 104 31t58 86h73q-20 -85 -82.5 -135t-152.5 -50
q-92 0 -155 51v-40h-61q-33 0 -42.5 9t-9.5 38v55q-58 -112 -185 -112q-71 0 -124 31.5zM148 107q46 -51 127 -51q78 0 125.5 51.5t47.5 136.5q0 58 -22.5 101.5t-62.5 66.5t-90 23q-78 0 -124.5 -52t-46.5 -139q0 -86 46 -137zM533 66q-7 7 -13 16v-16h13zM883 304
q-11 67 -56.5 105.5t-114.5 38.5q-66 0 -110 -39t-55 -105h336z" />
    <glyph glyph-name="ccedilla" unicode="&#xe7;" horiz-adv-x="547" 
d="M444.5 53.5q-57.5 -57.5 -138.5 -65.5l-26 -36q170 -5 170 -105q0 -68 -45.5 -90t-132.5 -22l-61 1v58q44 -2 59 -2q68 0 94 12.5t26 42.5q0 29 -31.5 39.5t-106.5 10.5l-43 -1l-4 39l37 55q-66 8 -114 44t-73.5 92.5t-25.5 125.5q0 78 30 138t87 93.5t134 33.5
q90 0 155.5 -55.5t82.5 -145.5h-73q-13 61 -57 97t-109 36q-86 0 -131.5 -53.5t-45.5 -143.5q0 -56 21.5 -101t62 -70.5t93.5 -25.5q66 0 108.5 38t56.5 102h73q-15 -84 -72.5 -141.5z" />
    <glyph glyph-name="egrave" unicode="&#xe8;" horiz-adv-x="551" 
d="M429.5 40q-62.5 -50 -152.5 -50q-73 0 -129.5 33t-87.5 92.5t-31 135.5q0 82 30.5 142t85.5 92t128 32q68 0 125 -32.5t90.5 -93t33.5 -139.5l-420 -1q0 -58 23 -102t63 -67.5t89 -23.5q63 0 104 31t58 86h73q-20 -85 -82.5 -135zM444 305q-11 67 -56.5 105.5
t-114.5 38.5q-66 0 -110 -39t-55 -105h336zM151 773h66l87 -215h-67z" />
    <glyph glyph-name="eacute" unicode="&#xe9;" horiz-adv-x="551" 
d="M429.5 40q-62.5 -50 -152.5 -50q-73 0 -129.5 33t-87.5 92.5t-31 135.5q0 82 30.5 142t85.5 92t128 32q68 0 125 -32.5t90.5 -93t33.5 -139.5l-420 -1q0 -58 23 -102t63 -67.5t89 -23.5q63 0 104 31t58 86h73q-20 -85 -82.5 -135zM444 305q-11 67 -56.5 105.5
t-114.5 38.5q-66 0 -110 -39t-55 -105h336zM247 555l87 215h66l-86 -215h-67z" />
    <glyph glyph-name="ecircumflex" unicode="&#xea;" horiz-adv-x="551" 
d="M429.5 40q-62.5 -50 -152.5 -50q-73 0 -129.5 33t-87.5 92.5t-31 135.5q0 82 30.5 142t85.5 92t128 32q68 0 125 -32.5t90.5 -93t33.5 -139.5l-420 -1q0 -58 23 -102t63 -67.5t89 -23.5q63 0 104 31t58 86h73q-20 -85 -82.5 -135zM444 305q-11 67 -56.5 105.5
t-114.5 38.5q-66 0 -110 -39t-55 -105h336zM264 790l158 -232h-71l-86 129l-86 -130h-71z" />
    <glyph glyph-name="edieresis" unicode="&#xeb;" horiz-adv-x="551" 
d="M429.5 40q-62.5 -50 -152.5 -50q-73 0 -129.5 33t-87.5 92.5t-31 135.5q0 82 30.5 142t85.5 92t128 32q68 0 125 -32.5t90.5 -93t33.5 -139.5l-420 -1q0 -58 23 -102t63 -67.5t89 -23.5q63 0 104 31t58 86h73q-20 -85 -82.5 -135zM444 305q-11 67 -56.5 105.5
t-114.5 38.5q-66 0 -110 -39t-55 -105h336zM154.5 569q-16.5 15 -16.5 36q0 22 16.5 37.5t44.5 15.5t43.5 -15t15.5 -38q0 -21 -16.5 -36t-42.5 -15q-28 0 -44.5 15zM288 642.5q16 15.5 43 15.5q28 0 44.5 -15.5t16.5 -37.5q0 -21 -17.5 -36t-43.5 -15q-27 0 -43 15t-16 36
q0 22 16 37.5z" />
    <glyph glyph-name="igrave" unicode="&#xec;" horiz-adv-x="217" 
d="M114 507h73v-507h-73v507zM26 756h66l87 -215h-67z" />
    <glyph glyph-name="iacute" unicode="&#xed;" horiz-adv-x="213" 
d="M33 507h73v-507h-73v507zM41 538l87 215h66l-86 -215h-67z" />
    <glyph glyph-name="icircumflex" unicode="&#xee;" horiz-adv-x="364" 
d="M157 507h73v-507h-73v507zM182 773l158 -232h-71l-86 129l-86 -130h-71z" />
    <glyph glyph-name="idieresis" unicode="&#xef;" horiz-adv-x="307" 
d="M127 507h73v-507h-73v507zM42.5 553q-16.5 15 -16.5 36q0 22 16.5 37.5t44.5 15.5t43.5 -15t15.5 -38q0 -21 -16.5 -36t-42.5 -15q-28 0 -44.5 15zM176 626.5q16 15.5 43 15.5q28 0 44.5 -15.5t16.5 -37.5q0 -21 -17.5 -36t-43.5 -15q-27 0 -43 15t-16 36q0 22 16 37.5z
" />
    <glyph glyph-name="ntilde" unicode="&#xf1;" horiz-adv-x="506" 
d="M29 507h73v-98q22 50 66.5 79t107.5 29q95 0 148 -63.5t53 -179.5v-274h-73v274q0 91 -37.5 133t-109.5 42q-69 0 -112.5 -51t-43.5 -139l1 -259h-73v507zM92 638.5q23 32.5 62 32.5q6 0 18 -2q21 -4 54 -31q9 -7 18.5 -13.5t16.5 -8.5q12 -2 15 -2q21 0 33.5 16t16.5 39
h60q-6 -44 -35.5 -80t-71.5 -36q-15 0 -27 4t-24 12.5t-22 17.5q-16 13 -26 19t-21 6q-29 0 -29 -59h-58q-3 53 20 85.5z" />
    <glyph glyph-name="ograve" unicode="&#xf2;" horiz-adv-x="561" 
d="M151.5 21.5q-57.5 34.5 -90 94.5t-32.5 135q0 77 31.5 137.5t88.5 94.5t131 34q76 0 133 -34t88 -94.5t31 -137.5q0 -74 -31.5 -134.5t-88.5 -95t-130 -34.5t-130.5 34.5zM124.5 151q22.5 -45 62 -70.5t90.5 -25.5q53 0 94.5 25.5t64.5 70t23 100.5q0 59 -23 104
t-64 69.5t-94 24.5q-51 0 -91 -24t-62.5 -69t-22.5 -105q0 -55 22.5 -100zM143 775h66l87 -215h-67z" />
    <glyph glyph-name="oacute" unicode="&#xf3;" horiz-adv-x="561" 
d="M151.5 21.5q-57.5 34.5 -90 94.5t-32.5 135q0 77 31.5 137.5t88.5 94.5t131 34q76 0 133 -34t88 -94.5t31 -137.5q0 -74 -31.5 -134.5t-88.5 -95t-130 -34.5t-130.5 34.5zM124.5 151q22.5 -45 62 -70.5t90.5 -25.5q53 0 94.5 25.5t64.5 70t23 100.5q0 59 -23 104
t-64 69.5t-94 24.5q-51 0 -91 -24t-62.5 -69t-22.5 -105q0 -55 22.5 -100zM239 557l87 215h66l-86 -215h-67z" />
    <glyph glyph-name="ocircumflex" unicode="&#xf4;" horiz-adv-x="561" 
d="M151.5 21.5q-57.5 34.5 -90 94.5t-32.5 135q0 77 31.5 137.5t88.5 94.5t131 34q76 0 133 -34t88 -94.5t31 -137.5q0 -74 -31.5 -134.5t-88.5 -95t-130 -34.5t-130.5 34.5zM124.5 151q22.5 -45 62 -70.5t90.5 -25.5q53 0 94.5 25.5t64.5 70t23 100.5q0 59 -23 104
t-64 69.5t-94 24.5q-51 0 -91 -24t-62.5 -69t-22.5 -105q0 -55 22.5 -100zM256 792l158 -232h-71l-86 129l-86 -130h-71z" />
    <glyph glyph-name="otilde" unicode="&#xf5;" horiz-adv-x="561" 
d="M151.5 21.5q-57.5 34.5 -90 94.5t-32.5 135q0 77 31.5 137.5t88.5 94.5t131 34q76 0 133 -34t88 -94.5t31 -137.5q0 -74 -31.5 -134.5t-88.5 -95t-130 -34.5t-130.5 34.5zM124.5 151q22.5 -45 62 -70.5t90.5 -25.5q53 0 94.5 25.5t64.5 70t23 100.5q0 59 -23 104
t-64 69.5t-94 24.5q-51 0 -91 -24t-62.5 -69t-22.5 -105q0 -55 22.5 -100zM122 637.5q23 32.5 62 32.5q6 0 18 -2q21 -4 54 -31q9 -7 18.5 -13.5t16.5 -8.5q12 -2 15 -2q21 0 33.5 16t16.5 39h60q-6 -44 -35.5 -80t-71.5 -36q-15 0 -27 4t-24 12.5t-22 17.5q-16 13 -26 19
t-21 6q-29 0 -29 -59h-58q-3 53 20 85.5z" />
    <glyph glyph-name="odieresis" unicode="&#xf6;" horiz-adv-x="561" 
d="M151.5 21.5q-57.5 34.5 -90 94.5t-32.5 135q0 77 31.5 137.5t88.5 94.5t131 34q76 0 133 -34t88 -94.5t31 -137.5q0 -74 -31.5 -134.5t-88.5 -95t-130 -34.5t-130.5 34.5zM124.5 151q22.5 -45 62 -70.5t90.5 -25.5q53 0 94.5 25.5t64.5 70t23 100.5q0 59 -23 104
t-64 69.5t-94 24.5q-51 0 -91 -24t-62.5 -69t-22.5 -105q0 -55 22.5 -100zM146.5 572q-16.5 15 -16.5 36q0 22 16.5 37.5t44.5 15.5t43.5 -15t15.5 -38q0 -21 -16.5 -36t-42.5 -15q-28 0 -44.5 15zM280 645.5q16 15.5 43 15.5q28 0 44.5 -15.5t16.5 -37.5q0 -21 -17.5 -36
t-43.5 -15q-27 0 -43 15t-16 36q0 22 16 37.5z" />
    <glyph glyph-name="divide" unicode="&#xf7;" horiz-adv-x="427" 
d="M29 283h369v-68h-369v68zM176.5 402q14.5 14 37.5 14q22 0 36.5 -14t14.5 -34t-14.5 -34t-36.5 -14q-23 0 -37.5 14t-14.5 34t14.5 34zM179.5 163.5q14.5 13.5 37.5 13.5t37.5 -13.5t14.5 -34.5q0 -20 -14.5 -34t-37.5 -14t-37.5 14t-14.5 34q0 21 14.5 34.5z" />
    <glyph glyph-name="oslash" unicode="&#xf8;" horiz-adv-x="561" 
d="M210 -3l-34 -80h-73l45 106q-56 34 -87.5 94t-31.5 134q0 77 31.5 137.5t88.5 94.5t131 34q39 0 72 -9l29 69h73l-40 -95q56 -34 87 -94t31 -137q0 -74 -31.5 -134.5t-88.5 -95t-130 -34.5q-39 0 -72 10zM121.5 157.5q19.5 -42.5 53.5 -68.5l150 355q-25 5 -47 5
q-51 0 -91 -24t-62.5 -69t-22.5 -105q0 -51 19.5 -93.5zM279 55q52 0 93 25.5t64 70t23 100.5q0 54 -19 96.5t-54 68.5l-150 -356q18 -5 43 -5z" />
    <glyph glyph-name="ugrave" unicode="&#xf9;" horiz-adv-x="542" 
d="M409.5 9.5q-9.5 9.5 -9.5 39.5v49q-23 -50 -67 -79t-105 -29q-96 0 -147.5 67t-51.5 191v259h73v-259q0 -99 35.5 -144.5t106.5 -45.5q70 0 113 51t43 139v259h73v-439h40v-68h-61q-33 0 -42.5 9.5zM109 779h66l87 -215h-67z" />
    <glyph glyph-name="uacute" unicode="&#xfa;" horiz-adv-x="542" 
d="M409.5 9.5q-9.5 9.5 -9.5 39.5v49q-23 -50 -67 -79t-105 -29q-96 0 -147.5 67t-51.5 191v259h73v-259q0 -99 35.5 -144.5t106.5 -45.5q70 0 113 51t43 139v259h73v-439h40v-68h-61q-33 0 -42.5 9.5zM205 561l87 215h66l-86 -215h-67z" />
    <glyph glyph-name="ucircumflex" unicode="&#xfb;" horiz-adv-x="542" 
d="M409.5 9.5q-9.5 9.5 -9.5 39.5v49q-23 -50 -67 -79t-105 -29q-96 0 -147.5 67t-51.5 191v259h73v-259q0 -99 35.5 -144.5t106.5 -45.5q70 0 113 51t43 139v259h73v-439h40v-68h-61q-33 0 -42.5 9.5zM222 796l158 -232h-71l-86 129l-86 -130h-71z" />
    <glyph glyph-name="udieresis" unicode="&#xfc;" horiz-adv-x="542" 
d="M409.5 9.5q-9.5 9.5 -9.5 39.5v49q-23 -50 -67 -79t-105 -29q-96 0 -147.5 67t-51.5 191v259h73v-259q0 -99 35.5 -144.5t106.5 -45.5q70 0 113 51t43 139v259h73v-439h40v-68h-61q-33 0 -42.5 9.5zM112.5 576q-16.5 15 -16.5 36q0 22 16.5 37.5t44.5 15.5t43.5 -15
t15.5 -38q0 -21 -16.5 -36t-42.5 -15q-28 0 -44.5 15zM246 649.5q16 15.5 43 15.5q28 0 44.5 -15.5t16.5 -37.5q0 -21 -17.5 -36t-43.5 -15q-27 0 -43 15t-16 36q0 22 16 37.5z" />
    <glyph glyph-name="yacute" unicode="&#xfd;" horiz-adv-x="545" 
d="M103 507l146 -385l193 385h74l-309 -613q-8 -17 -14.5 -23.5t-14 -7.5t-29.5 -1h-81v68h79l61 123l-179 454h74zM253 554l87 215h66l-86 -215h-67z" />
    <glyph glyph-name="ydieresis" unicode="&#xff;" horiz-adv-x="545" 
d="M103 507l146 -385l193 385h74l-309 -613q-8 -17 -14.5 -23.5t-14 -7.5t-29.5 -1h-81v68h79l61 123l-179 454h74zM161.5 568q-16.5 15 -16.5 36q0 22 16.5 37.5t44.5 15.5t43.5 -15t15.5 -38q0 -21 -16.5 -36t-42.5 -15q-28 0 -44.5 15zM295 641.5q16 15.5 43 15.5
q28 0 44.5 -15.5t16.5 -37.5q0 -21 -17.5 -36t-43.5 -15q-27 0 -43 15t-16 36q0 22 16 37.5z" />
    <glyph glyph-name="dotlessi" unicode="&#x131;" horiz-adv-x="131" 
d="M29 507h73v-507h-73v507z" />
    <glyph glyph-name="OE" unicode="&#x152;" horiz-adv-x="1064" 
d="M192 33.5q-75 43.5 -119 119.5t-44 168q0 95 42.5 174t118 124.5t168.5 45.5q79 0 144.5 -33t109.5 -91v66q0 33 9 43t42 10h405v-68h-383v-233h327v-68h-327v-223h382v-68h-404q-33 0 -42 10.5t-9 44.5v61q-45 -59 -111.5 -92.5t-143.5 -33.5q-90 0 -165 43.5zM135 187
q33 -61 91 -95t130 -34q70 0 127.5 33.5t91 94t33.5 137.5q0 79 -33 141.5t-90 97.5t-127 35q-71 0 -129.5 -35.5t-92.5 -97.5t-34 -140q0 -76 33 -137z" />
    <glyph glyph-name="oe" unicode="&#x153;" horiz-adv-x="964" 
d="M152 21.5q-58 34.5 -90.5 94.5t-32.5 135q0 77 31.5 137.5t88.5 94.5t131 34q68 0 122 -28t87 -79q31 54 84 83t123 29q68 0 125 -32.5t90.5 -93t33.5 -139.5l-413 -1v-5q0 -21 -3 -42q13 -68 60 -107t111 -39q63 0 104 31t58 86h73q-20 -85 -82.5 -135t-152.5 -50
q-67 0 -120.5 28.5t-86.5 79.5q-33 -54 -87.5 -85t-122.5 -31q-73 0 -131 34.5zM124.5 151q22.5 -45 62 -70.5t90.5 -25.5q69 0 117.5 42.5t60.5 111.5q-3 23 -3 47q0 16 2 44q-13 69 -60 109t-116 40q-51 0 -91 -24t-62.5 -69t-22.5 -105q0 -55 22.5 -100zM867 310
q-11 67 -56.5 105.5t-114.5 38.5q-66 0 -110 -39t-55 -105h336z" />
    <glyph glyph-name="Scaron" unicode="&#x160;" horiz-adv-x="538" 
d="M368.5 573.5q-44.5 28.5 -125.5 28.5q-71 0 -108.5 -27t-37.5 -82q0 -36 19 -58t47 -33.5t78 -26.5l27 -8l37 -11q64 -19 104.5 -37t69.5 -54.5t29 -95.5q0 -60 -30 -100.5t-78.5 -59.5t-104.5 -19q-100 0 -166 42.5t-94 141.5h74q20 -61 67 -88.5t123 -27.5q59 0 97 27
t38 84q0 34 -20 56t-49.5 34t-77.5 26l-36 11l-30 9q-62 19 -101 37t-67.5 54.5t-28.5 96.5q0 90 60 133.5t159 43.5q105 0 173 -45t94 -137h-76q-21 57 -65.5 85.5zM103 952h71l86 -131l86 130h71l-158 -232z" />
    <glyph glyph-name="scaron" unicode="&#x161;" horiz-adv-x="443" 
d="M156.5 73.5q33.5 -16.5 88.5 -16.5q47 0 73 16.5t26 56.5q0 35 -28.5 54t-91.5 35q-86 21 -139.5 56.5t-53.5 101.5q0 73 51 106t124 34q66 0 123.5 -36t78.5 -120h-73q-12 44 -44.5 66t-82.5 22q-48 0 -77.5 -17t-29.5 -55q1 -64 140 -96q82 -20 127.5 -53t45.5 -98
q0 -70 -47.5 -105t-116.5 -35q-184 0 -211 143h74q10 -43 43.5 -59.5zM56 789h71l86 -131l86 130h71l-158 -232z" />
    <glyph glyph-name="Ydieresis" unicode="&#x178;" horiz-adv-x="605" 
d="M108 660l185 -331l204 331h79l-248 -402v-258h-73v258l-226 402h79zM184.5 714q-16.5 15 -16.5 36q0 22 16.5 37.5t44.5 15.5t43.5 -15t15.5 -38q0 -21 -16.5 -36t-42.5 -15q-28 0 -44.5 15zM318 787.5q16 15.5 43 15.5q28 0 44.5 -15.5t16.5 -37.5q0 -21 -17.5 -36
t-43.5 -15q-27 0 -43 15t-16 36q0 22 16 37.5z" />
    <glyph glyph-name="zcaron" unicode="&#x17e;" horiz-adv-x="472" 
d="M29 507h406v-71l-300 -363h305v-73h-401v73l306 361h-316v73zM82 790h71l86 -131l86 130h71l-158 -232z" />
    <glyph glyph-name="gravecomb" unicode="&#x300;" 
d="M29 660h66l87 -215h-67z" />
    <glyph glyph-name="acutecomb" unicode="&#x301;" 
d="M29 445l87 215h66l-86 -215h-67z" />
    <glyph glyph-name="uni0302" unicode="&#x302;" 
d="M185 666l158 -232h-71l-86 129l-86 -130h-71z" />
    <glyph glyph-name="tildecomb" unicode="&#x303;" 
d="M50 629.5q23 32.5 62 32.5q6 0 18 -2q21 -4 54 -31q9 -7 18.5 -13.5t16.5 -8.5q12 -2 15 -2q21 0 33.5 16t16.5 39h60q-6 -44 -35.5 -80t-71.5 -36q-15 0 -27 4t-24 12.5t-22 17.5q-16 13 -26 19t-21 6q-29 0 -29 -59h-58q-3 53 20 85.5z" />
    <glyph glyph-name="uni0304" unicode="&#x304;" 
d="M29 660h263v-58h-263v58z" />
    <glyph glyph-name="uni0306" unicode="&#x306;" 
d="M112 507.5q-40 23.5 -61.5 64t-21.5 88.5h67q-1 -49 29.5 -78.5t73.5 -29.5q50 0 78 29.5t27 78.5h67q0 -76 -45.5 -126t-120.5 -50q-53 0 -93 23.5z" />
    <glyph glyph-name="uni0307" unicode="&#x307;" 
d="M46 565.5q-17 16.5 -17 38.5q0 23 17.5 39.5t46.5 16.5q31 0 48 -16.5t17 -39.5q0 -22 -18 -38.5t-47 -16.5q-30 0 -47 16.5z" />
    <glyph glyph-name="uni0308" unicode="&#x308;" 
d="M45.5 571q-16.5 15 -16.5 36q0 22 16.5 37.5t44.5 15.5t43.5 -15t15.5 -38q0 -21 -16.5 -36t-42.5 -15q-28 0 -44.5 15zM179 644.5q16 15.5 43 15.5q28 0 44.5 -15.5t16.5 -37.5q0 -21 -17.5 -36t-43.5 -15q-27 0 -43 15t-16 36q0 22 16 37.5z" />
    <glyph glyph-name="uni030A" unicode="&#x30a;" 
d="M62 494.5q-33 30.5 -33 71.5q0 45 32 75t80 30q50 0 82 -29.5t32 -75.5q0 -41 -32 -71.5t-82 -30.5q-46 0 -79 30.5zM90.5 523q18.5 -18 50.5 -18t51.5 18t19.5 44q0 28 -18.5 45.5t-52.5 17.5q-32 0 -50.5 -18t-18.5 -45q0 -26 18.5 -44z" />
    <glyph glyph-name="uni030B" unicode="&#x30b;" 
d="M196 660h66l-86 -215h-67zM115 660h67l-87 -215h-66z" />
    <glyph glyph-name="uni030C" unicode="&#x30c;" 
d="M29 666h71l86 -131l86 130h71l-158 -232z" />
    <glyph glyph-name="uni0312" unicode="&#x312;" 
d="M71 522h68l-41 -181h-69z" />
    <glyph glyph-name="uni0326" unicode="&#x326;" 
d="M117 111h60l-87 -232h-61z" />
    <glyph glyph-name="uni0327" unicode="&#x327;" 
d="M94 -101q68 0 94 12.5t26 42.5q0 29 -31.5 39.5t-106.5 10.5l-43 -1l-4 39l68 100h66l-59 -83q170 -5 170 -105q0 -68 -45.5 -90t-132.5 -22l-61 1v58q44 -2 59 -2z" />
    <glyph glyph-name="uni0328" unicode="&#x328;" 
d="M182 -130q-49 0 -89 25t-55 68q-8 21 -8 47q0 45 28.5 81t69.5 50l31 -2v-44q-29 -9 -49 -33.5t-20 -52.5q0 -13 4 -24q10 -27 33.5 -40t55.5 -13q33 0 66 14l17 -56q-42 -20 -84 -20z" />
    <glyph glyph-name="endash" unicode="&#x2013;" horiz-adv-x="482" 
d="M29 424h424v-68h-424v68z" />
    <glyph glyph-name="emdash" unicode="&#x2014;" horiz-adv-x="547" 
d="M29 424h489v-68h-489v68z" />
    <glyph glyph-name="quoteleft" unicode="&#x2018;" horiz-adv-x="182" 
d="M29 660h69l55 -245h-68z" />
    <glyph glyph-name="quoteright" unicode="&#x2019;" horiz-adv-x="182" 
d="M29 415l55 245h69l-56 -245h-68z" />
    <glyph glyph-name="quotesinglbase" unicode="&#x201a;" horiz-adv-x="182" 
d="M71 75h68l-41 -181h-69z" />
    <glyph glyph-name="quotedblleft" unicode="&#x201c;" horiz-adv-x="278" 
d="M29 660h69l55 -245h-68zM125 659h69l55 -245h-68z" />
    <glyph glyph-name="quotedblright" unicode="&#x201d;" horiz-adv-x="273" 
d="M120 415l55 245h69l-56 -245h-68zM84 660h69l-56 -245h-68z" />
    <glyph glyph-name="quotedblbase" unicode="&#x201e;" horiz-adv-x="272" 
d="M71 75h68l-41 -181h-69zM162 75h68l-41 -181h-69z" />
    <glyph glyph-name="dagger" unicode="&#x2020;" horiz-adv-x="456" 
d="M194 466h-165v69h164v125h69v-125h165v-69h-165v-262h-68v262z" />
    <glyph glyph-name="bullet" unicode="&#x2022;" horiz-adv-x="210" 
d="M50.5 230.5q-21.5 20.5 -21.5 50.5t21.5 50t54.5 20q34 0 55.5 -20t21.5 -50t-21.5 -50.5t-55.5 -20.5q-33 0 -54.5 20.5z" />
    <glyph glyph-name="ellipsis" unicode="&#x2026;" horiz-adv-x="476" 
d="M45.5 16q-16.5 16 -16.5 39t16.5 38.5t42.5 15.5t42.5 -15.5t16.5 -38.5t-16.5 -39t-42.5 -16t-42.5 16zM197.5 16q-16.5 16 -16.5 39t16.5 38.5t42.5 15.5t42.5 -15.5t16.5 -38.5t-16.5 -39t-42.5 -16t-42.5 16zM345.5 16q-16.5 16 -16.5 39t16.5 38.5t42.5 15.5
t42.5 -15.5t16.5 -38.5t-16.5 -39t-42.5 -16t-42.5 16z" />
    <glyph glyph-name="perthousand" unicode="&#x2030;" horiz-adv-x="1647" 
d="M146.5 145.5q-52.5 32.5 -85 96.5t-32.5 153t32.5 152.5t85 95.5t112.5 32q63 0 116.5 -32t85.5 -95.5t32 -152.5q0 -90 -32 -153.5t-85 -96t-117 -32.5q-60 0 -112.5 32.5zM112 269q23 -51 62 -75.5t85 -24.5q77 0 125.5 57t48.5 169t-48.5 168t-125.5 56
q-46 0 -85 -24.5t-62 -74.5t-23 -125t23 -126zM669 659h73l-278 -660h-73zM691.5 425.5q32.5 63.5 85 95.5t112.5 32q63 0 116.5 -32t85.5 -95.5t32 -152.5q0 -90 -32 -153.5t-85 -96t-117 -32.5q-60 0 -112.5 32.5t-85 96.5t-32.5 153t32.5 152.5zM742 147q23 -51 62 -75.5
t85 -24.5q77 0 125.5 57t48.5 169t-48.5 168t-125.5 56q-46 0 -85 -24.5t-62 -74.5t-23 -125t23 -126zM1185.5 434.5q32.5 63.5 85 95.5t112.5 32q63 0 116.5 -32t85.5 -95.5t32 -152.5q0 -90 -32 -153.5t-85 -96t-117 -32.5q-60 0 -112.5 32.5t-85 96.5t-32.5 153
t32.5 152.5zM1236 156q23 -51 62 -75.5t85 -24.5q77 0 125.5 57t48.5 169t-48.5 168t-125.5 56q-46 0 -85 -24.5t-62 -74.5t-23 -125t23 -126z" />
    <glyph glyph-name="guilsinglleft" unicode="&#x2039;" horiz-adv-x="378" 
d="M29 279l244 210h76l-242 -213l231 -209h-76z" />
    <glyph glyph-name="guilsinglright" unicode="&#x203a;" horiz-adv-x="378" 
d="M40 67l231 209l-242 213h76l244 -210l-233 -212h-76z" />
    <glyph glyph-name="fraction" unicode="&#x2044;" horiz-adv-x="409" 
d="M307 660h73l-278 -660h-73z" />
    <glyph glyph-name="Euro" unicode="&#x20ac;" horiz-adv-x="808" 
d="M715 109q-46 -56 -111 -87.5t-139 -31.5t-139 30.5t-110.5 85t-64.5 123.5h-122v68h109q-1 8 -1 24q0 14 2 38h-109v68h124q20 69 64.5 123t108.5 84.5t139 30.5q77 0 141 -31t108 -86t62 -127h-72q-26 83 -91.5 131t-147.5 48q-81 0 -146 -48t-91 -125h152v-68h-172
q-2 -22 -2 -35q0 -9 2 -27h172v-68h-153q23 -77 88.5 -125.5t148.5 -48.5q87 0 152.5 50t89.5 133h72q-18 -73 -64 -129z" />
    <glyph glyph-name="trademark" unicode="&#x2122;" horiz-adv-x="630" 
d="M340 574v-226h-46v265h-117v-265h-46v265h-102v47h302l114 -143l119 143h37v-312h-46v228l-100 -118h-21z" />
    <glyph glyph-name="minus" unicode="&#x2212;" horiz-adv-x="427" 
d="M29 283h369v-68h-369v68z" />
    <glyph glyph-name="BeeType" horiz-adv-x="641" 
d="M94 115.5q-32 12.5 -54 36t-22 54.5q0 40 34 78t94.5 65t134.5 35l9 1q-7 8 -13 22t-6 24q0 24 18 42q5 5 5 7q0 4 -4 8q-4 5 -38 45q-2 2 -2 7t3.5 8.5t7.5 3.5q7 0 11 -7l30 -49q4 -7 6 -8t9 0q5 2 14 2q8 0 13 -2l5 -1q2 0 4 3t4 5l32 51q5 5 9 5q6 0 8.5 -6t-1.5 -12
l-17 -22l-19 -26q-3 -4 3 -10q20 -23 20 -45q0 -19 -18 -47q65 -10 122.5 -36.5t92 -62.5t34.5 -74q0 -28 -22 -50.5t-54.5 -35.5t-59.5 -13q-42 0 -82 28t-64 73l-16 29l-18 -32q-24 -43 -64 -74.5t-88 -31.5q-29 0 -61 12.5zM61.5 167q17.5 -18 43.5 -28t50 -10
q74 0 130 95q3 5 11 19t15.5 23t13.5 9q7 0 14 -9t14 -21.5t11 -19.5q28 -44 58 -65.5t65 -21.5q21 0 47.5 10t44.5 27t17 36q-2 43 -50.5 77t-112.5 53t-108 19q-57 0 -123.5 -20t-112 -55t-45.5 -78q0 -22 17.5 -40z" />
    </font>
</defs>
</svg>
