<?xml version="1.0" standalone="no"?>
<!DOCTYPE svg PUBLIC "-//W3C//DTD SVG 1.1//EN" "http://www.w3.org/Graphics/SVG/1.1/DTD/svg11.dtd" >
<svg xmlns="http://www.w3.org/2000/svg" xmlns:xlink="http://www.w3.org/1999/xlink" version="1.1">
<metadata>
Created by FontForge 20201107 at Fri Nov 18 10:06:54 2022
 By 
Copyright (c) 2022 by beetype. All rights reserved.
</metadata>
<defs>
<font id="NeueLeiden-Thin" horiz-adv-x="0" >
  <font-face 
    font-family="Neue Leiden Thin"
    font-weight="100"
    font-stretch="normal"
    units-per-em="1000"
    panose-1="0 0 0 0 0 0 0 0 0 0"
    ascent="800"
    descent="-200"
    x-height="507"
    cap-height="660"
    bbox="18 -277 1585 921"
    underline-thickness="50"
    underline-position="-125"
    unicode-range="U+0020-FB02"
  />
<missing-glyph horiz-adv-x="685" 
d="M116 115.5q-32 12.5 -54 36t-22 54.5q0 40 34 78t94.5 65t134.5 35l9 1q-7 8 -13 22t-6 24q0 24 18 42q5 5 5 7q0 4 -4 8q-4 5 -38 45q-2 2 -2 7t3.5 8.5t7.5 3.5q7 0 11 -7l30 -49q4 -7 6 -8t9 0q5 2 14 2q8 0 13 -2l5 -1q2 0 4 3t4 5l32 51q5 5 9 5q6 0 8.5 -6
t-1.5 -12l-17 -22l-19 -26q-3 -4 3 -10q20 -23 20 -45q0 -19 -18 -47q65 -10 122.5 -36.5t92 -62.5t34.5 -74q0 -28 -22 -50.5t-54.5 -35.5t-59.5 -13q-42 0 -82 28t-64 73l-16 29l-18 -32q-24 -43 -64 -74.5t-88 -31.5q-29 0 -61 12.5zM83.5 167q17.5 -18 43.5 -28t50 -10
q74 0 130 95q3 5 11 19t15.5 23t13.5 9q7 0 14 -9t14 -21.5t11 -19.5q28 -44 58 -65.5t65 -21.5q21 0 47.5 10t44.5 27t17 36q-2 43 -50.5 77t-112.5 53t-108 19q-57 0 -123.5 -20t-112 -55t-45.5 -78q0 -22 17.5 -40z" />
    <glyph glyph-name="fi" unicode="fi" horiz-adv-x="488" 
d="M106 403h-66v24h66v208q0 18 4 21.5t23 3.5h315v-24h-318v-209h249q19 0 23 -3.5t4 -21.5v-378h42v-24h-39q-19 0 -23 3.5t-4 21.5v378h-252v-403h-25z" />
    <glyph glyph-name="fl" unicode="fl" horiz-adv-x="488" 
d="M106 403h-66v24h66v208q0 18 4 21.5t23 3.5h273v-636h42v-24h-39q-19 0 -23 3.5t-4 21.5v611h-252v-209h92v-24h-92v-403h-25z" />
    <glyph glyph-name="TT" unicode="TT" horiz-adv-x="740" 
d="M252 636h-212v24h660v-24h-212v-636h-23v636h-190v-636h-23v636z" />
    <glyph glyph-name="ff" unicode="ff" horiz-adv-x="604" 
d="M106 403h-66v24h66v208q0 18 4 21.5t23 3.5h159v-24h-162v-209h228v208q0 18 4 21.5t23 3.5h179v-24h-182v-209h132v-24h-132v-403h-25l1 403h-228v-403h-25z" />
    <glyph glyph-name="ffj" unicode="ffj" horiz-adv-x="574" 
d="M106 403h-66v24h66v208q0 18 4 21.5t23 3.5h159v-24h-162v-209h198v208q0 18 4 21.5t23 3.5h179v-24h-182v-209h182v-624q0 -18 -4 -21.5t-23 -3.5h-169v24h172v601h-158v-403h-25l1 403h-198v-403h-25z" />
    <glyph glyph-name="ffl" unicode="ffl" horiz-adv-x="636" 
d="M106 403h-66v24h66v208q0 18 4 21.5t23 3.5h159v-24h-162v-209h198v208q0 18 4 21.5t23 3.5h199v-636h42v-24h-39q-19 0 -23 3.5t-4 21.5v611h-178v-209h132v-24h-132v-403h-25l1 403h-198v-403h-25z" />
    <glyph glyph-name="fj" unicode="fj" horiz-adv-x="337" 
d="M45 656.5q4 3.5 23 3.5h229v-24h-232v-209h232v-624q0 -18 -4 -21.5t-23 -3.5h-169v24h172v601h-208v-403h-25l1 635q0 18 4 21.5z" />
    <glyph glyph-name="ft" unicode="ft" horiz-adv-x="624" 
d="M106 403h-66v24h66v208q0 18 4 21.5t23 3.5h239v-233h92v-24h-92v-379h212v-24h-209q-19 0 -23 3.5t-4 21.5v378h-218v-403h-25zM348 427v209h-218v-209h218z" />
    <glyph glyph-name="ti" unicode="ti" horiz-adv-x="488" 
d="M110 3.5q-4 3.5 -4 21.5v458h-66v24h66v153h24v-153h249q19 0 23 -3.5t4 -21.5v-458h42v-24h-39q-19 0 -23 3.5t-4 21.5v458h-252v-459h152v-24h-149q-19 0 -23 3.5z" />
    <glyph glyph-name="tj" unicode="tj" horiz-adv-x="402" 
d="M110 3.5q-4 3.5 -4 21.5v458h-66v24h66v153h24v-153h232v-624q0 -18 -4 -21.5t-23 -3.5h-169v24h172v601h-208v-459h152v-24h-149q-19 0 -23 3.5z" />
    <glyph glyph-name="tt" unicode="tt" horiz-adv-x="472" 
d="M110 3.5q-4 3.5 -4 21.5v458h-66v24h66v153h24v-153h146v153h24v-153h92v-24h-92v-459h132v-24h-129q-19 0 -23 3.5t-4 21.5v458h-146v-459h122v-24h-119q-19 0 -23 3.5z" />
    <glyph glyph-name=".notdef" horiz-adv-x="685" 
d="M116 115.5q-32 12.5 -54 36t-22 54.5q0 40 34 78t94.5 65t134.5 35l9 1q-7 8 -13 22t-6 24q0 24 18 42q5 5 5 7q0 4 -4 8q-4 5 -38 45q-2 2 -2 7t3.5 8.5t7.5 3.5q7 0 11 -7l30 -49q4 -7 6 -8t9 0q5 2 14 2q8 0 13 -2l5 -1q2 0 4 3t4 5l32 51q5 5 9 5q6 0 8.5 -6
t-1.5 -12l-17 -22l-19 -26q-3 -4 3 -10q20 -23 20 -45q0 -19 -18 -47q65 -10 122.5 -36.5t92 -62.5t34.5 -74q0 -28 -22 -50.5t-54.5 -35.5t-59.5 -13q-42 0 -82 28t-64 73l-16 29l-18 -32q-24 -43 -64 -74.5t-88 -31.5q-29 0 -61 12.5zM83.5 167q17.5 -18 43.5 -28t50 -10
q74 0 130 95q3 5 11 19t15.5 23t13.5 9q7 0 14 -9t14 -21.5t11 -19.5q28 -44 58 -65.5t65 -21.5q21 0 47.5 10t44.5 27t17 36q-2 43 -50.5 77t-112.5 53t-108 19q-57 0 -123.5 -20t-112 -55t-45.5 -78q0 -22 17.5 -40z" />
    <glyph glyph-name=".null" 
 />
    <glyph glyph-name="nonmarkingreturn" horiz-adv-x="333" 
 />
    <glyph glyph-name="space" unicode=" " horiz-adv-x="506" 
 />
    <glyph glyph-name="space" unicode="&#xa0;" horiz-adv-x="506" 
 />
    <glyph glyph-name="exclam" unicode="!" horiz-adv-x="156" 
d="M63 660h24v-508h-24v508zM49.5 56q9.5 9 27.5 9q19 0 29 -9t10 -24q0 -13 -11 -22.5t-28 -9.5t-27 9.5t-10 22.5q0 15 9.5 24z" />
    <glyph glyph-name="quotedbl" unicode="&#x22;" horiz-adv-x="198" 
d="M40 660h24l50 -222h-24zM84 660h24l50 -222h-24z" />
    <glyph glyph-name="numbersign" unicode="#" horiz-adv-x="682" 
d="M205 278h-165l9 24h166l41 96h-166l9 24h167l100 238h24l-100 -238h96l100 238h24l-100 -238h232l-10 -24h-232l-41 -96h233l-10 -24h-233l-117 -278h-24l117 278h-96l-117 -278h-24zM335 302l41 96h-96l-41 -96h96z" />
    <glyph glyph-name="dollar" unicode="$" horiz-adv-x="537" 
d="M382.5 609q-47.5 37 -138.5 37q-81 0 -130.5 -34t-49.5 -106q0 -46 23 -75t55 -44t85 -32l35 -12l45 -15q62 -19 99.5 -36t64 -50t26.5 -86q0 -79 -54 -121t-131 -45v-61h-24v61q-78 2 -135 41.5t-83 122.5h25q23 -72 75.5 -106t137.5 -34q41 0 79 15.5t62 48t24 78.5
q0 45 -24.5 74t-58.5 44.5t-90 32.5l-38 12l-38 12q-61 20 -97 37t-61.5 50.5t-25.5 87.5q0 83 53.5 122.5t143.5 41.5v55h24v-55q169 -7 217 -164h-26q-22 66 -69.5 103z" />
    <glyph glyph-name="percent" unicode="%" horiz-adv-x="1142" 
d="M155.5 139q-51.5 32 -83.5 96t-32 154t32 153t83.5 95t110.5 32q62 0 114.5 -31.5t84 -95t31.5 -153.5q0 -91 -31.5 -154.5t-84 -95.5t-114.5 -32q-59 0 -110.5 32zM89 245.5q29 -59.5 76 -89t101 -29.5q58 0 105.5 29.5t76 88.5t28.5 144q0 84 -28.5 142.5t-76 88
t-105.5 29.5q-54 0 -101 -29.5t-76 -88t-29 -142.5t29 -143.5zM699 659h24l-278 -660h-24zM678 430q32 63 83.5 95t110.5 32q62 0 114.5 -31.5t84 -95t31.5 -153.5q0 -91 -31.5 -154.5t-84 -95.5t-114.5 -32q-59 0 -110.5 32t-83.5 96t-32 154t32 153zM695 133.5
q29 -59.5 76 -89t101 -29.5q58 0 105.5 29.5t76 88.5t28.5 144q0 84 -28.5 142.5t-76 88t-105.5 29.5q-54 0 -101 -29.5t-76 -88t-29 -142.5t29 -143.5z" />
    <glyph glyph-name="ampersand" unicode="&#x26;" horiz-adv-x="662" 
d="M137 14.5q-46 24.5 -71.5 66.5t-25.5 94q0 51 24 92t65.5 64t90.5 23q-2 2 -9 8.5t-24 22.5q-66 68 -66 136q0 41 21.5 75.5t59.5 54t85 19.5q98 0 149.5 -59.5t51.5 -168.5h-18q-2 101 -49.5 155.5t-132.5 54.5q-40 0 -74 -17.5t-54 -47.5t-20 -66q0 -42 22 -76.5
t73 -81.5l387 -363h-27l-177 164q0 -49 -23.5 -88.5t-63.5 -62.5t-89 -23q-59 0 -105 24.5zM82 91.5q24 -38.5 65.5 -61t90.5 -22.5q44 0 82.5 22.5t60.5 63t17 91.5l-162 154q-50 0 -90.5 -21t-64 -59t-23.5 -85q0 -44 24 -82.5z" />
    <glyph glyph-name="quotesingle" unicode="'" horiz-adv-x="154" 
d="M40 660h24l50 -222h-24z" />
    <glyph glyph-name="parenleft" unicode="(" horiz-adv-x="367" 
d="M182 2.5q-65 40.5 -103.5 123.5t-38.5 205t38.5 204.5t103.5 122.5t145 42v-24q-74 -2 -133.5 -39t-94.5 -114t-35 -192t35 -192.5t94.5 -115t133.5 -39.5v-24q-80 2 -145 42.5z" />
    <glyph glyph-name="parenright" unicode=")" horiz-adv-x="367" 
d="M173.5 23.5q59.5 37.5 94.5 115t35 192.5t-35 192t-94.5 114t-133.5 39v24q80 -2 145 -42t103.5 -122.5t38.5 -204.5t-38.5 -205t-103.5 -123.5t-145 -42.5v24q74 2 133.5 39.5z" />
    <glyph glyph-name="asterisk" unicode="*" horiz-adv-x="463" 
d="M219 439l-116 -117l-17 17l121 122h-167v24h165l-113 113l17 17l109 -109v154h25v-163l115 116l18 -18l-111 -110h158v-24h-160l117 -117l-17 -17l-120 120v-173h-24v165z" />
    <glyph glyph-name="plus" unicode="+" horiz-adv-x="423" 
d="M199 294h-159v24h158v175h25v-175h160v-24h-160v-187h-24v187z" />
    <glyph glyph-name="comma" unicode="," horiz-adv-x="143" 
d="M79 87h24l-39 -164h-24z" />
    <glyph glyph-name="hyphen" unicode="-" horiz-adv-x="423" 
d="M40 245h343v-24h-343v24z" />
    <glyph glyph-name="period" unicode="." horiz-adv-x="157" 
d="M51.5 11.5q-11.5 11.5 -11.5 27.5t11.5 27t27.5 11t27 -11t11 -27t-11 -27.5t-27 -11.5t-27.5 11.5z" />
    <glyph glyph-name="slash" unicode="/" horiz-adv-x="382" 
d="M318 660h24l-278 -660h-24z" />
    <glyph glyph-name="zero" unicode="0" horiz-adv-x="632" 
d="M179.5 29q-62.5 39 -101 116t-38.5 186t38.5 185.5t101 115t133.5 38.5q76 0 139.5 -38t101.5 -114.5t38 -186.5t-38 -187t-101.5 -115.5t-139.5 -38.5q-71 0 -133.5 39zM99 157.5q35 -71.5 92 -107.5t122 -36q70 0 128 35.5t92.5 107.5t34.5 174t-34.5 173t-92.5 106.5
t-128 35.5q-65 0 -122 -35.5t-92 -107t-35 -172.5q0 -102 35 -173.5z" />
    <glyph glyph-name="one" unicode="1" horiz-adv-x="307" 
d="M40 24h101v612h-72v24h96v-636h102v-24h-227v24z" />
    <glyph glyph-name="two" unicode="2" horiz-adv-x="504" 
d="M116.5 204q22.5 34 59.5 51.5t109 37.5q155 43 155 159q0 95 -52.5 144.5t-140.5 49.5q-76 0 -126.5 -49.5t-56.5 -136.5h-24q2 62 29.5 109.5t73.5 74t104 26.5q98 0 157.5 -57.5t59.5 -160.5q0 -75 -47.5 -117.5t-131.5 -65.5q-61 -16 -94 -32t-53.5 -46t-27.5 -85
l-10 -82h362v-24h-389l13 106q8 64 30.5 98z" />
    <glyph glyph-name="three" unicode="3" horiz-adv-x="544" 
d="M433.5 363q70.5 -51 70.5 -158q0 -98 -62 -156.5t-170 -58.5q-61 0 -111.5 28t-82 76t-38.5 106h24q14 -83 70.5 -134.5t137.5 -51.5q98 0 153 50.5t55 140.5q0 108 -75.5 148.5t-171.5 40.5v24l199 220h-372v24l408 -2v-22l-202 -220q97 -4 167.5 -55z" />
    <glyph glyph-name="four" unicode="4" horiz-adv-x="568" 
d="M338 660h28v-454h162v-24h-162v-182h-24v182l-302 1v23zM342 206v419l-273 -419h273z" />
    <glyph glyph-name="five" unicode="5" horiz-adv-x="553" 
d="M98 660h347v-24h-327l-40 -236q55 117 198 117q71 0 124.5 -33t83 -93t29.5 -137q0 -73 -29.5 -133.5t-83.5 -95.5t-124 -35q-61 0 -110 28t-79.5 76t-37.5 106h24q14 -83 68.5 -134.5t134.5 -51.5q62 0 110.5 31.5t75.5 86t27 122.5q0 110 -56 174.5t-157 64.5
q-175 0 -202 -175h-34z" />
    <glyph glyph-name="six" unicode="6" horiz-adv-x="548" 
d="M397.5 609q-51.5 37 -126.5 37q-99 0 -153 -64.5t-54 -174.5v-55q27 64 80.5 99.5t126.5 35.5q109 0 173 -66.5t64 -182.5q0 -73 -29.5 -129t-83 -87.5t-124.5 -31.5q-70 0 -122.5 31.5t-80.5 87.5t-28 129v169q0 78 28 137.5t80.5 92.5t122.5 33q82 0 140.5 -44
t82.5 -120h-24q-21 66 -72.5 103zM120.5 75q56.5 -61 150.5 -61q63 0 111.5 27.5t75 78.5t26.5 118q0 108 -55.5 166.5t-157.5 58.5q-66 0 -112.5 -29.5t-70.5 -80.5t-24 -115q0 -102 56.5 -163z" />
    <glyph glyph-name="seven" unicode="7" horiz-adv-x="451" 
d="M199 0h-24l212 636h-347v24h371v-24z" />
    <glyph glyph-name="eight" unicode="8" horiz-adv-x="508" 
d="M93.5 38.5q-53.5 48.5 -53.5 130.5q0 66 31 111t90 64q-60 18 -90.5 59t-30.5 97q0 80 54.5 125t156.5 45q101 0 159 -45.5t58 -124.5q0 -56 -32.5 -97t-94.5 -59q60 -19 93.5 -64.5t33.5 -110.5q0 -82 -56 -130.5t-161 -48.5q-104 0 -157.5 48.5zM111 54.5
q47 -40.5 140 -40.5q94 0 143.5 41t49.5 114q0 79 -49.5 121.5t-143.5 42.5q-91 0 -139 -42.5t-48 -121.5q0 -74 47 -114.5zM111.5 395.5q47.5 -38.5 139.5 -38.5q93 0 143 38.5t50 104.5q0 71 -49.5 108.5t-143.5 37.5q-91 0 -139 -37.5t-48 -108.5q0 -66 47.5 -104.5z" />
    <glyph glyph-name="nine" unicode="9" horiz-adv-x="548" 
d="M150.5 50q51.5 -37 126.5 -37q99 0 153 64.5t54 174.5v55q-27 -64 -80.5 -99.5t-126.5 -35.5q-109 0 -173 66.5t-64 182.5q0 73 29.5 129t83 87.5t124.5 31.5q70 0 122.5 -31.5t80.5 -87.5t28 -129v-169q0 -78 -28 -137.5t-80.5 -92.5t-122.5 -33q-82 0 -140.5 44
t-82.5 120h24q21 -66 72.5 -103zM119.5 254.5q55.5 -58.5 157.5 -58.5q66 0 112.5 29.5t70.5 80.5t24 115q0 102 -56.5 163t-150.5 61q-63 0 -111.5 -27.5t-75 -78.5t-26.5 -118q0 -108 55.5 -166.5z" />
    <glyph glyph-name="colon" unicode=":" horiz-adv-x="158" 
d="M52.5 83.5q-11.5 11.5 -11.5 27.5t11.5 27t27.5 11t27 -11t11 -27t-11 -27.5t-27 -11.5t-27.5 11.5zM51.5 434.5q-11.5 11.5 -11.5 27.5t11.5 27t27.5 11t27 -11t11 -27t-11 -27.5t-27 -11.5t-27.5 11.5z" />
    <glyph glyph-name="semicolon" unicode=";" horiz-adv-x="180" 
d="M74.5 434.5q-11.5 11.5 -11.5 27.5t11.5 27t27.5 11t27 -11t11 -27t-11 -27.5t-27 -11.5t-27.5 11.5zM79 120h24l-39 -164h-24z" />
    <glyph glyph-name="less" unicode="&#x3c;" horiz-adv-x="346" 
d="M40 275l236 204h30l-235 -204l224 -206h-30z" />
    <glyph glyph-name="equal" unicode="=" horiz-adv-x="381" 
d="M40 351h301v-24h-301v24zM40 250h301v-24h-301v24z" />
    <glyph glyph-name="greater" unicode="&#x3e;" horiz-adv-x="346" 
d="M275 275l-235 204h30l236 -204l-225 -206h-30z" />
    <glyph glyph-name="question" unicode="?" horiz-adv-x="518" 
d="M83 247q22 34 55 50.5t92 36.5l26 9l35 12q53 17 85 32t55 44t23 75q0 72 -49.5 106t-130.5 34q-91 0 -138.5 -37t-69.5 -103h-26q25 81 82 122.5t152 41.5q94 0 149 -40t55 -124q0 -54 -25.5 -87.5t-61.5 -50.5t-97 -37l-38 -12l-63 -21t-81 -53.5t-27 -88.5v-48h-24v48
q0 57 22 91zM53.5 50.5q8.5 8.5 21.5 8.5q12 0 20.5 -8.5t8.5 -20.5t-8.5 -21t-20.5 -9q-13 0 -21.5 9t-8.5 21t8.5 20.5z" />
    <glyph glyph-name="at" unicode="@" horiz-adv-x="618" 
d="M168 111.5q-58 33.5 -93 100.5t-35 163q0 95 36.5 162t97 100t131.5 33q75 0 137 -32t99 -97t37 -161q0 -92 -23.5 -138.5t-61.5 -46.5q-54 0 -61 84q-19 -45 -56.5 -69t-86.5 -24q-73 0 -116 47.5t-43 130.5q0 84 43 131.5t116 47.5q49 0 86.5 -24.5t56.5 -69.5v87h20
v-245q0 -24 10 -49.5t30 -25.5q29 0 45.5 41.5t16.5 122.5q0 86 -33 146t-89.5 90t-126.5 30q-66 0 -120.5 -31t-87.5 -92.5t-33 -147.5q0 -88 31 -149.5t84 -92.5t118 -31v-24q-71 0 -129 33.5zM192 249.5q38 -39.5 97 -39.5q35 0 66 17.5t50 52t19 84.5q0 72 -38 113.5
t-98 41.5q-59 0 -96.5 -39.5t-37.5 -115.5q0 -75 38 -114.5z" />
    <glyph glyph-name="A" unicode="A" horiz-adv-x="676" 
d="M331 660h26l279 -660h-24l-94 217h-356l-98 -217h-24zM508 238l-164 398l-173 -398h337z" />
    <glyph glyph-name="B" unicode="B" horiz-adv-x="537" 
d="M43.5 4q-3.5 4 -3.5 23v606q0 19 3.5 23t21.5 4h194q235 0 235 -169q0 -60 -35.5 -105t-92.5 -57q58 -15 94.5 -58t36.5 -101q0 -82 -58.5 -126t-179.5 -44h-194q-18 0 -21.5 4zM259 24q214 0 214 146q0 67 -53 106.5t-161 39.5h-195v-292h195zM259 342q211 0 211 149
q0 69 -48.5 107t-162.5 38h-195v-294h195z" />
    <glyph glyph-name="C" unicode="C" horiz-adv-x="718" 
d="M612 102q-46 -53 -109.5 -82.5t-136.5 -29.5q-91 0 -165.5 44.5t-117.5 120.5t-43 165q0 92 42.5 170t117.5 124t168 46q75 0 138.5 -30t107 -83.5t63.5 -121.5h-23q-31 98 -109.5 155.5t-175.5 57.5q-83 0 -153.5 -41.5t-112 -113.5t-41.5 -161q0 -88 41.5 -159
t111.5 -111t152 -40q103 0 180 57.5t107 152.5h24q-20 -67 -66 -120z" />
    <glyph glyph-name="D" unicode="D" horiz-adv-x="594" 
d="M43.5 4q-3.5 4 -3.5 23v606q0 19 3.5 23t21.5 4h196q82 0 148 -34.5t105.5 -107.5t39.5 -182q0 -110 -39.5 -185.5t-106 -113t-147.5 -37.5h-196q-18 0 -21.5 4zM261 24q75 0 136 34.5t97 104.5t36 173q0 102 -36 169t-96.5 99t-136.5 32h-197v-612h197z" />
    <glyph glyph-name="E" unicode="E" horiz-adv-x="512" 
d="M43.5 4q-3.5 4 -3.5 23v606q0 19 3.5 23t21.5 4h407v-24h-408v-286h339v-24h-339v-302h407v-24h-406q-18 0 -21.5 4z" />
    <glyph glyph-name="F" unicode="F" horiz-adv-x="512" 
d="M43.5 656q3.5 4 21.5 4h407v-24h-408v-286h309v-24h-309v-326h-24v633q0 19 3.5 23z" />
    <glyph glyph-name="G" unicode="G" horiz-adv-x="706" 
d="M666 24h-42v263q0 19 -3.5 23t-21.5 4h-234v-24h235q0 -92 -38 -154t-98.5 -92t-130.5 -30q-75 0 -136 35.5t-97 107t-36 174.5q0 102 36 173t97 106.5t136 35.5q101 0 171.5 -55.5t93.5 -162.5h25q-24 118 -102 180t-188 62q-81 0 -147.5 -38t-106 -114.5t-39.5 -186.5
t39.5 -187t106 -115.5t147.5 -38.5q91 0 161 43t106 127v-135q0 -18 4 -21.5t23 -3.5h39v24z" />
    <glyph glyph-name="H" unicode="H" horiz-adv-x="532" 
d="M40 660h25v-307h403v307h24v-660h-24v329h-404v-329h-24v660z" />
    <glyph glyph-name="I" unicode="I" horiz-adv-x="187" 
d="M40 24h42v612h-42v24h107v-24h-42v-612h42v-24h-107v24z" />
    <glyph glyph-name="J" unicode="J" horiz-adv-x="352" 
d="M308.5 656q3.5 -4 3.5 -23v-419q0 -82 -24.5 -129t-73 -66t-125.5 -19h-49v24h49q104 0 151.5 43t47.5 147v422h-112v24h111q18 0 21.5 -4z" />
    <glyph glyph-name="K" unicode="K" horiz-adv-x="450" 
d="M65 660v-310l311 310h34l-332 -330h307q17 0 21 -4t4 -23v-303h-24v306h-320l-2 -306h-24v660h25z" />
    <glyph glyph-name="L" unicode="L" horiz-adv-x="408" 
d="M40 660h24v-636h304v-24h-300q-19 0 -23 4t-4 22z" />
    <glyph glyph-name="M" unicode="M" horiz-adv-x="624" 
d="M40 660h24l248 -345l248 345h24v-660h-24v621l-232 -324h-32l-232 324v-621h-24v660z" />
    <glyph glyph-name="N" unicode="N" horiz-adv-x="579" 
d="M40 660h24l451 -626v626h24l-2 -660h-24l-449 621v-621h-24v660z" />
    <glyph glyph-name="O" unicode="O" horiz-adv-x="732" 
d="M200.5 34.5q-74.5 44.5 -117.5 120.5t-43 165q0 92 42.5 170t117.5 124t168 46t167 -46t115.5 -124t41.5 -170q0 -89 -43 -165t-117.5 -120.5t-165.5 -44.5t-165.5 44.5zM104.5 163.5q40.5 -70.5 109.5 -110t151 -39.5t151.5 39.5t110.5 110t41 158.5q0 87 -39.5 159
t-108 113.5t-151.5 41.5t-153 -42t-111 -114t-41 -158q0 -88 40.5 -158.5z" />
    <glyph glyph-name="P" unicode="P" horiz-adv-x="504" 
d="M43.5 656q3.5 4 21.5 4h164q128 0 181.5 -58.5t53.5 -149.5t-53.5 -149.5t-181.5 -58.5h-165v-244h-24v633q0 19 3.5 23zM229 268q116 0 163.5 53.5t47.5 130.5q0 184 -211 184h-165v-368h165z" />
    <glyph glyph-name="Q" unicode="Q" horiz-adv-x="732" 
d="M82.5 490q42.5 78 117.5 124t168 46t167 -46t115.5 -124t41.5 -170q0 -87 -41.5 -161.5t-113.5 -120t-160 -48.5l-21 -87h92v-23h-93q-13 0 -18 3t-5 11q0 6 3 17l17 79q-87 3 -158.5 48.5t-112.5 120t-41 161.5q0 92 42.5 170zM104.5 163.5q40.5 -70.5 109.5 -110
t151 -39.5t151.5 39.5t110.5 110t41 158.5q0 87 -39.5 159t-108 113.5t-151.5 41.5t-153 -42t-111 -114t-41 -158q0 -88 40.5 -158.5z" />
    <glyph glyph-name="R" unicode="R" horiz-adv-x="504" 
d="M43.5 656q3.5 4 21.5 4h164q128 0 181.5 -58.5t53.5 -149.5q0 -70 -32 -122.5t-106 -73.5q74 -21 106 -73.5t32 -122.5v-60h-24v60q0 184 -211 184h-165v-244h-24v633q0 19 3.5 23zM229 268q116 0 163.5 53.5t47.5 130.5q0 184 -211 184h-165v-368h165z" />
    <glyph glyph-name="S" unicode="S" horiz-adv-x="537" 
d="M399.5 609.5q-50.5 36.5 -155.5 36.5q-88 0 -139 -34t-51 -106q0 -49 26 -79t62.5 -45.5t98.5 -32.5l21 -6l33 -9q69 -19 111 -36.5t71.5 -51.5t29.5 -90q0 -83 -59.5 -124.5t-147.5 -41.5q-97 0 -160 38t-90 126h25q23 -73 78 -106.5t153 -33.5q73 0 125 36t52 106
q0 48 -27.5 78t-66 45.5t-99.5 31.5l-28 8q-16 4 -24 7q-69 19 -110 36t-69.5 52t-28.5 92q0 85 56.5 124.5t157.5 39.5q109 0 169 -41t85 -123h-26q-22 67 -72.5 103.5z" />
    <glyph glyph-name="T" unicode="T" horiz-adv-x="529" 
d="M252 636h-212v24h449v-24h-214v-636h-23v636z" />
    <glyph glyph-name="U" unicode="U" horiz-adv-x="626" 
d="M179 24q-62 34 -100.5 106t-38.5 181v349h24v-349q0 -101 34.5 -168t91 -98t123.5 -31q110 0 179.5 73t69.5 224v349h24v-349q0 -109 -36.5 -181t-98 -106t-138.5 -34q-72 0 -134 34z" />
    <glyph glyph-name="V" unicode="V" horiz-adv-x="687" 
d="M40 660h23l281 -631l279 631h24l-293 -660h-21z" />
    <glyph glyph-name="W" unicode="W" horiz-adv-x="926" 
d="M63 660l240 -632l152 632h16l151 -632l240 632h24l-252 -660h-28l-143 597l-143 -597h-28l-252 660h23z" />
    <glyph glyph-name="X" unicode="X" horiz-adv-x="608" 
d="M281 329l-240 331h28l226 -311l244 311h28l-258 -331l259 -329h-28l-245 312l-227 -312h-28z" />
    <glyph glyph-name="Y" unicode="Y" horiz-adv-x="576" 
d="M65 660l213 -377l233 377h25l-247 -401v-259h-24v259l-225 401h25z" />
    <glyph glyph-name="Z" unicode="Z" horiz-adv-x="534" 
d="M40 660h454v-24l-425 -612h425v-24h-454v24l427 612h-427v24z" />
    <glyph glyph-name="bracketleft" unicode="[" horiz-adv-x="369" 
d="M40 770h289v-24h-265v-832h265v-24h-289v880z" />
    <glyph glyph-name="backslash" unicode="\" horiz-adv-x="382" 
d="M318 0l-278 660h24l278 -660h-24z" />
    <glyph glyph-name="bracketright" unicode="]" horiz-adv-x="369" 
d="M40 -110v24h265v832h-265v24h289v-880h-289z" />
    <glyph glyph-name="asciicircum" unicode="^" horiz-adv-x="497" 
d="M250 670l207 -350h-24l-182 308l-187 -309h-24z" />
    <glyph glyph-name="underscore" unicode="_" horiz-adv-x="435" 
d="M40 24h355v-24h-355v24z" />
    <glyph glyph-name="a" unicode="a" horiz-adv-x="591" 
d="M103 60q-63 70 -63 193t63.5 193.5t170.5 70.5q72 0 127.5 -36.5t83.5 -102.5l-1 129h25v-483h42v-24h-39q-19 0 -23 3.5t-4 21.5v103q-28 -66 -83 -102t-128 -36q-108 0 -171 70zM118.5 76q54.5 -62 155.5 -62q96 0 153 62.5t57 176.5q0 76 -27.5 130t-75.5 82t-107 28
q-96 0 -153 -62.5t-57 -177.5t54.5 -177z" />
    <glyph glyph-name="b" unicode="b" horiz-adv-x="549" 
d="M148 26q-55 36 -83 103v-129h-24l-1 660h24v-281q28 66 83 102t128 36q108 0 171 -70t63 -193t-63.5 -193.5t-170.5 -70.5q-72 0 -127 36zM92.5 124q27.5 -54 75.5 -82t107 -28q96 0 153 62.5t57 177.5t-54.5 177t-155.5 62q-96 0 -153 -62.5t-57 -176.5q0 -76 27.5 -130
z" />
    <glyph glyph-name="c" unicode="c" horiz-adv-x="543" 
d="M423 46.5q-62 -56.5 -152 -56.5q-70 0 -122.5 35t-80.5 95.5t-28 133.5q0 78 28 137.5t80.5 92.5t122.5 33q92 0 154 -55t78 -147h-24q-14 83 -68 130.5t-140 47.5q-99 0 -153 -64.5t-54 -174.5q0 -68 25.5 -122.5t72.5 -86t109 -31.5q79 0 134.5 49.5t72.5 129.5h24
q-17 -90 -79 -146.5z" />
    <glyph glyph-name="d" unicode="d" horiz-adv-x="549" 
d="M103.5 60.5q-63.5 70.5 -63.5 193.5t63 193t171 70q73 0 128 -36t83 -102v281h24l-1 -660h-24l1 129q-28 -66 -83.5 -102.5t-127.5 -36.5q-107 0 -170.5 70.5zM121 76.5q57 -62.5 153 -62.5q59 0 107 28t75.5 82t27.5 130q0 114 -57 176.5t-153 62.5q-101 0 -155.5 -62
t-54.5 -177t57 -177.5z" />
    <glyph glyph-name="e" unicode="e" horiz-adv-x="548" 
d="M426.5 42q-60.5 -52 -152.5 -52q-67 0 -120.5 31.5t-83.5 91.5t-30 141t29 140.5t81 91t119 31.5q66 0 120 -30t86 -86.5t33 -132.5l-444 -1q0 -127 58 -190t152 -63q79 0 133 46.5t71 127.5h25q-16 -94 -76.5 -146zM482 292q-9 95 -65.5 148t-147.5 53
q-85 0 -138.5 -54.5t-64.5 -146.5h416z" />
    <glyph glyph-name="f" unicode="f" horiz-adv-x="382" 
d="M106 403h-66v24h66v208q0 18 4 21.5t23 3.5h209v-24h-212v-209h92v-24h-92v-403h-25z" />
    <glyph glyph-name="g" unicode="g" horiz-adv-x="526" 
d="M88 -160.5q-48 31.5 -48 87.5q0 36 22.5 66t61.5 47.5t87 17.5h132q37 0 59.5 2t41 12.5t18.5 33.5q0 18 -18 32t-39 15q-30 -27 -69.5 -42t-86.5 -15q-58 0 -106 28t-75.5 76.5t-27.5 106.5q0 61 27.5 108.5t76.5 74.5t110 27q42 0 73 -10h118v-24h-69
q43 -29 67.5 -78.5t24.5 -97.5q0 -81 -46 -136q22 -3 43 -20.5t21 -42.5q0 -45 -41 -59.5t-107 -14.5h-127q-66 0 -106.5 -29.5t-40.5 -77.5q0 -49 40 -72.5t107 -23.5h87q65 0 106 29.5t41 86.5h24q0 -65 -48.5 -102t-122.5 -37h-87q-75 0 -123 31.5zM88.5 209.5
q24.5 -42.5 68 -66t97.5 -23.5q86 0 138 51.5t52 135.5q0 86 -50.5 136t-139.5 50q-86 0 -138 -51t-52 -135q0 -55 24.5 -97.5z" />
    <glyph glyph-name="h" unicode="h" horiz-adv-x="479" 
d="M40 660h24v-269q58 126 189 126q87 0 136.5 -69.5t49.5 -193.5v-254h-24v254q0 111 -42.5 175t-119.5 64q-57 0 -100 -29.5t-66 -83.5t-23 -126l1 -254h-24z" />
    <glyph glyph-name="i" unicode="i" horiz-adv-x="188" 
d="M102 503.5q4 -3.5 4 -21.5v-458h42v-24h-39q-19 0 -23 3.5t-4 21.5v458h-42v24h39q19 0 23 -3.5zM56.5 663q8.5 8 22.5 8t22 -8t8 -21t-8 -20.5t-22 -7.5t-22.5 7.5t-8.5 20.5t8.5 21z" />
    <glyph glyph-name="j" unicode="j" horiz-adv-x="297" 
d="M40 -198h172v705h24v-704q0 -18 -4 -21.5t-23 -3.5h-169v24zM204.5 663q8.5 8 22.5 8t22 -8t8 -21t-8 -20.5t-22 -7.5t-22.5 7.5t-8.5 20.5t8.5 21z" />
    <glyph glyph-name="k" unicode="k" horiz-adv-x="440" 
d="M345 255h-281v-255h-24v660h24v-356l301 203h35l-330 -228h274q17 0 21 -4t4 -23v-252h-24v255z" />
    <glyph glyph-name="l" unicode="l" horiz-adv-x="146" 
d="M44 3.5q-4 3.5 -4 21.5v635h24v-636h42v-24h-39q-19 0 -23 3.5z" />
    <glyph glyph-name="m" unicode="m" horiz-adv-x="894" 
d="M40 507h24v-124q24 59 74 96.5t119 37.5q48 0 89.5 -21.5t68 -58.5t33.5 -81q18 69 74.5 115t127.5 46q94 0 149 -65.5t55 -187.5v-264h-24v264q0 114 -46.5 171.5t-133.5 57.5q-55 0 -98.5 -26.5t-68 -78.5t-24.5 -124l1 -264h-25v264q0 112 -47 170.5t-133 58.5
q-55 0 -98 -27.5t-67.5 -79.5t-24.5 -122v-264h-24z" />
    <glyph glyph-name="n" unicode="n" horiz-adv-x="488" 
d="M40 507h23v-116q58 126 189 126q91 0 143.5 -55t52.5 -168v-294h-24v294q0 99 -45.5 149t-126.5 50q-56 0 -99 -29.5t-66.5 -81.5t-23.5 -118l1 -264h-24v507z" />
    <glyph glyph-name="o" unicode="o" horiz-adv-x="566" 
d="M159.5 24.5q-55.5 34.5 -87.5 94.5t-32 132q0 79 31 139.5t86 93.5t125 33q73 0 128.5 -34t85.5 -94t30 -138q0 -73 -32 -132.5t-88 -94t-124 -34.5q-67 0 -122.5 34.5zM92 130.5q28 -54.5 77.5 -85.5t111.5 -31q63 0 113.5 31t79 85.5t28.5 120.5q0 74 -28 128.5t-78 84
t-114 29.5q-62 0 -111.5 -28t-78 -82.5t-28.5 -131.5q0 -66 28 -120.5z" />
    <glyph glyph-name="p" unicode="p" horiz-adv-x="549" 
d="M41 507h24l-1 -129q28 66 83.5 102.5t127.5 36.5q107 0 170.5 -70.5t63.5 -193.5t-63 -193t-171 -70q-73 0 -128 36t-83 102v-281h-24zM122 76.5q57 -62.5 153 -62.5q101 0 155.5 62t54.5 177t-57 177.5t-153 62.5q-59 0 -107 -28t-75.5 -82t-27.5 -130q0 -114 57 -176.5
z" />
    <glyph glyph-name="q" unicode="q" horiz-adv-x="549" 
d="M485 -153v281q-28 -66 -83 -102t-128 -36q-108 0 -171 70t-63 193t63.5 193.5t170.5 70.5q72 0 127.5 -36.5t83.5 -102.5l-1 129h25v-660h-24zM118.5 76q54.5 -62 155.5 -62q96 0 153 62.5t57 176.5q0 76 -27.5 130t-75.5 82t-107 28q-96 0 -153 -62.5t-57 -177.5
t54.5 -177z" />
    <glyph glyph-name="r" unicode="r" horiz-adv-x="296" 
d="M44 503.5q4 3.5 23 3.5h189v-24h-192v-483h-24v482q0 18 4 21.5z" />
    <glyph glyph-name="s" unicode="s" horiz-adv-x="449" 
d="M145.5 30.5q46.5 -18.5 109.5 -18.5q57 0 93.5 26t36.5 81q0 48 -37.5 75t-109.5 44q-83 20 -140.5 57t-57.5 98q0 69 50.5 96.5t119.5 27.5q62 0 114.5 -35t72.5 -105h-23q-17 58 -61.5 87t-105.5 29q-58 0 -100.5 -22.5t-42.5 -77.5q0 -48 49.5 -80.5t124.5 -50.5
q80 -19 125.5 -51t45.5 -94q0 -67 -45 -97t-109 -30t-119.5 22t-75.5 82h25q14 -45 60.5 -63.5z" />
    <glyph glyph-name="t" unicode="t" horiz-adv-x="382" 
d="M110 3.5q-4 3.5 -4 21.5v458h-66v24h66v153h24v-153h92v-24h-92v-459h212v-24h-209q-19 0 -23 3.5z" />
    <glyph glyph-name="u" unicode="u" horiz-adv-x="521" 
d="M419 3.5q-4 3.5 -4 20.5v92q-58 -126 -189 -126q-90 0 -138 62t-48 191v264h24v-264q0 -115 41.5 -172t120.5 -57q56 0 99 29.5t66.5 81.5t23.5 118v264h24v-483h42v-24h-39q-19 0 -23 3.5z" />
    <glyph glyph-name="v" unicode="v" horiz-adv-x="526" 
d="M486 507l-209 -507h-28l-209 507h24l199 -487l199 487h24z" />
    <glyph glyph-name="w" unicode="w" horiz-adv-x="666" 
d="M64 507l120 -490l136 490h27l136 -490l119 490h24l-128 -507h-31l-134 480l-134 -480h-31l-128 507h24z" />
    <glyph glyph-name="x" unicode="x" horiz-adv-x="506" 
d="M236 255l-194 252h30l182 -236l183 236h29l-196 -251l195 -256h-29l-183 240l-184 -240h-29z" />
    <glyph glyph-name="y" unicode="y" horiz-adv-x="542" 
d="M65 507l175 -451l237 451h25l-324 -614q-7 -13 -11 -15.5t-12 -2.5h-12h-39v24h53l69 132l-186 476h25z" />
    <glyph glyph-name="z" unicode="z" horiz-adv-x="475" 
d="M40 507h379v-20l-332 -463h348v-24h-375v24l332 459h-352v24z" />
    <glyph glyph-name="braceleft" unicode="{" horiz-adv-x="345" 
d="M178.5 53.5q-44.5 49.5 -44.5 132.5q0 75 -25 107t-69 32v24q45 4 69.5 34t24.5 105q0 83 44.5 132.5t126.5 60.5v-24q-147 -21 -147 -169q0 -64 -18 -101t-61 -50q43 -12 61 -49t18 -102q0 -148 147 -169v-24q-82 11 -126.5 60.5z" />
    <glyph glyph-name="bar" unicode="|" horiz-adv-x="104" 
d="M40 679h24v-701h-24v701z" />
    <glyph glyph-name="braceright" unicode="}" horiz-adv-x="345" 
d="M187 186q0 65 18 102t61 49q-43 13 -61 50t-18 101q0 148 -147 169v24q82 -11 126.5 -60.5t44.5 -132.5q0 -75 24.5 -105t69.5 -34v-24q-44 0 -69 -32t-25 -107q0 -83 -44.5 -132.5t-126.5 -60.5v24q147 21 147 169z" />
    <glyph glyph-name="exclamdown" unicode="&#xa1;" horiz-adv-x="178" 
d="M87 508v-508h-24v508h24zM50 650.5q10 9.5 27 9.5t28 -9.5t11 -22.5q0 -15 -10 -24t-29 -9q-18 0 -27.5 9t-9.5 24q0 13 10 22.5z" />
    <glyph glyph-name="cent" unicode="&#xa2;" horiz-adv-x="664" 
d="M527 58q-75 -64 -182 -68v-100h-24v100q-78 3 -142 42.5t-101.5 115.5t-37.5 183t37.5 182.5t101.5 114.5t142 42v100h24v-100q106 -4 180.5 -65.5t97.5 -176.5h-25q-23 107 -93.5 162.5t-171.5 55.5q-75 0 -136 -35.5t-97 -106.5t-36 -173q0 -103 36 -174.5t97 -107
t136 -35.5q102 0 173.5 57.5t93.5 168.5h24q-22 -118 -97 -182z" />
    <glyph glyph-name="sterling" unicode="&#xa3;" horiz-adv-x="582" 
d="M162 138q30 43 27 88h-149v24l140 -1q-76 105 -80 199q-5 109 40.5 165.5t161.5 56.5q109 0 169 -52.5t67 -160.5h-25q-10 189 -211 189q-96 0 -138.5 -44t-42.5 -140q0 -104 87 -212h196v-24h-191q5 -43 -31.5 -97t-95.5 -105h456v-24h-484v24q74 71 104 114z" />
    <glyph glyph-name="yen" unicode="&#xa5;" horiz-adv-x="576" 
d="M65 660l213 -377l233 377h25l-247 -401v-60h176v-24h-176v-77h176v-24h-176v-74h-24v74h-158v24h158v77h-158v24h158v60l-225 401h25z" />
    <glyph glyph-name="section" unicode="&#xa7;" horiz-adv-x="517" 
d="M161.5 -59q44.5 -16 113.5 -16q68 0 115.5 25.5t47.5 79.5q0 87 -180 119q-93 16 -155.5 54.5t-62.5 100.5q0 53 31 83t82 39q-98 44 -98 120q0 72 51 98t135 26q69 0 119 -23.5t77 -93.5h-23q-26 58 -70.5 75.5t-111.5 17.5q-70 0 -111.5 -22t-41.5 -78
q0 -49 53.5 -82.5t140.5 -48.5q204 -35 204 -145q0 -51 -34.5 -81.5t-87.5 -40.5q107 -41 107 -119q0 -67 -56 -97.5t-131 -30.5q-70 0 -124 21t-83 87h27q22 -52 66.5 -68zM117.5 221.5q53.5 -33.5 140.5 -48.5q21 -4 49 -4q63 0 104.5 26t41.5 77q0 87 -180 119
q-18 4 -26 7q-6 1 -17.5 4t-19.5 4q-7 1 -21 1q-53 0 -89 -27t-36 -76t53.5 -82.5z" />
    <glyph glyph-name="copyright" unicode="&#xa9;" horiz-adv-x="570" 
d="M160.5 138q-55.5 32 -88 96t-32.5 155t32.5 154.5t88 95t122.5 31.5q71 0 126.5 -31.5t88 -94.5t32.5 -155t-32.5 -155.5t-88 -95.5t-126.5 -32q-67 0 -122.5 32zM89 244.5q30 -59.5 80.5 -89t113.5 -29.5q66 0 117.5 29.5t81 88.5t29.5 145q0 85 -29.5 143.5t-81 88
t-117.5 29.5q-63 0 -113.5 -29.5t-80.5 -88.5t-30 -143q0 -85 30 -144.5zM149.5 533.5q47.5 55.5 129.5 55.5q71 0 118.5 -42t59.5 -112h-19q-11 63 -52 99.5t-107 36.5q-76 0 -117 -49.5t-41 -134.5q0 -79 43.5 -131.5t114.5 -52.5q60 0 103 38t56 100h18
q-13 -69 -60.5 -112.5t-116.5 -43.5q-54 0 -94 27t-61.5 73t-21.5 102q0 91 47.5 146.5z" />
    <glyph glyph-name="ordfeminine" unicode="&#xaa;" horiz-adv-x="445" 
d="M85 343q-45 50 -45 138t45 138t122 50q52 0 91.5 -25.5t58.5 -73.5v92h18v-345h30v-17h-28q-14 0 -17 2.5t-3 15.5v73q-19 -47 -59 -72.5t-91 -25.5q-77 0 -122 50zM96 354.5q39 -44.5 111 -44.5q69 0 109.5 45t40.5 126q0 80 -42.5 125.5t-107.5 45.5
q-69 0 -109.5 -44.5t-40.5 -126.5t39 -126.5z" />
    <glyph glyph-name="guillemotleft" unicode="&#xab;" horiz-adv-x="436" 
d="M40 275l236 204h24l-235 -206l224 -204h-24zM136 273l236 204h24l-235 -206l224 -204h-24z" />
    <glyph glyph-name="registered" unicode="&#xae;" horiz-adv-x="450" 
d="M131 268.5q-42 24.5 -66.5 72.5t-24.5 117t24.5 116.5t66.5 71.5t92 24q83 0 135 -54.5t52 -157.5t-52.5 -158.5t-134.5 -55.5q-50 0 -92 24.5zM74 346.5q23 -45.5 62 -68.5t87 -23q78 0 127 52.5t49 150.5q0 97 -49 149t-127 52q-48 0 -87 -23t-62 -68t-23 -110
q0 -66 23 -111.5zM149 588h70q88 0 88 -78q0 -59 -51 -73q51 -14 51 -73v-23h-9v23q0 68 -79 68h-61v-91h-9v247zM219 441q43 0 61 20.5t18 48.5q0 69 -79 69h-61v-138h61z" />
    <glyph glyph-name="degree" unicode="&#xb0;" horiz-adv-x="261" 
d="M64.5 523q-24.5 26 -24.5 61q0 36 25 61.5t67 25.5q41 0 65 -25.5t24 -61.5t-23.5 -61.5t-66.5 -25.5q-42 0 -66.5 26zM75 533q18 -19 56 -19t55.5 19t17.5 50q0 32 -18.5 51.5t-53.5 19.5q-32 0 -53.5 -20t-21.5 -51t18 -50z" />
    <glyph glyph-name="plusminus" unicode="&#xb1;" horiz-adv-x="430" 
d="M199 407h-159v24h158v175h25v-175h160v-24h-160v-187h-24v187zM47 133h343v-24h-343v24z" />
    <glyph glyph-name="uni00B2" unicode="&#xb2;" horiz-adv-x="362" 
d="M90.5 360q15.5 23 40 34.5t72.5 24.5q103 28 103 106q0 64 -34.5 97t-93.5 33q-51 0 -84.5 -33t-37.5 -91h-16q1 62 40 101t98 39q66 0 105 -38.5t39 -107.5q0 -50 -31.5 -78.5t-87.5 -43.5q-40 -10 -62.5 -20.5t-36 -31t-18.5 -56.5l-6 -55h241v-16h-259l8 71
q5 42 20.5 65z" />
    <glyph glyph-name="uni00B3" unicode="&#xb3;" horiz-adv-x="389" 
d="M302 470.5q47 -33.5 47 -104.5q0 -65 -41 -104.5t-114 -39.5q-61 0 -104 40.5t-50 99.5h16q9 -55 47 -89.5t91 -34.5q66 0 102.5 34t36.5 94q0 72 -50.5 99t-114.5 27v16l133 146h-248v16l272 -1v-15l-135 -146q65 -4 112 -37.5z" />
    <glyph glyph-name="periodcentered" unicode="&#xb7;" horiz-adv-x="157" 
d="M51.5 249.5q-11.5 11.5 -11.5 27.5t11.5 27t27.5 11t27 -11t11 -27t-11 -27.5t-27 -11.5t-27.5 11.5z" />
    <glyph glyph-name="uni00B9" unicode="&#xb9;" horiz-adv-x="222" 
d="M40 274h63v383h-45v15h60v-398h64v-15h-142v15z" />
    <glyph glyph-name="ordmasculine" unicode="&#xba;" horiz-adv-x="349" 
d="M106 399.5q-31 19.5 -48.5 52.5t-17.5 73q0 66 37.5 106.5t96.5 40.5q61 0 98 -41t37 -106q0 -62 -38.5 -103.5t-96.5 -41.5q-37 0 -68 19.5zM87.5 431.5q34.5 -37.5 86.5 -37.5t87 37.5t35 93.5q0 61 -34 97.5t-88 36.5q-52 0 -86.5 -35.5t-34.5 -98.5q0 -56 34.5 -93.5
z" />
    <glyph glyph-name="guillemotright" unicode="&#xbb;" horiz-adv-x="436" 
d="M147 60l224 204l-235 206h24l236 -204l-225 -206h-24zM64 468l236 -204l-225 -206h-24l224 204l-235 206h24z" />
    <glyph glyph-name="questiondown" unicode="&#xbf;" horiz-adv-x="518" 
d="M435 413q-22 -34 -55 -50.5t-92 -36.5l-26 -9l-35 -12q-53 -17 -85 -32t-55 -44t-23 -75q0 -72 49.5 -106t130.5 -34q91 0 138.5 37t69.5 103h26q-25 -81 -82 -122.5t-152 -41.5q-94 0 -149 40t-55 124q0 54 25.5 87.5t61.5 50.5t97 37l38 12l63 21t81 53.5t27 88.5v48
h24v-48q0 -57 -22 -91zM422.5 651q8.5 9 20.5 9q13 0 21.5 -9t8.5 -21t-8.5 -20.5t-21.5 -8.5q-12 0 -20.5 8.5t-8.5 20.5t8.5 21z" />
    <glyph glyph-name="Agrave" unicode="&#xc0;" horiz-adv-x="676" 
d="M331 660h26l279 -660h-24l-94 217h-356l-98 -217h-24zM508 238l-164 398l-173 -398h337zM253 890h24l76 -190h-24z" />
    <glyph glyph-name="Aacute" unicode="&#xc1;" horiz-adv-x="676" 
d="M331 660h26l279 -660h-24l-94 217h-356l-98 -217h-24zM508 238l-164 398l-173 -398h337zM331 698l76 190h24l-76 -190h-24z" />
    <glyph glyph-name="Acircumflex" unicode="&#xc2;" horiz-adv-x="676" 
d="M331 660h26l279 -660h-24l-94 217h-356l-98 -217h-24zM508 238l-164 398l-173 -398h337zM336 892l146 -208h-24l-121 173l-120 -174h-24z" />
    <glyph glyph-name="Atilde" unicode="&#xc3;" horiz-adv-x="676" 
d="M331 660h26l279 -660h-24l-94 217h-356l-98 -217h-24zM508 238l-164 398l-173 -398h337zM221.5 749q18.5 24 48.5 24q5 0 15 -2q13 -3 24.5 -10.5t28.5 -21.5q28 -22 41 -26q11 -3 21 -3q29 0 45.5 20.5t21.5 40.5h24q-7 -31 -31.5 -57.5t-60.5 -26.5q-10 0 -24 3
q-10 3 -21 10.5t-21 16.5q-18 16 -32.5 24t-31.5 8q-24 0 -34 -21.5t-10 -41.5h-24q2 39 20.5 63z" />
    <glyph glyph-name="Adieresis" unicode="&#xc4;" horiz-adv-x="676" 
d="M331 660h26l279 -660h-24l-94 217h-356l-98 -217h-24zM508 238l-164 398l-173 -398h337zM259 705.5q-12 10.5 -12 25.5t12 26t33 11t32.5 -10.5t11.5 -26.5q0 -15 -12 -25.5t-32 -10.5q-21 0 -33 10.5zM357.5 757q11.5 11 32.5 11t33 -10.5t12 -26.5q0 -15 -12.5 -25.5
t-32.5 -10.5q-21 0 -32.5 10.5t-11.5 25.5t11.5 26z" />
    <glyph glyph-name="Aring" unicode="&#xc5;" horiz-adv-x="676" 
d="M331 660h26l279 -660h-24l-94 217h-356l-98 -217h-24zM508 238l-164 398l-173 -398h337zM264.5 735.5q-31.5 29.5 -31.5 67.5q0 43 30.5 71.5t77.5 28.5q49 0 79.5 -28t30.5 -72q0 -39 -31 -68t-79 -29q-45 0 -76.5 29.5zM277.5 751q21.5 -21 63.5 -21q40 0 63 21t23 53
q0 33 -21.5 54t-64.5 21q-42 0 -63.5 -21.5t-21.5 -53.5t21.5 -53z" />
    <glyph glyph-name="AE" unicode="&#xc6;" horiz-adv-x="1064" 
d="M320 660h25l247 -611v584q0 19 3.5 23t21.5 4h407v-24h-408v-286h339v-24h-339v-302h407v-24h-406h-5v0h-23l-90 217h-342l-94 -217h-23zM490 238l-158 398l-166 -398h324z" />
    <glyph glyph-name="Ccedilla" unicode="&#xc7;" horiz-adv-x="718" 
d="M327 -253q79 0 108.5 18t29.5 58t-36 55.5t-117 15.5h-30l-7 19l62 78q-84 7 -152 53t-106.5 119t-38.5 157q0 92 42.5 170t117.5 124t168 46q75 0 138.5 -30t107 -83.5t63.5 -121.5h-23q-31 98 -109.5 155.5t-175.5 57.5q-83 0 -153.5 -41.5t-112 -113.5t-41.5 -161
q0 -88 41.5 -159t111.5 -111t152 -40q103 0 180 57.5t107 152.5h24q-20 -67 -66 -120t-109.5 -82.5t-136.5 -29.5h-1l-60 -74q69 3 127.5 -15t58.5 -78t-40.5 -80t-122.5 -20l-46 1v24q16 -1 45 -1z" />
    <glyph glyph-name="Egrave" unicode="&#xc8;" horiz-adv-x="512" 
d="M43.5 4q-3.5 4 -3.5 23v606q0 19 3.5 23t21.5 4h407v-24h-408v-286h339v-24h-339v-302h407v-24h-406q-18 0 -21.5 4zM149 900h24l76 -190h-24z" />
    <glyph glyph-name="Eacute" unicode="&#xc9;" horiz-adv-x="512" 
d="M43.5 4q-3.5 4 -3.5 23v606q0 19 3.5 23t21.5 4h407v-24h-408v-286h339v-24h-339v-302h407v-24h-406q-18 0 -21.5 4zM227 708l76 190h24l-76 -190h-24z" />
    <glyph glyph-name="Ecircumflex" unicode="&#xca;" horiz-adv-x="512" 
d="M43.5 4q-3.5 4 -3.5 23v606q0 19 3.5 23t21.5 4h407v-24h-408v-286h339v-24h-339v-302h407v-24h-406q-18 0 -21.5 4zM232 902l146 -208h-24l-121 173l-120 -174h-24z" />
    <glyph glyph-name="Edieresis" unicode="&#xcb;" horiz-adv-x="512" 
d="M43.5 4q-3.5 4 -3.5 23v606q0 19 3.5 23t21.5 4h407v-24h-408v-286h339v-24h-339v-302h407v-24h-406q-18 0 -21.5 4zM155 715.5q-12 10.5 -12 25.5t12 26t33 11t32.5 -10.5t11.5 -26.5q0 -15 -12 -25.5t-32 -10.5q-21 0 -33 10.5zM253.5 767q11.5 11 32.5 11t33 -10.5
t12 -26.5q0 -15 -12.5 -25.5t-32.5 -10.5q-21 0 -32.5 10.5t-11.5 25.5t11.5 26z" />
    <glyph glyph-name="Igrave" unicode="&#xcc;" horiz-adv-x="213" 
d="M66 24h42v612h-42v24h107v-24h-42v-612h42v-24h-107v24zM40 889h24l76 -190h-24z" />
    <glyph glyph-name="Iacute" unicode="&#xcd;" horiz-adv-x="232" 
d="M40 24h42v612h-42v24h107v-24h-42v-612h42v-24h-107v24zM92 697l76 190h24l-76 -190h-24z" />
    <glyph glyph-name="Icircumflex" unicode="&#xce;" horiz-adv-x="369" 
d="M126 24h42v612h-42v24h107v-24h-42v-612h42v-24h-107v24zM183 891l146 -208h-24l-121 173l-120 -174h-24z" />
    <glyph glyph-name="Idieresis" unicode="&#xcf;" horiz-adv-x="268" 
d="M72 24h42v612h-42v24h107v-24h-42v-612h42v-24h-107v24zM52 704.5q-12 10.5 -12 25.5t12 26t33 11t32.5 -10.5t11.5 -26.5q0 -15 -12 -25.5t-32 -10.5q-21 0 -33 10.5zM150.5 756q11.5 11 32.5 11t33 -10.5t12 -26.5q0 -15 -12.5 -25.5t-32.5 -10.5q-21 0 -32.5 10.5
t-11.5 25.5t11.5 26z" />
    <glyph glyph-name="Ntilde" unicode="&#xd1;" horiz-adv-x="579" 
d="M40 660h24l451 -626v626h24l-2 -660h-24l-449 621v-621h-24v660zM133.5 758q18.5 24 48.5 24q5 0 15 -2q13 -3 24.5 -10.5t28.5 -21.5q28 -22 41 -26q11 -3 21 -3q29 0 45.5 20.5t21.5 40.5h24q-7 -31 -31.5 -57.5t-60.5 -26.5q-10 0 -24 3q-10 3 -21 10.5t-21 16.5
q-18 16 -32.5 24t-31.5 8q-24 0 -34 -21.5t-10 -41.5h-24q2 39 20.5 63z" />
    <glyph glyph-name="Ograve" unicode="&#xd2;" horiz-adv-x="732" 
d="M200.5 34.5q-74.5 44.5 -117.5 120.5t-43 165q0 92 42.5 170t117.5 124t168 46t167 -46t115.5 -124t41.5 -170q0 -89 -43 -165t-117.5 -120.5t-165.5 -44.5t-165.5 44.5zM104.5 163.5q40.5 -70.5 109.5 -110t151 -39.5t151.5 39.5t110.5 110t41 158.5q0 87 -39.5 159
t-108 113.5t-151.5 41.5t-153 -42t-111 -114t-41 -158q0 -88 40.5 -158.5zM246 919h24l76 -190h-24z" />
    <glyph glyph-name="Oacute" unicode="&#xd3;" horiz-adv-x="732" 
d="M200.5 34.5q-74.5 44.5 -117.5 120.5t-43 165q0 92 42.5 170t117.5 124t168 46t167 -46t115.5 -124t41.5 -170q0 -89 -43 -165t-117.5 -120.5t-165.5 -44.5t-165.5 44.5zM104.5 163.5q40.5 -70.5 109.5 -110t151 -39.5t151.5 39.5t110.5 110t41 158.5q0 87 -39.5 159
t-108 113.5t-151.5 41.5t-153 -42t-111 -114t-41 -158q0 -88 40.5 -158.5zM324 727l76 190h24l-76 -190h-24z" />
    <glyph glyph-name="Ocircumflex" unicode="&#xd4;" horiz-adv-x="732" 
d="M200.5 34.5q-74.5 44.5 -117.5 120.5t-43 165q0 92 42.5 170t117.5 124t168 46t167 -46t115.5 -124t41.5 -170q0 -89 -43 -165t-117.5 -120.5t-165.5 -44.5t-165.5 44.5zM104.5 163.5q40.5 -70.5 109.5 -110t151 -39.5t151.5 39.5t110.5 110t41 158.5q0 87 -39.5 159
t-108 113.5t-151.5 41.5t-153 -42t-111 -114t-41 -158q0 -88 40.5 -158.5zM329 921l146 -208h-24l-121 173l-120 -174h-24z" />
    <glyph glyph-name="Otilde" unicode="&#xd5;" horiz-adv-x="732" 
d="M200.5 34.5q-74.5 44.5 -117.5 120.5t-43 165q0 92 42.5 170t117.5 124t168 46t167 -46t115.5 -124t41.5 -170q0 -89 -43 -165t-117.5 -120.5t-165.5 -44.5t-165.5 44.5zM104.5 163.5q40.5 -70.5 109.5 -110t151 -39.5t151.5 39.5t110.5 110t41 158.5q0 87 -39.5 159
t-108 113.5t-151.5 41.5t-153 -42t-111 -114t-41 -158q0 -88 40.5 -158.5zM214.5 778q18.5 24 48.5 24q5 0 15 -2q13 -3 24.5 -10.5t28.5 -21.5q28 -22 41 -26q11 -3 21 -3q29 0 45.5 20.5t21.5 40.5h24q-7 -31 -31.5 -57.5t-60.5 -26.5q-10 0 -24 3q-10 3 -21 10.5
t-21 16.5q-18 16 -32.5 24t-31.5 8q-24 0 -34 -21.5t-10 -41.5h-24q2 39 20.5 63z" />
    <glyph glyph-name="Odieresis" unicode="&#xd6;" horiz-adv-x="732" 
d="M200.5 34.5q-74.5 44.5 -117.5 120.5t-43 165q0 92 42.5 170t117.5 124t168 46t167 -46t115.5 -124t41.5 -170q0 -89 -43 -165t-117.5 -120.5t-165.5 -44.5t-165.5 44.5zM104.5 163.5q40.5 -70.5 109.5 -110t151 -39.5t151.5 39.5t110.5 110t41 158.5q0 87 -39.5 159
t-108 113.5t-151.5 41.5t-153 -42t-111 -114t-41 -158q0 -88 40.5 -158.5zM252 734.5q-12 10.5 -12 25.5t12 26t33 11t32.5 -10.5t11.5 -26.5q0 -15 -12 -25.5t-32 -10.5q-21 0 -33 10.5zM350.5 786q11.5 11 32.5 11t33 -10.5t12 -26.5q0 -15 -12.5 -25.5t-32.5 -10.5
q-21 0 -32.5 10.5t-11.5 25.5t11.5 26z" />
    <glyph glyph-name="multiply" unicode="&#xd7;" horiz-adv-x="370" 
d="M173 319l-113 113l17 17l112 -112l124 124l17 -18l-123 -124l113 -113l-17 -17l-113 113l-133 -132l-17 17z" />
    <glyph glyph-name="Oslash" unicode="&#xd8;" horiz-adv-x="732" 
d="M239 15l-33 -94h-24l36 104q-81 42 -129.5 121t-48.5 174q0 92 42.5 170t117.5 124t168 46q38 0 69 -7l23 67h24l-25 -73q69 -20 122 -68t82 -115.5t29 -143.5q0 -89 -43 -165t-117.5 -120.5t-165.5 -44.5q-66 0 -127 25zM108 157.5q44 -72.5 118 -110.5l203 583
q-30 6 -60 6q-83 0 -153 -42t-111 -114t-41 -158q0 -92 44 -164.5zM365 14q82 0 151.5 39.5t110.5 110t41 158.5q0 72 -27.5 134.5t-77 106.5t-112.5 62l-204 -588q55 -23 118 -23z" />
    <glyph glyph-name="Ugrave" unicode="&#xd9;" horiz-adv-x="626" 
d="M179 24q-62 34 -100.5 106t-38.5 181v349h24v-349q0 -101 34.5 -168t91 -98t123.5 -31q110 0 179.5 73t69.5 224v349h24v-349q0 -109 -36.5 -181t-98 -106t-138.5 -34q-72 0 -134 34zM226 876h24l76 -190h-24z" />
    <glyph glyph-name="Uacute" unicode="&#xda;" horiz-adv-x="626" 
d="M179 24q-62 34 -100.5 106t-38.5 181v349h24v-349q0 -101 34.5 -168t91 -98t123.5 -31q110 0 179.5 73t69.5 224v349h24v-349q0 -109 -36.5 -181t-98 -106t-138.5 -34q-72 0 -134 34zM304 684l76 190h24l-76 -190h-24z" />
    <glyph glyph-name="Ucircumflex" unicode="&#xdb;" horiz-adv-x="626" 
d="M179 24q-62 34 -100.5 106t-38.5 181v349h24v-349q0 -101 34.5 -168t91 -98t123.5 -31q110 0 179.5 73t69.5 224v349h24v-349q0 -109 -36.5 -181t-98 -106t-138.5 -34q-72 0 -134 34zM309 878l146 -208h-24l-121 173l-120 -174h-24z" />
    <glyph glyph-name="Udieresis" unicode="&#xdc;" horiz-adv-x="626" 
d="M179 24q-62 34 -100.5 106t-38.5 181v349h24v-349q0 -101 34.5 -168t91 -98t123.5 -31q110 0 179.5 73t69.5 224v349h24v-349q0 -109 -36.5 -181t-98 -106t-138.5 -34q-72 0 -134 34zM232 691.5q-12 10.5 -12 25.5t12 26t33 11t32.5 -10.5t11.5 -26.5q0 -15 -12 -25.5
t-32 -10.5q-21 0 -33 10.5zM330.5 743q11.5 11 32.5 11t33 -10.5t12 -26.5q0 -15 -12.5 -25.5t-32.5 -10.5q-21 0 -32.5 10.5t-11.5 25.5t11.5 26z" />
    <glyph glyph-name="Yacute" unicode="&#xdd;" horiz-adv-x="576" 
d="M65 660l213 -377l233 377h25l-247 -401v-259h-24v259l-225 401h25zM271 710l76 190h24l-76 -190h-24z" />
    <glyph glyph-name="germandbls" unicode="&#xdf;" horiz-adv-x="577" 
d="M96 612.5q56 47.5 193 47.5q122 0 183.5 -44t61.5 -125q0 -60 -35.5 -105t-92.5 -57q58 -15 94.5 -58t36.5 -101q0 -82 -58.5 -126t-179.5 -44h-58v24h58q214 0 214 146q0 67 -53 106.5t-161 39.5h-58v26h58q211 0 211 149q0 68 -53 106.5t-168 38.5q-130 0 -177.5 -40.5
t-47.5 -114.5v-481h-24v481q0 84 56 131.5z" />
    <glyph glyph-name="agrave" unicode="&#xe0;" horiz-adv-x="591" 
d="M103 60q-63 70 -63 193t63.5 193.5t170.5 70.5q72 0 127.5 -36.5t83.5 -102.5l-1 129h25v-483h42v-24h-39q-19 0 -23 3.5t-4 21.5v103q-28 -66 -83 -102t-128 -36q-108 0 -171 70zM118.5 76q54.5 -62 155.5 -62q96 0 153 62.5t57 176.5q0 76 -27.5 130t-75.5 82t-107 28
q-96 0 -153 -62.5t-57 -177.5t54.5 -177zM196 773h24l76 -190h-24z" />
    <glyph glyph-name="aacute" unicode="&#xe1;" horiz-adv-x="591" 
d="M103 60q-63 70 -63 193t63.5 193.5t170.5 70.5q72 0 127.5 -36.5t83.5 -102.5l-1 129h25v-483h42v-24h-39q-19 0 -23 3.5t-4 21.5v103q-28 -66 -83 -102t-128 -36q-108 0 -171 70zM118.5 76q54.5 -62 155.5 -62q96 0 153 62.5t57 176.5q0 76 -27.5 130t-75.5 82t-107 28
q-96 0 -153 -62.5t-57 -177.5t54.5 -177zM274 581l76 190h24l-76 -190h-24z" />
    <glyph glyph-name="acircumflex" unicode="&#xe2;" horiz-adv-x="591" 
d="M103 60q-63 70 -63 193t63.5 193.5t170.5 70.5q72 0 127.5 -36.5t83.5 -102.5l-1 129h25v-483h42v-24h-39q-19 0 -23 3.5t-4 21.5v103q-28 -66 -83 -102t-128 -36q-108 0 -171 70zM118.5 76q54.5 -62 155.5 -62q96 0 153 62.5t57 176.5q0 76 -27.5 130t-75.5 82t-107 28
q-96 0 -153 -62.5t-57 -177.5t54.5 -177zM279 775l146 -208h-24l-121 173l-120 -174h-24z" />
    <glyph glyph-name="atilde" unicode="&#xe3;" horiz-adv-x="591" 
d="M103 60q-63 70 -63 193t63.5 193.5t170.5 70.5q72 0 127.5 -36.5t83.5 -102.5l-1 129h25v-483h42v-24h-39q-19 0 -23 3.5t-4 21.5v103q-28 -66 -83 -102t-128 -36q-108 0 -171 70zM118.5 76q54.5 -62 155.5 -62q96 0 153 62.5t57 176.5q0 76 -27.5 130t-75.5 82t-107 28
q-96 0 -153 -62.5t-57 -177.5t54.5 -177zM186 620q15 20 40 20q8 0 12 -1q10 -2 21.5 -10t21.5 -16q4 -3 14.5 -11.5t19.5 -10.5q6 -2 17 -2q24 0 37.5 17t17.5 33h20q-6 -26 -26 -48t-49 -22q-9 0 -20 3q-11 4 -22 12t-13 10q-28 24 -47 27q-23 3 -32 -15.5t-9 -36.5h-20
q2 31 17 51z" />
    <glyph glyph-name="adieresis" unicode="&#xe4;" horiz-adv-x="591" 
d="M103 60q-63 70 -63 193t63.5 193.5t170.5 70.5q72 0 127.5 -36.5t83.5 -102.5l-1 129h25v-483h42v-24h-39q-19 0 -23 3.5t-4 21.5v103q-28 -66 -83 -102t-128 -36q-108 0 -171 70zM118.5 76q54.5 -62 155.5 -62q96 0 153 62.5t57 176.5q0 76 -27.5 130t-75.5 82t-107 28
q-96 0 -153 -62.5t-57 -177.5t54.5 -177zM202 588.5q-12 10.5 -12 25.5t12 26t33 11t32.5 -10.5t11.5 -26.5q0 -15 -12 -25.5t-32 -10.5q-21 0 -33 10.5zM300.5 640q11.5 11 32.5 11t33 -10.5t12 -26.5q0 -15 -12.5 -25.5t-32.5 -10.5q-21 0 -32.5 10.5t-11.5 25.5t11.5 26z
" />
    <glyph glyph-name="aring" unicode="&#xe5;" horiz-adv-x="591" 
d="M103 60q-63 70 -63 193t63.5 193.5t170.5 70.5q72 0 127.5 -36.5t83.5 -102.5l-1 129h25v-483h42v-24h-39q-19 0 -23 3.5t-4 21.5v103q-28 -66 -83 -102t-128 -36q-108 0 -171 70zM118.5 76q54.5 -62 155.5 -62q96 0 153 62.5t57 176.5q0 76 -27.5 130t-75.5 82t-107 28
q-96 0 -153 -62.5t-57 -177.5t54.5 -177zM207.5 618.5q-31.5 29.5 -31.5 67.5q0 43 30.5 71.5t77.5 28.5q49 0 79.5 -28t30.5 -72q0 -39 -31 -68t-79 -29q-45 0 -76.5 29.5zM220.5 634q21.5 -21 63.5 -21q40 0 63 21t23 53q0 33 -21.5 54t-64.5 21q-42 0 -63.5 -21.5
t-21.5 -53.5t21.5 -53z" />
    <glyph glyph-name="ae" unicode="&#xe6;" horiz-adv-x="991" 
d="M103 57.5q-63 67.5 -63 187.5t63 188t170 68q72 0 127 -35t83 -100l-1 125h25v-108q27 64 80.5 98.5t124.5 34.5q66 0 120 -30t86 -86.5t33 -132.5l-444 -1q0 -127 58 -190t152 -63q79 0 133 46.5t71 127.5h25q-16 -94 -76.5 -146t-152.5 -52q-72 0 -127 35.5t-83 101.5
v-103h41v-23h-38q-19 0 -23 3.5t-4 20.5v100q-28 -64 -83 -99t-127 -35q-107 0 -170 67.5zM118 73.5q54 -59.5 155 -59.5q96 0 152.5 60.5t56.5 170.5q0 73 -27.5 126t-75 80t-106.5 27q-96 0 -152.5 -61t-56.5 -172q0 -112 54 -171.5zM925 291q-9 95 -65.5 148t-147.5 53
q-85 0 -138.5 -54.5t-64.5 -146.5h416z" />
    <glyph glyph-name="ccedilla" unicode="&#xe7;" horiz-adv-x="543" 
d="M432.5 55.5q-54.5 -55.5 -134.5 -64.5l-54 -66q69 3 127.5 -15t58.5 -78t-40.5 -80t-122.5 -20l-46 1v24q16 -1 45 -1q79 0 108.5 18t29.5 58t-36 55.5t-117 15.5h-30l-7 19l54 68q-69 1 -120.5 36t-79.5 95t-28 133q0 78 28 137.5t80.5 92.5t122.5 33q92 0 154 -55
t78 -147h-24q-14 83 -68 130.5t-140 47.5q-99 0 -153 -64.5t-54 -174.5q0 -68 25.5 -122.5t72.5 -86t109 -31.5q79 0 134.5 49.5t72.5 129.5h24q-15 -82 -69.5 -137.5z" />
    <glyph glyph-name="egrave" unicode="&#xe8;" horiz-adv-x="548" 
d="M426.5 42q-60.5 -52 -152.5 -52q-67 0 -120.5 31.5t-83.5 91.5t-30 141t29 140.5t81 91t119 31.5q66 0 120 -30t86 -86.5t33 -132.5l-444 -1q0 -127 58 -190t152 -63q79 0 133 46.5t71 127.5h25q-16 -94 -76.5 -146zM482 292q-9 95 -65.5 148t-147.5 53
q-85 0 -138.5 -54.5t-64.5 -146.5h416zM177 753h24l76 -190h-24z" />
    <glyph glyph-name="eacute" unicode="&#xe9;" horiz-adv-x="548" 
d="M426.5 42q-60.5 -52 -152.5 -52q-67 0 -120.5 31.5t-83.5 91.5t-30 141t29 140.5t81 91t119 31.5q66 0 120 -30t86 -86.5t33 -132.5l-444 -1q0 -127 58 -190t152 -63q79 0 133 46.5t71 127.5h25q-16 -94 -76.5 -146zM482 292q-9 95 -65.5 148t-147.5 53
q-85 0 -138.5 -54.5t-64.5 -146.5h416zM255 561l76 190h24l-76 -190h-24z" />
    <glyph glyph-name="ecircumflex" unicode="&#xea;" horiz-adv-x="548" 
d="M426.5 42q-60.5 -52 -152.5 -52q-67 0 -120.5 31.5t-83.5 91.5t-30 141t29 140.5t81 91t119 31.5q66 0 120 -30t86 -86.5t33 -132.5l-444 -1q0 -127 58 -190t152 -63q79 0 133 46.5t71 127.5h25q-16 -94 -76.5 -146zM482 292q-9 95 -65.5 148t-147.5 53
q-85 0 -138.5 -54.5t-64.5 -146.5h416zM260 755l146 -208h-24l-121 173l-120 -174h-24z" />
    <glyph glyph-name="edieresis" unicode="&#xeb;" horiz-adv-x="548" 
d="M426.5 42q-60.5 -52 -152.5 -52q-67 0 -120.5 31.5t-83.5 91.5t-30 141t29 140.5t81 91t119 31.5q66 0 120 -30t86 -86.5t33 -132.5l-444 -1q0 -127 58 -190t152 -63q79 0 133 46.5t71 127.5h25q-16 -94 -76.5 -146zM482 292q-9 95 -65.5 148t-147.5 53
q-85 0 -138.5 -54.5t-64.5 -146.5h416zM183 568.5q-12 10.5 -12 25.5t12 26t33 11t32.5 -10.5t11.5 -26.5q0 -15 -12 -25.5t-32 -10.5q-21 0 -33 10.5zM281.5 620q11.5 11 32.5 11t33 -10.5t12 -26.5q0 -15 -12.5 -25.5t-32.5 -10.5q-21 0 -32.5 10.5t-11.5 25.5t11.5 26z
" />
    <glyph glyph-name="igrave" unicode="&#xec;" horiz-adv-x="180" 
d="M114 507h24v-507h-24v507zM40 737h24l76 -190h-24z" />
    <glyph glyph-name="iacute" unicode="&#xed;" horiz-adv-x="184" 
d="M40 507h24v-507h-24v507zM44 545l76 190h24l-76 -190h-24z" />
    <glyph glyph-name="icircumflex" unicode="&#xee;" horiz-adv-x="369" 
d="M174 507h24v-507h-24v507zM183 739l146 -208h-24l-121 173l-120 -174h-24z" />
    <glyph glyph-name="idieresis" unicode="&#xef;" horiz-adv-x="268" 
d="M120 507h24v-507h-24v507zM52 552.5q-12 10.5 -12 25.5t12 26t33 11t32.5 -10.5t11.5 -26.5q0 -15 -12 -25.5t-32 -10.5q-21 0 -33 10.5zM150.5 604q11.5 11 32.5 11t33 -10.5t12 -26.5q0 -15 -12.5 -25.5t-32.5 -10.5q-21 0 -32.5 10.5t-11.5 25.5t11.5 26z" />
    <glyph glyph-name="ntilde" unicode="&#xf1;" horiz-adv-x="488" 
d="M40 507h23v-116q58 126 189 126q91 0 143.5 -55t52.5 -168v-294h-24v294q0 99 -45.5 149t-126.5 50q-56 0 -99 -29.5t-66.5 -81.5t-23.5 -118l1 -264h-24v507zM112.5 622q18.5 24 48.5 24q5 0 15 -2q13 -3 24.5 -10.5t28.5 -21.5q28 -22 41 -26q11 -3 21 -3
q29 0 45.5 20.5t21.5 40.5h24q-7 -31 -31.5 -57.5t-60.5 -26.5q-10 0 -24 3q-10 3 -21 10.5t-21 16.5q-18 16 -32.5 24t-31.5 8q-24 0 -34 -21.5t-10 -41.5h-24q2 39 20.5 63z" />
    <glyph glyph-name="ograve" unicode="&#xf2;" horiz-adv-x="566" 
d="M159.5 24.5q-55.5 34.5 -87.5 94.5t-32 132q0 79 31 139.5t86 93.5t125 33q73 0 128.5 -34t85.5 -94t30 -138q0 -73 -32 -132.5t-88 -94t-124 -34.5q-67 0 -122.5 34.5zM92 130.5q28 -54.5 77.5 -85.5t111.5 -31q63 0 113.5 31t79 85.5t28.5 120.5q0 74 -28 128.5t-78 84
t-114 29.5q-62 0 -111.5 -28t-78 -82.5t-28.5 -131.5q0 -66 28 -120.5zM154 756h24l76 -190h-24z" />
    <glyph glyph-name="oacute" unicode="&#xf3;" horiz-adv-x="566" 
d="M159.5 24.5q-55.5 34.5 -87.5 94.5t-32 132q0 79 31 139.5t86 93.5t125 33q73 0 128.5 -34t85.5 -94t30 -138q0 -73 -32 -132.5t-88 -94t-124 -34.5q-67 0 -122.5 34.5zM92 130.5q28 -54.5 77.5 -85.5t111.5 -31q63 0 113.5 31t79 85.5t28.5 120.5q0 74 -28 128.5t-78 84
t-114 29.5q-62 0 -111.5 -28t-78 -82.5t-28.5 -131.5q0 -66 28 -120.5zM232 564l76 190h24l-76 -190h-24z" />
    <glyph glyph-name="ocircumflex" unicode="&#xf4;" horiz-adv-x="566" 
d="M159.5 24.5q-55.5 34.5 -87.5 94.5t-32 132q0 79 31 139.5t86 93.5t125 33q73 0 128.5 -34t85.5 -94t30 -138q0 -73 -32 -132.5t-88 -94t-124 -34.5q-67 0 -122.5 34.5zM92 130.5q28 -54.5 77.5 -85.5t111.5 -31q63 0 113.5 31t79 85.5t28.5 120.5q0 74 -28 128.5t-78 84
t-114 29.5q-62 0 -111.5 -28t-78 -82.5t-28.5 -131.5q0 -66 28 -120.5zM237 758l146 -208h-24l-121 173l-120 -174h-24z" />
    <glyph glyph-name="otilde" unicode="&#xf5;" horiz-adv-x="566" 
d="M159.5 24.5q-55.5 34.5 -87.5 94.5t-32 132q0 79 31 139.5t86 93.5t125 33q73 0 128.5 -34t85.5 -94t30 -138q0 -73 -32 -132.5t-88 -94t-124 -34.5q-67 0 -122.5 34.5zM92 130.5q28 -54.5 77.5 -85.5t111.5 -31q63 0 113.5 31t79 85.5t28.5 120.5q0 74 -28 128.5t-78 84
t-114 29.5q-62 0 -111.5 -28t-78 -82.5t-28.5 -131.5q0 -66 28 -120.5zM122.5 615q18.5 24 48.5 24q5 0 15 -2q13 -3 24.5 -10.5t28.5 -21.5q28 -22 41 -26q11 -3 21 -3q29 0 45.5 20.5t21.5 40.5h24q-7 -31 -31.5 -57.5t-60.5 -26.5q-10 0 -24 3q-10 3 -21 10.5t-21 16.5
q-18 16 -32.5 24t-31.5 8q-24 0 -34 -21.5t-10 -41.5h-24q2 39 20.5 63z" />
    <glyph glyph-name="odieresis" unicode="&#xf6;" horiz-adv-x="566" 
d="M159.5 24.5q-55.5 34.5 -87.5 94.5t-32 132q0 79 31 139.5t86 93.5t125 33q73 0 128.5 -34t85.5 -94t30 -138q0 -73 -32 -132.5t-88 -94t-124 -34.5q-67 0 -122.5 34.5zM92 130.5q28 -54.5 77.5 -85.5t111.5 -31q63 0 113.5 31t79 85.5t28.5 120.5q0 74 -28 128.5t-78 84
t-114 29.5q-62 0 -111.5 -28t-78 -82.5t-28.5 -131.5q0 -66 28 -120.5zM160 571.5q-12 10.5 -12 25.5t12 26t33 11t32.5 -10.5t11.5 -26.5q0 -15 -12 -25.5t-32 -10.5q-21 0 -33 10.5zM258.5 623q11.5 11 32.5 11t33 -10.5t12 -26.5q0 -15 -12.5 -25.5t-32.5 -10.5
q-21 0 -32.5 10.5t-11.5 25.5t11.5 26z" />
    <glyph glyph-name="divide" unicode="&#xf7;" horiz-adv-x="423" 
d="M40 245h343v-24h-343v24zM191 155q10 10 25 10q14 0 23.5 -10t9.5 -24t-10 -24t-23 -10q-15 0 -25 10t-10 24t10 24zM192 349q10 10 25 10q14 0 23.5 -10t9.5 -24t-10 -24t-23 -10q-15 0 -25 10t-10 24t10 24z" />
    <glyph glyph-name="oslash" unicode="&#xf8;" horiz-adv-x="566" 
d="M180 13l-40 -95h-24l45 106q-56 34 -88.5 94t-32.5 133q0 79 31 139.5t86 93.5t125 33q44 0 81 -12l31 73h24l-34 -81q67 -29 104.5 -94t37.5 -152q0 -73 -32 -132.5t-88 -94t-124 -34.5q-54 0 -102 23zM92.5 129.5q28.5 -54.5 77.5 -84.5l184 437q-35 11 -72 11
q-62 0 -111.5 -28t-78 -82.5t-28.5 -131.5q0 -67 28.5 -121.5zM281 14q63 0 113.5 31t79 85.5t28.5 120.5q0 82 -34 140t-94 84l-185 -441q43 -20 92 -20z" />
    <glyph glyph-name="ugrave" unicode="&#xf9;" horiz-adv-x="521" 
d="M419 3.5q-4 3.5 -4 20.5v92q-58 -126 -189 -126q-90 0 -138 62t-48 191v264h24v-264q0 -115 41.5 -172t120.5 -57q56 0 99 29.5t66.5 81.5t23.5 118v264h24v-483h42v-24h-39q-19 0 -23 3.5zM140 752h24l76 -190h-24z" />
    <glyph glyph-name="uacute" unicode="&#xfa;" horiz-adv-x="521" 
d="M419 3.5q-4 3.5 -4 20.5v92q-58 -126 -189 -126q-90 0 -138 62t-48 191v264h24v-264q0 -115 41.5 -172t120.5 -57q56 0 99 29.5t66.5 81.5t23.5 118v264h24v-483h42v-24h-39q-19 0 -23 3.5zM218 560l76 190h24l-76 -190h-24z" />
    <glyph glyph-name="ucircumflex" unicode="&#xfb;" horiz-adv-x="521" 
d="M419 3.5q-4 3.5 -4 20.5v92q-58 -126 -189 -126q-90 0 -138 62t-48 191v264h24v-264q0 -115 41.5 -172t120.5 -57q56 0 99 29.5t66.5 81.5t23.5 118v264h24v-483h42v-24h-39q-19 0 -23 3.5zM223 754l146 -208h-24l-121 173l-120 -174h-24z" />
    <glyph glyph-name="udieresis" unicode="&#xfc;" horiz-adv-x="521" 
d="M419 3.5q-4 3.5 -4 20.5v92q-58 -126 -189 -126q-90 0 -138 62t-48 191v264h24v-264q0 -115 41.5 -172t120.5 -57q56 0 99 29.5t66.5 81.5t23.5 118v264h24v-483h42v-24h-39q-19 0 -23 3.5zM146 567.5q-12 10.5 -12 25.5t12 26t33 11t32.5 -10.5t11.5 -26.5
q0 -15 -12 -25.5t-32 -10.5q-21 0 -33 10.5zM244.5 619q11.5 11 32.5 11t33 -10.5t12 -26.5q0 -15 -12.5 -25.5t-32.5 -10.5q-21 0 -32.5 10.5t-11.5 25.5t11.5 26z" />
    <glyph glyph-name="yacute" unicode="&#xfd;" horiz-adv-x="542" 
d="M65 507l175 -451l237 451h25l-324 -614q-7 -13 -11 -15.5t-12 -2.5h-12h-39v24h53l69 132l-186 476h25zM251 555l76 190h24l-76 -190h-24z" />
    <glyph glyph-name="ydieresis" unicode="&#xff;" horiz-adv-x="542" 
d="M65 507l175 -451l237 451h25l-324 -614q-7 -13 -11 -15.5t-12 -2.5h-12h-39v24h53l69 132l-186 476h25zM179 562.5q-12 10.5 -12 25.5t12 26t33 11t32.5 -10.5t11.5 -26.5q0 -15 -12 -25.5t-32 -10.5q-21 0 -33 10.5zM277.5 614q11.5 11 32.5 11t33 -10.5t12 -26.5
q0 -15 -12.5 -25.5t-32.5 -10.5q-21 0 -32.5 10.5t-11.5 25.5t11.5 26z" />
    <glyph glyph-name="dotlessi" unicode="&#x131;" horiz-adv-x="104" 
d="M40 507h24v-507h-24v507z" />
    <glyph glyph-name="OE" unicode="&#x152;" horiz-adv-x="1081" 
d="M200.5 34.5q-74.5 44.5 -117.5 120.5t-43 165q0 92 42.5 170t117.5 124t168 46q110 0 192 -63t114 -163v199q0 19 3.5 23t21.5 4h407v-24h-408v-286h339v-24h-339v-302h407v-24h-406q-18 0 -21.5 4t-3.5 23v184q-34 -98 -117.5 -159.5t-190.5 -61.5q-91 0 -165.5 44.5z
M104.5 163.5q40.5 -70.5 109.5 -110t151 -39.5t151.5 39.5t110.5 110t41 158.5q0 87 -39.5 159t-108 113.5t-151.5 41.5t-153 -42t-111 -114t-41 -158q0 -88 40.5 -158.5z" />
    <glyph glyph-name="oe" unicode="&#x153;" horiz-adv-x="994" 
d="M159.5 24.5q-55.5 34.5 -87.5 94.5t-32 132q0 79 31 139.5t86 93.5t125 33q78 0 136 -38.5t86 -106.5q25 72 80.5 111t130.5 39q66 0 120 -30t86 -86.5t33 -132.5l-429 -1q1 -7 1 -21q0 -29 -7 -66q18 -84 71.5 -125t129.5 -41q79 0 133 46.5t71 127.5h25
q-16 -94 -76.5 -146t-152.5 -52q-75 0 -131.5 38.5t-83.5 109.5q-28 -70 -87.5 -111.5t-135.5 -41.5q-67 0 -122.5 34.5zM92 130.5q28 -54.5 77.5 -85.5t111.5 -31q78 0 135.5 47t77.5 122q-8 38 -8 76t6 71q-19 77 -75.5 120t-134.5 43q-62 0 -111.5 -28t-78 -82.5
t-28.5 -131.5q0 -66 28 -120.5zM523 297h405q-9 95 -65.5 148t-147.5 53q-77 0 -129 -45t-69 -124q4 -15 6 -32z" />
    <glyph glyph-name="Scaron" unicode="&#x160;" horiz-adv-x="537" 
d="M399.5 609.5q-50.5 36.5 -155.5 36.5q-88 0 -139 -34t-51 -106q0 -49 26 -79t62.5 -45.5t98.5 -32.5l21 -6l33 -9q69 -19 111 -36.5t71.5 -51.5t29.5 -90q0 -83 -59.5 -124.5t-147.5 -41.5q-97 0 -160 38t-90 126h25q23 -73 78 -106.5t153 -33.5q73 0 125 36t52 106
q0 48 -27.5 78t-66 45.5t-99.5 31.5l-28 8q-16 4 -24 7q-69 19 -110 36t-69.5 52t-28.5 92q0 85 56.5 124.5t157.5 39.5q109 0 169 -41t85 -123h-26q-22 67 -72.5 103.5zM112 919h24l120 -174l121 173h24l-146 -208z" />
    <glyph glyph-name="scaron" unicode="&#x161;" horiz-adv-x="449" 
d="M145.5 30.5q46.5 -18.5 109.5 -18.5q57 0 93.5 26t36.5 81q0 48 -37.5 75t-109.5 44q-83 20 -140.5 57t-57.5 98q0 69 50.5 96.5t119.5 27.5q62 0 114.5 -35t72.5 -105h-23q-17 58 -61.5 87t-105.5 29q-58 0 -100.5 -22.5t-42.5 -77.5q0 -48 49.5 -80.5t124.5 -50.5
q80 -19 125.5 -51t45.5 -94q0 -67 -45 -97t-109 -30t-119.5 22t-75.5 82h25q14 -45 60.5 -63.5zM61 751h24l120 -174l121 173h24l-146 -208z" />
    <glyph glyph-name="Ydieresis" unicode="&#x178;" horiz-adv-x="576" 
d="M65 660l213 -377l233 377h25l-247 -401v-259h-24v259l-225 401h25zM199 717.5q-12 10.5 -12 25.5t12 26t33 11t32.5 -10.5t11.5 -26.5q0 -15 -12 -25.5t-32 -10.5q-21 0 -33 10.5zM297.5 769q11.5 11 32.5 11t33 -10.5t12 -26.5q0 -15 -12.5 -25.5t-32.5 -10.5
q-21 0 -32.5 10.5t-11.5 25.5t11.5 26z" />
    <glyph glyph-name="zcaron" unicode="&#x17e;" horiz-adv-x="475" 
d="M40 507h379v-20l-332 -463h348v-24h-375v24l332 459h-352v24zM101 754h24l120 -174l121 173h24l-146 -208z" />
    <glyph glyph-name="gravecomb" unicode="&#x300;" 
d="M40 660h24l76 -190h-24z" />
    <glyph glyph-name="acutecomb" unicode="&#x301;" 
d="M40 470l76 190h24l-76 -190h-24z" />
    <glyph glyph-name="uni0302" unicode="&#x302;" 
d="M183 671l146 -208h-24l-121 173l-120 -174h-24z" />
    <glyph glyph-name="tildecomb" unicode="&#x303;" 
d="M60.5 638q18.5 24 48.5 24q5 0 15 -2q13 -3 24.5 -10.5t28.5 -21.5q28 -22 41 -26q11 -3 21 -3q29 0 45.5 20.5t21.5 40.5h24q-7 -31 -31.5 -57.5t-60.5 -26.5q-10 0 -24 3q-10 3 -21 10.5t-21 16.5q-18 16 -32.5 24t-31.5 8q-24 0 -34 -21.5t-10 -41.5h-24q2 39 20.5 63
z" />
    <glyph glyph-name="uni0304" unicode="&#x304;" 
d="M40 660h240v-24h-240v24z" />
    <glyph glyph-name="uni0306" unicode="&#x306;" 
d="M110 531.5q-34 20.5 -52 54.5t-18 74h24q0 -38 18 -66.5t47.5 -43.5t62.5 -15q56 0 94.5 34.5t37.5 90.5h24q0 -67 -40 -108t-116 -41q-48 0 -82 20.5z" />
    <glyph glyph-name="uni0307" unicode="&#x307;" 
d="M53 590.5q-13 11.5 -13 28.5t13 29t36 12q24 0 37 -12t13 -29q0 -16 -14 -28t-36 -12q-23 0 -36 11.5z" />
    <glyph glyph-name="uni0308" unicode="&#x308;" 
d="M52 597.5q-12 10.5 -12 25.5t12 26t33 11t32.5 -10.5t11.5 -26.5q0 -15 -12 -25.5t-32 -10.5q-21 0 -33 10.5zM150.5 649q11.5 11 32.5 11t33 -10.5t12 -26.5q0 -15 -12.5 -25.5t-32.5 -10.5q-21 0 -32.5 10.5t-11.5 25.5t11.5 26z" />
    <glyph glyph-name="uni030A" unicode="&#x30a;" 
d="M71.5 503.5q-31.5 29.5 -31.5 67.5q0 43 30.5 71.5t77.5 28.5q49 0 79.5 -28t30.5 -72q0 -39 -31 -68t-79 -29q-45 0 -76.5 29.5zM84.5 519q21.5 -21 63.5 -21q40 0 63 21t23 53q0 33 -21.5 54t-64.5 21q-42 0 -63.5 -21.5t-21.5 -53.5t21.5 -53z" />
    <glyph glyph-name="uni030B" unicode="&#x30b;" 
d="M156 660h24l-76 -190h-25zM116 660h24l-76 -190h-24z" />
    <glyph glyph-name="uni030C" unicode="&#x30c;" 
d="M40 671h24l120 -174l121 173h24l-146 -208z" />
    <glyph glyph-name="uni0312" unicode="&#x312;" 
d="M79 534h24l-39 -164h-24z" />
    <glyph glyph-name="uni0326" unicode="&#x326;" 
d="M118 79h24l-78 -207h-24z" />
    <glyph glyph-name="uni0327" unicode="&#x327;" 
d="M92 -144q79 0 108.5 18t29.5 58t-36 55.5t-117 15.5h-30l-7 19l71 90h30l-71 -87q69 3 127.5 -15t58.5 -78t-40.5 -80t-122.5 -20l-46 1v24q16 -1 45 -1z" />
    <glyph glyph-name="uni0328" unicode="&#x328;" 
d="M190 -137q-49 0 -88.5 23t-53.5 62q-8 24 -8 43q0 40 25.5 73t62.5 47l22 -1v-15q-34 -12 -59 -41t-25 -64q0 -15 6 -31q13 -37 46 -53.5t73 -16.5q34 0 59 10l7 -24q-33 -12 -67 -12z" />
    <glyph glyph-name="endash" unicode="&#x2013;" horiz-adv-x="490" 
d="M40 410h410v-24h-410v24z" />
    <glyph glyph-name="emdash" unicode="&#x2014;" horiz-adv-x="559" 
d="M40 410h479v-24h-479v24z" />
    <glyph glyph-name="quoteleft" unicode="&#x2018;" horiz-adv-x="154" 
d="M40 660h24l50 -222h-24z" />
    <glyph glyph-name="quoteright" unicode="&#x2019;" horiz-adv-x="154" 
d="M40 438l50 222h24l-50 -222h-24z" />
    <glyph glyph-name="quotesinglbase" unicode="&#x201a;" horiz-adv-x="154" 
d="M79 87h24l-39 -164h-24z" />
    <glyph glyph-name="quotedblleft" unicode="&#x201c;" horiz-adv-x="198" 
d="M40 660h24l50 -222h-24zM84 660h24l50 -222h-24z" />
    <glyph glyph-name="quotedblright" unicode="&#x201d;" horiz-adv-x="198" 
d="M84 438l50 222h24l-50 -222h-24zM90 660h24l-50 -222h-24z" />
    <glyph glyph-name="quotedblbase" unicode="&#x201e;" horiz-adv-x="190" 
d="M79 87h24l-39 -164h-24zM115 87h24l-39 -164h-24z" />
    <glyph glyph-name="dagger" unicode="&#x2020;" horiz-adv-x="463" 
d="M219 511h-179v24h178v125h25v-125h180v-24h-180v-237h-24v237z" />
    <glyph glyph-name="bullet" unicode="&#x2022;" horiz-adv-x="179" 
d="M54.5 225q-14.5 15 -14.5 35q0 21 14.5 35.5t35.5 14.5q20 0 34.5 -14.5t14.5 -35.5q0 -20 -14.5 -35t-34.5 -15q-21 0 -35.5 15z" />
    <glyph glyph-name="ellipsis" unicode="&#x2026;" horiz-adv-x="412" 
d="M51.5 11.5q-11.5 11.5 -11.5 27.5t11.5 27t27.5 11t27 -11t11 -27t-11 -27.5t-27 -11.5t-27.5 11.5zM183.5 11.5q-11.5 11.5 -11.5 27.5t11.5 27t27.5 11t27 -11t11 -27t-11 -27.5t-27 -11.5t-27.5 11.5zM306.5 11.5q-11.5 11.5 -11.5 27.5t11.5 27t27.5 11t27 -11
t11 -27t-11 -27.5t-27 -11.5t-27.5 11.5z" />
    <glyph glyph-name="perthousand" unicode="&#x2030;" horiz-adv-x="1625" 
d="M155.5 148q-51.5 32 -83.5 96t-32 154t32 153t83.5 95t110.5 32q62 0 114.5 -31.5t84 -95t31.5 -153.5q0 -91 -31.5 -154.5t-84 -95.5t-114.5 -32q-59 0 -110.5 32zM89 254.5q29 -59.5 76 -89t101 -29.5q58 0 105.5 29.5t76 88.5t28.5 144q0 84 -28.5 142.5t-76 88
t-105.5 29.5q-54 0 -101 -29.5t-76 -88t-29 -142.5t29 -143.5zM682 659h24l-278 -660h-24zM672 426q32 63 83.5 95t110.5 32q62 0 114.5 -31.5t84 -95t31.5 -153.5q0 -91 -31.5 -154.5t-84 -95.5t-114.5 -32q-59 0 -110.5 32t-83.5 96t-32 154t32 153zM689 129.5
q29 -59.5 76 -89t101 -29.5q58 0 105.5 29.5t76 88.5t28.5 144q0 84 -28.5 142.5t-76 88t-105.5 29.5q-54 0 -101 -29.5t-76 -88t-29 -142.5t29 -143.5zM1161 435q32 63 83.5 95t110.5 32q62 0 114.5 -31.5t84 -95t31.5 -153.5q0 -91 -31.5 -154.5t-84 -95.5t-114.5 -32
q-59 0 -110.5 32t-83.5 96t-32 154t32 153zM1178 138.5q29 -59.5 76 -89t101 -29.5q58 0 105.5 29.5t76 88.5t28.5 144q0 84 -28.5 142.5t-76 88t-105.5 29.5q-54 0 -101 -29.5t-76 -88t-29 -142.5t29 -143.5z" />
    <glyph glyph-name="guilsinglleft" unicode="&#x2039;" horiz-adv-x="340" 
d="M40 275l236 204h24l-235 -206l224 -204h-24z" />
    <glyph glyph-name="guilsinglright" unicode="&#x203a;" horiz-adv-x="340" 
d="M51 69l224 204l-235 206h24l236 -204l-225 -206h-24z" />
    <glyph glyph-name="fraction" unicode="&#x2044;" horiz-adv-x="382" 
d="M318 660h24l-278 -660h-24z" />
    <glyph glyph-name="Euro" unicode="&#x20ac;" horiz-adv-x="838" 
d="M732 102q-46 -53 -109.5 -82.5t-136.5 -29.5q-81 0 -150 36t-114 99t-58 140h-124v24h121q-1 10 -1 31q0 24 3 46h-123v24h127q15 76 60 137.5t112.5 97t148.5 35.5q75 0 138.5 -30t107 -83.5t63.5 -121.5h-18q-21 65 -65 114.5t-102.5 76t-122.5 26.5q-72 0 -136 -33
t-108.5 -90.5t-59.5 -128.5h156v-24h-160q-3 -21 -3 -44q0 -11 2 -33h161v-24h-158q13 -74 57 -132.5t109 -91.5t138 -33q103 0 182.5 59.5t109.5 154.5h19q-20 -67 -66 -120z" />
    <glyph glyph-name="trademark" unicode="&#x2122;" horiz-adv-x="611" 
d="M295 641v-279h-11v286h-124v-286h-11v286h-109v12h255l130 -162l135 162h11v-298h-11v279l-132 -156h-6z" />
    <glyph glyph-name="minus" unicode="&#x2212;" horiz-adv-x="423" 
d="M40 245h343v-24h-343v24z" />
    <glyph glyph-name="BeeType" horiz-adv-x="641" 
d="M94 115.5q-32 12.5 -54 36t-22 54.5q0 40 34 78t94.5 65t134.5 35l9 1q-7 8 -13 22t-6 24q0 24 18 42q5 5 5 7q0 4 -4 8q-4 5 -38 45q-2 2 -2 7t3.5 8.5t7.5 3.5q7 0 11 -7l30 -49q4 -7 6 -8t9 0q5 2 14 2q8 0 13 -2l5 -1q2 0 4 3t4 5l32 51q5 5 9 5q6 0 8.5 -6t-1.5 -12
l-17 -22l-19 -26q-3 -4 3 -10q20 -23 20 -45q0 -19 -18 -47q65 -10 122.5 -36.5t92 -62.5t34.5 -74q0 -28 -22 -50.5t-54.5 -35.5t-59.5 -13q-42 0 -82 28t-64 73l-16 29l-18 -32q-24 -43 -64 -74.5t-88 -31.5q-29 0 -61 12.5zM61.5 167q17.5 -18 43.5 -28t50 -10
q74 0 130 95q3 5 11 19t15.5 23t13.5 9q7 0 14 -9t14 -21.5t11 -19.5q28 -44 58 -65.5t65 -21.5q21 0 47.5 10t44.5 27t17 36q-2 43 -50.5 77t-112.5 53t-108 19q-57 0 -123.5 -20t-112 -55t-45.5 -78q0 -22 17.5 -40z" />
    </font>
</defs>
</svg>
