<?xml version="1.0" standalone="no"?>
<!DOCTYPE svg PUBLIC "-//W3C//DTD SVG 1.1//EN" "http://www.w3.org/Graphics/SVG/1.1/DTD/svg11.dtd" >
<svg xmlns="http://www.w3.org/2000/svg" xmlns:xlink="http://www.w3.org/1999/xlink" version="1.1">
<metadata>
Created by FontForge 20201107 at Fri Nov 18 10:06:55 2022
 By 
Copyright (c) 2022 by beetype. All rights reserved.
</metadata>
<defs>
<font id="NeueLeiden-Bold" horiz-adv-x="0" >
  <font-face 
    font-family="Neue Leiden Bold"
    font-weight="700"
    font-stretch="normal"
    units-per-em="1000"
    panose-1="0 0 0 0 0 0 0 0 0 0"
    ascent="800"
    descent="-200"
    x-height="507"
    cap-height="660"
    bbox="13 -295 1650 983"
    underline-thickness="50"
    underline-position="-125"
    unicode-range="U+0020-FB02"
  />
<missing-glyph horiz-adv-x="641" 
d="M94 115.5q-32 12.5 -54 36t-22 54.5q0 40 34 78t94.5 65t134.5 35l9 1q-7 8 -13 22t-6 24q0 24 18 42q5 5 5 7q0 4 -4 8q-4 5 -38 45q-2 2 -2 7t3.5 8.5t7.5 3.5q7 0 11 -7l30 -49q4 -7 6 -8t9 0q5 2 14 2q8 0 13 -2l5 -1q2 0 4 3t4 5l32 51q5 5 9 5q6 0 8.5 -6t-1.5 -12
l-17 -22l-19 -26q-3 -4 3 -10q20 -23 20 -45q0 -19 -18 -47q65 -10 122.5 -36.5t92 -62.5t34.5 -74q0 -28 -22 -50.5t-54.5 -35.5t-59.5 -13q-42 0 -82 28t-64 73l-16 29l-18 -32q-24 -43 -64 -74.5t-88 -31.5q-29 0 -61 12.5zM61.5 167q17.5 -18 43.5 -28t50 -10
q74 0 130 95q3 5 11 19t15.5 23t13.5 9q7 0 14 -9t14 -21.5t11 -19.5q28 -44 58 -65.5t65 -21.5q21 0 47.5 10t44.5 27t17 36q-2 43 -50.5 77t-112.5 53t-108 19q-57 0 -123.5 -20t-112 -55t-45.5 -78q0 -22 17.5 -40z" />
    <glyph glyph-name="fi" unicode="fi" horiz-adv-x="546" 
d="M65 305h-47v112h47v133q0 42 5 64t23 34t55 12h295v-112h-255v-131h212q31 0 44.5 -11.5t16.5 -32t3 -65.5v-196h64v-112h-93q-47 0 -66.5 11.5t-23 31.5t-3.5 67v195h-154l-1 -305h-122v305z" />
    <glyph glyph-name="fl" unicode="fl" horiz-adv-x="555" 
d="M65 305h-47v112h47v133q0 42 5 64t23 34t55 12h325v-548h64v-112h-103q-37 0 -55 12t-23 34t-5 64v438h-163v-131h137v-112h-137l-1 -305h-122v305z" />
    <glyph glyph-name="TT" unicode="TT" horiz-adv-x="695" 
d="M197 548h-179v112h659v-112h-179v-548h-122v548h-57v-548h-122v548z" />
    <glyph glyph-name="ff" unicode="ff" horiz-adv-x="651" 
d="M65 305h-47v112h47v133q0 42 5 64t23 34t55 12h175v-112h-135v-131h157v133q0 42 5 64t23 34t55 12h205v-112h-165v-131h122v-112h-122l-1 -305h-122v305h-157l-1 -305h-122v305z" />
    <glyph glyph-name="ffj" unicode="ffj" horiz-adv-x="731" 
d="M65 305h-47v112h47v133q0 42 5 64t23 34t55 12h175v-112h-135v-131h157v133q0 42 5 64t23 34t55 12h205v-112h-165v-131h245v-529q0 -47 -3.5 -67t-23 -31.5t-66.5 -11.5h-213v112h184v415h-123l-1 -305h-122v305h-157l-1 -305h-122v305z" />
    <glyph glyph-name="ffl" unicode="ffl" horiz-adv-x="785" 
d="M65 305h-47v112h47v133q0 42 5 64t23 34t55 12h175v-112h-135v-131h157v133q0 42 5 64t23 34t55 12h275v-548h64v-112h-103q-37 0 -55 12t-23 34t-5 64v438h-113v-131h82v-112h-82l-1 -305h-122v305h-157l-1 -305h-122v305z" />
    <glyph glyph-name="fj" unicode="fj" horiz-adv-x="414" 
d="M23 614q5 22 23 34t55 12h295v-112h-255v-131h255v-529q0 -47 -3.5 -67t-23 -31.5t-66.5 -11.5h-213v112h184v415h-133l-1 -305h-122v550q0 42 5 64z" />
    <glyph glyph-name="ft" unicode="ft" horiz-adv-x="621" 
d="M65 305h-47v112h47v133q0 42 5 64t23 34t55 12h300v-243h152v-112h-152v-193h155v-112h-194q-37 0 -55 12t-23 34t-5 64v195h-138l-1 -305h-122v305zM326 417v131h-138v-131h138z" />
    <glyph glyph-name="ti" unicode="ti" horiz-adv-x="581" 
d="M124 12q-18 12 -23 34t-5 64v285h-78v112h78v153h122v-153h217q31 0 44.5 -11.5t16.5 -32t3 -65.5v-286h64v-112h-93q-47 0 -66.5 11.5t-23 31.5t-3.5 67v285h-159v-283h105v-112h-144q-37 0 -55 12z" />
    <glyph glyph-name="tj" unicode="tj" horiz-adv-x="502" 
d="M124 12q-18 12 -23 34t-5 64v285h-78v112h78v153h122v-153h266v-529q0 -47 -3.5 -67t-23 -31.5t-66.5 -11.5h-213v112h184v415h-144v-283h105v-112h-144q-37 0 -55 12z" />
    <glyph glyph-name="tt" unicode="tt" horiz-adv-x="661" 
d="M124 12q-18 12 -23 34t-5 64v285h-78v112h78v153h122v-153h148v153h122v-153h152v-112h-152v-283h155v-112h-194q-37 0 -55 12t-23 34t-5 64v285h-148v-283h115v-112h-154q-37 0 -55 12z" />
    <glyph glyph-name=".notdef" horiz-adv-x="641" 
d="M94 115.5q-32 12.5 -54 36t-22 54.5q0 40 34 78t94.5 65t134.5 35l9 1q-7 8 -13 22t-6 24q0 24 18 42q5 5 5 7q0 4 -4 8q-4 5 -38 45q-2 2 -2 7t3.5 8.5t7.5 3.5q7 0 11 -7l30 -49q4 -7 6 -8t9 0q5 2 14 2q8 0 13 -2l5 -1q2 0 4 3t4 5l32 51q5 5 9 5q6 0 8.5 -6t-1.5 -12
l-17 -22l-19 -26q-3 -4 3 -10q20 -23 20 -45q0 -19 -18 -47q65 -10 122.5 -36.5t92 -62.5t34.5 -74q0 -28 -22 -50.5t-54.5 -35.5t-59.5 -13q-42 0 -82 28t-64 73l-16 29l-18 -32q-24 -43 -64 -74.5t-88 -31.5q-29 0 -61 12.5zM61.5 167q17.5 -18 43.5 -28t50 -10
q74 0 130 95q3 5 11 19t15.5 23t13.5 9q7 0 14 -9t14 -21.5t11 -19.5q28 -44 58 -65.5t65 -21.5q21 0 47.5 10t44.5 27t17 36q-2 43 -50.5 77t-112.5 53t-108 19q-57 0 -123.5 -20t-112 -55t-45.5 -78q0 -22 17.5 -40z" />
    <glyph glyph-name=".null" 
 />
    <glyph glyph-name="nonmarkingreturn" horiz-adv-x="333" 
 />
    <glyph glyph-name="space" unicode=" " horiz-adv-x="348" 
 />
    <glyph glyph-name="space" unicode="&#xa0;" horiz-adv-x="348" 
 />
    <glyph glyph-name="exclam" unicode="!" horiz-adv-x="195" 
d="M36 660h122v-494h-122v494zM39.5 125.5q21.5 21.5 56.5 21.5q37 0 59 -21t22 -53q0 -31 -23 -52t-58 -21t-56.5 21t-21.5 52t21.5 52.5z" />
    <glyph glyph-name="quotedbl" unicode="&#x22;" horiz-adv-x="333" 
d="M13 660h114l60 -269h-113zM141 660h114l60 -269h-113z" />
    <glyph glyph-name="numbersign" unicode="#" horiz-adv-x="700" 
d="M140 204h-122l42 112h126l16 39h-122l40 107h127l84 198h122l-85 -198h39l84 198h122l-85 -198h154l-43 -107h-155l-16 -39h155l-46 -112h-155l-87 -204h-122l87 204h-38l-87 -204h-122zM346 316l16 39h-38l-16 -39h38z" />
    <glyph glyph-name="dollar" unicode="$" horiz-adv-x="527" 
d="M341.5 530q-32.5 28 -99.5 28q-56 0 -79 -17.5t-23 -60.5q0 -22 12 -36t31 -22.5t56 -20.5l35 -11l37 -12q59 -19 98.5 -37.5t69 -57.5t29.5 -101q0 -64 -32 -107t-82.5 -64t-107.5 -21v-53h-93v68q-129 47 -162 227h122q12 -75 45.5 -102.5t99.5 -27.5q42 0 64.5 18.5
t22.5 61.5q0 30 -24.5 45t-79.5 32q-33 10 -41 13l-33 11q-57 18 -95 37t-66 58t-28 102q0 83 48.5 130t127.5 57v60h93v-60q89 -10 147.5 -68.5t74.5 -170.5h-122q-13 74 -45.5 102z" />
    <glyph glyph-name="percent" unicode="%" horiz-adv-x="1195" 
d="M138 139.5q-54 32.5 -87 96.5t-33 153t33 152.5t86.5 95.5t114.5 32q64 0 118.5 -32t87.5 -95.5t33 -152.5t-33 -153t-87.5 -96.5t-118.5 -32.5q-60 0 -114 32.5zM156 245q37 -46 96 -46q64 0 101 45.5t37 144.5q0 187 -138 187q-60 0 -96.5 -45t-36.5 -142
q0 -98 37 -144zM673 659h122l-278 -660h-122zM737 429.5q33 63.5 86.5 95.5t114.5 32q64 0 118.5 -32t87.5 -95.5t33 -152.5t-33 -153t-87.5 -96.5t-118.5 -32.5q-60 0 -114 32.5t-87 96.5t-33 153t33 152.5zM842 133q37 -46 96 -46q64 0 101 45.5t37 144.5q0 187 -138 187
q-60 0 -96.5 -45t-36.5 -142q0 -98 37 -144z" />
    <glyph glyph-name="ampersand" unicode="&#x26;" horiz-adv-x="691" 
d="M137 15q-51 26 -79 71.5t-28 102.5q0 71 44 118t112 66l-15 14q-61 60 -61 120q0 49 28.5 86t78 57t112.5 20q72 0 127 -29.5t85 -83t28 -123.5h-132q-1 62 -28 98.5t-78 37.5q-39 0 -63.5 -21t-24.5 -54q0 -25 14 -47.5t50 -58.5l387 -389h-156l-110 105
q-18 -58 -66 -87t-110 -29q-64 0 -115 26zM188.5 124.5q32.5 -30.5 74.5 -30.5q38 0 67 26t32 67l-108 109q-40 -2 -69 -30t-29 -71q0 -40 32.5 -70.5z" />
    <glyph glyph-name="quotesingle" unicode="'" horiz-adv-x="210" 
d="M18 660h114l60 -269h-113z" />
    <glyph glyph-name="parenleft" unicode="(" horiz-adv-x="387" 
d="M193.5 -7q-78.5 36 -127 118.5t-48.5 215.5q0 194 99.5 280t251.5 86v-120q-121 -2 -180 -58.5t-59 -187.5q0 -134 59 -190.5t180 -58.5v-121q-97 0 -175.5 36z" />
    <glyph glyph-name="parenright" unicode=")" horiz-adv-x="387" 
d="M198 136.5q59 56.5 59 190.5q0 131 -59 187.5t-180 58.5v120q152 0 251.5 -86t99.5 -280q0 -133 -48.5 -215.5t-127 -118.5t-175.5 -36v121q121 2 180 58.5z" />
    <glyph glyph-name="asterisk" unicode="*" horiz-adv-x="449" 
d="M178 341l-68 -69l-66 66l73 73h-99v93h97l-65 65l65 66l62 -62v87h93v-94l67 67l67 -67l-63 -62h90v-93h-92l68 -69l-65 -65l-72 71v-104h-92v97z" />
    <glyph glyph-name="plus" unicode="+" horiz-adv-x="449" 
d="M168 252h-150v112h149v147h112v-147h152v-112h-152v-157h-111v157z" />
    <glyph glyph-name="comma" unicode="," horiz-adv-x="193" 
d="M63 62h112l-44 -198h-113z" />
    <glyph glyph-name="hyphen" unicode="-" horiz-adv-x="431" 
d="M18 320h395v-112h-395v112z" />
    <glyph glyph-name="period" unicode="." horiz-adv-x="194" 
d="M40 20.5q-22 20.5 -22 49.5q0 30 22 50t57 20t57 -20t22 -50q0 -29 -22 -49.5t-57 -20.5t-57 20.5z" />
    <glyph glyph-name="slash" unicode="/" horiz-adv-x="436" 
d="M296 660h122l-278 -660h-122z" />
    <glyph glyph-name="zero" unicode="0" horiz-adv-x="608" 
d="M163 29.5q-65 39.5 -105 116.5t-40 185q0 107 40 184t105 116t138 39q78 0 144 -39t105.5 -115.5t39.5 -184.5t-39.5 -185t-105.5 -116.5t-144 -39.5q-73 0 -138 39.5zM184.5 157.5q44.5 -55.5 116.5 -55.5q78 0 122.5 54.5t44.5 174.5q0 227 -167 227q-72 0 -116.5 -55
t-44.5 -172q0 -118 44.5 -173.5z" />
    <glyph glyph-name="one" unicode="1" horiz-adv-x="310" 
d="M18 112h81v436h-81v112h203v-548h71v-112h-274v112z" />
    <glyph glyph-name="two" unicode="2" horiz-adv-x="555" 
d="M130.5 263.5q55.5 48.5 157.5 68.5q67 13 97 37.5t30 69.5q0 58 -39.5 88t-114.5 30q-60 0 -91 -33.5t-31 -91.5q0 -15 1 -22h-122q-5 81 26.5 139.5t89 89t127.5 30.5q119 0 197.5 -55t78.5 -175q0 -97 -66 -149.5t-169 -72.5q-57 -11 -80.5 -29t-32.5 -58l-4 -18h319
v-112h-451l13 130q9 85 64.5 133.5z" />
    <glyph glyph-name="three" unicode="3" horiz-adv-x="539" 
d="M478 360.5q43 -52.5 43 -137.5q0 -69 -30 -121.5t-86.5 -82t-131.5 -29.5t-134.5 37.5t-91 101.5t-29.5 141h122q7 -93 38.5 -130.5t94.5 -37.5q69 0 97.5 27t28.5 94q0 46 -23 69.5t-64.5 31.5t-111.5 8v91l115 127h-272v112l448 -2v-89l-123 -135q67 -23 110 -75.5z
" />
    <glyph glyph-name="four" unicode="4" horiz-adv-x="550" 
d="M293 660h102v-384h137v-122h-137v-154h-122v154l-255 1v85zM273 276v133l-86 -133h86z" />
    <glyph glyph-name="five" unicode="5" horiz-adv-x="538" 
d="M74 660h388v-112h-284l-17 -97q42 59 136 59q104 0 163.5 -66.5t59.5 -179.5q0 -74 -31.5 -137t-88.5 -100t-131 -37q-90 0 -154.5 55.5t-83.5 139.5h130q17 -39 43 -56t65 -17q62 0 95.5 40t33.5 112q0 70 -31.5 102t-99.5 32q-51 0 -79.5 -21t-34.5 -57h-135z" />
    <glyph glyph-name="six" unicode="6" horiz-adv-x="536" 
d="M331.5 543.5q-31.5 14.5 -62.5 14.5q-46 0 -74 -14t-41 -48t-13 -94v-30q17 46 50 71.5t105 25.5q65 0 115 -27t78.5 -76t28.5 -114q0 -75 -31.5 -134.5t-88.5 -93.5t-132 -34q-74 0 -130.5 34t-87 93.5t-30.5 134.5v143q0 144 60 209.5t191 65.5q107 0 166 -48t76 -126
l-141 2q-7 31 -38.5 45.5zM266 112q63 0 96.5 36.5t33.5 96.5q0 118 -130 118q-63 0 -94 -34t-31 -84q0 -133 125 -133z" />
    <glyph glyph-name="seven" unicode="7" horiz-adv-x="454" 
d="M250 0h-123l185 548h-294v112h418v-93z" />
    <glyph glyph-name="eight" unicode="8" horiz-adv-x="501" 
d="M77 46.5q-59 56.5 -59 148.5t84 145q-42 20 -63 50.5t-21 84.5q0 90 61 142.5t168 52.5q105 0 170.5 -52.5t65.5 -142.5q0 -53 -23.5 -87.5t-63.5 -47.5q44 -22 65.5 -53.5t21.5 -93.5q0 -59 -27.5 -105t-81 -72t-127.5 -26q-111 0 -170 56.5zM163.5 125.5
q23.5 -23.5 83.5 -23.5q61 0 87 23.5t26 67.5q0 51 -24.5 74.5t-88.5 23.5q-59 0 -83 -24.5t-24 -73.5q0 -44 23.5 -67.5zM163 414.5q23 -20.5 84 -20.5q62 0 87.5 20t25.5 58q0 86 -113 86q-59 0 -83 -23.5t-24 -59.5q0 -40 23 -60.5z" />
    <glyph glyph-name="nine" unicode="9" horiz-adv-x="536" 
d="M204.5 115.5q31.5 -14.5 62.5 -14.5q46 0 74 14t41 48t13 94v30q-17 -46 -50 -71.5t-105 -25.5q-65 0 -115 27t-78.5 76t-28.5 114q0 75 31.5 134.5t88.5 93.5t132 34q74 0 130.5 -34t87 -93.5t30.5 -134.5v-143q0 -144 -60 -209.5t-191 -65.5q-107 0 -166 48t-76 126
l141 -2q7 -31 38.5 -45.5zM270 296q63 0 94 34t31 84q0 133 -125 133q-63 0 -96.5 -36.5t-33.5 -96.5q0 -118 130 -118z" />
    <glyph glyph-name="colon" unicode=":" horiz-adv-x="195" 
d="M41 92.5q-22 20.5 -22 49.5q0 30 22 50t57 20t57 -20t22 -50q0 -29 -22 -49.5t-57 -20.5t-57 20.5zM40 443.5q-22 20.5 -22 49.5q0 30 22 50t57 20t57 -20t22 -50q0 -29 -22 -49.5t-57 -20.5t-57 20.5z" />
    <glyph glyph-name="semicolon" unicode=";" horiz-adv-x="217" 
d="M63 443.5q-22 20.5 -22 49.5q0 30 22 50t57 20t57 -20t22 -50q0 -29 -22 -49.5t-57 -20.5t-57 20.5zM63 95h112l-44 -198h-113z" />
    <glyph glyph-name="less" unicode="&#x3c;" horiz-adv-x="422" 
d="M18 282l251 217h135l-251 -219l238 -219h-132z" />
    <glyph glyph-name="equal" unicode="=" horiz-adv-x="438" 
d="M18 434h402v-112h-402v112zM18 298h402v-112h-402v112z" />
    <glyph glyph-name="greater" unicode="&#x3e;" horiz-adv-x="423" 
d="M270 280l-252 219h136l251 -217l-241 -221h-132z" />
    <glyph glyph-name="question" unicode="?" horiz-adv-x="537" 
d="M58.5 283q29.5 39 69 57.5t98.5 37.5l37 12l35 11q37 12 56 20.5t31 22.5t12 36q0 43 -23 60.5t-79 17.5q-77 0 -111.5 -28.5t-33.5 -101.5h-122q4 130 75 186t188 56q100 0 164 -46.5t64 -143.5q0 -63 -28 -102t-66 -58t-95 -37l-33 -11q-8 -3 -41 -13
q-55 -17 -79.5 -32t-24.5 -45v-37h-123v37q0 62 29.5 101zM38.5 101.5q20.5 19.5 55.5 19.5q37 0 57 -19.5t20 -45.5q0 -27 -20.5 -46.5t-56.5 -19.5t-56 20t-20 46t20.5 45.5z" />
    <glyph glyph-name="at" unicode="@" horiz-adv-x="649" 
d="M177.5 73.5q-73.5 43.5 -116.5 121.5t-43 175t40 164.5t110 101.5t161 34q86 0 154.5 -34t108 -101t39.5 -163q0 -99 -33 -155.5t-115 -56.5q-31 0 -53 14.5t-33 33.5t-11 31q-19 -29 -40 -40t-52 -11q-57 0 -92 45t-35 114q0 48 18 86t51 57.5t75 15.5q22 -2 43 -15.5
t32 -33.5v44h76v-200q0 -22 4.5 -33t24.5 -11q24 0 31 25.5t6 87.5q-1 103 -52.5 149t-146.5 46q-96 0 -147.5 -46t-51.5 -149q0 -120 61 -172.5t147 -52.5v-115q-87 0 -160.5 43.5zM260 286.5q18 -21.5 51 -21.5q31 0 50 22t19 60q0 37 -18.5 60.5t-50.5 23.5
q-33 0 -51 -22t-18 -62q0 -39 18 -60.5z" />
    <glyph glyph-name="A" unicode="A" horiz-adv-x="695" 
d="M309 660h88l280 -660h-130l-80 183h-235l-83 -183h-131zM416 303l-63 155l-68 -155h131z" />
    <glyph glyph-name="B" unicode="B" horiz-adv-x="515" 
d="M35.5 17.5q-17.5 17.5 -17.5 55.5v514q0 38 17.5 55.5t55.5 17.5h164q116 0 177.5 -51t61.5 -140q0 -47 -24.5 -86t-61.5 -54q47 -25 68 -59.5t21 -79.5q0 -91 -60.5 -140.5t-181.5 -49.5h-164q-38 0 -55.5 17.5zM255 112q71 0 95.5 20.5t24.5 63.5q0 40 -25.5 58.5
t-94.5 18.5h-115v-161h115zM255 385q69 0 93 21t24 66q0 29 -9.5 45t-34.5 23.5t-73 7.5h-115v-163h115z" />
    <glyph glyph-name="C" unicode="C" horiz-adv-x="681" 
d="M601.5 115.5q-45.5 -59.5 -112 -92.5t-142.5 -33q-89 0 -164.5 42.5t-120 118t-44.5 171.5q0 99 43 178.5t118 124.5t168 45q79 0 144 -32t109 -89.5t61 -132.5h-126q-21 67 -71 104.5t-117 37.5q-59 0 -106 -29t-74 -81.5t-27 -121.5q0 -64 25.5 -115t72.5 -80t108 -29
q72 0 123.5 40.5t69.5 110.5h124q-16 -78 -61.5 -137.5z" />
    <glyph glyph-name="D" unicode="D" horiz-adv-x="617" 
d="M45 7q-16 7 -21.5 23.5t-5.5 49.5v500q0 33 5.5 49.5t21.5 23.5t50 7h176q148 0 238 -81.5t90 -243.5q0 -109 -42 -184.5t-116 -113t-170 -37.5h-176q-34 0 -50 7zM271 112q91 0 148 58.5t57 164.5q0 120 -53 166.5t-152 46.5h-131v-436h131z" />
    <glyph glyph-name="E" unicode="E" horiz-adv-x="516" 
d="M45.5 7.5q-16.5 7.5 -22 24.5t-5.5 50v498q0 33 5.5 49.5t21.5 23.5t50 7h403v-112h-358v-180h314v-112h-314v-144h357v-112h-402q-33 0 -49.5 7.5z" />
    <glyph glyph-name="F" unicode="F" horiz-adv-x="496" 
d="M23.5 629.5q5.5 16.5 21.5 23.5t50 7h383v-112h-338v-180h294v-112h-294v-256h-122v580q0 33 5.5 49.5z" />
    <glyph glyph-name="G" unicode="G" horiz-adv-x="733" 
d="M715 112h-49v177q0 41 -9 62t-30.5 29.5t-61.5 8.5h-221v-112h210q0 -94 -58 -134.5t-152 -40.5q-91 0 -147.5 59.5t-56.5 169.5t56.5 168.5t148.5 58.5q70 0 110 -24.5t55 -73.5h122q-35 125 -117 167.5t-170 42.5q-84 0 -158.5 -36t-121.5 -112t-47 -189
q0 -105 43.5 -183t115 -119t152.5 -41q83 0 136 31t89 86v-27q0 -33 5.5 -49.5t21.5 -23.5t50 -7h84v112z" />
    <glyph glyph-name="H" unicode="H" horiz-adv-x="544" 
d="M18 660h122v-292h264v292h122v-660h-122v256h-265v-256h-121v660z" />
    <glyph glyph-name="I" unicode="I" horiz-adv-x="286" 
d="M18 112h64v436h-64v112h250v-112h-64v-436h64v-112h-250v112z" />
    <glyph glyph-name="J" unicode="J" horiz-adv-x="424" 
d="M379 653q16 -7 21.5 -23.5t5.5 -49.5v-354q0 -85 -29 -134.5t-86.5 -70.5t-148.5 -21h-124v112h124q57 0 87 11t42.5 41.5t12.5 91.5v292h-104v112h149q34 0 50 -7z" />
    <glyph glyph-name="K" unicode="K" horiz-adv-x="546" 
d="M140 660v-218l225 218h161l-311 -304h212q40 0 61.5 -8.5t30.5 -29.5t9 -62v-256h-122v244h-266v-244h-122v660h122z" />
    <glyph glyph-name="L" unicode="L" horiz-adv-x="471" 
d="M18 660h122v-548h313v-112h-315q-60 0 -84 8.5t-30 31.5t-6 81v539z" />
    <glyph glyph-name="M" unicode="M" horiz-adv-x="694" 
d="M18 660h123l205 -253l219 253h111v-660h-122l1 486l-174 -205h-72l-168 195v-476h-123v660z" />
    <glyph glyph-name="N" unicode="N" horiz-adv-x="559" 
d="M18 660h97l304 -423v423h122l-2 -660h-97l-302 420v-420h-122v660z" />
    <glyph glyph-name="O" unicode="O" horiz-adv-x="688" 
d="M182.5 32.5q-75.5 42.5 -120 118t-44.5 171.5q0 99 43 178.5t118 124.5t168 45q94 0 167.5 -44t114.5 -122t41 -176q0 -97 -43.5 -174t-117.5 -120.5t-162 -43.5q-89 0 -164.5 42.5zM165.5 211q25.5 -51 72.5 -80t108 -29q59 0 105 27t71.5 77.5t25.5 117.5q0 72 -26 125
t-72 81t-103 28q-59 0 -106 -29t-74 -81.5t-27 -121.5q0 -64 25.5 -115z" />
    <glyph glyph-name="P" unicode="P" horiz-adv-x="496" 
d="M35.5 642.5q17.5 17.5 53.5 17.5h140q132 0 190.5 -66t58.5 -160q0 -95 -58.5 -161.5t-190.5 -66.5h-89v-206h-122v587q0 38 17.5 55.5zM229 318q53 0 80.5 13.5t37 38t9.5 64.5q0 41 -8.5 64.5t-36 36.5t-82.5 13h-89v-230h89z" />
    <glyph glyph-name="Q" unicode="Q" horiz-adv-x="688" 
d="M61 500.5q43 79.5 118 124.5t168 45q94 0 167.5 -44t114.5 -122t41 -176q0 -83 -32.5 -152t-89 -115t-127.5 -63l-11 -53h76v-109h-137q-30 0 -50 16t-20 49q0 10 3 24l14 69q-78 12 -141.5 56.5t-100 115t-36.5 156.5q0 99 43 178.5zM165.5 211q25.5 -51 72.5 -80
t108 -29q59 0 105 27t71.5 77.5t25.5 117.5q0 72 -26 125t-72 81t-103 28q-59 0 -106 -29t-74 -81.5t-27 -121.5q0 -64 25.5 -115z" />
    <glyph glyph-name="R" unicode="R" horiz-adv-x="496" 
d="M35.5 642.5q17.5 17.5 53.5 17.5h160q127 0 178 -55t51 -150q0 -62 -28.5 -101t-71.5 -46q56 -21 78 -61.5t22 -104.5v-142h-122v142q0 41 -8.5 64.5t-36 36.5t-82.5 13h-89v-256h-122v587q0 38 17.5 55.5zM229 368q51 0 77 6t38 24.5t12 56.5q0 37 -10.5 56.5t-35.5 28
t-71 8.5h-99v-180h89z" />
    <glyph glyph-name="S" unicode="S" horiz-adv-x="539" 
d="M339 538q-38 20 -97 20q-102 0 -102 -78q0 -22 12 -36t31 -22.5t56 -20.5l35 -11l37 -12q59 -19 98.5 -37.5t69 -57.5t29.5 -101q0 -64 -31.5 -107t-81.5 -64t-105 -21q-105 0 -173.5 47t-97.5 157h123q18 -50 55.5 -71t92.5 -21q46 0 70.5 18t24.5 62q0 30 -24.5 45
t-79.5 32q-33 10 -41 13l-33 11q-57 18 -95 37t-66 58t-28 102q0 96 63 143t161 47q100 0 176 -49t103 -152h-125q-19 49 -57 69z" />
    <glyph glyph-name="T" unicode="T" horiz-adv-x="516" 
d="M197 548h-179v112h480v-112h-179v-548h-122v548z" />
    <glyph glyph-name="U" unicode="U" horiz-adv-x="648" 
d="M100 68.5q-82 78.5 -82 262.5v329h122v-329q0 -125 49 -177t137 -52q89 0 135.5 54.5t46.5 174.5v329h122v-329q0 -184 -77.5 -262.5t-226.5 -78.5q-144 0 -226 78.5z" />
    <glyph glyph-name="V" unicode="V" horiz-adv-x="701" 
d="M18 660h132l194 -489l207 489h132l-285 -660h-118z" />
    <glyph glyph-name="W" unicode="W" horiz-adv-x="867" 
d="M150 660l137 -413l100 413h94l99 -413l137 413h132l-232 -660h-101l-82 337l-82 -337h-102l-232 660h132z" />
    <glyph glyph-name="X" unicode="X" horiz-adv-x="657" 
d="M259 329l-240 331h133l171 -234l180 234h133l-249 -331l252 -329h-133l-183 234l-172 -234h-133z" />
    <glyph glyph-name="Y" unicode="Y" horiz-adv-x="633" 
d="M151 660l157 -285l174 285h133l-248 -404v-256h-122v257l-227 403h133z" />
    <glyph glyph-name="Z" unicode="Z" horiz-adv-x="522" 
d="M18 660h486v-87l-314 -451h314v-122h-486v87l315 451h-315v122z" />
    <glyph glyph-name="bracketleft" unicode="[" horiz-adv-x="384" 
d="M18 758h348v-112h-236v-632h236v-112h-348v856z" />
    <glyph glyph-name="backslash" unicode="\" horiz-adv-x="436" 
d="M296 0l-278 660h122l278 -660h-122z" />
    <glyph glyph-name="bracketright" unicode="]" horiz-adv-x="384" 
d="M18 -98v112h236v632h-236v112h348v-856h-348z" />
    <glyph glyph-name="asciicircum" unicode="^" horiz-adv-x="533" 
d="M268 670l247 -418h-104l-142 241l-147 -242h-104z" />
    <glyph glyph-name="underscore" unicode="_" horiz-adv-x="437" 
d="M18 112h401v-112h-401v112z" />
    <glyph glyph-name="a" unicode="a" horiz-adv-x="594" 
d="M130.5 23.5q-53.5 33.5 -83 93t-29.5 133.5q0 76 28.5 137t80.5 95.5t121 34.5q116 0 167 -85v75h122v-395h39v-112h-84q-47 0 -62 15.5t-15 57.5v9q-29 -47 -66 -69.5t-94 -22.5q-71 0 -124.5 33.5zM178 144.5q38 -42.5 99 -42.5q62 0 100 42.5t38 105.5
q0 68 -38.5 111.5t-101.5 43.5q-61 0 -98 -44t-37 -111q0 -63 38 -105.5z" />
    <glyph glyph-name="b" unicode="b" horiz-adv-x="555" 
d="M205.5 10.5q-37.5 20.5 -65.5 65.5v-76h-122v660h122v-229q27 43 65.5 64.5t93.5 21.5q71 0 125 -34t83.5 -94.5t29.5 -138.5q0 -74 -29.5 -133.5t-83.5 -93t-125 -33.5q-56 0 -93.5 20.5zM157 178q17 -35 48.5 -55.5t72.5 -20.5q61 0 99 42.5t38 105.5q0 67 -37 111
t-98 44q-62 0 -101 -43.5t-39 -107.5q0 -41 17 -76z" />
    <glyph glyph-name="c" unicode="c" horiz-adv-x="550" 
d="M487.5 87q-34.5 -49 -86 -76.5t-111.5 -27.5q-83 0 -144.5 34.5t-94.5 95t-33 137.5t32.5 137.5t93.5 95t144 34.5q59 0 110.5 -25.5t86.5 -71t47 -103.5h-122q-10 40 -44.5 64t-80.5 24q-70 0 -107.5 -42.5t-37.5 -112.5q0 -68 39.5 -111t107.5 -44q54 1 82 27.5
t41 74.5h122q-10 -61 -44.5 -110z" />
    <glyph glyph-name="d" unicode="d" horiz-adv-x="555" 
d="M131 23.5q-54 33.5 -83.5 93t-29.5 133.5q0 76 28.5 137t80.5 95.5t121 34.5q58 0 100.5 -22.5t66.5 -62.5v228h122v-660h-122v76q-28 -45 -65.5 -65.5t-93.5 -20.5q-71 0 -125 33.5zM178 144.5q38 -42.5 99 -42.5q62 0 100 42.5t38 105.5q0 68 -38.5 111.5t-101.5 43.5
q-61 0 -98 -44t-37 -111q0 -63 38 -105.5z" />
    <glyph glyph-name="e" unicode="e" horiz-adv-x="554" 
d="M431 37.5q-64 -47.5 -152 -47.5q-78 0 -137.5 34.5t-91.5 93.5t-32 129q0 83 31.5 144t90 93.5t137.5 32.5q69 0 129.5 -35t96 -99t33.5 -147l-396 -1q0 -32 19 -62.5t51 -50.5t69 -20q48 0 75 15.5t45 44.5h122q-26 -77 -90 -124.5zM405 317q-14 40 -48 64t-80 24
q-47 0 -81.5 -24t-46.5 -64h256z" />
    <glyph glyph-name="f" unicode="f" horiz-adv-x="371" 
d="M65 305h-47v112h47v133q0 42 5 64t23 34t55 12h205v-112h-165v-131h122v-112h-122l-1 -305h-122v305z" />
    <glyph glyph-name="g" unicode="g" horiz-adv-x="586" 
d="M18 -146q0 60 46 95t133 35h176q21 0 31 9.5t10 23.5q0 4 -2 12q-5 10 -13 13q-52 -30 -116 -30q-77 0 -137.5 31t-94 87.5t-33.5 130.5q0 75 33 133.5t93 90.5t139 32q67 0 100 -10h185v-83h-68q25 -34 39 -76t14 -87q0 -44 -14 -85.5t-40 -74.5q15 -15 25 -38t10 -51
q0 -60 -40 -100.5t-129 -40.5h-168q-30 0 -43.5 -7t-13.5 -23q0 -19 12 -25.5t45 -6.5h175q21 0 26 9t5 37h113q0 -76 -31.5 -113t-112.5 -37h-175q-179 0 -179 149zM158 191.5q18 -31.5 49.5 -49.5t69.5 -18q71 0 112.5 35t41.5 102q0 65 -38.5 104.5t-113.5 39.5
q-64 0 -101.5 -41t-37.5 -103q0 -38 18 -69.5z" />
    <glyph glyph-name="h" unicode="h" horiz-adv-x="524" 
d="M18 660h122v-233q19 41 60.5 65.5t94.5 24.5q102 0 156.5 -71t54.5 -192v-254h-122v254q0 82 -29.5 116.5t-92.5 34.5q-54 0 -88 -37t-34 -114v-254h-122v660z" />
    <glyph glyph-name="i" unicode="i" horiz-adv-x="286" 
d="M181.5 496q15.5 -11 19 -31.5t3.5 -66.5v-286h64v-112h-93q-47 0 -66.5 11.5t-23 31.5t-3.5 67v285h-64v112h113q35 0 50.5 -11zM56 651q21 20 54 20t54 -20t21 -50t-21 -50t-54 -20t-54 20t-21 50t21 50z" />
    <glyph glyph-name="j" unicode="j" horiz-adv-x="358" 
d="M18 -110h184v617h122v-619q0 -47 -3.5 -67t-23 -31.5t-66.5 -11.5h-213v112zM211 651q21 20 54 20t54 -20t21 -50t-21 -50t-54 -20t-54 20t-21 50t21 50z" />
    <glyph glyph-name="k" unicode="k" horiz-adv-x="479" 
d="M320 211h-180v-211h-122v660h122v-290l166 137h155l-225 -184h123q41 0 58.5 -11.5t21 -32t3.5 -66.5v-213h-122v211z" />
    <glyph glyph-name="l" unicode="l" horiz-adv-x="222" 
d="M46 12q-18 12 -23 34t-5 64v550h122v-548h64v-112h-103q-37 0 -55 12z" />
    <glyph glyph-name="m" unicode="m" horiz-adv-x="877" 
d="M18 507h122v-68q54 78 142 78q58 0 101.5 -30.5t66.5 -80.5q23 54 71.5 82.5t105.5 28.5q66 0 118.5 -28.5t83 -85t30.5 -137.5v-266h-122v256q0 80 -24.5 114.5t-85.5 34.5q-120 0 -120 -149l1 -256h-122v256q0 78 -24.5 113.5t-86.5 35.5t-98.5 -38.5t-36.5 -102.5
v-264h-122v507z" />
    <glyph glyph-name="n" unicode="n" horiz-adv-x="524" 
d="M18 507h122v-80q19 41 60.5 65.5t94.5 24.5q102 0 156.5 -71t54.5 -192v-254h-122v254q0 82 -29.5 116.5t-92.5 34.5q-54 0 -88.5 -37t-34.5 -114l1 -254h-122v507z" />
    <glyph glyph-name="o" unicode="o" horiz-adv-x="555" 
d="M143 17.5q-60 34.5 -92.5 95t-32.5 137.5q0 76 32 137t91 95.5t137 34.5t136.5 -34.5t90.5 -95.5t32 -137t-31 -137t-89 -95.5t-135 -34.5q-79 0 -139 34.5zM177 139q37 -44 98 -44q63 0 101.5 43.5t38.5 111.5t-38.5 111.5t-101.5 43.5q-61 0 -98 -44t-37 -111t37 -111z
" />
    <glyph glyph-name="p" unicode="p" horiz-adv-x="555" 
d="M18 507h122v-76q53 86 164 86q69 0 122 -33.5t82 -93t29 -133.5q0 -76 -28.5 -137t-80.5 -95.5t-121 -34.5q-58 0 -100.5 22.5t-66.5 62.5v-228h-122v660zM178.5 145.5q38.5 -43.5 101.5 -43.5q61 0 98 44t37 111q0 63 -38 105.5t-99 42.5q-62 0 -100 -42.5t-38 -105.5
q0 -68 38.5 -111.5z" />
    <glyph glyph-name="q" unicode="q" horiz-adv-x="555" 
d="M415 -153v228q-24 -40 -66.5 -62.5t-100.5 -22.5q-69 0 -121 34.5t-80.5 95.5t-28.5 137q0 74 29.5 133.5t83.5 93t125 33.5q56 0 93.5 -20.5t65.5 -65.5v76h122v-660h-122zM177 146q37 -44 98 -44q63 0 101.5 43.5t38.5 111.5q0 63 -38 105.5t-100 42.5q-61 0 -99 -42.5
t-38 -105.5q0 -67 37 -111z" />
    <glyph glyph-name="r" unicode="r" horiz-adv-x="293" 
d="M23 461q5 22 23 34t55 12h174v-112h-135v-395h-122v397q0 42 5 64z" />
    <glyph glyph-name="s" unicode="s" horiz-adv-x="437" 
d="M166.5 116.5q21.5 -14.5 67.5 -14.5q37 0 52.5 7.5t15.5 30.5t-19.5 34.5t-73.5 24.5q-88 22 -138 56.5t-50 105.5q0 78 53 116.5t131 38.5q70 0 130.5 -37.5t82.5 -134.5h-122q-7 30 -28 45t-60 15q-37 0 -53.5 -10.5t-16.5 -31.5q0 -22 25.5 -36t79.5 -27
q83 -20 129 -53.5t47 -101.5q0 -73 -49.5 -113.5t-125.5 -40.5q-81 0 -147.5 35t-78.5 147h122q5 -41 26.5 -55.5z" />
    <glyph glyph-name="t" unicode="t" horiz-adv-x="391" 
d="M124 12q-18 12 -23 34t-5 64v285h-78v112h78v153h122v-153h152v-112h-152v-283h155v-112h-194q-37 0 -55 12z" />
    <glyph glyph-name="u" unicode="u" horiz-adv-x="563" 
d="M399 15.5q-15 15.5 -15 57.5v7q-19 -41 -60.5 -65.5t-94.5 -24.5q-102 0 -156.5 71t-54.5 192v254h122v-254q0 -82 29.5 -116.5t92.5 -34.5q54 0 88.5 37t34.5 114l-1 254h122v-395h39v-112h-84q-47 0 -62 15.5z" />
    <glyph glyph-name="v" unicode="v" horiz-adv-x="567" 
d="M549 507l-233 -507h-88l-210 507h133l124 -334l141 334h133z" />
    <glyph glyph-name="w" unicode="w" horiz-adv-x="721" 
d="M140 507l72 -328l99 328h99l115 -328l56 328h122l-101 -507h-122l-116 320l-114 -320h-121l-111 507h122z" />
    <glyph glyph-name="x" unicode="x" horiz-adv-x="532" 
d="M195 254l-173 253h132l108 -180l120 180h132l-191 -253l186 -254h-132l-115 185l-112 -185h-132z" />
    <glyph glyph-name="y" unicode="y" horiz-adv-x="547" 
d="M140 507l118 -319l149 319h122l-294 -612q-11 -24 -20.5 -33.5t-20.5 -11.5t-39 -2h-124v112h105l54 114l-172 433h122z" />
    <glyph glyph-name="z" unicode="z" horiz-adv-x="469" 
d="M18 507h432l1 -122l-269 -263h263v-122h-427v122l279 263h-279v122z" />
    <glyph glyph-name="braceleft" unicode="{" horiz-adv-x="363" 
d="M102 202q0 40 -5 58.5t-15.5 23.5t-31.5 5h-32v90q34 2 50.5 9t24 25.5t9.5 57.5q5 107 64.5 160t178.5 53v-95q-73 -5 -102 -29.5t-29 -88.5q0 -92 -39 -135q39 -42 39 -134q0 -113 131 -119v-95q-243 0 -243 214z" />
    <glyph glyph-name="bar" unicode="|" horiz-adv-x="148" 
d="M18 677h112v-697h-112v697z" />
    <glyph glyph-name="braceright" unicode="}" horiz-adv-x="363" 
d="M149 202q0 92 39 134q-39 43 -39 135q0 64 -29 88.5t-102 29.5v95q119 0 178.5 -53t64.5 -160q2 -39 9.5 -57.5t24 -25.5t50.5 -9v-90h-32q-21 0 -31.5 -5t-15.5 -23.5t-5 -58.5q0 -214 -243 -214v95q131 6 131 119z" />
    <glyph glyph-name="exclamdown" unicode="&#xa1;" horiz-adv-x="195" 
d="M158 494v-494h-122v494h122zM39.5 639q21.5 21 56.5 21t58 -21t23 -52q0 -32 -22 -53t-59 -21q-35 0 -56.5 21.5t-21.5 52.5t21.5 52z" />
    <glyph glyph-name="cent" unicode="&#xa2;" horiz-adv-x="681" 
d="M609 125.5q-40 -56.5 -98 -91t-126 -42.5l-1 -107h-93l1 109q-77 13 -139.5 57.5t-98.5 115t-36 155.5q0 89 35 162.5t97.5 121t141.5 60.5l1 102h93l-1 -100q105 -11 179 -79t97 -173h-126q-21 67 -71 104.5t-117 37.5q-59 0 -106 -29t-74 -81.5t-27 -121.5
q0 -64 25.5 -115t72.5 -80t108 -29q72 0 123.5 40.5t69.5 110.5h124q-14 -71 -54 -127.5z" />
    <glyph glyph-name="sterling" unicode="&#xa3;" horiz-adv-x="590" 
d="M93 146.5q25 25.5 33 55.5h-108v93l93 -1q-39 67 -39 142q0 67 27 120t79.5 83t125.5 30q72 0 126.5 -19.5t93.5 -77t48 -164.5h-118q-1 86 -37.5 117.5t-111.5 31.5q-67 0 -95 -29.5t-28 -91.5q0 -29 7 -54t22 -61q6 -18 10 -27h218v-92h-198q-7 -30 -18 -51.5
t-32 -38.5h369v-112h-536v112q44 9 69 34.5z" />
    <glyph glyph-name="yen" unicode="&#xa5;" horiz-adv-x="633" 
d="M151 660l157 -285l174 285h133l-248 -404v-6h173v-112h-173v-24h173v-112h-173v-2h-122v2h-184v112h184v24h-184v112h184v7l-227 403h133z" />
    <glyph glyph-name="section" unicode="&#xa7;" horiz-adv-x="497" 
d="M267 4q51 0 78.5 13t27.5 45q0 27 -33 43.5t-98 27.5q-92 16 -157.5 58t-66.5 114q0 78 59 118q-45 42 -45 100q0 80 60 113t146 33q67 0 129 -35t85 -124h-96q-7 32 -40.5 49t-81.5 17q-58 0 -84 -10t-26 -45q1 -55 144 -80q88 -15 149.5 -53.5t61.5 -111.5
q0 -71 -62 -114q49 -41 49 -101q0 -78 -58.5 -113.5t-136.5 -35.5q-71 0 -129 33.5t-97 135.5h98q30 -77 124 -77zM254 225q21 -4 46 -4q41 0 64 14.5t23 42.5q0 27 -33 43.5t-99 27.5q-5 1 -20 5q-27 7 -35 8q-7 1 -20 1q-69 0 -69 -56q0 -57 143 -82z" />
    <glyph glyph-name="copyright" unicode="&#xa9;" horiz-adv-x="544" 
d="M143.5 128q-57.5 33 -91.5 98.5t-34 157.5q0 91 34 156t91.5 97.5t126.5 32.5q73 0 131 -32.5t91.5 -97t33.5 -156.5q0 -93 -33.5 -158t-92 -98t-130.5 -33q-69 0 -126.5 33zM136 214.5q50 -54.5 134 -54.5q89 0 138.5 54t49.5 169q0 113 -49.5 167.5t-138.5 54.5
q-84 0 -134 -55t-50 -167q0 -114 50 -168.5zM168 488.5q40 41.5 109 41.5q50 0 87.5 -31t47.5 -80h-67q-6 23 -25.5 36t-45.5 13q-38 0 -58.5 -24t-20.5 -62t22 -61.5t60 -24.5q29 1 45 15.5t23 41.5h67q-9 -51 -46 -84.5t-87 -33.5q-70 0 -110.5 41t-40.5 106t40 106.5z
" />
    <glyph glyph-name="ordfeminine" unicode="&#xaa;" horiz-adv-x="434" 
d="M65 345.5q-47 52.5 -47 133.5q0 83 45 136.5t119 53.5q83 0 119 -60v53h88v-282h27v-80h-60q-33 0 -44 11t-11 41v7q-21 -33 -47 -49.5t-65 -16.5q-77 0 -124 52.5zM132.5 403.5q27.5 -30.5 70.5 -30.5q44 0 71 30.5t27 75.5q0 48 -27.5 79t-72.5 31q-43 0 -69.5 -31.5
t-26.5 -78.5q0 -45 27.5 -75.5z" />
    <glyph glyph-name="guillemotleft" unicode="&#xab;" horiz-adv-x="579" 
d="M13 282l251 217h129l-250 -220l238 -214h-127zM181 283l251 217h129l-250 -220l238 -214h-127z" />
    <glyph glyph-name="registered" unicode="&#xae;" horiz-adv-x="544" 
d="M143.5 128q-57.5 33 -91.5 98.5t-34 157.5q0 91 34 156t91.5 97.5t126.5 32.5q73 0 131 -32.5t91.5 -97t33.5 -156.5q0 -93 -33.5 -158t-92 -98t-130.5 -33q-69 0 -126.5 33zM128 205q53 -58 142 -58q95 0 147 57t52 179q0 120 -52 177.5t-147 57.5q-89 0 -142 -58
t-53 -177q0 -120 53 -178zM162 557h110q69 0 98.5 -33t29.5 -81q0 -32 -15 -60.5t-44 -37.5q49 -19 49 -90v-43h-49v43q1 35 -15 53.5t-64 18.5h-52v-115h-48v345zM272 370q46 0 63 19t17 54q0 34 -16 52t-64 18h-62v-143h62z" />
    <glyph glyph-name="degree" unicode="&#xb0;" horiz-adv-x="269" 
d="M50 477q-32 34 -32 80t32.5 79.5t85.5 33.5q52 0 83.5 -33.5t31.5 -79.5t-31 -80t-85 -34q-53 0 -85 34zM75.5 500.5q22.5 -23.5 59.5 -23.5q38 0 59.5 23.5t21.5 56.5q0 32 -22 55.5t-58 23.5q-37 0 -60 -23.5t-23 -55.5q0 -33 22.5 -56.5z" />
    <glyph glyph-name="plusminus" unicode="&#xb1;" horiz-adv-x="449" 
d="M168 365h-150v112h149v147h112v-147h152v-112h-152v-157h-111v157zM25 178h395v-112h-395v112z" />
    <glyph glyph-name="uni00B2" unicode="&#xb2;" horiz-adv-x="382" 
d="M93 400q37 32 105 45q45 9 65 25.5t20 46.5q0 39 -26.5 58.5t-76.5 19.5q-44 0 -64.5 -26.5t-16.5 -71.5h-81q-3 54 18 93t59 59.5t85 20.5q80 0 132 -36.5t52 -116.5q0 -65 -44 -100t-113 -48q-38 -8 -53.5 -20t-21.5 -38l-3 -12h213v-75h-301l9 87q6 57 43 89z" />
    <glyph glyph-name="uni00B3" unicode="&#xb3;" horiz-adv-x="371" 
d="M324.5 471q28.5 -35 28.5 -92q0 -70 -44.5 -113t-120.5 -43q-50 0 -89.5 25t-60.5 68t-20 94h81q5 -62 26 -87t63 -25q46 0 65 18t19 63t-31 58.5t-102 13.5v61l77 85h-181v74l298 -1v-59l-82 -90q45 -15 73.5 -50z" />
    <glyph glyph-name="periodcentered" unicode="&#xb7;" horiz-adv-x="194" 
d="M40 258.5q-22 20.5 -22 49.5q0 30 22 50t57 20t57 -20t22 -50q0 -29 -22 -49.5t-57 -20.5t-57 20.5z" />
    <glyph glyph-name="uni00B9" unicode="&#xb9;" horiz-adv-x="207" 
d="M18 329h51v273h-51v70h127v-343h45v-70h-172v70z" />
    <glyph glyph-name="ordmasculine" unicode="&#xba;" horiz-adv-x="323" 
d="M58 418q-40 41 -40 106t39 106.5t105 41.5q65 0 104 -41.5t39 -106.5q0 -64 -38 -105.5t-101 -41.5q-68 0 -108 41zM106 463q20 -24 53 -24q36 0 57.5 23.5t21.5 61.5t-21.5 62t-57.5 24q-33 0 -53 -24.5t-20 -61.5t20 -61z" />
    <glyph glyph-name="guillemotright" unicode="&#xbb;" horiz-adv-x="589" 
d="M203 56l238 214l-250 220h129l251 -217l-241 -217h-127zM152 491l251 -217l-241 -217h-127l238 214l-250 220h129z" />
    <glyph glyph-name="questiondown" unicode="&#xbf;" horiz-adv-x="537" 
d="M478.5 377q-29.5 -39 -69 -57.5t-98.5 -37.5l-37 -12l-35 -11q-37 -12 -56 -20.5t-31 -22.5t-12 -36q0 -43 23 -60.5t79 -17.5q77 0 111.5 28.5t33.5 101.5h122q-4 -130 -75 -186t-188 -56q-100 0 -164 46.5t-64 143.5q0 63 28 102t66 58t95 37l33 11q8 3 41 13
q55 17 79.5 32t24.5 45v37h123v-37q0 -62 -29.5 -101zM386.5 650.5q20.5 19.5 56.5 19.5t56 -20t20 -46t-20.5 -45.5t-55.5 -19.5q-37 0 -57 19.5t-20 45.5q0 27 20.5 46.5z" />
    <glyph glyph-name="Agrave" unicode="&#xc0;" horiz-adv-x="695" 
d="M309 660h88l280 -660h-130l-80 183h-235l-83 -183h-131zM416 303l-63 155l-68 -155h131zM194 940h108l97 -241h-109z" />
    <glyph glyph-name="Aacute" unicode="&#xc1;" horiz-adv-x="695" 
d="M309 660h88l280 -660h-130l-80 183h-235l-83 -183h-131zM416 303l-63 155l-68 -155h131zM308 695l97 241h108l-96 -241h-109z" />
    <glyph glyph-name="Acircumflex" unicode="&#xc2;" horiz-adv-x="695" 
d="M309 660h88l280 -660h-130l-80 183h-235l-83 -183h-131zM416 303l-63 155l-68 -155h131zM338 971l170 -256h-118l-52 86l-51 -87h-118z" />
    <glyph glyph-name="Atilde" unicode="&#xc3;" horiz-adv-x="695" 
d="M309 660h88l280 -660h-130l-80 183h-235l-83 -183h-131zM416 303l-63 155l-68 -155h131zM163 725q0 55 27.5 87.5t69.5 32.5q7 0 21 -2q14 -3 26 -10t30 -21q21 -15 28 -17q4 -1 10 -1q12 0 19 11t13 39h95q-2 -38 -19.5 -72t-44.5 -55t-59 -21q-12 0 -29 5
q-15 5 -26.5 13t-25.5 20q-17 17 -27 17q-15 0 -15 -54h-91q-2 20 -2 28z" />
    <glyph glyph-name="Adieresis" unicode="&#xc4;" horiz-adv-x="695" 
d="M309 660h88l280 -660h-130l-80 183h-235l-83 -183h-131zM416 303l-63 155l-68 -155h131zM196 717.5q-21 19.5 -21 47.5q0 29 21 49t55 20t54.5 -20t20.5 -49q0 -28 -21.5 -47.5t-53.5 -19.5q-34 0 -55 19.5zM364 814q21 20 54 20q34 0 55 -20t21 -49q0 -27 -22 -47
t-54 -20q-33 0 -54 19.5t-21 47.5q0 29 21 49z" />
    <glyph glyph-name="Aring" unicode="&#xc5;" horiz-adv-x="695" 
d="M309 660h88l280 -660h-130l-80 183h-235l-83 -183h-131zM416 303l-63 155l-68 -155h131zM284.5 712q-26.5 15 -42 39.5t-15.5 52.5q0 47 33.5 78.5t82.5 31.5q51 0 84.5 -31.5t33.5 -78.5q0 -43 -33.5 -75t-84.5 -32q-32 0 -58.5 15zM305 770q16 -15 38 -15q24 0 40 14.5
t16 35.5q0 22 -16 36.5t-40 14.5q-23 0 -38.5 -14.5t-15.5 -36.5q0 -20 16 -35z" />
    <glyph glyph-name="AE" unicode="&#xc6;" horiz-adv-x="1008" 
d="M298 660h84l128 -314v234q0 33 5.5 49.5t21.5 23.5t50 7h403v-112h-358v-180h314v-112h-314v-144h357v-112h-463l-77 183h-225l-80 -183h-126zM400 303l-60 155l-65 -155h125z" />
    <glyph glyph-name="Ccedilla" unicode="&#xc7;" horiz-adv-x="681" 
d="M289 -181q49 0 68 7.5t19 25.5q0 16 -23 22t-82 6q-46 0 -74 -1v60l41 69q-98 33 -159 117t-61 197q0 99 43 178.5t118 124.5t168 45q79 0 144 -32t109 -89.5t61 -132.5h-126q-21 67 -71 104.5t-117 37.5q-59 0 -106 -29t-74 -81.5t-27 -121.5q0 -64 25.5 -115t72.5 -80
t108 -29q72 0 123.5 40.5t69.5 110.5h124q-16 -78 -61.5 -137.5t-112 -92.5t-142.5 -33h-18l-12 -21q154 -12 154 -117q0 -52 -26 -79.5t-68 -36t-105 -8.5l-71 1v93q54 -3 88 -3z" />
    <glyph glyph-name="Egrave" unicode="&#xc8;" horiz-adv-x="516" 
d="M45.5 7.5q-16.5 7.5 -22 24.5t-5.5 50v498q0 33 5.5 49.5t21.5 23.5t50 7h403v-112h-358v-180h314v-112h-314v-144h357v-112h-402q-33 0 -49.5 7.5zM128 928h108l97 -241h-109z" />
    <glyph glyph-name="Eacute" unicode="&#xc9;" horiz-adv-x="516" 
d="M45.5 7.5q-16.5 7.5 -22 24.5t-5.5 50v498q0 33 5.5 49.5t21.5 23.5t50 7h403v-112h-358v-180h314v-112h-314v-144h357v-112h-402q-33 0 -49.5 7.5zM242 683l97 241h108l-96 -241h-109z" />
    <glyph glyph-name="Ecircumflex" unicode="&#xca;" horiz-adv-x="516" 
d="M45.5 7.5q-16.5 7.5 -22 24.5t-5.5 50v498q0 33 5.5 49.5t21.5 23.5t50 7h403v-112h-358v-180h314v-112h-314v-144h357v-112h-402q-33 0 -49.5 7.5zM272 959l170 -256h-118l-52 86l-51 -87h-118z" />
    <glyph glyph-name="Edieresis" unicode="&#xcb;" horiz-adv-x="516" 
d="M45.5 7.5q-16.5 7.5 -22 24.5t-5.5 50v498q0 33 5.5 49.5t21.5 23.5t50 7h403v-112h-358v-180h314v-112h-314v-144h357v-112h-402q-33 0 -49.5 7.5zM130 705.5q-21 19.5 -21 47.5q0 29 21 49t55 20t54.5 -20t20.5 -49q0 -28 -21.5 -47.5t-53.5 -19.5q-34 0 -55 19.5z
M298 802q21 20 54 20q34 0 55 -20t21 -49q0 -27 -22 -47t-54 -20q-33 0 -54 19.5t-21 47.5q0 29 21 49z" />
    <glyph glyph-name="Igrave" unicode="&#xcc;" horiz-adv-x="297" 
d="M29 112h64v436h-64v112h250v-112h-64v-436h64v-112h-250v112zM18 928h108l97 -241h-109z" />
    <glyph glyph-name="Iacute" unicode="&#xcd;" horiz-adv-x="324" 
d="M18 112h64v436h-64v112h250v-112h-64v-436h64v-112h-250v112zM121 683l97 241h108l-96 -241h-109z" />
    <glyph glyph-name="Icircumflex" unicode="&#xce;" horiz-adv-x="364" 
d="M54 112h64v436h-64v112h250v-112h-64v-436h64v-112h-250v112zM187 959l170 -256h-118l-52 86l-51 -87h-118z" />
    <glyph glyph-name="Idieresis" unicode="&#xcf;" horiz-adv-x="350" 
d="M48 112h64v436h-64v112h250v-112h-64v-436h64v-112h-250v112zM39 705.5q-21 19.5 -21 47.5q0 29 21 49t55 20t54.5 -20t20.5 -49q0 -28 -21.5 -47.5t-53.5 -19.5q-34 0 -55 19.5zM207 802q21 20 54 20q34 0 55 -20t21 -49q0 -27 -22 -47t-54 -20q-33 0 -54 19.5t-21 47.5
q0 29 21 49z" />
    <glyph glyph-name="Ntilde" unicode="&#xd1;" horiz-adv-x="559" 
d="M18 660h97l304 -423v423h122l-2 -660h-97l-302 420v-420h-122v660zM86 713q0 55 27.5 87.5t69.5 32.5q7 0 21 -2q14 -3 26 -10t30 -21q21 -15 28 -17q4 -1 10 -1q12 0 19 11t13 39h95q-2 -38 -19.5 -72t-44.5 -55t-59 -21q-12 0 -29 5q-15 5 -26.5 13t-25.5 20
q-17 17 -27 17q-15 0 -15 -54h-91q-2 20 -2 28z" />
    <glyph glyph-name="Ograve" unicode="&#xd2;" horiz-adv-x="688" 
d="M182.5 32.5q-75.5 42.5 -120 118t-44.5 171.5q0 99 43 178.5t118 124.5t168 45q94 0 167.5 -44t114.5 -122t41 -176q0 -97 -43.5 -174t-117.5 -120.5t-162 -43.5q-89 0 -164.5 42.5zM165.5 211q25.5 -51 72.5 -80t108 -29q59 0 105 27t71.5 77.5t25.5 117.5q0 72 -26 125
t-72 81t-103 28q-59 0 -106 -29t-74 -81.5t-27 -121.5q0 -64 25.5 -115zM194 948h108l97 -241h-109z" />
    <glyph glyph-name="Oacute" unicode="&#xd3;" horiz-adv-x="688" 
d="M182.5 32.5q-75.5 42.5 -120 118t-44.5 171.5q0 99 43 178.5t118 124.5t168 45q94 0 167.5 -44t114.5 -122t41 -176q0 -97 -43.5 -174t-117.5 -120.5t-162 -43.5q-89 0 -164.5 42.5zM165.5 211q25.5 -51 72.5 -80t108 -29q59 0 105 27t71.5 77.5t25.5 117.5q0 72 -26 125
t-72 81t-103 28q-59 0 -106 -29t-74 -81.5t-27 -121.5q0 -64 25.5 -115zM308 703l97 241h108l-96 -241h-109z" />
    <glyph glyph-name="Ocircumflex" unicode="&#xd4;" horiz-adv-x="688" 
d="M182.5 32.5q-75.5 42.5 -120 118t-44.5 171.5q0 99 43 178.5t118 124.5t168 45q94 0 167.5 -44t114.5 -122t41 -176q0 -97 -43.5 -174t-117.5 -120.5t-162 -43.5q-89 0 -164.5 42.5zM165.5 211q25.5 -51 72.5 -80t108 -29q59 0 105 27t71.5 77.5t25.5 117.5q0 72 -26 125
t-72 81t-103 28q-59 0 -106 -29t-74 -81.5t-27 -121.5q0 -64 25.5 -115zM338 979l170 -256h-118l-52 86l-51 -87h-118z" />
    <glyph glyph-name="Otilde" unicode="&#xd5;" horiz-adv-x="688" 
d="M182.5 32.5q-75.5 42.5 -120 118t-44.5 171.5q0 99 43 178.5t118 124.5t168 45q94 0 167.5 -44t114.5 -122t41 -176q0 -97 -43.5 -174t-117.5 -120.5t-162 -43.5q-89 0 -164.5 42.5zM165.5 211q25.5 -51 72.5 -80t108 -29q59 0 105 27t71.5 77.5t25.5 117.5q0 72 -26 125
t-72 81t-103 28q-59 0 -106 -29t-74 -81.5t-27 -121.5q0 -64 25.5 -115zM163 733q0 55 27.5 87.5t69.5 32.5q7 0 21 -2q14 -3 26 -10t30 -21q21 -15 28 -17q4 -1 10 -1q12 0 19 11t13 39h95q-2 -38 -19.5 -72t-44.5 -55t-59 -21q-12 0 -29 5q-15 5 -26.5 13t-25.5 20
q-17 17 -27 17q-15 0 -15 -54h-91q-2 20 -2 28z" />
    <glyph glyph-name="Odieresis" unicode="&#xd6;" horiz-adv-x="688" 
d="M182.5 32.5q-75.5 42.5 -120 118t-44.5 171.5q0 99 43 178.5t118 124.5t168 45q94 0 167.5 -44t114.5 -122t41 -176q0 -97 -43.5 -174t-117.5 -120.5t-162 -43.5q-89 0 -164.5 42.5zM165.5 211q25.5 -51 72.5 -80t108 -29q59 0 105 27t71.5 77.5t25.5 117.5q0 72 -26 125
t-72 81t-103 28q-59 0 -106 -29t-74 -81.5t-27 -121.5q0 -64 25.5 -115zM196 725.5q-21 19.5 -21 47.5q0 29 21 49t55 20t54.5 -20t20.5 -49q0 -28 -21.5 -47.5t-53.5 -19.5q-34 0 -55 19.5zM364 822q21 20 54 20q34 0 55 -20t21 -49q0 -27 -22 -47t-54 -20q-33 0 -54 19.5
t-21 47.5q0 29 21 49z" />
    <glyph glyph-name="multiply" unicode="&#xd7;" horiz-adv-x="412" 
d="M129 311l-106 106l79 80l105 -106l104 104l80 -79l-104 -104l107 -107l-79 -80l-108 108l-111 -111l-78 78z" />
    <glyph glyph-name="Oslash" unicode="&#xd8;" horiz-adv-x="688" 
d="M297 -6l-25 -73h-122l38 109q-77 42 -123.5 118.5t-46.5 173.5q0 99 43 178.5t118 124.5t168 45q29 0 62 -5l19 55h122l-33 -96q72 -44 112.5 -121.5t40.5 -174.5t-43.5 -174t-117.5 -120.5t-162 -43.5q-27 0 -50 4zM162.5 217q22.5 -49 63.5 -78l145 418q-8 1 -24 1
q-59 0 -106 -29t-74 -81.5t-27 -121.5q0 -60 22.5 -109zM346 102q59 0 105 27t71.5 77.5t25.5 117.5q0 61 -18.5 108t-52.5 78l-142 -408h11z" />
    <glyph glyph-name="Ugrave" unicode="&#xd9;" horiz-adv-x="648" 
d="M100 68.5q-82 78.5 -82 262.5v329h122v-329q0 -125 49 -177t137 -52q89 0 135.5 54.5t46.5 174.5v329h122v-329q0 -184 -77.5 -262.5t-226.5 -78.5q-144 0 -226 78.5zM176 918h108l97 -241h-109z" />
    <glyph glyph-name="Uacute" unicode="&#xda;" horiz-adv-x="648" 
d="M100 68.5q-82 78.5 -82 262.5v329h122v-329q0 -125 49 -177t137 -52q89 0 135.5 54.5t46.5 174.5v329h122v-329q0 -184 -77.5 -262.5t-226.5 -78.5q-144 0 -226 78.5zM290 673l97 241h108l-96 -241h-109z" />
    <glyph glyph-name="Ucircumflex" unicode="&#xdb;" horiz-adv-x="648" 
d="M100 68.5q-82 78.5 -82 262.5v329h122v-329q0 -125 49 -177t137 -52q89 0 135.5 54.5t46.5 174.5v329h122v-329q0 -184 -77.5 -262.5t-226.5 -78.5q-144 0 -226 78.5zM320 949l170 -256h-118l-52 86l-51 -87h-118z" />
    <glyph glyph-name="Udieresis" unicode="&#xdc;" horiz-adv-x="648" 
d="M100 68.5q-82 78.5 -82 262.5v329h122v-329q0 -125 49 -177t137 -52q89 0 135.5 54.5t46.5 174.5v329h122v-329q0 -184 -77.5 -262.5t-226.5 -78.5q-144 0 -226 78.5zM178 695.5q-21 19.5 -21 47.5q0 29 21 49t55 20t54.5 -20t20.5 -49q0 -28 -21.5 -47.5t-53.5 -19.5
q-34 0 -55 19.5zM346 792q21 20 54 20q34 0 55 -20t21 -49q0 -27 -22 -47t-54 -20q-33 0 -54 19.5t-21 47.5q0 29 21 49z" />
    <glyph glyph-name="Yacute" unicode="&#xdd;" horiz-adv-x="633" 
d="M151 660l157 -285l174 285h133l-248 -404v-256h-122v257l-227 403h133zM281 687l97 241h108l-96 -241h-109z" />
    <glyph glyph-name="germandbls" unicode="&#xdf;" horiz-adv-x="550" 
d="M78 608.5q60 61.5 198 61.5q123 0 188.5 -49t65.5 -137q0 -44 -19.5 -87t-50.5 -68q33 -26 52.5 -62.5t19.5 -79.5q0 -92 -62 -139.5t-186 -47.5h-87v113h87q56 0 84.5 6t40 21.5t11.5 46.5q0 47 -31.5 71t-104.5 24h-87v94h87q74 0 103.5 28t29.5 80q0 41 -31.5 62
t-109.5 21q-69 0 -100.5 -15t-38.5 -37t-7 -60v-455h-112v455q0 92 60 153.5z" />
    <glyph glyph-name="agrave" unicode="&#xe0;" horiz-adv-x="594" 
d="M130.5 23.5q-53.5 33.5 -83 93t-29.5 133.5q0 76 28.5 137t80.5 95.5t121 34.5q116 0 167 -85v75h122v-395h39v-112h-84q-47 0 -62 15.5t-15 57.5v9q-29 -47 -66 -69.5t-94 -22.5q-71 0 -124.5 33.5zM178 144.5q38 -42.5 99 -42.5q62 0 100 42.5t38 105.5
q0 68 -38.5 111.5t-101.5 43.5q-61 0 -98 -44t-37 -111q0 -63 38 -105.5zM155 799h108l97 -241h-109z" />
    <glyph glyph-name="aacute" unicode="&#xe1;" horiz-adv-x="594" 
d="M130.5 23.5q-53.5 33.5 -83 93t-29.5 133.5q0 76 28.5 137t80.5 95.5t121 34.5q116 0 167 -85v75h122v-395h39v-112h-84q-47 0 -62 15.5t-15 57.5v9q-29 -47 -66 -69.5t-94 -22.5q-71 0 -124.5 33.5zM178 144.5q38 -42.5 99 -42.5q62 0 100 42.5t38 105.5
q0 68 -38.5 111.5t-101.5 43.5q-61 0 -98 -44t-37 -111q0 -63 38 -105.5zM269 554l97 241h108l-96 -241h-109z" />
    <glyph glyph-name="acircumflex" unicode="&#xe2;" horiz-adv-x="594" 
d="M130.5 23.5q-53.5 33.5 -83 93t-29.5 133.5q0 76 28.5 137t80.5 95.5t121 34.5q116 0 167 -85v75h122v-395h39v-112h-84q-47 0 -62 15.5t-15 57.5v9q-29 -47 -66 -69.5t-94 -22.5q-71 0 -124.5 33.5zM178 144.5q38 -42.5 99 -42.5q62 0 100 42.5t38 105.5
q0 68 -38.5 111.5t-101.5 43.5q-61 0 -98 -44t-37 -111q0 -63 38 -105.5zM299 830l170 -256h-118l-52 86l-51 -87h-118z" />
    <glyph glyph-name="atilde" unicode="&#xe3;" horiz-adv-x="594" 
d="M130.5 23.5q-53.5 33.5 -83 93t-29.5 133.5q0 76 28.5 137t80.5 95.5t121 34.5q116 0 167 -85v75h122v-395h39v-112h-84q-47 0 -62 15.5t-15 57.5v9q-29 -47 -66 -69.5t-94 -22.5q-71 0 -124.5 33.5zM178 144.5q38 -42.5 99 -42.5q62 0 100 42.5t38 105.5
q0 68 -38.5 111.5t-101.5 43.5q-61 0 -98 -44t-37 -111q0 -63 38 -105.5zM156 575q0 46 22.5 73t57.5 27q5 0 17 -2q18 -4 45 -25q17 -13 24 -15q14 -4 21.5 5t12.5 36h78q-3 -48 -32.5 -85t-68.5 -37q-21 0 -36 8.5t-31 23.5q-14 14 -21 14q-13 0 -13 -45h-75q-1 8 -1 22z
" />
    <glyph glyph-name="adieresis" unicode="&#xe4;" horiz-adv-x="594" 
d="M130.5 23.5q-53.5 33.5 -83 93t-29.5 133.5q0 76 28.5 137t80.5 95.5t121 34.5q116 0 167 -85v75h122v-395h39v-112h-84q-47 0 -62 15.5t-15 57.5v9q-29 -47 -66 -69.5t-94 -22.5q-71 0 -124.5 33.5zM178 144.5q38 -42.5 99 -42.5q62 0 100 42.5t38 105.5
q0 68 -38.5 111.5t-101.5 43.5q-61 0 -98 -44t-37 -111q0 -63 38 -105.5zM157 576.5q-21 19.5 -21 47.5q0 29 21 49t55 20t54.5 -20t20.5 -49q0 -28 -21.5 -47.5t-53.5 -19.5q-34 0 -55 19.5zM325 673q21 20 54 20q34 0 55 -20t21 -49q0 -27 -22 -47t-54 -20q-33 0 -54 19.5
t-21 47.5q0 29 21 49z" />
    <glyph glyph-name="aring" unicode="&#xe5;" horiz-adv-x="594" 
d="M130.5 23.5q-53.5 33.5 -83 93t-29.5 133.5q0 76 28.5 137t80.5 95.5t121 34.5q116 0 167 -85v75h122v-395h39v-112h-84q-47 0 -62 15.5t-15 57.5v9q-29 -47 -66 -69.5t-94 -22.5q-71 0 -124.5 33.5zM178 144.5q38 -42.5 99 -42.5q62 0 100 42.5t38 105.5
q0 68 -38.5 111.5t-101.5 43.5q-61 0 -98 -44t-37 -111q0 -63 38 -105.5zM245.5 571q-26.5 15 -42 39.5t-15.5 52.5q0 47 33.5 78.5t82.5 31.5q51 0 84.5 -31.5t33.5 -78.5q0 -43 -33.5 -75t-84.5 -32q-32 0 -58.5 15zM266 629q16 -15 38 -15q24 0 40 14.5t16 35.5
q0 22 -16 36.5t-40 14.5q-23 0 -38.5 -14.5t-15.5 -36.5q0 -20 16 -35z" />
    <glyph glyph-name="ae" unicode="&#xe6;" horiz-adv-x="969" 
d="M130 23q-54 33 -83 90.5t-29 128.5q0 74 28 133t80 92.5t121 33.5q115 0 166 -82v72h121v-36q69 61 178 61q69 0 129.5 -35t96 -99t33.5 -147l-396 -1q0 -32 19 -62.5t51 -50.5t69 -20q48 0 75 15.5t45 44.5h122q-26 -77 -90 -124.5t-152 -47.5q-78 0 -141 37v-26h-83
q-32 0 -48.5 6.5t-22.5 21.5t-6 43v8q-29 -45 -65.5 -67t-93.5 -22q-70 0 -124 33zM177 140q38 -41 99 -41t99 41t38 102q0 66 -38.5 108t-100.5 42q-61 0 -98 -42.5t-37 -107.5q0 -61 38 -102zM840 316q-14 40 -48 64t-80 24q-47 0 -81.5 -24t-46.5 -64h256z" />
    <glyph glyph-name="ccedilla" unicode="&#xe7;" horiz-adv-x="550" 
d="M459.5 53.5q-58.5 -58.5 -138.5 -68.5l-5 -8q154 -12 154 -117q0 -52 -26 -79.5t-68 -36t-105 -8.5l-71 1v93q54 -3 88 -3q49 0 68 7.5t19 25.5q0 16 -23 22t-82 6q-46 0 -74 -1v60l26 43q-96 20 -150 90t-54 170q0 77 32.5 137.5t93.5 95t144 34.5q59 0 110.5 -25.5
t86.5 -71t47 -103.5h-122q-10 40 -44.5 64t-80.5 24q-70 0 -107.5 -42.5t-37.5 -112.5q0 -68 39.5 -111t107.5 -44q54 1 82 27.5t41 74.5h122q-14 -85 -72.5 -143.5z" />
    <glyph glyph-name="egrave" unicode="&#xe8;" horiz-adv-x="554" 
d="M431 37.5q-64 -47.5 -152 -47.5q-78 0 -137.5 34.5t-91.5 93.5t-32 129q0 83 31.5 144t90 93.5t137.5 32.5q69 0 129.5 -35t96 -99t33.5 -147l-396 -1q0 -32 19 -62.5t51 -50.5t69 -20q48 0 75 15.5t45 44.5h122q-26 -77 -90 -124.5zM405 317q-14 40 -48 64t-80 24
q-47 0 -81.5 -24t-46.5 -64h256zM124 792h108l97 -241h-109z" />
    <glyph glyph-name="eacute" unicode="&#xe9;" horiz-adv-x="554" 
d="M431 37.5q-64 -47.5 -152 -47.5q-78 0 -137.5 34.5t-91.5 93.5t-32 129q0 83 31.5 144t90 93.5t137.5 32.5q69 0 129.5 -35t96 -99t33.5 -147l-396 -1q0 -32 19 -62.5t51 -50.5t69 -20q48 0 75 15.5t45 44.5h122q-26 -77 -90 -124.5zM405 317q-14 40 -48 64t-80 24
q-47 0 -81.5 -24t-46.5 -64h256zM238 547l97 241h108l-96 -241h-109z" />
    <glyph glyph-name="ecircumflex" unicode="&#xea;" horiz-adv-x="554" 
d="M431 37.5q-64 -47.5 -152 -47.5q-78 0 -137.5 34.5t-91.5 93.5t-32 129q0 83 31.5 144t90 93.5t137.5 32.5q69 0 129.5 -35t96 -99t33.5 -147l-396 -1q0 -32 19 -62.5t51 -50.5t69 -20q48 0 75 15.5t45 44.5h122q-26 -77 -90 -124.5zM405 317q-14 40 -48 64t-80 24
q-47 0 -81.5 -24t-46.5 -64h256zM268 823l170 -256h-118l-52 86l-51 -87h-118z" />
    <glyph glyph-name="edieresis" unicode="&#xeb;" horiz-adv-x="554" 
d="M431 37.5q-64 -47.5 -152 -47.5q-78 0 -137.5 34.5t-91.5 93.5t-32 129q0 83 31.5 144t90 93.5t137.5 32.5q69 0 129.5 -35t96 -99t33.5 -147l-396 -1q0 -32 19 -62.5t51 -50.5t69 -20q48 0 75 15.5t45 44.5h122q-26 -77 -90 -124.5zM405 317q-14 40 -48 64t-80 24
q-47 0 -81.5 -24t-46.5 -64h256zM126 569.5q-21 19.5 -21 47.5q0 29 21 49t55 20t54.5 -20t20.5 -49q0 -28 -21.5 -47.5t-53.5 -19.5q-34 0 -55 19.5zM294 666q21 20 54 20q34 0 55 -20t21 -49q0 -27 -22 -47t-54 -20q-33 0 -54 19.5t-21 47.5q0 29 21 49z" />
    <glyph glyph-name="igrave" unicode="&#xec;" horiz-adv-x="254" 
d="M114 507h122v-507h-122v507zM13 775h108l97 -241h-109z" />
    <glyph glyph-name="iacute" unicode="&#xed;" horiz-adv-x="241" 
d="M25 507h122v-507h-122v507zM38 530l97 241h108l-96 -241h-109z" />
    <glyph glyph-name="icircumflex" unicode="&#xee;" horiz-adv-x="359" 
d="M139 507h122v-507h-122v507zM182 806l170 -256h-118l-52 86l-51 -87h-118z" />
    <glyph glyph-name="idieresis" unicode="&#xef;" horiz-adv-x="345" 
d="M133 507h122v-507h-122v507zM34 552.5q-21 19.5 -21 47.5q0 29 21 49t55 20t54.5 -20t20.5 -49q0 -28 -21.5 -47.5t-53.5 -19.5q-34 0 -55 19.5zM202 649q21 20 54 20q34 0 55 -20t21 -49q0 -27 -22 -47t-54 -20q-33 0 -54 19.5t-21 47.5q0 29 21 49z" />
    <glyph glyph-name="ntilde" unicode="&#xf1;" horiz-adv-x="524" 
d="M18 507h122v-80q19 41 60.5 65.5t94.5 24.5q102 0 156.5 -71t54.5 -192v-254h-122v254q0 82 -29.5 116.5t-92.5 34.5q-54 0 -88.5 -37t-34.5 -114l1 -254h-122v507zM50 575q0 55 27.5 87.5t69.5 32.5q7 0 21 -2q14 -3 26 -10t30 -21q21 -15 28 -17q4 -1 10 -1q12 0 19 11
t13 39h95q-2 -38 -19.5 -72t-44.5 -55t-59 -21q-12 0 -29 5q-15 5 -26.5 13t-25.5 20q-17 17 -27 17q-15 0 -15 -54h-91q-2 20 -2 28z" />
    <glyph glyph-name="ograve" unicode="&#xf2;" horiz-adv-x="555" 
d="M143 17.5q-60 34.5 -92.5 95t-32.5 137.5q0 76 32 137t91 95.5t137 34.5t136.5 -34.5t90.5 -95.5t32 -137t-31 -137t-89 -95.5t-135 -34.5q-79 0 -139 34.5zM177 139q37 -44 98 -44q63 0 101.5 43.5t38.5 111.5t-38.5 111.5t-101.5 43.5q-61 0 -98 -44t-37 -111t37 -111z
M131 794h108l97 -241h-109z" />
    <glyph glyph-name="oacute" unicode="&#xf3;" horiz-adv-x="555" 
d="M143 17.5q-60 34.5 -92.5 95t-32.5 137.5q0 76 32 137t91 95.5t137 34.5t136.5 -34.5t90.5 -95.5t32 -137t-31 -137t-89 -95.5t-135 -34.5q-79 0 -139 34.5zM177 139q37 -44 98 -44q63 0 101.5 43.5t38.5 111.5t-38.5 111.5t-101.5 43.5q-61 0 -98 -44t-37 -111t37 -111z
M245 549l97 241h108l-96 -241h-109z" />
    <glyph glyph-name="ocircumflex" unicode="&#xf4;" horiz-adv-x="555" 
d="M143 17.5q-60 34.5 -92.5 95t-32.5 137.5q0 76 32 137t91 95.5t137 34.5t136.5 -34.5t90.5 -95.5t32 -137t-31 -137t-89 -95.5t-135 -34.5q-79 0 -139 34.5zM177 139q37 -44 98 -44q63 0 101.5 43.5t38.5 111.5t-38.5 111.5t-101.5 43.5q-61 0 -98 -44t-37 -111t37 -111z
M275 825l170 -256h-118l-52 86l-51 -87h-118z" />
    <glyph glyph-name="otilde" unicode="&#xf5;" horiz-adv-x="555" 
d="M143 17.5q-60 34.5 -92.5 95t-32.5 137.5q0 76 32 137t91 95.5t137 34.5t136.5 -34.5t90.5 -95.5t32 -137t-31 -137t-89 -95.5t-135 -34.5q-79 0 -139 34.5zM177 139q37 -44 98 -44q63 0 101.5 43.5t38.5 111.5t-38.5 111.5t-101.5 43.5q-61 0 -98 -44t-37 -111t37 -111z
M100 579q0 55 27.5 87.5t69.5 32.5q7 0 21 -2q14 -3 26 -10t30 -21q21 -15 28 -17q4 -1 10 -1q12 0 19 11t13 39h95q-2 -38 -19.5 -72t-44.5 -55t-59 -21q-12 0 -29 5q-15 5 -26.5 13t-25.5 20q-17 17 -27 17q-15 0 -15 -54h-91q-2 20 -2 28z" />
    <glyph glyph-name="odieresis" unicode="&#xf6;" horiz-adv-x="555" 
d="M143 17.5q-60 34.5 -92.5 95t-32.5 137.5q0 76 32 137t91 95.5t137 34.5t136.5 -34.5t90.5 -95.5t32 -137t-31 -137t-89 -95.5t-135 -34.5q-79 0 -139 34.5zM177 139q37 -44 98 -44q63 0 101.5 43.5t38.5 111.5t-38.5 111.5t-101.5 43.5q-61 0 -98 -44t-37 -111t37 -111z
M133 571.5q-21 19.5 -21 47.5q0 29 21 49t55 20t54.5 -20t20.5 -49q0 -28 -21.5 -47.5t-53.5 -19.5q-34 0 -55 19.5zM301 668q21 20 54 20q34 0 55 -20t21 -49q0 -27 -22 -47t-54 -20q-33 0 -54 19.5t-21 47.5q0 29 21 49z" />
    <glyph glyph-name="divide" unicode="&#xf7;" horiz-adv-x="431" 
d="M18 320h395v-112h-395v112zM160 453.5q19 17.5 50 17.5q32 0 51 -17.5t19 -43.5t-19.5 -44t-50.5 -18t-50 18t-19 44t19 43.5zM168.5 170q19.5 18 50.5 18t50 -18t19 -44t-19 -44t-50 -18t-50.5 18t-19.5 44t19.5 44z" />
    <glyph glyph-name="oslash" unicode="&#xf8;" horiz-adv-x="555" 
d="M241 -15l-29 -69h-122l45 106q-56 35 -86.5 94t-30.5 134q0 76 32 137t91 95.5t137 34.5q34 0 62 -6l28 65h122l-47 -113q45 -35 69.5 -90.5t24.5 -122.5q0 -76 -31 -137t-89 -95.5t-135 -34.5q-15 0 -41 2zM151 185q11 -30 31 -51l113 270l-20 1q-61 0 -98 -44t-37 -111
q0 -35 11 -65zM380.5 143q34.5 43 34.5 107q0 53 -24 92l-103 -247q58 5 92.5 48z" />
    <glyph glyph-name="ugrave" unicode="&#xf9;" horiz-adv-x="563" 
d="M399 15.5q-15 15.5 -15 57.5v7q-19 -41 -60.5 -65.5t-94.5 -24.5q-102 0 -156.5 71t-54.5 192v254h122v-254q0 -82 29.5 -116.5t92.5 -34.5q54 0 88.5 37t34.5 114l-1 254h122v-395h39v-112h-84q-47 0 -62 15.5zM77 806h108l97 -241h-109z" />
    <glyph glyph-name="uacute" unicode="&#xfa;" horiz-adv-x="563" 
d="M399 15.5q-15 15.5 -15 57.5v7q-19 -41 -60.5 -65.5t-94.5 -24.5q-102 0 -156.5 71t-54.5 192v254h122v-254q0 -82 29.5 -116.5t92.5 -34.5q54 0 88.5 37t34.5 114l-1 254h122v-395h39v-112h-84q-47 0 -62 15.5zM191 561l97 241h108l-96 -241h-109z" />
    <glyph glyph-name="ucircumflex" unicode="&#xfb;" horiz-adv-x="563" 
d="M399 15.5q-15 15.5 -15 57.5v7q-19 -41 -60.5 -65.5t-94.5 -24.5q-102 0 -156.5 71t-54.5 192v254h122v-254q0 -82 29.5 -116.5t92.5 -34.5q54 0 88.5 37t34.5 114l-1 254h122v-395h39v-112h-84q-47 0 -62 15.5zM221 837l170 -256h-118l-52 86l-51 -87h-118z" />
    <glyph glyph-name="udieresis" unicode="&#xfc;" horiz-adv-x="563" 
d="M399 15.5q-15 15.5 -15 57.5v7q-19 -41 -60.5 -65.5t-94.5 -24.5q-102 0 -156.5 71t-54.5 192v254h122v-254q0 -82 29.5 -116.5t92.5 -34.5q54 0 88.5 37t34.5 114l-1 254h122v-395h39v-112h-84q-47 0 -62 15.5zM79 583.5q-21 19.5 -21 47.5q0 29 21 49t55 20t54.5 -20
t20.5 -49q0 -28 -21.5 -47.5t-53.5 -19.5q-34 0 -55 19.5zM247 680q21 20 54 20q34 0 55 -20t21 -49q0 -27 -22 -47t-54 -20q-33 0 -54 19.5t-21 47.5q0 29 21 49z" />
    <glyph glyph-name="yacute" unicode="&#xfd;" horiz-adv-x="547" 
d="M140 507l118 -319l149 319h122l-294 -612q-11 -24 -20.5 -33.5t-20.5 -11.5t-39 -2h-124v112h105l54 114l-172 433h122zM255 551l97 241h108l-96 -241h-109z" />
    <glyph glyph-name="ydieresis" unicode="&#xff;" horiz-adv-x="547" 
d="M140 507l118 -319l149 319h122l-294 -612q-11 -24 -20.5 -33.5t-20.5 -11.5t-39 -2h-124v112h105l54 114l-172 433h122zM143 573.5q-21 19.5 -21 47.5q0 29 21 49t55 20t54.5 -20t20.5 -49q0 -28 -21.5 -47.5t-53.5 -19.5q-34 0 -55 19.5zM311 670q21 20 54 20
q34 0 55 -20t21 -49q0 -27 -22 -47t-54 -20q-33 0 -54 19.5t-21 47.5q0 29 21 49z" />
    <glyph glyph-name="dotlessi" unicode="&#x131;" horiz-adv-x="158" 
d="M18 507h122v-507h-122v507z" />
    <glyph glyph-name="OE" unicode="&#x152;" horiz-adv-x="1047" 
d="M182.5 32.5q-75.5 42.5 -120 118t-44.5 171.5q0 99 43 178.5t118 124.5t168 45q59 0 110.5 -18t92.5 -51q2 34 17.5 46.5t58.5 12.5h403v-112h-358v-180h314v-112h-314v-144h357v-112h-402q-43 0 -58.5 13.5t-17.5 48.5q-42 -35 -94 -53.5t-109 -18.5q-89 0 -164.5 42.5z
M165.5 211q25.5 -51 72.5 -80t108 -29q59 0 105 27t71.5 77.5t25.5 117.5q0 72 -26 125t-72 81t-103 28q-59 0 -106 -29t-74 -81.5t-27 -121.5q0 -64 25.5 -115z" />
    <glyph glyph-name="oe" unicode="&#x153;" horiz-adv-x="933" 
d="M143 17.5q-60 34.5 -92.5 95t-32.5 137.5q0 76 32 137t91 95.5t137 34.5q61 0 111 -21.5t84 -61.5q34 43 85.5 65.5t117.5 22.5q69 0 129.5 -35t96 -99t33.5 -147l-396 -1q0 -32 19 -62.5t51 -50.5t69 -20q48 0 75 15.5t45 44.5h122q-26 -77 -90 -124.5t-152 -47.5
q-60 0 -110 21.5t-86 59.5q-33 -44 -84.5 -68.5t-115.5 -24.5q-79 0 -139 34.5zM177 139q37 -44 98 -44q63 0 101.5 43.5t38.5 111.5t-38.5 111.5t-101.5 43.5q-61 0 -98 -44t-37 -111t37 -111zM804 322q-14 40 -48 64t-80 24q-47 0 -81.5 -24t-46.5 -64h256z" />
    <glyph glyph-name="Scaron" unicode="&#x160;" horiz-adv-x="539" 
d="M339 538q-38 20 -97 20q-102 0 -102 -78q0 -22 12 -36t31 -22.5t56 -20.5l35 -11l37 -12q59 -19 98.5 -37.5t69 -57.5t29.5 -101q0 -64 -31.5 -107t-81.5 -64t-105 -21q-105 0 -173.5 47t-97.5 157h123q18 -50 55.5 -71t92.5 -21q46 0 70.5 18t24.5 62q0 30 -24.5 45
t-79.5 32q-33 10 -41 13l-33 11q-57 18 -95 37t-66 58t-28 102q0 96 63 143t161 47q100 0 176 -49t103 -152h-125q-19 49 -57 69zM94 983h118l51 -87l52 86h118l-170 -256z" />
    <glyph glyph-name="scaron" unicode="&#x161;" horiz-adv-x="437" 
d="M166.5 116.5q21.5 -14.5 67.5 -14.5q37 0 52.5 7.5t15.5 30.5t-19.5 34.5t-73.5 24.5q-88 22 -138 56.5t-50 105.5q0 78 53 116.5t131 38.5q70 0 130.5 -37.5t82.5 -134.5h-122q-7 30 -28 45t-60 15q-37 0 -53.5 -10.5t-16.5 -31.5q0 -22 25.5 -36t79.5 -27
q83 -20 129 -53.5t47 -101.5q0 -73 -49.5 -113.5t-125.5 -40.5q-81 0 -147.5 35t-78.5 147h122q5 -41 26.5 -55.5zM51 825h118l51 -87l52 86h118l-170 -256z" />
    <glyph glyph-name="Ydieresis" unicode="&#x178;" horiz-adv-x="633" 
d="M151 660l157 -285l174 285h133l-248 -404v-256h-122v257l-227 403h133zM169 709.5q-21 19.5 -21 47.5q0 29 21 49t55 20t54.5 -20t20.5 -49q0 -28 -21.5 -47.5t-53.5 -19.5q-34 0 -55 19.5zM337 806q21 20 54 20q34 0 55 -20t21 -49q0 -27 -22 -47t-54 -20
q-33 0 -54 19.5t-21 47.5q0 29 21 49z" />
    <glyph glyph-name="zcaron" unicode="&#x17e;" horiz-adv-x="469" 
d="M18 507h432l1 -122l-269 -263h263v-122h-427v122l279 263h-279v122zM63 825h118l51 -87l52 86h118l-170 -256z" />
    <glyph glyph-name="gravecomb" unicode="&#x300;" 
d="M18 660h108l97 -241h-109z" />
    <glyph glyph-name="acutecomb" unicode="&#x301;" 
d="M18 419l97 241h108l-96 -241h-109z" />
    <glyph glyph-name="uni0302" unicode="&#x302;" 
d="M187 660l170 -256h-118l-52 86l-51 -87h-118z" />
    <glyph glyph-name="tildecomb" unicode="&#x303;" 
d="M18 541q0 55 27.5 87.5t69.5 32.5q7 0 21 -2q14 -3 26 -10t30 -21q21 -15 28 -17q4 -1 10 -1q12 0 19 11t13 39h95q-2 -38 -19.5 -72t-44.5 -55t-59 -21q-12 0 -29 5q-15 5 -26.5 13t-25.5 20q-17 17 -27 17q-15 0 -15 -54h-91q-2 20 -2 28z" />
    <glyph glyph-name="uni0304" unicode="&#x304;" 
d="M18 660h285v-93h-285v93z" />
    <glyph glyph-name="uni0306" unicode="&#x306;" 
d="M111.5 483q-44.5 27 -69 73.5t-24.5 103.5h110q-2 -41 20.5 -66.5t57.5 -25.5q44 0 60.5 24.5t16.5 67.5h110q0 -58 -23.5 -104.5t-64.5 -73t-91 -26.5q-58 0 -102.5 27z" />
    <glyph glyph-name="uni0307" unicode="&#x307;" 
d="M39 540q-21 21 -21 49q0 29 22 50t57 21q37 0 58 -21t21 -50q0 -28 -22 -49t-57 -21q-37 0 -58 21z" />
    <glyph glyph-name="uni0308" unicode="&#x308;" 
d="M39 543.5q-21 19.5 -21 47.5q0 29 21 49t55 20t54.5 -20t20.5 -49q0 -28 -21.5 -47.5t-53.5 -19.5q-34 0 -55 19.5zM207 640q21 20 54 20q34 0 55 -20t21 -49q0 -27 -22 -47t-54 -20q-33 0 -54 19.5t-21 47.5q0 29 21 49z" />
    <glyph glyph-name="uni030A" unicode="&#x30a;" 
d="M75.5 469q-26.5 15 -42 39.5t-15.5 52.5q0 47 33.5 78.5t82.5 31.5q51 0 84.5 -31.5t33.5 -78.5q0 -43 -33.5 -75t-84.5 -32q-32 0 -58.5 15zM96 527q16 -15 38 -15q24 0 40 14.5t16 35.5q0 22 -16 36.5t-40 14.5q-23 0 -38.5 -14.5t-15.5 -36.5q0 -20 16 -35z" />
    <glyph glyph-name="uni030B" unicode="&#x30b;" 
d="M236 660h108l-96 -241h-109zM114 660h109l-97 -241h-108z" />
    <glyph glyph-name="uni030C" unicode="&#x30c;" 
d="M18 660h118l51 -87l52 86h118l-170 -256z" />
    <glyph glyph-name="uni0312" unicode="&#x312;" 
d="M63 509h112l-44 -198h-113z" />
    <glyph glyph-name="uni0326" unicode="&#x326;" 
d="M115 142h97l-96 -256h-98z" />
    <glyph glyph-name="uni0327" unicode="&#x327;" 
d="M110 -58q49 0 68 7.5t19 25.5q0 16 -23 22t-82 6q-46 0 -74 -1v60l65 109h101l-46 -79q154 -12 154 -117q0 -52 -26 -79.5t-68 -36t-105 -8.5l-71 1v93q54 -3 88 -3z" />
    <glyph glyph-name="uni0328" unicode="&#x328;" 
d="M176 -123q-51 0 -91.5 26.5t-57.5 73.5q-9 26 -9 50q0 50 31.5 89.5t77.5 54.5l40 -3v-73q-24 -8 -39 -27t-15 -40q0 -8 3 -17q14 -35 58 -35q33 0 74 17l26 -88q-46 -28 -98 -28z" />
    <glyph glyph-name="endash" unicode="&#x2013;" horiz-adv-x="473" 
d="M18 437h437v-112h-437v112z" />
    <glyph glyph-name="emdash" unicode="&#x2014;" horiz-adv-x="535" 
d="M18 437h499v-112h-499v112z" />
    <glyph glyph-name="quoteleft" unicode="&#x2018;" horiz-adv-x="210" 
d="M18 660h114l60 -269h-113z" />
    <glyph glyph-name="quoteright" unicode="&#x2019;" horiz-adv-x="210" 
d="M18 391l60 269h114l-61 -269h-113z" />
    <glyph glyph-name="quotesinglbase" unicode="&#x201a;" horiz-adv-x="209" 
d="M63 62h112l-44 -198h-113z" />
    <glyph glyph-name="quotedblleft" unicode="&#x201c;" horiz-adv-x="358" 
d="M18 660h114l60 -269h-113zM166 659h114l60 -269h-113z" />
    <glyph glyph-name="quotedblright" unicode="&#x201d;" horiz-adv-x="348" 
d="M156 391l60 269h114l-61 -269h-113zM78 660h114l-61 -269h-113z" />
    <glyph glyph-name="quotedblbase" unicode="&#x201e;" horiz-adv-x="354" 
d="M63 62h112l-44 -198h-113zM208 62h112l-44 -198h-113z" />
    <glyph glyph-name="dagger" unicode="&#x2020;" horiz-adv-x="449" 
d="M168 421h-150v113h149v126h113v-126h151v-113h-151v-287h-112v287z" />
    <glyph glyph-name="bullet" unicode="&#x2022;" horiz-adv-x="241" 
d="M46.5 236.5q-28.5 26.5 -28.5 64.5t28 64t74 26t74.5 -26t28.5 -64q0 -39 -28.5 -65t-74.5 -26q-45 0 -73.5 26.5z" />
    <glyph glyph-name="ellipsis" unicode="&#x2026;" horiz-adv-x="539" 
d="M40 20.5q-22 20.5 -22 49.5q0 30 22 50t57 20t57 -20t22 -50q0 -29 -22 -49.5t-57 -20.5t-57 20.5zM212 20.5q-22 20.5 -22 49.5q0 30 22 50t57 20t57 -20t22 -50q0 -29 -22 -49.5t-57 -20.5t-57 20.5zM385 20.5q-22 20.5 -22 49.5q0 30 22 50t57 20t57 -20t22 -50
q0 -29 -22 -49.5t-57 -20.5t-57 20.5z" />
    <glyph glyph-name="perthousand" unicode="&#x2030;" horiz-adv-x="1668" 
d="M138 142.5q-54 32.5 -87 96.5t-33 153t33 152.5t86.5 95.5t114.5 32q64 0 118.5 -32t87.5 -95.5t33 -152.5t-33 -153t-87.5 -96.5t-118.5 -32.5q-60 0 -114 32.5zM156 248q37 -46 96 -46q64 0 101 45.5t37 144.5q0 187 -138 187q-60 0 -96.5 -45t-36.5 -142
q0 -98 37 -144zM656 659h122l-278 -660h-122zM711 425.5q33 63.5 86.5 95.5t114.5 32q64 0 118.5 -32t87.5 -95.5t33 -152.5t-33 -153t-87.5 -96.5t-118.5 -32.5q-60 0 -114 32.5t-87 96.5t-33 153t33 152.5zM816 129q37 -46 96 -46q64 0 101 45.5t37 144.5q0 187 -138 187
q-60 0 -96.5 -45t-36.5 -142q0 -98 37 -144zM1210 434.5q33 63.5 86.5 95.5t114.5 32q64 0 118.5 -32t87.5 -95.5t33 -152.5t-33 -153t-87.5 -96.5t-118.5 -32.5q-60 0 -114 32.5t-87 96.5t-33 153t33 152.5zM1315 138q37 -46 96 -46q64 0 101 45.5t37 144.5q0 187 -138 187
q-60 0 -96.5 -45t-36.5 -142q0 -98 37 -144z" />
    <glyph glyph-name="guilsinglleft" unicode="&#x2039;" horiz-adv-x="416" 
d="M18 282l251 217h129l-250 -220l238 -214h-127z" />
    <glyph glyph-name="guilsinglright" unicode="&#x203a;" horiz-adv-x="416" 
d="M30 65l238 214l-250 220h129l251 -217l-241 -217h-127z" />
    <glyph glyph-name="fraction" unicode="&#x2044;" horiz-adv-x="436" 
d="M296 660h122l-278 -660h-122z" />
    <glyph glyph-name="Euro" unicode="&#x20ac;" horiz-adv-x="777" 
d="M697.5 115.5q-45.5 -59.5 -112 -92.5t-142.5 -33q-102 0 -185 55t-120 148h-120v112h96v17q0 20 1 30h-96v112h121q37 94 118 150t185 56q79 0 144 -32t109 -89.5t61 -132.5h-126q-21 67 -71 104.5t-117 37.5q-54 0 -98.5 -24.5t-72.5 -69.5h149v-112h-184q-1 -8 -1 -26
q0 -14 1 -21h183v-112h-148q27 -43 71 -67t99 -24q72 0 123.5 40.5t69.5 110.5h124q-16 -78 -61.5 -137.5z" />
    <glyph glyph-name="trademark" unicode="&#x2122;" horiz-adv-x="649" 
d="M384 507v-173h-81v244h-109v-244h-81v244h-95v82h348l99 -124l103 124h63v-326h-82v176l-67 -79h-36z" />
    <glyph glyph-name="minus" unicode="&#x2212;" horiz-adv-x="431" 
d="M18 320h395v-112h-395v112z" />
    <glyph glyph-name="BeeType" horiz-adv-x="641" 
d="M94 115.5q-32 12.5 -54 36t-22 54.5q0 40 34 78t94.5 65t134.5 35l9 1q-7 8 -13 22t-6 24q0 24 18 42q5 5 5 7q0 4 -4 8q-4 5 -38 45q-2 2 -2 7t3.5 8.5t7.5 3.5q7 0 11 -7l30 -49q4 -7 6 -8t9 0q5 2 14 2q8 0 13 -2l5 -1q2 0 4 3t4 5l32 51q5 5 9 5q6 0 8.5 -6t-1.5 -12
l-17 -22l-19 -26q-3 -4 3 -10q20 -23 20 -45q0 -19 -18 -47q65 -10 122.5 -36.5t92 -62.5t34.5 -74q0 -28 -22 -50.5t-54.5 -35.5t-59.5 -13q-42 0 -82 28t-64 73l-16 29l-18 -32q-24 -43 -64 -74.5t-88 -31.5q-29 0 -61 12.5zM61.5 167q17.5 -18 43.5 -28t50 -10
q74 0 130 95q3 5 11 19t15.5 23t13.5 9q7 0 14 -9t14 -21.5t11 -19.5q28 -44 58 -65.5t65 -21.5q21 0 47.5 10t44.5 27t17 36q-2 43 -50.5 77t-112.5 53t-108 19q-57 0 -123.5 -20t-112 -55t-45.5 -78q0 -22 17.5 -40z" />
    </font>
</defs>
</svg>
