<?xml version="1.0" standalone="no"?>
<!DOCTYPE svg PUBLIC "-//W3C//DTD SVG 1.1//EN" "http://www.w3.org/Graphics/SVG/1.1/DTD/svg11.dtd" >
<svg xmlns="http://www.w3.org/2000/svg" xmlns:xlink="http://www.w3.org/1999/xlink" version="1.1">
<metadata>
Created by FontForge 20201107 at Fri Nov 18 10:06:55 2022
 By 
Copyright (c) 2022 by beetype. All rights reserved.
</metadata>
<defs>
<font id="NeueLeiden-SemiBold" horiz-adv-x="0" >
  <font-face 
    font-family="Neue Leiden SemiBold"
    font-weight="600"
    font-stretch="normal"
    units-per-em="1000"
    panose-1="0 0 0 0 0 0 0 0 0 0"
    ascent="800"
    descent="-200"
    x-height="507"
    cap-height="660"
    bbox="18 -278 1639 973"
    underline-thickness="50"
    underline-position="-125"
    unicode-range="U+0020-FB02"
  />
<missing-glyph horiz-adv-x="648" 
d="M98 115.5q-32 12.5 -54 36t-22 54.5q0 40 34 78t94.5 65t134.5 35l9 1q-7 8 -13 22t-6 24q0 24 18 42q5 5 5 7q0 4 -4 8q-4 5 -38 45q-2 2 -2 7t3.5 8.5t7.5 3.5q7 0 11 -7l30 -49q4 -7 6 -8t9 0q5 2 14 2q8 0 13 -2l5 -1q2 0 4 3t4 5l32 51q5 5 9 5q6 0 8.5 -6t-1.5 -12
l-17 -22l-19 -26q-3 -4 3 -10q20 -23 20 -45q0 -19 -18 -47q65 -10 122.5 -36.5t92 -62.5t34.5 -74q0 -28 -22 -50.5t-54.5 -35.5t-59.5 -13q-42 0 -82 28t-64 73l-16 29l-18 -32q-24 -43 -64 -74.5t-88 -31.5q-29 0 -61 12.5zM65.5 167q17.5 -18 43.5 -28t50 -10
q74 0 130 95q3 5 11 19t15.5 23t13.5 9q7 0 14 -9t14 -21.5t11 -19.5q28 -44 58 -65.5t65 -21.5q21 0 47.5 10t44.5 27t17 36q-2 43 -50.5 77t-112.5 53t-108 19q-57 0 -123.5 -20t-112 -55t-45.5 -78q0 -22 17.5 -40z" />
    <glyph glyph-name="fi" unicode="fi" horiz-adv-x="536" 
d="M72 321h-50v98h50v145q0 37 4.5 56.5t20.5 29.5t49 10h298v-97h-266v-144h219q27 0 39.5 -10t15 -28t2.5 -57v-227h61v-97h-84q-41 0 -58 10t-20.5 27.5t-3.5 58.5v225h-171v-321h-106v321z" />
    <glyph glyph-name="fl" unicode="fl" horiz-adv-x="544" 
d="M72 321h-50v98h50v145q0 37 4.5 56.5t20.5 29.5t49 10h316v-563h60v-97h-92q-33 0 -49 10t-20.5 29.5t-4.5 56.5v467h-178v-144h130v-98h-130v-321h-106v321z" />
    <glyph glyph-name="TT" unicode="TT" horiz-adv-x="703" 
d="M206 563h-184v97h659v-97h-185v-563h-105v563h-79v-563h-106v563z" />
    <glyph glyph-name="ff" unicode="ff" horiz-adv-x="643" 
d="M72 321h-50v98h50v145q0 37 4.5 56.5t20.5 29.5t49 10h172v-97h-140v-144h169v145q0 37 4.5 56.5t20.5 29.5t49 10h201v-97h-168v-144h123v-98h-123l-1 -321h-106v321h-169v-321h-106v321z" />
    <glyph glyph-name="ffj" unicode="ffj" horiz-adv-x="705" 
d="M72 321h-50v98h50v145q0 37 4.5 56.5t20.5 29.5t49 10h172v-97h-140v-144h164v145q0 37 4.5 56.5t20.5 29.5t49 10h201v-97h-168v-144h234v-545q0 -41 -3.5 -58.5t-20.5 -27.5t-58 -10h-205v97h182v446h-129l-1 -321h-106v321h-164v-321h-106v321z" />
    <glyph glyph-name="ffl" unicode="ffl" horiz-adv-x="760" 
d="M72 321h-50v98h50v145q0 37 4.5 56.5t20.5 29.5t49 10h172v-97h-140v-144h164v145q0 37 4.5 56.5t20.5 29.5t49 10h262v-563h61v-97h-93q-33 0 -48.5 10t-20 29.5t-4.5 56.5v467h-124v-144h90v-98h-90l-1 -321h-106v321h-164v-321h-106v321z" />
    <glyph glyph-name="fj" unicode="fj" horiz-adv-x="401" 
d="M26.5 620.5q4.5 19.5 20.5 29.5t49 10h284v-97h-252v-144h252v-545q0 -41 -3.5 -58.5t-20.5 -27.5t-58 -10h-206v97h182v446h-146v-321h-106v564q0 37 4.5 56.5z" />
    <glyph glyph-name="ft" unicode="ft" horiz-adv-x="622" 
d="M72 321h-50v98h50v145q0 37 4.5 56.5t20.5 29.5t49 10h289v-241h142v-98h-142v-224h165v-97h-197q-33 0 -48.5 10t-20 29.5t-4.5 56.5v225h-152v-321h-106v321zM330 419v144h-152v-144h152z" />
    <glyph glyph-name="ti" unicode="ti" horiz-adv-x="566" 
d="M122.5 10q-15.5 10 -20 29.5t-4.5 56.5v314h-76v97h76v153h105v-153h223q28 0 40 -10t15 -28t3 -57v-315h60v-97h-84q-41 0 -58 10t-20.5 27.5t-3.5 58.5v314h-175v-313h113v-97h-145q-33 0 -48.5 10z" />
    <glyph glyph-name="tj" unicode="tj" horiz-adv-x="485" 
d="M122.5 10q-15.5 10 -20 29.5t-4.5 56.5v314h-76v97h76v153h105v-153h261v-545q0 -41 -3.5 -58.5t-20.5 -27.5t-58 -10h-206v98h182v446h-155v-313h113v-97h-145q-33 0 -48.5 10z" />
    <glyph glyph-name="tt" unicode="tt" horiz-adv-x="630" 
d="M122.5 10q-15.5 10 -20 29.5t-4.5 56.5v314h-76v97h76v153h105v-153h148v153h106v-153h142v-97h-142v-313h151v-97h-183q-33 0 -49 10t-20.5 29.5t-4.5 56.5v314h-148v-313h117v-97h-149q-33 0 -48.5 10z" />
    <glyph glyph-name=".notdef" horiz-adv-x="648" 
d="M98 115.5q-32 12.5 -54 36t-22 54.5q0 40 34 78t94.5 65t134.5 35l9 1q-7 8 -13 22t-6 24q0 24 18 42q5 5 5 7q0 4 -4 8q-4 5 -38 45q-2 2 -2 7t3.5 8.5t7.5 3.5q7 0 11 -7l30 -49q4 -7 6 -8t9 0q5 2 14 2q8 0 13 -2l5 -1q2 0 4 3t4 5l32 51q5 5 9 5q6 0 8.5 -6t-1.5 -12
l-17 -22l-19 -26q-3 -4 3 -10q20 -23 20 -45q0 -19 -18 -47q65 -10 122.5 -36.5t92 -62.5t34.5 -74q0 -28 -22 -50.5t-54.5 -35.5t-59.5 -13q-42 0 -82 28t-64 73l-16 29l-18 -32q-24 -43 -64 -74.5t-88 -31.5q-29 0 -61 12.5zM65.5 167q17.5 -18 43.5 -28t50 -10
q74 0 130 95q3 5 11 19t15.5 23t13.5 9q7 0 14 -9t14 -21.5t11 -19.5q28 -44 58 -65.5t65 -21.5q21 0 47.5 10t44.5 27t17 36q-2 43 -50.5 77t-112.5 53t-108 19q-57 0 -123.5 -20t-112 -55t-45.5 -78q0 -22 17.5 -40z" />
    <glyph glyph-name=".null" 
 />
    <glyph glyph-name="nonmarkingreturn" horiz-adv-x="333" 
 />
    <glyph glyph-name="space" unicode=" " horiz-adv-x="374" 
 />
    <glyph glyph-name="space" unicode="&#xa0;" horiz-adv-x="374" 
 />
    <glyph glyph-name="exclam" unicode="!" horiz-adv-x="189" 
d="M41 660h105v-496h-105v496zM41.5 114q19.5 19 51.5 19q34 0 54 -19t20 -48q0 -28 -21 -47t-53 -19t-51.5 19t-19.5 47q0 29 19.5 48z" />
    <glyph glyph-name="quotedbl" unicode="&#x22;" horiz-adv-x="311" 
d="M18 660h99l58 -261h-98zM132 660h99l58 -261h-98z" />
    <glyph glyph-name="numbersign" unicode="#" horiz-adv-x="697" 
d="M151 216h-129l36 98h133l20 48h-129l35 93h133l87 205h106l-88 -205h49l86 205h106l-88 -205h167l-37 -93h-168l-20 -48h168l-40 -98h-168l-92 -216h-106l92 216h-47l-92 -216h-106zM344 314l20 48h-47l-20 -48h47z" />
    <glyph glyph-name="dollar" unicode="$" horiz-adv-x="529" 
d="M348.5 543.5q-35.5 29.5 -106.5 29.5q-60 0 -87.5 -20.5t-27.5 -68.5q0 -26 14 -42.5t35.5 -26t60.5 -21.5l35 -12l39 -13q59 -18 98 -36.5t68 -56t29 -98.5q0 -62 -30.5 -104.5t-80 -62.5t-105.5 -21v-54h-81v67q-135 39 -171 216h105q14 -75 50.5 -103.5t105.5 -28.5
q46 0 73.5 21.5t27.5 69.5q0 25 -15 41t-37 25t-62 22l-42 14l-35 12q-57 18 -94.5 36.5t-65 56.5t-27.5 99q0 83 49 128.5t130 55.5v59h82v-59q89 -9 146.5 -64.5t74.5 -162.5h-106q-14 73 -49.5 102.5z" />
    <glyph glyph-name="percent" unicode="%" horiz-adv-x="1186" 
d="M141 139.5q-53 32.5 -86 96.5t-33 153t33 152.5t86 95.5t113 32q64 0 118 -32t86.5 -95.5t32.5 -152.5q0 -90 -32.5 -153.5t-86.5 -96t-118 -32.5q-60 0 -113 32.5zM149.5 236.5q40.5 -49.5 104.5 -49.5q69 0 110 49t41 153q0 103 -41 151.5t-110 48.5q-63 0 -104 -49.5
t-41 -150.5q0 -103 40.5 -152.5zM678 659h105l-278 -660h-105zM728 429.5q33 63.5 86 95.5t113 32q64 0 118 -32t86.5 -95.5t32.5 -152.5q0 -90 -32.5 -153.5t-86.5 -96t-118 -32.5q-60 0 -113 32.5t-86 96.5t-33 153t33 152.5zM822 125q41 -50 105 -50q69 0 109.5 49
t40.5 153q0 103 -40.5 151.5t-109.5 48.5q-64 0 -105 -49.5t-41 -150.5q0 -102 41 -152z" />
    <glyph glyph-name="ampersand" unicode="&#x26;" horiz-adv-x="686" 
d="M137 15q-50 26 -77.5 71t-27.5 101q0 72 45.5 120t114.5 63l-18 17q-62 60 -62 122q0 48 27 85t75 56.5t108 19.5q71 0 124.5 -29t82 -82t27.5 -124h-113q-2 69 -32.5 108.5t-86.5 40.5q-43 0 -70.5 -24t-27.5 -61q0 -28 15.5 -52.5t53.5 -61.5l387 -385h-134l-122 115
q-14 -61 -63 -93.5t-113 -32.5q-63 0 -113 26zM156.5 137q16.5 -26 44 -41.5t58.5 -15.5q43 0 75.5 30t33.5 77l-117 116q-46 -2 -78.5 -33t-32.5 -78q0 -29 16.5 -55z" />
    <glyph glyph-name="quotesingle" unicode="'" horiz-adv-x="201" 
d="M22 660h99l58 -261h-98z" />
    <glyph glyph-name="parenleft" unicode="(" horiz-adv-x="384" 
d="M191.5 -5.5q-76.5 36.5 -123 119.5t-46.5 214t46.5 212.5t123 117.5t170.5 36v-104q-120 -2 -181.5 -63.5t-61.5 -198.5q0 -140 61.5 -202t181.5 -64v-104q-94 0 -170.5 36.5z" />
    <glyph glyph-name="parenright" unicode=")" horiz-adv-x="384" 
d="M203.5 126q61.5 62 61.5 202q0 137 -61.5 198.5t-181.5 63.5v104q94 0 170.5 -36t123 -117.5t46.5 -212.5t-46.5 -214t-123 -119.5t-170.5 -36.5v104q120 2 181.5 64z" />
    <glyph glyph-name="asterisk" unicode="*" horiz-adv-x="451" 
d="M185 357l-76 -77l-58 58l81 81h-110v82h108l-73 73l57 58l70 -70v98h82v-105l75 75l58 -59l-71 -70h102v-82h-104l77 -77l-57 -57l-80 80v-116h-81v108z" />
    <glyph glyph-name="plus" unicode="+" horiz-adv-x="445" 
d="M173 259h-151v97h150v152h98v-152h153v-97h-153v-162h-97v162z" />
    <glyph glyph-name="comma" unicode="," horiz-adv-x="185" 
d="M66 66h97l-43 -192h-98z" />
    <glyph glyph-name="hyphen" unicode="-" horiz-adv-x="430" 
d="M22 308h386v-98h-386v98z" />
    <glyph glyph-name="period" unicode="." horiz-adv-x="188" 
d="M42 19q-20 19 -20 46q0 28 20 46.5t52 18.5t52 -18.5t20 -46.5q0 -27 -20 -46t-52 -19t-52 19z" />
    <glyph glyph-name="slash" unicode="/" horiz-adv-x="427" 
d="M300 660h105l-278 -660h-105z" />
    <glyph glyph-name="zero" unicode="0" horiz-adv-x="612" 
d="M166.5 29.5q-64.5 39.5 -104.5 116.5t-40 185t40 184.5t104 115.5t137 39q77 0 142.5 -39t105 -115.5t39.5 -184.5t-39.5 -185t-104.5 -116.5t-143 -39.5q-72 0 -136.5 39.5zM176.5 147q49.5 -60 126.5 -60q83 0 132.5 59.5t49.5 184.5t-49.5 183.5t-132.5 58.5
q-77 0 -126.5 -59.5t-49.5 -182.5q0 -124 49.5 -184z" />
    <glyph glyph-name="one" unicode="1" horiz-adv-x="310" 
d="M22 97h84v466h-79v97h185v-563h76v-97h-266v97z" />
    <glyph glyph-name="two" unicode="2" horiz-adv-x="547" 
d="M131.5 258.5q53.5 45.5 156.5 67.5q67 14 99 40.5t32 74.5q0 64 -41.5 97.5t-118.5 33.5q-68 0 -102 -41.5t-30 -112.5h-105q-4 78 27 135t86 86.5t124 29.5q116 0 191 -55.5t75 -172.5q0 -94 -63 -144.5t-163 -70.5q-62 -13 -88 -33.5t-35 -66.5l-5 -29h326v-97h-441
l13 126q9 87 62.5 132.5z" />
    <glyph glyph-name="three" unicode="3" horiz-adv-x="540" 
d="M470.5 361q47.5 -52 47.5 -141q0 -68 -29.5 -120t-85 -81t-130.5 -29q-73 0 -130.5 36t-89.5 97.5t-31 134.5h105q9 -91 44.5 -131t101.5 -40q74 0 107 31t33 102q0 51 -25.5 77.5t-69.5 35.5t-112 9v80l129 143h-289v97l441 -2v-78l-136 -149q72 -20 119.5 -72z" />
    <glyph glyph-name="four" unicode="4" horiz-adv-x="553" 
d="M301 660h89v-396h141v-105h-141v-159h-105v159l-263 1v74zM285 264v181l-118 -181h118z" />
    <glyph glyph-name="five" unicode="5" horiz-adv-x="541" 
d="M78 660h381v-97h-291l-21 -120q45 68 147 68q104 0 164.5 -67.5t60.5 -181.5q0 -74 -31 -136t-88 -99t-130 -37q-60 0 -109.5 26t-82 71t-44.5 101h112q34 -92 124 -92q68 0 105.5 44.5t37.5 121.5t-35.5 114.5t-108.5 37.5q-113 0 -129 -94h-118z" />
    <glyph glyph-name="six" unicode="6" horiz-adv-x="538" 
d="M342.5 554.5q-35.5 18.5 -73.5 18.5q-74 0 -107.5 -39t-33.5 -131v-34q19 49 55.5 76t108.5 27q66 0 116.5 -27.5t79 -77.5t28.5 -117q0 -75 -31 -134t-87.5 -92.5t-130.5 -33.5t-129.5 33.5t-85.5 92.5t-30 134v147q0 140 60.5 206.5t187.5 66.5q103 0 161.5 -47
t76.5 -125l-121 1q-9 37 -44.5 55.5zM163.5 134.5q35.5 -38.5 103.5 -38.5q69 0 106.5 40.5t37.5 107.5q0 65 -35.5 100.5t-108.5 35.5q-69 0 -104 -38.5t-35 -97.5q0 -71 35.5 -109.5z" />
    <glyph glyph-name="seven" unicode="7" horiz-adv-x="454" 
d="M242 0h-107l190 563h-303v97h410v-81z" />
    <glyph glyph-name="eight" unicode="8" horiz-adv-x="502" 
d="M80 45q-58 55 -58 146q0 56 26 92.5t64 57.5q-45 19 -67.5 51.5t-22.5 86.5q0 89 60 140t166 51q104 0 168.5 -51t64.5 -140q0 -53 -25 -88.5t-69 -49.5q47 -21 70.5 -55t23.5 -97q0 -89 -61.5 -144t-171.5 -55t-168 55zM154.5 113.5q27.5 -26.5 93.5 -26.5
q126 0 126 102q0 56 -29 82.5t-97 26.5q-65 0 -93 -27.5t-28 -81.5q0 -49 27.5 -75.5zM154.5 411.5q27.5 -23.5 93.5 -23.5q67 0 96.5 23t29.5 66t-29 69.5t-97 26.5q-64 0 -92.5 -26t-28.5 -68q0 -44 27.5 -67.5z" />
    <glyph glyph-name="nine" unicode="9" horiz-adv-x="538" 
d="M195.5 104.5q35.5 -18.5 73.5 -18.5q74 0 107.5 39t33.5 131v34q-19 -49 -55.5 -76t-108.5 -27q-66 0 -116.5 27.5t-79 77.5t-28.5 117q0 75 31 134t87.5 92.5t130.5 33.5t129.5 -33.5t85.5 -92.5t30 -134v-147q0 -140 -60.5 -206.5t-187.5 -66.5q-103 0 -161.5 47
t-76.5 125l121 -1q9 -37 44.5 -55.5zM162.5 314.5q35.5 -35.5 108.5 -35.5q69 0 104 38.5t35 97.5q0 71 -35.5 109.5t-103.5 38.5q-69 0 -106.5 -40.5t-37.5 -107.5q0 -65 35.5 -100.5z" />
    <glyph glyph-name="colon" unicode=":" horiz-adv-x="189" 
d="M43 91q-20 19 -20 46q0 28 20 46.5t52 18.5t52 -18.5t20 -46.5q0 -27 -20 -46t-52 -19t-52 19zM42 442q-20 19 -20 46q0 28 20 46.5t52 18.5t52 -18.5t20 -46.5q0 -27 -20 -46t-52 -19t-52 19z" />
    <glyph glyph-name="semicolon" unicode=";" horiz-adv-x="211" 
d="M65 442q-20 19 -20 46q0 28 20 46.5t52 18.5t52 -18.5t20 -46.5q0 -27 -20 -46t-52 -19t-52 19zM66 99h97l-43 -192h-98z" />
    <glyph glyph-name="less" unicode="&#x3c;" horiz-adv-x="409" 
d="M22 281l248 215h118l-249 -217l236 -217h-115z" />
    <glyph glyph-name="equal" unicode="=" horiz-adv-x="429" 
d="M22 420h385v-97h-385v97zM22 290h385v-97h-385v97z" />
    <glyph glyph-name="greater" unicode="&#x3e;" horiz-adv-x="410" 
d="M271 279l-249 217h118l249 -215l-239 -219h-115z" />
    <glyph glyph-name="question" unicode="?" horiz-adv-x="534" 
d="M62 276.5q28 37.5 66.5 56.5t96.5 37l37 12l35 12q39 12 60.5 21.5t35.5 26t14 42.5q0 48 -27.5 68.5t-87.5 20.5q-79 0 -116.5 -30t-39.5 -102h-106q7 122 76 175.5t182 53.5q98 0 161 -45.5t63 -140.5q0 -61 -27.5 -99t-65 -56.5t-94.5 -36.5l-35 -12q-6 -2 -38 -13
q-39 -12 -61 -21.5t-36 -26t-14 -41.5v-39h-107v39q0 61 28 98.5zM41 93.5q18 17.5 50 17.5t50.5 -17.5t18.5 -41.5t-19 -42t-50 -18q-32 0 -50 18t-18 42t18 41.5z" />
    <glyph glyph-name="at" unicode="@" horiz-adv-x="644" 
d="M176 80q-71 42 -112.5 118t-41.5 173t39 164t107.5 101t156.5 34q84 0 151.5 -33.5t106.5 -100.5t39 -162q0 -98 -31.5 -153t-105.5 -55q-29 0 -49 13.5t-30.5 32.5t-11.5 34q-19 -31 -43.5 -44.5t-59.5 -13.5q-58 0 -94 45.5t-36 116.5q0 50 18.5 88t51.5 58t76 16
q27 -2 50.5 -17t36.5 -39v51h66v-208q0 -22 5.5 -35.5t25.5 -13.5q25 0 33.5 28.5t7.5 93.5q-1 107 -55.5 157t-151.5 50q-96 0 -151 -50.5t-55 -157.5q0 -83 30.5 -135.5t78.5 -75t103 -22.5v-100q-84 0 -155 42zM248.5 280.5q21.5 -24.5 58.5 -24.5q35 0 57.5 25t22.5 69
q0 43 -21.5 69.5t-58.5 26.5t-58.5 -25t-21.5 -71q0 -45 21.5 -69.5z" />
    <glyph glyph-name="A" unicode="A" horiz-adv-x="692" 
d="M313 660h77l280 -660h-112l-82 189h-256l-85 -189h-113zM431 292l-79 196l-86 -196h165z" />
    <glyph glyph-name="B" unicode="B" horiz-adv-x="519" 
d="M37.5 15.5q-15.5 15.5 -15.5 49.5v530q0 35 15 50t50 15h169q117 0 177.5 -49.5t60.5 -137.5q0 -50 -26.5 -90t-66.5 -54q96 -44 96 -142q0 -89 -60 -138t-181 -49h-169q-34 0 -49.5 15.5zM256 97q78 0 106.5 24t28.5 71q0 45 -30 66.5t-105 21.5h-129v-183h129zM256 378
q76 0 104 24t28 73q0 32 -11 50.5t-39.5 28t-81.5 9.5h-129v-185h129z" />
    <glyph glyph-name="C" unicode="C" horiz-adv-x="687" 
d="M603 113.5q-46 -58.5 -112 -91t-141 -32.5q-89 0 -164 43t-119.5 118.5t-44.5 170.5q0 97 42.5 176t117.5 124.5t169 45.5q78 0 143 -31.5t109 -88t61 -130.5h-109q-22 72 -77 112.5t-127 40.5q-63 0 -114 -31t-80.5 -87t-29.5 -128q0 -68 28.5 -122t79.5 -85t115 -31
q77 0 132.5 43.5t75.5 117.5h108q-17 -76 -63 -134.5z" />
    <glyph glyph-name="D" unicode="D" horiz-adv-x="613" 
d="M45.5 6q-14.5 6 -19 20.5t-4.5 44.5v518q0 30 4.5 44.5t19 20.5t44.5 6h179q94 0 166.5 -35t114.5 -107.5t42 -182.5q0 -109 -42 -184.5t-115 -113t-166 -37.5h-179q-30 0 -44.5 6zM269 97q62 0 111 27.5t77 81t28 129.5q0 125 -57 176.5t-159 51.5h-142v-466h142z" />
    <glyph glyph-name="E" unicode="E" horiz-adv-x="515" 
d="M45.5 6.5q-14.5 6.5 -19 21.5t-4.5 45v516q0 30 4.5 44.5t19 20.5t44.5 6h404v-97h-367v-198h319v-97h-319v-171h366v-97h-403q-30 0 -44.5 6.5z" />
    <glyph glyph-name="F" unicode="F" horiz-adv-x="499" 
d="M26.5 633.5q4.5 14.5 19 20.5t44.5 6h387v-97h-350v-198h297v-97h-297v-268h-105v589q0 30 4.5 44.5z" />
    <glyph glyph-name="G" unicode="G" horiz-adv-x="729" 
d="M707 97h-48v192q0 37 -7.5 55.5t-26 25.5t-54.5 7h-223v-98h214q0 -101 -61.5 -146.5t-158.5 -45.5q-62 0 -110.5 27.5t-76.5 82.5t-28 134t28 133.5t77 81.5t111 27q150 0 182 -118h106q-34 123 -116 169t-172 46q-84 0 -157 -36.5t-118.5 -112t-45.5 -188.5
q0 -106 43 -184t113.5 -118.5t151.5 -40.5q85 0 140.5 33t91.5 93v-45q0 -30 4.5 -44.5t19 -20.5t44.5 -6h77v97z" />
    <glyph glyph-name="H" unicode="H" horiz-adv-x="542" 
d="M22 660h106v-294h287v294h105v-660h-105v268h-288v-268h-105v660z" />
    <glyph glyph-name="I" unicode="I" horiz-adv-x="270" 
d="M22 97h60v466h-60v97h226v-97h-60v-466h60v-97h-226v97z" />
    <glyph glyph-name="J" unicode="J" horiz-adv-x="412" 
d="M366.5 654q14.5 -6 19 -20.5t4.5 -44.5v-365q0 -85 -28 -134t-84 -69.5t-145 -20.5h-111v97h111q60 0 92 12.5t46 45t14 94.5v314h-106v97h143q30 0 44.5 -6z" />
    <glyph glyph-name="K" unicode="K" horiz-adv-x="530" 
d="M128 660v-233l239 233h140l-315 -308h228q36 0 54.5 -7t26 -25.5t7.5 -55.5v-264h-105v254h-275l-1 -254h-105v660h106z" />
    <glyph glyph-name="L" unicode="L" horiz-adv-x="461" 
d="M22 660h105v-563h312v-97h-313q-52 0 -73 7.5t-26 27.5t-5 70v555z" />
    <glyph glyph-name="M" unicode="M" horiz-adv-x="682" 
d="M22 660h106l212 -268l224 268h97v-660h-106l1 509l-184 -225h-65l-179 216v-500h-106v660z" />
    <glyph glyph-name="N" unicode="N" horiz-adv-x="562" 
d="M22 660h85l328 -457v457h106l-2 -660h-85l-327 454v-454h-105v660z" />
    <glyph glyph-name="O" unicode="O" horiz-adv-x="695" 
d="M186 33q-75 43 -119.5 118.5t-44.5 170.5q0 97 42.5 176t117.5 124.5t169 45.5q93 0 167 -44.5t115 -122t41 -174.5q0 -96 -43.5 -173t-118 -120.5t-162.5 -43.5q-89 0 -164 43zM155 203q28 -54 79 -85t115 -31q63 0 112.5 29.5t78 83t28.5 124.5q0 74 -28.5 130
t-77.5 86.5t-111 30.5q-63 0 -114 -31t-80.5 -87t-29.5 -128q0 -68 28 -122z" />
    <glyph glyph-name="P" unicode="P" horiz-adv-x="497" 
d="M37 645q15 15 48 15h144q131 0 189 -64.5t58 -158.5t-58 -159.5t-189 -65.5h-102v-212h-105v595q0 35 15 50zM229 310q83 0 112 32t29 95q0 42 -10 68.5t-40.5 42t-90.5 15.5h-102v-253h102z" />
    <glyph glyph-name="Q" unicode="Q" horiz-adv-x="695" 
d="M64.5 498q42.5 79 117.5 124.5t169 45.5q93 0 167 -44.5t115 -122t41 -174.5q0 -84 -34 -154t-93.5 -116t-132.5 -60l-13 -59h79v-95h-130q-27 0 -44.5 14.5t-17.5 42.5q0 11 3 23l14 70q-79 10 -143.5 55t-102 116.5t-37.5 157.5q0 97 42.5 176zM155 203q28 -54 79 -85
t115 -31q63 0 112.5 29.5t78 83t28.5 124.5q0 74 -28.5 130t-77.5 86.5t-111 30.5q-63 0 -114 -31t-80.5 -87t-29.5 -128q0 -68 28 -122z" />
    <glyph glyph-name="R" unicode="R" horiz-adv-x="497" 
d="M37 645q15 15 48 15h161q127 0 178.5 -55.5t51.5 -149.5q0 -63 -29 -104.5t-78 -51.5q60 -21 83.5 -63.5t23.5 -107.5v-128h-106v128q0 42 -10 68.5t-40.5 42t-90.5 15.5h-102v-254h-105v595q0 35 15 50zM229 351q54 0 84.5 10t43.5 32t13 62q0 57 -28.5 82.5
t-104.5 25.5h-110v-212h102z" />
    <glyph glyph-name="S" unicode="S" horiz-adv-x="539" 
d="M349 550q-41 23 -107 23q-116 0 -116 -89q0 -26 14.5 -43t37 -26.5t63.5 -22.5l31 -10q-1 1 36 -11q61 -18 101 -37t69.5 -57t29.5 -99q0 -63 -31 -105t-80.5 -62.5t-104.5 -20.5q-104 0 -171.5 45.5t-96.5 151.5h107q19 -53 59 -76t102 -24q109 0 109 91q0 36 -29 54
t-90 36l-38 12l-32 10q-58 18 -97 37t-67 57t-28 100q0 94 62 140t160 46q102 0 175.5 -47.5t99.5 -147.5h-108q-19 52 -60 75z" />
    <glyph glyph-name="T" unicode="T" horiz-adv-x="518" 
d="M206 563h-184v97h475v-97h-185v-563h-106v563z" />
    <glyph glyph-name="U" unicode="U" horiz-adv-x="644" 
d="M103.5 69q-81.5 79 -81.5 259v332h105v-332q0 -241 197 -241q193 0 193 241v332h106v-332q0 -180 -77.5 -259t-221.5 -79q-139 0 -220.5 79z" />
    <glyph glyph-name="V" unicode="V" horiz-adv-x="699" 
d="M22 660h114l208 -513l219 513h114l-286 -660h-102z" />
    <glyph glyph-name="W" unicode="W" horiz-adv-x="877" 
d="M136 660l154 -449l108 449h81l108 -449l154 449h114l-235 -660h-89l-92 380l-92 -380h-90l-235 660h114z" />
    <glyph glyph-name="X" unicode="X" horiz-adv-x="649" 
d="M263 329l-240 331h115l180 -247l191 247h116l-251 -331l253 -329h-115l-194 247l-181 -247h-115z" />
    <glyph glyph-name="Y" unicode="Y" horiz-adv-x="624" 
d="M137 660l166 -300l184 300h115l-248 -403v-257h-106v257l-226 403h115z" />
    <glyph glyph-name="Z" unicode="Z" horiz-adv-x="524" 
d="M22 660h480v-76l-332 -478h332v-106h-480v77l333 477h-333v106z" />
    <glyph glyph-name="bracketleft" unicode="[" horiz-adv-x="382" 
d="M22 760h338v-97h-241v-666h241v-97h-338v860z" />
    <glyph glyph-name="backslash" unicode="\" horiz-adv-x="427" 
d="M300 0l-278 660h105l278 -660h-105z" />
    <glyph glyph-name="bracketright" unicode="]" horiz-adv-x="382" 
d="M22 -100v97h241v666h-241v97h338v-860h-338z" />
    <glyph glyph-name="asciicircum" unicode="^" horiz-adv-x="527" 
d="M265 670l240 -407h-90l-149 253l-154 -254h-90z" />
    <glyph glyph-name="underscore" unicode="_" horiz-adv-x="437" 
d="M22 97h393v-97h-393v97z" />
    <glyph glyph-name="a" unicode="a" horiz-adv-x="594" 
d="M134.5 23q-53.5 33 -83 92.5t-29.5 135.5q0 77 28.5 137.5t80.5 94.5t121 34q123 0 175 -94v84h105v-410h40v-97h-77q-42 0 -55 13.5t-13 51.5v25q-29 -50 -69 -75t-99 -25q-71 0 -124.5 33zM168 133q41 -46 109 -46q67 0 108.5 46.5t41.5 117.5q0 76 -42 122.5
t-110 46.5q-66 0 -107 -47t-41 -122q0 -72 41 -118z" />
    <glyph glyph-name="b" unicode="b" horiz-adv-x="554" 
d="M195.5 13.5q-40.5 23.5 -67.5 71.5v-85h-106v660h105v-238q55 95 168 95q71 0 124.5 -33.5t83 -94t29.5 -138.5q0 -76 -29.5 -135.5t-83 -92.5t-124.5 -33q-59 0 -99.5 23.5zM169.5 134.5q41.5 -47.5 108.5 -47.5t108 46t41 118q0 75 -40 122t-107 47q-68 0 -110 -47
t-42 -119t41.5 -119.5z" />
    <glyph glyph-name="c" unicode="c" horiz-adv-x="549" 
d="M483 87q-34 -48 -85 -75.5t-111 -27.5q-81 0 -141 34.5t-92 95t-32 137.5t31.5 137.5t91 94.5t140.5 34q59 0 110.5 -25.5t86 -71t45.5 -103.5h-105q-11 47 -49.5 75t-91.5 28q-74 0 -114 -46.5t-40 -122.5q0 -74 42.5 -121.5t114.5 -47.5q109 0 137 114h106
q-10 -61 -44 -109z" />
    <glyph glyph-name="d" unicode="d" horiz-adv-x="554" 
d="M134.5 23q-53.5 33 -83 92.5t-29.5 135.5q0 77 28.5 137.5t80.5 94.5t121 34q61 0 105.5 -24.5t69.5 -69.5v237h105v-660h-105v85q-28 -48 -68.5 -71.5t-99.5 -23.5q-71 0 -124.5 33zM168.5 133q41.5 -46 108.5 -46q66 0 108 46t42 118q0 76 -41.5 122.5t-110.5 46.5
q-67 0 -107.5 -47t-40.5 -122q0 -72 41.5 -118z" />
    <glyph glyph-name="e" unicode="e" horiz-adv-x="553" 
d="M430.5 38.5q-63.5 -48.5 -152.5 -48.5q-76 0 -134.5 34.5t-90 93t-31.5 130.5q0 83 31 143.5t88.5 93t134.5 32.5q68 0 127.5 -34t94.5 -97t33 -145l-404 -1q0 -40 20.5 -75.5t55 -56.5t75.5 -21q54 0 85.5 20.5t48.5 58.5h106q-24 -79 -87.5 -127.5zM418 313
q-13 49 -51 78t-91 29q-54 0 -91.5 -29t-49.5 -78h283z" />
    <glyph glyph-name="f" unicode="f" horiz-adv-x="373" 
d="M72 321h-50v98h50v145q0 37 4.5 56.5t20.5 29.5t49 10h205v-97h-173v-144h117v-98h-117v-321h-106v321z" />
    <glyph glyph-name="g" unicode="g" horiz-adv-x="576" 
d="M67 -241.5q-45 36.5 -45 107.5q0 59 46.5 94.5t130.5 35.5h169q25 0 39 11t14 26q0 6 -1 9q-2 7 -7.5 12.5t-12.5 6.5q-55 -35 -123 -35q-74 0 -132 30.5t-90.5 86t-32.5 126.5q0 73 32 129t90 87.5t134 31.5q63 0 96 -10h174v-73h-69q29 -33 44.5 -76t15.5 -89
q0 -44 -13.5 -84t-39.5 -72q17 -15 28.5 -36.5t11.5 -48.5q0 -56 -41 -93t-124 -37h-162q-72 0 -72 -43q0 -23 17 -32.5t55 -9.5h161q28 0 39 13t11 44h98q0 -74 -34 -111t-114 -37h-161q-87 0 -132 36.5zM146.5 194.5q19.5 -33.5 53 -52.5t73.5 -19q74 0 117 38t43 108
q0 69 -40 110t-118 41q-67 0 -107.5 -43t-40.5 -108q0 -41 19.5 -74.5z" />
    <glyph glyph-name="h" unicode="h" horiz-adv-x="517" 
d="M22 660h105v-239q20 44 62.5 70t98.5 26q100 0 153.5 -70.5t53.5 -192.5v-254h-106v254q0 87 -31.5 126.5t-96.5 39.5q-59 0 -96.5 -42t-37.5 -124l1 -254h-106v660z" />
    <glyph glyph-name="i" unicode="i" horiz-adv-x="270" 
d="M168 497.5q14 -9.5 17 -27.5t3 -58v-315h60v-97h-84q-41 0 -58 10t-20.5 27.5t-3.5 58.5v314h-60v97h100q32 0 46 -9.5zM56 653q19 18 49 18t48.5 -18t18.5 -45t-18.5 -45t-48.5 -18t-49 18t-19 45t19 45z" />
    <glyph glyph-name="j" unicode="j" horiz-adv-x="348" 
d="M22 -125h182v632h105v-633q0 -42 -3 -59t-20.5 -27t-58.5 -10h-205v97zM210 653q19 18 49 18q29 0 48 -18t19 -45t-19 -45t-48 -18q-30 0 -49 18t-19 45t19 45z" />
    <glyph glyph-name="k" unicode="k" horiz-adv-x="473" 
d="M324 218h-197v-218h-105v660h105v-301l189 148h135l-243 -191h149q36 0 51 -10t18.5 -28t3.5 -58v-220h-106v218z" />
    <glyph glyph-name="l" unicode="l" horiz-adv-x="209" 
d="M46.5 10q-15.5 10 -20 29.5t-4.5 56.5v564h105v-563h61v-97h-93q-33 0 -48.5 10z" />
    <glyph glyph-name="m" unicode="m" horiz-adv-x="880" 
d="M22 507h105v-77q57 87 152 87q60 0 105 -33t66 -86q22 56 72 87.5t109 31.5q65 0 116.5 -28.5t81 -85t29.5 -137.5v-266h-105v257q0 86 -28.5 124.5t-93.5 38.5t-98.5 -41.5t-33.5 -121.5l1 -257h-106v257q0 85 -28 124t-94 39t-105 -42t-39 -114v-264h-106v507z" />
    <glyph glyph-name="n" unicode="n" horiz-adv-x="518" 
d="M22 507h105v-86q19 42 58.5 68.5t91.5 27.5q105 4 162 -64.5t57 -191.5v-261h-105v261q0 85 -32.5 122t-98.5 37q-59 0 -96.5 -42t-37.5 -122l1 -256h-105v507z" />
    <glyph glyph-name="o" unicode="o" horiz-adv-x="557" 
d="M145.5 18.5q-58.5 34.5 -91 95t-32.5 136.5q0 77 31.5 137.5t90 95t135.5 34.5t135 -34.5t89.5 -95t31.5 -137.5q0 -75 -31.5 -136t-89.5 -95.5t-133 -34.5q-77 0 -135.5 34.5zM168.5 130q41.5 -48 107.5 -48q68 0 111 47.5t43 120.5q0 75 -42.5 122.5t-111.5 47.5
q-67 0 -108 -47.5t-41 -122.5q0 -72 41.5 -120z" />
    <glyph glyph-name="p" unicode="p" horiz-adv-x="554" 
d="M22 507h106l-1 -85q26 45 69 70t102 25q70 0 123 -33t82 -92.5t29 -135.5q0 -77 -28.5 -137.5t-80.5 -94.5t-121 -34q-61 0 -105.5 24.5t-69.5 69.5v-237h-105v660zM169 134.5q41 -46.5 109 -47.5q68 0 108.5 47t40.5 122q0 72 -41 118t-108 46t-108.5 -46t-41.5 -118
q0 -75 41 -121.5z" />
    <glyph glyph-name="q" unicode="q" horiz-adv-x="554" 
d="M427 -153v237q-25 -45 -69.5 -69.5t-105.5 -24.5q-69 0 -121 34t-80.5 94.5t-28.5 137.5q0 76 29.5 135.5t83 92.5t124.5 33q59 0 99.5 -23.5t68.5 -71.5v85h105v-660h-105zM168 134q41 -47 109 -47q68 1 109 47.5t41 121.5q0 72 -42 118t-108 46q-67 0 -108.5 -46
t-41.5 -118q0 -75 41 -122z" />
    <glyph glyph-name="r" unicode="r" horiz-adv-x="294" 
d="M26.5 467.5q4.5 19.5 20 29.5t48.5 10h177v-97h-145v-410h-105v411q0 37 4.5 56.5z" />
    <glyph glyph-name="s" unicode="s" horiz-adv-x="439" 
d="M162.5 102.5q25.5 -15.5 75.5 -15.5q40 0 59 10.5t19 39.5q0 27 -23 41t-79 28q-87 21 -138.5 56t-51.5 105q0 76 52.5 112.5t128.5 36.5q69 0 128.5 -37t81.5 -129h-106q-17 69 -101 69q-82 0 -82 -52q0 -26 29.5 -43t86.5 -31q82 -20 128.5 -54t46.5 -101
q0 -72 -49 -110t-122 -38q-199 0 -221 169h106q6 -41 31.5 -56.5z" />
    <glyph glyph-name="t" unicode="t" horiz-adv-x="390" 
d="M122.5 10q-15.5 10 -20 29.5t-4.5 56.5v314h-76v97h76v153h105v-153h142v-97h-142v-313h165v-97h-197q-33 0 -48.5 10z" />
    <glyph glyph-name="u" unicode="u" horiz-adv-x="556" 
d="M402.5 13.5q-13.5 13.5 -13.5 51.5v21q-20 -44 -62.5 -70t-99.5 -26q-99 0 -152 70t-53 191v256h105v-256q0 -87 31.5 -125.5t97.5 -38.5q59 0 96.5 42t37.5 122l-1 256h106v-410h39v-97h-76q-42 0 -55.5 13.5z" />
    <glyph glyph-name="v" unicode="v" horiz-adv-x="560" 
d="M539 507l-229 -507h-78l-210 507h115l136 -359l151 359h115z" />
    <glyph glyph-name="w" unicode="w" horiz-adv-x="712" 
d="M127 507l80 -355l106 355h87l118 -355l67 355h105l-105 -507h-107l-119 347l-117 -347h-106l-114 507h105z" />
    <glyph glyph-name="x" unicode="x" horiz-adv-x="528" 
d="M202 254l-177 253h115l121 -189l130 189h115l-192 -253l188 -254h-115l-126 194l-124 -194h-115z" />
    <glyph glyph-name="y" unicode="y" horiz-adv-x="546" 
d="M128 507l127 -341l164 341h106l-299 -612q-10 -22 -19 -30.5t-18.5 -10t-35.5 -1.5h-110v97h97l56 117l-174 440h106z" />
    <glyph glyph-name="z" unicode="z" horiz-adv-x="470" 
d="M22 507h423l1 -105l-280 -296h277v-106h-418v106l288 295h-291v106z" />
    <glyph glyph-name="braceleft" unicode="{" horiz-adv-x="360" 
d="M163.5 45q-56.5 55 -56.5 154q0 49 -8 69t-22.5 23t-54.5 4v79q33 2 50.5 10t25.5 28.5t9 61.5q8 206 231 210v-84q-72 -5 -102.5 -32.5t-30.5 -93.5q0 -97 -46 -138q46 -38 46 -137q0 -118 133 -127v-83q-118 1 -174.5 56z" />
    <glyph glyph-name="bar" unicode="|" horiz-adv-x="141" 
d="M22 677h97v-697h-97v697z" />
    <glyph glyph-name="braceright" unicode="}" horiz-adv-x="360" 
d="M155 199q0 99 46 137q-46 41 -46 138q0 66 -30.5 93.5t-102.5 32.5v84q223 -4 231 -210q1 -41 9 -61.5t25.5 -28.5t50.5 -10v-79q-40 -1 -54.5 -4t-22.5 -23t-8 -69q0 -99 -56.5 -154t-174.5 -56v83q133 9 133 127z" />
    <glyph glyph-name="exclamdown" unicode="&#xa1;" horiz-adv-x="192" 
d="M146 496v-496h-105v496h105zM41.5 641q19.5 19 51.5 19t53 -19t21 -47q0 -29 -20 -48t-54 -19q-32 0 -51.5 19t-19.5 48q0 28 19.5 47z" />
    <glyph glyph-name="cent" unicode="&#xa2;" horiz-adv-x="678" 
d="M558.5 72.5q-76.5 -69.5 -180.5 -80.5v-106h-82l1 107q-77 11 -139.5 55t-99 115.5t-36.5 160.5q0 92 35.5 165.5t98 120t141.5 57.5l1 101h81l-1 -100q106 -10 180 -76.5t97 -173.5h-109q-21 74 -75 114.5t-126 40.5q-62 0 -111.5 -30t-78 -86t-28.5 -130
q0 -71 27.5 -125.5t77 -84.5t112.5 -30q77 0 131.5 43.5t73.5 120.5h108q-22 -109 -98.5 -178.5z" />
    <glyph glyph-name="sterling" unicode="&#xa3;" horiz-adv-x="589" 
d="M104.5 144q26.5 30 32.5 62h-115v82l101 -1q-46 69 -46 155q0 102 59 164.5t168 62.5q111 0 180.5 -53.5t81.5 -199.5h-102q-2 88 -41 122t-118 34q-72 0 -102.5 -32t-30.5 -100q0 -37 11 -69.5t36 -83.5h214v-81h-197q-8 -62 -62 -109h383v-97h-527v97q48 17 74.5 47z
" />
    <glyph glyph-name="yen" unicode="&#xa5;" horiz-adv-x="624" 
d="M137 660l166 -300l184 300h115l-248 -403v-16h173v-97h-173v-33h173v-97h-173v-14h-106v14h-179v97h179v33h-179v97h179v16l-226 403h115z" />
    <glyph glyph-name="section" unicode="&#xa7;" horiz-adv-x="500" 
d="M185.5 8.5q33.5 -17.5 82.5 -17.5q54 0 85 15t31 51q0 30 -35.5 48.5t-103.5 30.5q-93 16 -157.5 57t-65.5 112q0 82 68 119q-54 43 -54 103q0 78 58 110t143 32q68 0 128 -32.5t85 -119.5h-84q-11 36 -45.5 53.5t-85.5 17.5q-60 0 -89 -12t-29 -49q0 -32 39.5 -55
t112.5 -35q88 -15 149 -53t61 -109q0 -39 -20 -68t-52 -47q58 -41 58 -104q0 -76 -58 -111t-135 -35q-71 0 -128.5 31.5t-94.5 127.5h86q17 -43 50.5 -60.5zM142.5 252q39.5 -23 112.5 -36q32 -4 45 -4q45 0 71.5 16.5t26.5 48.5q0 30 -36 49t-104 30q-8 1 -19 5
q-29 7 -37 8t-22 1q-36 0 -56.5 -16t-20.5 -47q0 -32 39.5 -55z" />
    <glyph glyph-name="copyright" unicode="&#xa9;" horiz-adv-x="548" 
d="M146.5 130q-56.5 33 -90.5 98t-34 157q0 91 34 155.5t91 97t125 32.5q73 0 130.5 -32.5t91 -96.5t33.5 -156q0 -93 -33.5 -157.5t-91.5 -97.5t-130 -33q-69 0 -125.5 33zM134 211q52 -57 138 -57q92 0 143.5 56.5t51.5 173.5q0 115 -52 172t-143 57q-86 0 -138 -57.5
t-52 -171.5q0 -116 52 -173zM165 496.5q41 43.5 112 43.5q53 0 92.5 -33t50.5 -85h-59q-7 29 -30.5 46t-55.5 17q-44 0 -68 -28t-24 -74q0 -45 25.5 -73.5t68.5 -28.5q65 0 84 70h58q-9 -54 -48 -89t-92 -35q-71 0 -113 43.5t-42 112.5q0 70 41 113.5z" />
    <glyph glyph-name="ordfeminine" unicode="&#xaa;" horiz-adv-x="436" 
d="M68.5 345q-46.5 52 -46.5 134q0 84 45 137t119 53q88 0 125 -67v60h75v-293h29v-69h-55q-30 0 -39.5 9.5t-9.5 36.5v18q-20 -35 -48.5 -53t-70.5 -18q-77 0 -123.5 52zM126 395q29 -33 78 -33q48 0 77.5 33t29.5 84q0 54 -30.5 87.5t-78.5 33.5q-47 0 -76 -33.5
t-29 -87.5q0 -51 29 -84z" />
    <glyph glyph-name="guillemotleft" unicode="&#xab;" horiz-adv-x="555" 
d="M18 281l248 215h112l-248 -218l236 -212h-110zM174 282l248 215h112l-248 -218l236 -212h-110z" />
    <glyph glyph-name="registered" unicode="&#xae;" horiz-adv-x="528" 
d="M141.5 151.5q-54.5 31.5 -87 94t-32.5 150.5t32.5 150t87 93t120.5 31q70 0 125.5 -31t87.5 -92.5t32 -150.5t-32 -151t-88 -93.5t-125 -31.5q-66 0 -120.5 31.5zM123 222q52 -57 139 -57q92 0 143.5 56.5t51.5 174.5q0 116 -51.5 172.5t-143.5 56.5q-86 0 -138.5 -57
t-52.5 -172q0 -117 52 -174zM160 562h103q65 0 93.5 -31t28.5 -77q0 -31 -14.5 -58t-43.5 -36q49 -18 49 -87v-39h-42v39q1 34 -15 53t-64 19h-54v-111h-41v328zM263 382q46 0 63 19t17 53q0 33 -16.5 51.5t-63.5 18.5h-62v-142h62z" />
    <glyph glyph-name="degree" unicode="&#xb0;" horiz-adv-x="268" 
d="M52.5 485q-30.5 33 -30.5 77t31 76t82 32q50 0 80.5 -32t30.5 -76q0 -45 -29.5 -77.5t-82.5 -32.5q-51 0 -81.5 33zM75.5 506q21.5 -23 58.5 -23q38 0 59 23t21 55t-21.5 55t-57.5 23t-58.5 -22.5t-22.5 -55.5q0 -32 21.5 -55z" />
    <glyph glyph-name="plusminus" unicode="&#xb1;" horiz-adv-x="446" 
d="M173 372h-151v97h150v152h98v-152h153v-97h-153v-162h-97v162zM29 171h386v-98h-386v98z" />
    <glyph glyph-name="uni00B2" unicode="&#xb2;" horiz-adv-x="379" 
d="M95.5 396.5q35.5 30.5 103.5 44.5q45 9 66.5 27.5t21.5 49.5q0 43 -28 65t-79 22q-45 0 -67.5 -27.5t-20.5 -74.5h-70q-2 52 18.5 89.5t57 57.5t82.5 20q77 0 127 -37t50 -115q0 -113 -150 -143q-42 -9 -59 -22.5t-23 -44.5l-4 -19h218v-65h-294l8 84q7 58 42.5 88.5z
" />
    <glyph glyph-name="uni00B3" unicode="&#xb3;" horiz-adv-x="374" 
d="M321.5 470.5q31.5 -34.5 31.5 -93.5q0 -69 -44 -111.5t-120 -42.5q-48 0 -86.5 24t-59.5 65t-21 90h70q6 -61 29.5 -87.5t67.5 -26.5q50 0 72 20.5t22 68.5q0 49 -34.5 65t-103.5 16v53l86 96h-193v64l294 -1v-52l-91 -99q49 -14 80.5 -48.5z" />
    <glyph glyph-name="periodcentered" unicode="&#xb7;" horiz-adv-x="188" 
d="M42 257q-20 19 -20 46q0 28 20 46.5t52 18.5t52 -18.5t20 -46.5q0 -27 -20 -46t-52 -19t-52 19z" />
    <glyph glyph-name="uni00B9" unicode="&#xb9;" horiz-adv-x="210" 
d="M22 320h53v291h-50v61h116v-352h47v-61h-166v61z" />
    <glyph glyph-name="ordmasculine" unicode="&#xba;" horiz-adv-x="327" 
d="M61 419q-39 41 -39 105q0 65 39 106.5t103 41.5t103 -41.5t39 -106.5q0 -64 -39 -105.5t-103 -41.5q-64 1 -103 42zM103.5 457.5q23.5 -26.5 60.5 -26.5t60.5 26.5t23.5 66.5q0 41 -23.5 67.5t-60.5 27.5q-37 0 -60.5 -26.5t-23.5 -68.5q0 -40 23.5 -66.5z" />
    <glyph glyph-name="guillemotright" unicode="&#xbb;" horiz-adv-x="564" 
d="M194 57l236 212l-248 218h112l248 -215l-238 -215h-110zM138 488l248 -215l-238 -215h-110l236 212l-248 218h112z" />
    <glyph glyph-name="questiondown" unicode="&#xbf;" horiz-adv-x="534" 
d="M472 383.5q-28 -37.5 -66.5 -56.5t-96.5 -37l-37 -12l-35 -12q-39 -12 -60.5 -21.5t-35.5 -26t-14 -42.5q0 -48 27.5 -68.5t87.5 -20.5q79 0 116.5 30t39.5 102h106q-7 -122 -76 -175.5t-182 -53.5q-98 0 -161 45.5t-63 140.5q0 61 27.5 99t65 56.5t94.5 36.5l35 12
q7 3 38 13q39 12 61 21.5t36 26t14 41.5v39h107v-39q0 -61 -28 -98.5zM393 650q19 18 50 18q32 0 50 -18t18 -42t-18 -41.5t-50 -17.5t-50.5 17.5t-18.5 41.5t19 42z" />
    <glyph glyph-name="Agrave" unicode="&#xc0;" horiz-adv-x="692" 
d="M313 660h77l280 -660h-112l-82 189h-256l-85 -189h-113zM431 292l-79 196l-86 -196h165zM204 932h94l93 -232h-95z" />
    <glyph glyph-name="Aacute" unicode="&#xc1;" horiz-adv-x="692" 
d="M313 660h77l280 -660h-112l-82 189h-256l-85 -189h-113zM431 292l-79 196l-86 -196h165zM312 696l93 232h94l-92 -232h-95z" />
    <glyph glyph-name="Acircumflex" unicode="&#xc2;" horiz-adv-x="692" 
d="M313 660h77l280 -660h-112l-82 189h-256l-85 -189h-113zM431 292l-79 196l-86 -196h165zM337 958l166 -248h-102l-63 100l-63 -101h-102z" />
    <glyph glyph-name="Atilde" unicode="&#xc3;" horiz-adv-x="692" 
d="M313 660h77l280 -660h-112l-82 189h-256l-85 -189h-113zM431 292l-79 196l-86 -196h165zM170 717q0 53 26 84.5t66 31.5q6 0 20 -2q14 -3 26 -10t29 -20q23 -17 31 -19t12 -2q15 0 23 13t14 39h84q-5 -54 -39 -95.5t-79 -41.5q-24 0 -40.5 9.5t-37.5 26.5q-22 20 -34 20
q-11 0 -15.5 -13.5t-4.5 -42.5h-80q-1 8 -1 22z" />
    <glyph glyph-name="Adieresis" unicode="&#xc4;" horiz-adv-x="692" 
d="M313 660h77l280 -660h-112l-82 189h-256l-85 -189h-113zM431 292l-79 196l-86 -196h165zM206.5 715.5q-19.5 17.5 -19.5 43.5q0 27 19.5 45.5t51.5 18.5q31 0 50 -18.5t19 -45.5q0 -25 -19.5 -43t-49.5 -18q-32 0 -51.5 17.5zM362.5 804q19.5 19 50.5 19q32 0 51.5 -18.5
t19.5 -45.5q0 -25 -20.5 -43t-50.5 -18q-31 0 -50.5 18t-19.5 43q0 26 19.5 45z" />
    <glyph glyph-name="Aring" unicode="&#xc5;" horiz-adv-x="692" 
d="M313 660h77l280 -660h-112l-82 189h-256l-85 -189h-113zM431 292l-79 196l-86 -196h165zM284.5 713q-26.5 15 -41.5 39.5t-15 51.5q0 46 33 77t81 31q51 0 84 -30.5t33 -77.5q0 -43 -33.5 -74.5t-83.5 -31.5q-31 0 -57.5 15zM300 767q17 -16 42 -16q26 0 43.5 16t17.5 38
q0 24 -17 39.5t-44 15.5q-25 0 -42 -16t-17 -39q0 -22 17 -38z" />
    <glyph glyph-name="AE" unicode="&#xc6;" horiz-adv-x="1017" 
d="M302 660h73l149 -366v295q0 30 4.5 44.5t19 20.5t44.5 6h404v-97h-367v-198h319v-97h-319v-171h366v-97h-458l-79 189h-246l-81 -189h-109zM415 292l-76 196l-83 -196h159z" />
    <glyph glyph-name="Ccedilla" unicode="&#xc7;" horiz-adv-x="687" 
d="M289 -193q58 0 80 9t22 31q0 20 -25 27.5t-89 7.5q-41 0 -66 -1l-1 53l44 70q-67 20 -119.5 65.5t-82.5 110.5t-30 142q0 97 42.5 176t117.5 124.5t169 45.5q78 0 143 -31.5t109 -88t61 -130.5h-109q-22 72 -77 112.5t-127 40.5q-63 0 -114 -31t-80.5 -87t-29.5 -128
q0 -68 28.5 -122t79.5 -85t115 -31q77 0 132.5 43.5t75.5 117.5h108q-17 -76 -63 -134.5t-112 -91t-141 -32.5h-16l-19 -30q159 -10 159 -113q0 -51 -25.5 -77t-66.5 -34.5t-103 -8.5l-65 1v81q60 -2 75 -2z" />
    <glyph glyph-name="Egrave" unicode="&#xc8;" horiz-adv-x="515" 
d="M45.5 6.5q-14.5 6.5 -19 21.5t-4.5 45v516q0 30 4.5 44.5t19 20.5t44.5 6h404v-97h-367v-198h319v-97h-319v-171h366v-97h-403q-30 0 -44.5 6.5zM132 923h94l93 -232h-95z" />
    <glyph glyph-name="Eacute" unicode="&#xc9;" horiz-adv-x="515" 
d="M45.5 6.5q-14.5 6.5 -19 21.5t-4.5 45v516q0 30 4.5 44.5t19 20.5t44.5 6h404v-97h-367v-198h319v-97h-319v-171h366v-97h-403q-30 0 -44.5 6.5zM240 688l93 232h94l-92 -232h-95z" />
    <glyph glyph-name="Ecircumflex" unicode="&#xca;" horiz-adv-x="515" 
d="M45.5 6.5q-14.5 6.5 -19 21.5t-4.5 45v516q0 30 4.5 44.5t19 20.5t44.5 6h404v-97h-367v-198h319v-97h-319v-171h366v-97h-403q-30 0 -44.5 6.5zM265 950l166 -248h-102l-63 100l-63 -101h-102z" />
    <glyph glyph-name="Edieresis" unicode="&#xcb;" horiz-adv-x="515" 
d="M45.5 6.5q-14.5 6.5 -19 21.5t-4.5 45v516q0 30 4.5 44.5t19 20.5t44.5 6h404v-97h-367v-198h319v-97h-319v-171h366v-97h-403q-30 0 -44.5 6.5zM134.5 707.5q-19.5 17.5 -19.5 43.5q0 27 19.5 45.5t51.5 18.5q31 0 50 -18.5t19 -45.5q0 -25 -19.5 -43t-49.5 -18
q-32 0 -51.5 17.5zM290.5 796q19.5 19 50.5 19q32 0 51.5 -18.5t19.5 -45.5q0 -25 -20.5 -43t-50.5 -18q-31 0 -50.5 18t-19.5 43q0 26 19.5 45z" />
    <glyph glyph-name="Igrave" unicode="&#xcc;" horiz-adv-x="283" 
d="M36 97h60v466h-60v97h226v-97h-60v-466h60v-97h-226v97zM22 922h94l93 -232h-95z" />
    <glyph glyph-name="Iacute" unicode="&#xcd;" horiz-adv-x="309" 
d="M22 97h60v466h-60v97h226v-97h-60v-466h60v-97h-226v97zM117 686l93 232h94l-92 -232h-95z" />
    <glyph glyph-name="Icircumflex" unicode="&#xce;" horiz-adv-x="365" 
d="M66 97h60v466h-60v97h226v-97h-60v-466h60v-97h-226v97zM186 948l166 -248h-102l-63 100l-63 -101h-102z" />
    <glyph glyph-name="Idieresis" unicode="&#xcf;" horiz-adv-x="336" 
d="M52 97h60v466h-60v97h226v-97h-60v-466h60v-97h-226v97zM41.5 705.5q-19.5 17.5 -19.5 43.5q0 27 19.5 45.5t51.5 18.5q31 0 50 -18.5t19 -45.5q0 -25 -19.5 -43t-49.5 -18q-32 0 -51.5 17.5zM197.5 794q19.5 19 50.5 19q32 0 51.5 -18.5t19.5 -45.5q0 -25 -20.5 -43
t-50.5 -18q-31 0 -50.5 18t-19.5 43q0 26 19.5 45z" />
    <glyph glyph-name="Ntilde" unicode="&#xd1;" horiz-adv-x="562" 
d="M22 660h85l328 -457v457h106l-2 -660h-85l-327 454v-454h-105v660zM91 708q0 53 26 84.5t66 31.5q6 0 20 -2q14 -3 26 -10t29 -20q23 -17 31 -19t12 -2q15 0 23 13t14 39h84q-5 -54 -39 -95.5t-79 -41.5q-24 0 -40.5 9.5t-37.5 26.5q-22 20 -34 20q-11 0 -15.5 -13.5
t-4.5 -42.5h-80q-1 8 -1 22z" />
    <glyph glyph-name="Ograve" unicode="&#xd2;" horiz-adv-x="695" 
d="M186 33q-75 43 -119.5 118.5t-44.5 170.5q0 97 42.5 176t117.5 124.5t169 45.5q93 0 167 -44.5t115 -122t41 -174.5q0 -96 -43.5 -173t-118 -120.5t-162.5 -43.5q-89 0 -164 43zM155 203q28 -54 79 -85t115 -31q63 0 112.5 29.5t78 83t28.5 124.5q0 74 -28.5 130
t-77.5 86.5t-111 30.5q-63 0 -114 -31t-80.5 -87t-29.5 -128q0 -68 28 -122zM203 943h94l93 -232h-95z" />
    <glyph glyph-name="Oacute" unicode="&#xd3;" horiz-adv-x="695" 
d="M186 33q-75 43 -119.5 118.5t-44.5 170.5q0 97 42.5 176t117.5 124.5t169 45.5q93 0 167 -44.5t115 -122t41 -174.5q0 -96 -43.5 -173t-118 -120.5t-162.5 -43.5q-89 0 -164 43zM155 203q28 -54 79 -85t115 -31q63 0 112.5 29.5t78 83t28.5 124.5q0 74 -28.5 130
t-77.5 86.5t-111 30.5q-63 0 -114 -31t-80.5 -87t-29.5 -128q0 -68 28 -122zM311 708l93 232h94l-92 -232h-95z" />
    <glyph glyph-name="Ocircumflex" unicode="&#xd4;" horiz-adv-x="695" 
d="M186 33q-75 43 -119.5 118.5t-44.5 170.5q0 97 42.5 176t117.5 124.5t169 45.5q93 0 167 -44.5t115 -122t41 -174.5q0 -96 -43.5 -173t-118 -120.5t-162.5 -43.5q-89 0 -164 43zM155 203q28 -54 79 -85t115 -31q63 0 112.5 29.5t78 83t28.5 124.5q0 74 -28.5 130
t-77.5 86.5t-111 30.5q-63 0 -114 -31t-80.5 -87t-29.5 -128q0 -68 28 -122zM336 970l166 -248h-102l-63 100l-63 -101h-102z" />
    <glyph glyph-name="Otilde" unicode="&#xd5;" horiz-adv-x="695" 
d="M186 33q-75 43 -119.5 118.5t-44.5 170.5q0 97 42.5 176t117.5 124.5t169 45.5q93 0 167 -44.5t115 -122t41 -174.5q0 -96 -43.5 -173t-118 -120.5t-162.5 -43.5q-89 0 -164 43zM155 203q28 -54 79 -85t115 -31q63 0 112.5 29.5t78 83t28.5 124.5q0 74 -28.5 130
t-77.5 86.5t-111 30.5q-63 0 -114 -31t-80.5 -87t-29.5 -128q0 -68 28 -122zM169 728q0 53 26 84.5t66 31.5q6 0 20 -2q14 -3 26 -10t29 -20q23 -17 31 -19t12 -2q15 0 23 13t14 39h84q-5 -54 -39 -95.5t-79 -41.5q-24 0 -40.5 9.5t-37.5 26.5q-22 20 -34 20
q-11 0 -15.5 -13.5t-4.5 -42.5h-80q-1 8 -1 22z" />
    <glyph glyph-name="Odieresis" unicode="&#xd6;" horiz-adv-x="695" 
d="M186 33q-75 43 -119.5 118.5t-44.5 170.5q0 97 42.5 176t117.5 124.5t169 45.5q93 0 167 -44.5t115 -122t41 -174.5q0 -96 -43.5 -173t-118 -120.5t-162.5 -43.5q-89 0 -164 43zM155 203q28 -54 79 -85t115 -31q63 0 112.5 29.5t78 83t28.5 124.5q0 74 -28.5 130
t-77.5 86.5t-111 30.5q-63 0 -114 -31t-80.5 -87t-29.5 -128q0 -68 28 -122zM205.5 727.5q-19.5 17.5 -19.5 43.5q0 27 19.5 45.5t51.5 18.5q31 0 50 -18.5t19 -45.5q0 -25 -19.5 -43t-49.5 -18q-32 0 -51.5 17.5zM361.5 816q19.5 19 50.5 19q32 0 51.5 -18.5t19.5 -45.5
q0 -25 -20.5 -43t-50.5 -18q-31 0 -50.5 18t-19.5 43q0 26 19.5 45z" />
    <glyph glyph-name="multiply" unicode="&#xd7;" horiz-adv-x="405" 
d="M136 313l-107 107l69 68l106 -106l108 108l69 -70l-108 -107l109 -108l-69 -69l-108 108l-115 -114l-68 68z" />
    <glyph glyph-name="Oslash" unicode="&#xd8;" horiz-adv-x="695" 
d="M287 -4l-26 -75h-105l37 108q-78 42 -124.5 119t-46.5 174t42.5 176t117.5 124.5t169 45.5q33 0 63 -6l20 58h105l-31 -90q77 -42 121.5 -122.5t44.5 -180.5q0 -96 -43.5 -173t-118 -120.5t-162.5 -43.5q-33 0 -63 6zM153.5 207q26.5 -53 72.5 -84l155 446q-18 2 -30 2
q-63 0 -114 -31t-80.5 -87t-29.5 -128q0 -65 26.5 -118zM349 87q63 0 112.5 29.5t78 83t28.5 124.5q0 70 -25 123.5t-69 85.5l-155 -444q20 -2 30 -2z" />
    <glyph glyph-name="Ugrave" unicode="&#xd9;" horiz-adv-x="644" 
d="M103.5 69q-81.5 79 -81.5 259v332h105v-332q0 -241 197 -241q193 0 193 241v332h106v-332q0 -180 -77.5 -259t-221.5 -79q-139 0 -220.5 79zM185 911h94l93 -232h-95z" />
    <glyph glyph-name="Uacute" unicode="&#xda;" horiz-adv-x="644" 
d="M103.5 69q-81.5 79 -81.5 259v332h105v-332q0 -241 197 -241q193 0 193 241v332h106v-332q0 -180 -77.5 -259t-221.5 -79q-139 0 -220.5 79zM293 675l93 232h94l-92 -232h-95z" />
    <glyph glyph-name="Ucircumflex" unicode="&#xdb;" horiz-adv-x="644" 
d="M103.5 69q-81.5 79 -81.5 259v332h105v-332q0 -241 197 -241q193 0 193 241v332h106v-332q0 -180 -77.5 -259t-221.5 -79q-139 0 -220.5 79zM318 937l166 -248h-102l-63 100l-63 -101h-102z" />
    <glyph glyph-name="Udieresis" unicode="&#xdc;" horiz-adv-x="644" 
d="M103.5 69q-81.5 79 -81.5 259v332h105v-332q0 -241 197 -241q193 0 193 241v332h106v-332q0 -180 -77.5 -259t-221.5 -79q-139 0 -220.5 79zM187.5 694.5q-19.5 17.5 -19.5 43.5q0 27 19.5 45.5t51.5 18.5q31 0 50 -18.5t19 -45.5q0 -25 -19.5 -43t-49.5 -18
q-32 0 -51.5 17.5zM343.5 783q19.5 19 50.5 19q32 0 51.5 -18.5t19.5 -45.5q0 -25 -20.5 -43t-50.5 -18q-31 0 -50.5 18t-19.5 43q0 26 19.5 45z" />
    <glyph glyph-name="Yacute" unicode="&#xdd;" horiz-adv-x="624" 
d="M137 660l166 -300l184 300h115l-248 -403v-257h-106v257l-226 403h115zM280 691l93 232h94l-92 -232h-95z" />
    <glyph glyph-name="germandbls" unicode="&#xdf;" horiz-adv-x="555" 
d="M81.5 609q59.5 59 196.5 59q123 0 188 -48t65 -135q0 -46 -22 -89.5t-58 -66.5q38 -24 60 -61.5t22 -83.5q0 -90 -61.5 -137t-184.5 -47h-83v98h83q59 0 90.5 8t45 26.5t13.5 51.5q0 50 -35 77t-114 27h-83v82h83q81 0 113.5 30t32.5 85q0 46 -35.5 70t-119.5 24
q-72 0 -106.5 -16t-43.5 -40.5t-9 -63.5v-459h-97v459q0 91 59.5 150z" />
    <glyph glyph-name="agrave" unicode="&#xe0;" horiz-adv-x="594" 
d="M134.5 23q-53.5 33 -83 92.5t-29.5 135.5q0 77 28.5 137.5t80.5 94.5t121 34q123 0 175 -94v84h105v-410h40v-97h-77q-42 0 -55 13.5t-13 51.5v25q-29 -50 -69 -75t-99 -25q-71 0 -124.5 33zM168 133q41 -46 109 -46q67 0 108.5 46.5t41.5 117.5q0 76 -42 122.5
t-110 46.5q-66 0 -107 -47t-41 -122q0 -72 41 -118zM162 795h94l93 -232h-95z" />
    <glyph glyph-name="aacute" unicode="&#xe1;" horiz-adv-x="594" 
d="M134.5 23q-53.5 33 -83 92.5t-29.5 135.5q0 77 28.5 137.5t80.5 94.5t121 34q123 0 175 -94v84h105v-410h40v-97h-77q-42 0 -55 13.5t-13 51.5v25q-29 -50 -69 -75t-99 -25q-71 0 -124.5 33zM168 133q41 -46 109 -46q67 0 108.5 46.5t41.5 117.5q0 76 -42 122.5
t-110 46.5q-66 0 -107 -47t-41 -122q0 -72 41 -118zM270 559l93 232h94l-92 -232h-95z" />
    <glyph glyph-name="acircumflex" unicode="&#xe2;" horiz-adv-x="594" 
d="M134.5 23q-53.5 33 -83 92.5t-29.5 135.5q0 77 28.5 137.5t80.5 94.5t121 34q123 0 175 -94v84h105v-410h40v-97h-77q-42 0 -55 13.5t-13 51.5v25q-29 -50 -69 -75t-99 -25q-71 0 -124.5 33zM168 133q41 -46 109 -46q67 0 108.5 46.5t41.5 117.5q0 76 -42 122.5
t-110 46.5q-66 0 -107 -47t-41 -122q0 -72 41 -118zM295 821l166 -248h-102l-63 100l-63 -101h-102z" />
    <glyph glyph-name="atilde" unicode="&#xe3;" horiz-adv-x="594" 
d="M134.5 23q-53.5 33 -83 92.5t-29.5 135.5q0 77 28.5 137.5t80.5 94.5t121 34q123 0 175 -94v84h105v-410h40v-97h-77q-42 0 -55 13.5t-13 51.5v25q-29 -50 -69 -75t-99 -25q-71 0 -124.5 33zM168 133q41 -46 109 -46q67 0 108.5 46.5t41.5 117.5q0 76 -42 122.5
t-110 46.5q-66 0 -107 -47t-41 -122q0 -72 41 -118zM158 573q0 44 21.5 70t54.5 26q4 0 16 -2q15 -3 28.5 -12.5t16.5 -11.5q17 -14 26 -16q8 -2 10 -2q12 0 18.5 10.5t11.5 32.5h69q-4 -44 -32 -78.5t-65 -34.5q-21 0 -35 8t-29 22q-18 16 -28 16q-9 0 -12.5 -11t-3.5 -35
h-66q-1 6 -1 18z" />
    <glyph glyph-name="adieresis" unicode="&#xe4;" horiz-adv-x="594" 
d="M134.5 23q-53.5 33 -83 92.5t-29.5 135.5q0 77 28.5 137.5t80.5 94.5t121 34q123 0 175 -94v84h105v-410h40v-97h-77q-42 0 -55 13.5t-13 51.5v25q-29 -50 -69 -75t-99 -25q-71 0 -124.5 33zM168 133q41 -46 109 -46q67 0 108.5 46.5t41.5 117.5q0 76 -42 122.5
t-110 46.5q-66 0 -107 -47t-41 -122q0 -72 41 -118zM164.5 578.5q-19.5 17.5 -19.5 43.5q0 27 19.5 45.5t51.5 18.5q31 0 50 -18.5t19 -45.5q0 -25 -19.5 -43t-49.5 -18q-32 0 -51.5 17.5zM320.5 667q19.5 19 50.5 19q32 0 51.5 -18.5t19.5 -45.5q0 -25 -20.5 -43t-50.5 -18
q-31 0 -50.5 18t-19.5 43q0 26 19.5 45z" />
    <glyph glyph-name="aring" unicode="&#xe5;" horiz-adv-x="594" 
d="M134.5 23q-53.5 33 -83 92.5t-29.5 135.5q0 77 28.5 137.5t80.5 94.5t121 34q123 0 175 -94v84h105v-410h40v-97h-77q-42 0 -55 13.5t-13 51.5v25q-29 -50 -69 -75t-99 -25q-71 0 -124.5 33zM168 133q41 -46 109 -46q67 0 108.5 46.5t41.5 117.5q0 76 -42 122.5
t-110 46.5q-66 0 -107 -47t-41 -122q0 -72 41 -118zM242.5 576q-26.5 15 -41.5 39.5t-15 51.5q0 46 33 77t81 31q51 0 84 -30.5t33 -77.5q0 -43 -33.5 -74.5t-83.5 -31.5q-31 0 -57.5 15zM258 630q17 -16 42 -16q26 0 43.5 16t17.5 38q0 24 -17 39.5t-44 15.5q-25 0 -42 -16
t-17 -39q0 -22 17 -38z" />
    <glyph glyph-name="ae" unicode="&#xe6;" horiz-adv-x="973" 
d="M133.5 22q-53.5 32 -82.5 89.5t-29 131.5q0 75 28 133.5t80 91.5t121 33q62 0 105.5 -24t68.5 -67v81h104v-44q67 69 183 69q68 0 127.5 -34t94.5 -97t33 -145l-404 -1q0 -40 20.5 -75.5t55 -56.5t75.5 -21q54 0 85.5 20.5t48.5 58.5h106q-24 -79 -87.5 -127.5
t-152.5 -48.5q-82 0 -145 41v-30h-76q-42 0 -55 13t-13 50v24q-29 -48 -68.5 -72.5t-98.5 -24.5q-71 0 -124.5 32zM167 129q41 -45 109 -45q67 0 108 45t41 114q0 73 -42 118.5t-109 45.5q-66 0 -107 -46t-41 -118q0 -69 41 -114zM854 312q-13 49 -51 78t-91 29
q-54 0 -91.5 -29t-49.5 -78h283z" />
    <glyph glyph-name="ccedilla" unicode="&#xe7;" horiz-adv-x="549" 
d="M454.5 53q-58.5 -58 -140.5 -67l-10 -17q159 -10 159 -113q0 -51 -25.5 -77t-66.5 -34.5t-103 -8.5l-65 1v81q60 -2 75 -2q58 0 80 9t22 31q0 20 -25 27.5t-89 7.5q-41 0 -66 -1l-1 53l29 47q-96 18 -151 88.5t-55 172.5q0 77 31.5 137.5t91 94.5t140.5 34
q59 0 110.5 -25.5t86 -71t45.5 -103.5h-105q-11 47 -49.5 75t-91.5 28q-74 0 -114 -46.5t-40 -122.5q0 -74 42.5 -121.5t114.5 -47.5q109 0 137 114h106q-14 -85 -72.5 -143z" />
    <glyph glyph-name="egrave" unicode="&#xe8;" horiz-adv-x="553" 
d="M430.5 38.5q-63.5 -48.5 -152.5 -48.5q-76 0 -134.5 34.5t-90 93t-31.5 130.5q0 83 31 143.5t88.5 93t134.5 32.5q68 0 127.5 -34t94.5 -97t33 -145l-404 -1q0 -40 20.5 -75.5t55 -56.5t75.5 -21q54 0 85.5 20.5t48.5 58.5h106q-24 -79 -87.5 -127.5zM418 313
q-13 49 -51 78t-91 29q-54 0 -91.5 -29t-49.5 -78h283zM133 786h94l93 -232h-95z" />
    <glyph glyph-name="eacute" unicode="&#xe9;" horiz-adv-x="553" 
d="M430.5 38.5q-63.5 -48.5 -152.5 -48.5q-76 0 -134.5 34.5t-90 93t-31.5 130.5q0 83 31 143.5t88.5 93t134.5 32.5q68 0 127.5 -34t94.5 -97t33 -145l-404 -1q0 -40 20.5 -75.5t55 -56.5t75.5 -21q54 0 85.5 20.5t48.5 58.5h106q-24 -79 -87.5 -127.5zM418 313
q-13 49 -51 78t-91 29q-54 0 -91.5 -29t-49.5 -78h283zM241 550l93 232h94l-92 -232h-95z" />
    <glyph glyph-name="ecircumflex" unicode="&#xea;" horiz-adv-x="553" 
d="M430.5 38.5q-63.5 -48.5 -152.5 -48.5q-76 0 -134.5 34.5t-90 93t-31.5 130.5q0 83 31 143.5t88.5 93t134.5 32.5q68 0 127.5 -34t94.5 -97t33 -145l-404 -1q0 -40 20.5 -75.5t55 -56.5t75.5 -21q54 0 85.5 20.5t48.5 58.5h106q-24 -79 -87.5 -127.5zM418 313
q-13 49 -51 78t-91 29q-54 0 -91.5 -29t-49.5 -78h283zM266 812l166 -248h-102l-63 100l-63 -101h-102z" />
    <glyph glyph-name="edieresis" unicode="&#xeb;" horiz-adv-x="553" 
d="M430.5 38.5q-63.5 -48.5 -152.5 -48.5q-76 0 -134.5 34.5t-90 93t-31.5 130.5q0 83 31 143.5t88.5 93t134.5 32.5q68 0 127.5 -34t94.5 -97t33 -145l-404 -1q0 -40 20.5 -75.5t55 -56.5t75.5 -21q54 0 85.5 20.5t48.5 58.5h106q-24 -79 -87.5 -127.5zM418 313
q-13 49 -51 78t-91 29q-54 0 -91.5 -29t-49.5 -78h283zM135.5 569.5q-19.5 17.5 -19.5 43.5q0 27 19.5 45.5t51.5 18.5q31 0 50 -18.5t19 -45.5q0 -25 -19.5 -43t-49.5 -18q-32 0 -51.5 17.5zM291.5 658q19.5 19 50.5 19q32 0 51.5 -18.5t19.5 -45.5q0 -25 -20.5 -43
t-50.5 -18q-31 0 -50.5 18t-19.5 43q0 26 19.5 45z" />
    <glyph glyph-name="igrave" unicode="&#xec;" horiz-adv-x="242" 
d="M114 507h105v-507h-105v507zM18 769h94l93 -232h-95z" />
    <glyph glyph-name="iacute" unicode="&#xed;" horiz-adv-x="232" 
d="M28 507h105v-507h-105v507zM39 533l93 232h94l-92 -232h-95z" />
    <glyph glyph-name="icircumflex" unicode="&#xee;" horiz-adv-x="361" 
d="M145 507h105v-507h-105v507zM182 795l166 -248h-102l-63 100l-63 -101h-102z" />
    <glyph glyph-name="idieresis" unicode="&#xef;" horiz-adv-x="332" 
d="M131 507h105v-507h-105v507zM37.5 552.5q-19.5 17.5 -19.5 43.5q0 27 19.5 45.5t51.5 18.5q31 0 50 -18.5t19 -45.5q0 -25 -19.5 -43t-49.5 -18q-32 0 -51.5 17.5zM193.5 641q19.5 19 50.5 19q32 0 51.5 -18.5t19.5 -45.5q0 -25 -20.5 -43t-50.5 -18q-31 0 -50.5 18
t-19.5 43q0 26 19.5 45z" />
    <glyph glyph-name="ntilde" unicode="&#xf1;" horiz-adv-x="518" 
d="M22 507h105v-86q19 42 58.5 68.5t91.5 27.5q105 4 162 -64.5t57 -191.5v-261h-105v261q0 85 -32.5 122t-98.5 37q-59 0 -96.5 -42t-37.5 -122l1 -256h-105v507zM57 571q0 53 26 84.5t66 31.5q6 0 20 -2q14 -3 26 -10t29 -20q23 -17 31 -19t12 -2q15 0 23 13t14 39h84
q-5 -54 -39 -95.5t-79 -41.5q-24 0 -40.5 9.5t-37.5 26.5q-22 20 -34 20q-11 0 -15.5 -13.5t-4.5 -42.5h-80q-1 8 -1 22z" />
    <glyph glyph-name="ograve" unicode="&#xf2;" horiz-adv-x="557" 
d="M145.5 18.5q-58.5 34.5 -91 95t-32.5 136.5q0 77 31.5 137.5t90 95t135.5 34.5t135 -34.5t89.5 -95t31.5 -137.5q0 -75 -31.5 -136t-89.5 -95.5t-133 -34.5q-77 0 -135.5 34.5zM168.5 130q41.5 -48 107.5 -48q68 0 111 47.5t43 120.5q0 75 -42.5 122.5t-111.5 47.5
q-67 0 -108 -47.5t-41 -122.5q0 -72 41.5 -120zM135 788h94l93 -232h-95z" />
    <glyph glyph-name="oacute" unicode="&#xf3;" horiz-adv-x="557" 
d="M145.5 18.5q-58.5 34.5 -91 95t-32.5 136.5q0 77 31.5 137.5t90 95t135.5 34.5t135 -34.5t89.5 -95t31.5 -137.5q0 -75 -31.5 -136t-89.5 -95.5t-133 -34.5q-77 0 -135.5 34.5zM168.5 130q41.5 -48 107.5 -48q68 0 111 47.5t43 120.5q0 75 -42.5 122.5t-111.5 47.5
q-67 0 -108 -47.5t-41 -122.5q0 -72 41.5 -120zM243 552l93 232h94l-92 -232h-95z" />
    <glyph glyph-name="ocircumflex" unicode="&#xf4;" horiz-adv-x="557" 
d="M145.5 18.5q-58.5 34.5 -91 95t-32.5 136.5q0 77 31.5 137.5t90 95t135.5 34.5t135 -34.5t89.5 -95t31.5 -137.5q0 -75 -31.5 -136t-89.5 -95.5t-133 -34.5q-77 0 -135.5 34.5zM168.5 130q41.5 -48 107.5 -48q68 0 111 47.5t43 120.5q0 75 -42.5 122.5t-111.5 47.5
q-67 0 -108 -47.5t-41 -122.5q0 -72 41.5 -120zM268 814l166 -248h-102l-63 100l-63 -101h-102z" />
    <glyph glyph-name="otilde" unicode="&#xf5;" horiz-adv-x="557" 
d="M145.5 18.5q-58.5 34.5 -91 95t-32.5 136.5q0 77 31.5 137.5t90 95t135.5 34.5t135 -34.5t89.5 -95t31.5 -137.5q0 -75 -31.5 -136t-89.5 -95.5t-133 -34.5q-77 0 -135.5 34.5zM168.5 130q41.5 -48 107.5 -48q68 0 111 47.5t43 120.5q0 75 -42.5 122.5t-111.5 47.5
q-67 0 -108 -47.5t-41 -122.5q0 -72 41.5 -120zM101 573q0 53 26 84.5t66 31.5q6 0 20 -2q14 -3 26 -10t29 -20q23 -17 31 -19t12 -2q15 0 23 13t14 39h84q-5 -54 -39 -95.5t-79 -41.5q-24 0 -40.5 9.5t-37.5 26.5q-22 20 -34 20q-11 0 -15.5 -13.5t-4.5 -42.5h-80
q-1 8 -1 22z" />
    <glyph glyph-name="odieresis" unicode="&#xf6;" horiz-adv-x="557" 
d="M145.5 18.5q-58.5 34.5 -91 95t-32.5 136.5q0 77 31.5 137.5t90 95t135.5 34.5t135 -34.5t89.5 -95t31.5 -137.5q0 -75 -31.5 -136t-89.5 -95.5t-133 -34.5q-77 0 -135.5 34.5zM168.5 130q41.5 -48 107.5 -48q68 0 111 47.5t43 120.5q0 75 -42.5 122.5t-111.5 47.5
q-67 0 -108 -47.5t-41 -122.5q0 -72 41.5 -120zM137.5 571.5q-19.5 17.5 -19.5 43.5q0 27 19.5 45.5t51.5 18.5q31 0 50 -18.5t19 -45.5q0 -25 -19.5 -43t-49.5 -18q-32 0 -51.5 17.5zM293.5 660q19.5 19 50.5 19q32 0 51.5 -18.5t19.5 -45.5q0 -25 -20.5 -43t-50.5 -18
q-31 0 -50.5 18t-19.5 43q0 26 19.5 45z" />
    <glyph glyph-name="divide" unicode="&#xf7;" horiz-adv-x="430" 
d="M22 308h386v-98h-386v98zM165.5 436.5q17.5 16.5 45.5 16.5q29 0 46.5 -16.5t17.5 -40.5t-17.5 -40.5t-46.5 -16.5q-28 0 -45.5 16.5t-17.5 40.5t17.5 40.5zM172 168q17 16 46 16t46.5 -16.5t17.5 -40.5t-17.5 -40.5t-46.5 -16.5q-28 0 -45.5 16.5t-17.5 40.5q0 25 17 41
z" />
    <glyph glyph-name="oslash" unicode="&#xf8;" horiz-adv-x="557" 
d="M230 -12l-30 -72h-105l45 106q-56 35 -87 94.5t-31 133.5q0 77 31.5 137.5t90 95t135.5 34.5q29 0 66 -7l28 66h105l-45 -106q49 -35 75.5 -92.5t26.5 -127.5q0 -75 -31.5 -136t-89.5 -95.5t-133 -34.5q-17 0 -51 4zM141 175.5q14 -34.5 39 -57.5l126 299q-15 3 -30 3
q-67 0 -108 -47.5t-41 -122.5q0 -40 14 -74.5zM278 82q68 0 110 47.5t42 120.5q0 72 -39 119l-121 -287h8z" />
    <glyph glyph-name="ugrave" unicode="&#xf9;" horiz-adv-x="556" 
d="M402.5 13.5q-13.5 13.5 -13.5 51.5v21q-20 -44 -62.5 -70t-99.5 -26q-99 0 -152 70t-53 191v256h105v-256q0 -87 31.5 -125.5t97.5 -38.5q59 0 96.5 42t37.5 122l-1 256h106v-410h39v-97h-76q-42 0 -55.5 13.5zM88 797h94l93 -232h-95z" />
    <glyph glyph-name="uacute" unicode="&#xfa;" horiz-adv-x="556" 
d="M402.5 13.5q-13.5 13.5 -13.5 51.5v21q-20 -44 -62.5 -70t-99.5 -26q-99 0 -152 70t-53 191v256h105v-256q0 -87 31.5 -125.5t97.5 -38.5q59 0 96.5 42t37.5 122l-1 256h106v-410h39v-97h-76q-42 0 -55.5 13.5zM196 561l93 232h94l-92 -232h-95z" />
    <glyph glyph-name="ucircumflex" unicode="&#xfb;" horiz-adv-x="556" 
d="M402.5 13.5q-13.5 13.5 -13.5 51.5v21q-20 -44 -62.5 -70t-99.5 -26q-99 0 -152 70t-53 191v256h105v-256q0 -87 31.5 -125.5t97.5 -38.5q59 0 96.5 42t37.5 122l-1 256h106v-410h39v-97h-76q-42 0 -55.5 13.5zM221 823l166 -248h-102l-63 100l-63 -101h-102z" />
    <glyph glyph-name="udieresis" unicode="&#xfc;" horiz-adv-x="556" 
d="M402.5 13.5q-13.5 13.5 -13.5 51.5v21q-20 -44 -62.5 -70t-99.5 -26q-99 0 -152 70t-53 191v256h105v-256q0 -87 31.5 -125.5t97.5 -38.5q59 0 96.5 42t37.5 122l-1 256h106v-410h39v-97h-76q-42 0 -55.5 13.5zM90.5 580.5q-19.5 17.5 -19.5 43.5q0 27 19.5 45.5
t51.5 18.5q31 0 50 -18.5t19 -45.5q0 -25 -19.5 -43t-49.5 -18q-32 0 -51.5 17.5zM246.5 669q19.5 19 50.5 19q32 0 51.5 -18.5t19.5 -45.5q0 -25 -20.5 -43t-50.5 -18q-31 0 -50.5 18t-19.5 43q0 26 19.5 45z" />
    <glyph glyph-name="yacute" unicode="&#xfd;" horiz-adv-x="546" 
d="M128 507l127 -341l164 341h106l-299 -612q-10 -22 -19 -30.5t-18.5 -10t-35.5 -1.5h-110v97h97l56 117l-174 440h106zM255 552l93 232h94l-92 -232h-95z" />
    <glyph glyph-name="ydieresis" unicode="&#xff;" horiz-adv-x="546" 
d="M128 507l127 -341l164 341h106l-299 -612q-10 -22 -19 -30.5t-18.5 -10t-35.5 -1.5h-110v97h97l56 117l-174 440h106zM149.5 571.5q-19.5 17.5 -19.5 43.5q0 27 19.5 45.5t51.5 18.5q31 0 50 -18.5t19 -45.5q0 -25 -19.5 -43t-49.5 -18q-32 0 -51.5 17.5zM305.5 660
q19.5 19 50.5 19q32 0 51.5 -18.5t19.5 -45.5q0 -25 -20.5 -43t-50.5 -18q-31 0 -50.5 18t-19.5 43q0 26 19.5 45z" />
    <glyph glyph-name="dotlessi" unicode="&#x131;" horiz-adv-x="149" 
d="M22 507h105v-507h-105v507z" />
    <glyph glyph-name="OE" unicode="&#x152;" horiz-adv-x="1053" 
d="M186 33q-75 43 -119.5 118.5t-44.5 170.5q0 97 42.5 176t117.5 124.5t169 45.5q65 0 120.5 -22t98.5 -62v5q0 30 4.5 44.5t19 20.5t44.5 6h404v-97h-367v-198h319v-97h-319v-171h366v-97h-403q-30 0 -44.5 6.5t-19 21.5t-4.5 45v3q-44 -41 -100.5 -63.5t-119.5 -22.5
q-89 0 -164 43zM155 203q28 -54 79 -85t115 -31q63 0 112.5 29.5t78 83t28.5 124.5q0 74 -28.5 130t-77.5 86.5t-111 30.5q-63 0 -114 -31t-80.5 -87t-29.5 -128q0 -68 28 -122z" />
    <glyph glyph-name="oe" unicode="&#x153;" horiz-adv-x="943" 
d="M146 18.5q-59 34.5 -91.5 95t-32.5 136.5q0 77 31.5 137.5t90 95t135.5 34.5q63 0 114 -23.5t85 -66.5q33 46 85.5 70.5t119.5 24.5q68 0 127.5 -34t94.5 -97t33 -145l-403 -1v-13q3 -38 24 -70t54 -51t72 -19q54 0 85.5 20.5t48.5 58.5h106q-24 -79 -87.5 -127.5
t-152.5 -48.5q-63 0 -114 24t-85 66q-34 -48 -86.5 -74.5t-117.5 -26.5q-77 0 -136 34.5zM168.5 130q41.5 -48 107.5 -48q65 0 107 43t47 110q-1 6 -1 18v15q-5 69 -47 110.5t-106 41.5q-67 0 -108 -47.5t-41 -122.5q0 -72 41.5 -120zM825 318q-13 49 -51 78t-91 29
q-54 0 -91.5 -29t-49.5 -78h283z" />
    <glyph glyph-name="Scaron" unicode="&#x160;" horiz-adv-x="539" 
d="M349 550q-41 23 -107 23q-116 0 -116 -89q0 -26 14.5 -43t37 -26.5t63.5 -22.5l31 -10q-1 1 36 -11q61 -18 101 -37t69.5 -57t29.5 -99q0 -63 -31 -105t-80.5 -62.5t-104.5 -20.5q-104 0 -171.5 45.5t-96.5 151.5h107q19 -53 59 -76t102 -24q109 0 109 91q0 36 -29 54
t-90 36l-38 12l-32 10q-58 18 -97 37t-67 57t-28 100q0 94 62 140t160 46q102 0 175.5 -47.5t99.5 -147.5h-108q-19 52 -60 75zM97 973h102l63 -102l63 101h102l-166 -248z" />
    <glyph glyph-name="scaron" unicode="&#x161;" horiz-adv-x="439" 
d="M162.5 102.5q25.5 -15.5 75.5 -15.5q40 0 59 10.5t19 39.5q0 27 -23 41t-79 28q-87 21 -138.5 56t-51.5 105q0 76 52.5 112.5t128.5 36.5q69 0 128.5 -37t81.5 -129h-106q-17 69 -101 69q-82 0 -82 -52q0 -26 29.5 -43t86.5 -31q82 -20 128.5 -54t46.5 -101
q0 -72 -49 -110t-122 -38q-199 0 -221 169h106q6 -41 31.5 -56.5zM53 813h102l63 -102l63 101h102l-166 -248z" />
    <glyph glyph-name="Ydieresis" unicode="&#x178;" horiz-adv-x="624" 
d="M137 660l166 -300l184 300h115l-248 -403v-257h-106v257l-226 403h115zM174.5 710.5q-19.5 17.5 -19.5 43.5q0 27 19.5 45.5t51.5 18.5q31 0 50 -18.5t19 -45.5q0 -25 -19.5 -43t-49.5 -18q-32 0 -51.5 17.5zM330.5 799q19.5 19 50.5 19q32 0 51.5 -18.5t19.5 -45.5
q0 -25 -20.5 -43t-50.5 -18q-31 0 -50.5 18t-19.5 43q0 26 19.5 45z" />
    <glyph glyph-name="zcaron" unicode="&#x17e;" horiz-adv-x="470" 
d="M22 507h423l1 -105l-280 -296h277v-106h-418v106l288 295h-291v106zM70 813h102l63 -102l63 101h102l-166 -248z" />
    <glyph glyph-name="gravecomb" unicode="&#x300;" 
d="M22 660h94l93 -232h-95z" />
    <glyph glyph-name="acutecomb" unicode="&#x301;" 
d="M22 428l93 232h94l-92 -232h-95z" />
    <glyph glyph-name="uni0302" unicode="&#x302;" 
d="M186 662l166 -248h-102l-63 100l-63 -101h-102z" />
    <glyph glyph-name="tildecomb" unicode="&#x303;" 
d="M22 545q0 53 26 84.5t66 31.5q6 0 20 -2q14 -3 26 -10t29 -20q23 -17 31 -19t12 -2q15 0 23 13t14 39h84q-5 -54 -39 -95.5t-79 -41.5q-24 0 -40.5 9.5t-37.5 26.5q-22 20 -34 20q-11 0 -15.5 -13.5t-4.5 -42.5h-80q-1 8 -1 22z" />
    <glyph glyph-name="uni0304" unicode="&#x304;" 
d="M22 660h277v-81h-277v81z" />
    <glyph glyph-name="uni0306" unicode="&#x306;" 
d="M112 491q-43 26 -66.5 70.5t-23.5 98.5h95q-1 -44 24 -70.5t63 -26.5q45 0 65.5 26t20.5 71h96q0 -55 -22.5 -99.5t-62.5 -70t-90 -25.5q-56 0 -99 26z" />
    <glyph glyph-name="uni0307" unicode="&#x307;" 
d="M41.5 548.5q-19.5 19.5 -19.5 45.5q0 27 20.5 46.5t53.5 19.5q35 0 54.5 -19.5t19.5 -46.5q0 -26 -20.5 -45.5t-53.5 -19.5q-35 0 -54.5 19.5z" />
    <glyph glyph-name="uni0308" unicode="&#x308;" 
d="M41.5 552.5q-19.5 17.5 -19.5 43.5q0 27 19.5 45.5t51.5 18.5q31 0 50 -18.5t19 -45.5q0 -25 -19.5 -43t-49.5 -18q-32 0 -51.5 17.5zM197.5 641q19.5 19 50.5 19q32 0 51.5 -18.5t19.5 -45.5q0 -25 -20.5 -43t-50.5 -18q-31 0 -50.5 18t-19.5 43q0 26 19.5 45z" />
    <glyph glyph-name="uni030A" unicode="&#x30a;" 
d="M78.5 472q-26.5 15 -41.5 39.5t-15 51.5q0 46 33 77t81 31q51 0 84 -30.5t33 -77.5q0 -43 -33.5 -74.5t-83.5 -31.5q-31 0 -57.5 15zM94 526q17 -16 42 -16q26 0 43.5 16t17.5 38q0 24 -17 39.5t-44 15.5q-25 0 -42 -16t-17 -39q0 -22 17 -38z" />
    <glyph glyph-name="uni030B" unicode="&#x30b;" 
d="M223 660h94l-93 -232h-95zM114 660h95l-93 -232h-94z" />
    <glyph glyph-name="uni030C" unicode="&#x30c;" 
d="M22 662h102l63 -102l63 101h102l-166 -248z" />
    <glyph glyph-name="uni0312" unicode="&#x312;" 
d="M66 513h97l-43 -192h-98z" />
    <glyph glyph-name="uni0326" unicode="&#x326;" 
d="M116 132h84l-93 -248h-85z" />
    <glyph glyph-name="uni0327" unicode="&#x327;" 
d="M101 -72q58 0 80 9t22 31q0 20 -25 27.5t-89 7.5q-41 0 -66 -1l-1 53l66 106h89l-50 -80q159 -10 159 -113q0 -51 -25.5 -77t-66.5 -34.5t-103 -8.5l-65 1v81q60 -2 75 -2z" />
    <glyph glyph-name="uni0328" unicode="&#x328;" 
d="M178 -125q-50 0 -90.5 26t-56.5 71q-9 25 -9 50q0 48 30.5 86t74.5 53l37 -3v-63q-26 -9 -42.5 -29.5t-16.5 -43.5q0 -6 4 -20q15 -41 68 -41q29 0 71 16l23 -77q-44 -25 -93 -25z" />
    <glyph glyph-name="endash" unicode="&#x2013;" horiz-adv-x="476" 
d="M22 433h432v-98h-432v98z" />
    <glyph glyph-name="emdash" unicode="&#x2014;" horiz-adv-x="539" 
d="M22 433h495v-98h-495v98z" />
    <glyph glyph-name="quoteleft" unicode="&#x2018;" horiz-adv-x="201" 
d="M22 660h99l58 -261h-98z" />
    <glyph glyph-name="quoteright" unicode="&#x2019;" horiz-adv-x="201" 
d="M22 399l58 261h99l-59 -261h-98z" />
    <glyph glyph-name="quotesinglbase" unicode="&#x201a;" horiz-adv-x="200" 
d="M66 66h97l-43 -192h-98z" />
    <glyph glyph-name="quotedblleft" unicode="&#x201c;" horiz-adv-x="331" 
d="M22 660h99l58 -261h-98zM153 659h99l58 -261h-98z" />
    <glyph glyph-name="quotedblright" unicode="&#x201d;" horiz-adv-x="323" 
d="M144 399l58 261h99l-59 -261h-98zM80 660h99l-59 -261h-98z" />
    <glyph glyph-name="quotedblbase" unicode="&#x201e;" horiz-adv-x="327" 
d="M66 66h97l-43 -192h-98zM193 66h97l-43 -192h-98z" />
    <glyph glyph-name="dagger" unicode="&#x2020;" horiz-adv-x="451" 
d="M177 436h-155v98h154v126h98v-126h156v-98h-156v-279h-97v279z" />
    <glyph glyph-name="bullet" unicode="&#x2022;" horiz-adv-x="231" 
d="M48 234.5q-26 24.5 -26 59.5q0 36 26 60t67 24q42 0 68 -24t26 -60q0 -35 -26 -59.5t-68 -24.5q-41 0 -67 24.5z" />
    <glyph glyph-name="ellipsis" unicode="&#x2026;" horiz-adv-x="518" 
d="M42 19q-20 19 -20 46q0 28 20 46.5t52 18.5t52 -18.5t20 -46.5q0 -27 -20 -46t-52 -19t-52 19zM207 19q-20 19 -20 46q0 28 20 46.5t52 18.5t52 -18.5t20 -46.5q0 -27 -20 -46t-52 -19t-52 19zM372 19q-20 19 -20 46q0 28 20 46.5t52 18.5t52 -18.5t20 -46.5
q0 -27 -20 -46t-52 -19t-52 19z" />
    <glyph glyph-name="perthousand" unicode="&#x2030;" horiz-adv-x="1661" 
d="M141 143.5q-53 32.5 -86 96.5t-33 153t33 152.5t86 95.5t113 32q64 0 118 -32t86.5 -95.5t32.5 -152.5q0 -90 -32.5 -153.5t-86.5 -96t-118 -32.5q-60 0 -113 32.5zM149.5 240.5q40.5 -49.5 104.5 -49.5q69 0 110 49t41 153q0 103 -41 151.5t-110 48.5q-63 0 -104 -49.5
t-41 -150.5q0 -103 40.5 -152.5zM661 659h105l-278 -660h-105zM705 425.5q33 63.5 86 95.5t113 32q64 0 118 -32t86.5 -95.5t32.5 -152.5q0 -90 -32.5 -153.5t-86.5 -96t-118 -32.5q-60 0 -113 32.5t-86 96.5t-33 153t33 152.5zM799.5 120.5q40.5 -49.5 104.5 -49.5
q69 0 110 49t41 153q0 103 -41 151.5t-110 48.5q-63 0 -104 -49.5t-41 -150.5q0 -103 40.5 -152.5zM1202 434.5q33 63.5 86 95.5t113 32q64 0 118 -32t87 -95.5t33 -152.5t-32.5 -153t-87 -96.5t-118.5 -32.5q-60 0 -113 32.5t-86 96.5t-33 153t33 152.5zM1297 130
q41 -50 104 -50q69 0 110 49t41 153q0 103 -41 151.5t-110 48.5q-63 0 -104 -49.5t-41 -150.5q0 -102 41 -152z" />
    <glyph glyph-name="guilsinglleft" unicode="&#x2039;" horiz-adv-x="403" 
d="M22 281l248 215h112l-248 -218l236 -212h-110z" />
    <glyph glyph-name="guilsinglright" unicode="&#x203a;" horiz-adv-x="403" 
d="M33 66l236 212l-248 218h112l248 -215l-238 -215h-110z" />
    <glyph glyph-name="fraction" unicode="&#x2044;" horiz-adv-x="427" 
d="M300 660h105l-278 -660h-105z" />
    <glyph glyph-name="Euro" unicode="&#x20ac;" horiz-adv-x="787" 
d="M703 113.5q-46 -58.5 -112 -91t-141 -32.5q-105 0 -189 59t-119 156h-120v97h100v20q0 22 1 32h-100v98h122q34 98 116 157t190 59q78 0 143 -31.5t109 -88t61 -130.5h-108q-23 73 -78 113.5t-127 40.5q-63 0 -114.5 -32.5t-78.5 -87.5h150v-98h-180q-2 -18 -2 -29
q0 -7 2 -23h179v-97h-150q26 -55 77.5 -87t115.5 -32q77 0 133 43.5t76 118.5h107q-17 -76 -63 -134.5z" />
    <glyph glyph-name="trademark" unicode="&#x2122;" horiz-adv-x="643" 
d="M369 529v-190h-69v251h-112v-251h-69v251h-97v70h332l104 -130l109 130h54v-321h-70v193l-78 -92h-31z" />
    <glyph glyph-name="minus" unicode="&#x2212;" horiz-adv-x="430" 
d="M22 308h386v-98h-386v98z" />
    <glyph glyph-name="BeeType" horiz-adv-x="641" 
d="M94 115.5q-32 12.5 -54 36t-22 54.5q0 40 34 78t94.5 65t134.5 35l9 1q-7 8 -13 22t-6 24q0 24 18 42q5 5 5 7q0 4 -4 8q-4 5 -38 45q-2 2 -2 7t3.5 8.5t7.5 3.5q7 0 11 -7l30 -49q4 -7 6 -8t9 0q5 2 14 2q8 0 13 -2l5 -1q2 0 4 3t4 5l32 51q5 5 9 5q6 0 8.5 -6t-1.5 -12
l-17 -22l-19 -26q-3 -4 3 -10q20 -23 20 -45q0 -19 -18 -47q65 -10 122.5 -36.5t92 -62.5t34.5 -74q0 -28 -22 -50.5t-54.5 -35.5t-59.5 -13q-42 0 -82 28t-64 73l-16 29l-18 -32q-24 -43 -64 -74.5t-88 -31.5q-29 0 -61 12.5zM61.5 167q17.5 -18 43.5 -28t50 -10
q74 0 130 95q3 5 11 19t15.5 23t13.5 9q7 0 14 -9t14 -21.5t11 -19.5q28 -44 58 -65.5t65 -21.5q21 0 47.5 10t44.5 27t17 36q-2 43 -50.5 77t-112.5 53t-108 19q-57 0 -123.5 -20t-112 -55t-45.5 -78q0 -22 17.5 -40z" />
    </font>
</defs>
</svg>
